<svg version="1.2" baseProfile="tiny-ps" xmlns="http://www.w3.org/2000/svg" viewBox="0 0 1200 1200" width="171" height="171">
	<title>assets-ai</title>
	<defs>
		<clipPath clipPathUnits="userSpaceOnUse" id="cp1">
			<path d="m296.47 941.44h-41.15c-4.01 0-7.32-3.16-7.49-7.17l-3.43-73.08h63l-3.43 73.08c-0.18 4.01-3.48 7.17-7.49 7.17z" />
		</clipPath>
	</defs>
	<style>
		tspan { white-space:pre }
		.s0 { fill: #e9efff } 
		.s1 { opacity: .1;fill: #6776ed } 
		.s2 { fill: #fdc5b6 } 
		.s3 { fill: #171e3f } 
		.s4 { fill: #ff7383 } 
		.s5 { fill: #7b95f2 } 
		.s6 { fill: #bcccff } 
		.s7 { fill: #ffd4f4 } 
		.s8 { fill: #ffcc8a } 
		.s9 { fill: #6776ed } 
		.s10 { opacity: .3;fill: #171e3f } 
		.s11 { fill: #a66070 } 
		.s12 { fill: none } 
		.s13 { opacity: .2;fill: #e9efff } 
		.s14 { fill: #484472 } 
	</style>
	<g id="Layer 1">
		<g id="&lt;Group&gt;">
			<g id="&lt;Group&gt;">
				<path id="&lt;Path&gt;" class="s0" d="m971.11 941.45h-802.91c-46-94.55 114.2-144.66 92.43-234.8c-23.13-95.8-78.38-95.8-49.47-195.24c53.07-182.47 356.59-278.42 444.53-157.84c39.48 54.14 87.19 138.01 318.34 199.42c231.15 61.4 133.16 388.45-2.93 388.45z" />
				<path id="&lt;Path&gt;" class="s0" d="m974.04 445c-29.84 71.63-282.84-30.39-249.34-156.19c33.5-125.81 326.32-28.56 249.34 156.19z" />
				<path id="&lt;Path&gt;" class="s1" d="m923.53 941.45h-687.63c-107.24-180.72 169.76-197.12 270.3-162.73c119.05 40.72 167-87.24 295.5-77.66c260.66 19.43 182.12 180.1 121.83 240.39z" />
			</g>
			<g id="&lt;Group&gt;">
				<g id="&lt;Group&gt;">
					<g id="&lt;Group&gt;">
						<path id="&lt;Path&gt;" class="s2" d="m735.32 721.65l13.2-31.86l0.66-25.91l16.14-32.84c6.32 1.17 9.58 8.25 6.35 13.8l-7.1 13.9l4 14.1l21.84-43.53c5.99-7.9 14.34-2.03 12.58 4.31c7.95-2.5 11.49-0.03 10.61 7.41c7.29-3.29 9.94-0.73 7.96 7.7l-7.44 15.35c2.55-5.26 10.02-2.63 8.81 5.1c-0.81 5.15-8.36 17.89-22.64 38.22l-30.37 29.9l-34.6-15.65z" />
						<g id="&lt;Group&gt;">
							<path id="&lt;Path&gt;" class="s3" d="m787.62 665.78c-0.35 0.73-1.07 1.2-1.88 1.23l17.25-33.38l-15.37 32.15z" />
							<path id="&lt;Path&gt;" class="s3" d="m798.48 672l-1.87 0.07l16.98-31.04l-15.11 30.97z" />
							<path id="&lt;Path&gt;" class="s3" d="m802.81 683.11l-0.94 0.03l12.24-19.06l-11.3 19.03z" />
						</g>
					</g>
					<path id="&lt;Path&gt;" class="s3" d="m500.17 610.85v64.25c-41.63-23.5-40.05-119.7-23.12-139.56c11.33-13.29 22.71-15.85 34.13-7.69c11.5-20.5 70.13-12.75 94.63 4.75c24.5 17.5 10.11 51.85-7.76 82.5l-97.88-4.25z" />
					<path id="&lt;Path&gt;" class="s2" d="m563.92 722.44h-63.75v-81.75h63.75v81.75z" />
					<path id="&lt;Path&gt;" class="s3" d="m563.92 640.69v54.79c-48.51 2.63-63.75-33.75-63.75-54.79h63.75z" />
					<path id="&lt;Path&gt;" class="s4" d="m459.67 701.85h150.75v246.75h-194.79l44.04-246.75z" />
					<path id="&lt;Path&gt;" class="s2" d="m532.04 745.35h0c-17.6 0-31.87-14.27-31.87-31.88v-11.63h63.75v11.63c0 17.6-14.27 31.88-31.88 31.88z" />
					<path id="&lt;Path&gt;" class="s2" d="m547.04 681.56h0c-28.17 0-51-22.83-51-51v-66h102v66c0 28.17-22.83 51-51 51z" />
					<g id="&lt;Group&gt;">
						<path id="&lt;Path&gt;" class="s2" d="m513.02 894.6c14.52 0.67 32.61 4.5 54.28 11.5l25 11.19c5.17 2.32 8.5 7.46 8.5 13.12v5.39h-96.5l8.72-41.21z" />
						<g id="&lt;Group&gt;">
							<path id="&lt;Path&gt;" class="s3" d="m583.36 930.19h-1.31c-4.88-4.03-18.06-7.08-39.56-9.15c27.25 2.19 40.88 5.24 40.88 9.15z" />
							<path id="&lt;Path&gt;" class="s3" d="m593.18 930.19h-1.38c-1.13-4.41-18.25-11.59-31.38-14.09c19 2.96 29.92 7.65 32.76 14.09z" />
						</g>
					</g>
					<path id="&lt;Path&gt;" class="s2" d="m504.8 628.1c0 9.53-6.04 17.25-13.5 17.25c-7.46 0-13.5-7.72-13.5-17.25c0-9.53 6.04-17.25 13.5-17.25c7.46 0 13.5 7.72 13.5 17.25z" />
					<path id="&lt;Path&gt;" class="s4" d="m349.04 899.48c0-46.84 66.58-197.63 110.63-197.63l-12 123.38l-20.87 56.21l-77.76 18.04z" />
					<path id="&lt;Path&gt;" class="s3" d="m470.37 885.9l-48.07-4.46l33.75-86.05c-10.5 57.21-3.56 86.05 14.32 90.51z" />
					<path id="&lt;Path&gt;" class="s4" d="m510.29 941.44h-131.25c-16.57 0-30-13.43-30-30v-11.96l73.26-18.04l96.99 9l-9 51z" />
					<path id="&lt;Path&gt;" class="s3" d="m528.3 580.1c0 29.5-17 34-17.5 53.5c-6.68-13.7-11.59-20.92-14.76-21.65v-47.38h102v23.66c-43.37 20.63-30.62-8.06-69.74-8.06v-0.06z" />
					<path id="&lt;Path&gt;" class="s4" d="m610.42 701.85c28.59 0 50.38 36.5 65.38 109.5l56.59-101.08l46.8 24.33l-82.7 152.32c-4.65 7.79-13.05 12.55-22.12 12.55h0c-9.7 0-18.58-5.45-22.97-14.11l-40.98-80.8v-102.72z" />
				</g>
				<g id="&lt;Group&gt;">
					<path id="&lt;Path&gt;" class="s5" d="m813.43 513.38h-135c-4.14 0-7.5-3.36-7.5-7.5v-60c0-4.14 3.36-7.5 7.5-7.5h135c4.14 0 7.5 3.36 7.5 7.5v60c0 4.14-3.36 7.5-7.5 7.5z" />
					<g id="&lt;Group&gt;">
						<path id="&lt;Path&gt;" class="s0" d="m807.81 478.13h-123.75v-4.5h123.75v4.5z" />
						<path id="&lt;Path&gt;" class="s0" d="m807.81 460.31h-123.75v-4.5h123.75v4.5z" />
						<path id="&lt;Path&gt;" class="s0" d="m745.93 495.94h-61.88v-4.5h61.88v4.5z" />
					</g>
					<path id="&lt;Path&gt;" class="s5" d="m721.87 513.38l-32.06 32.06v-32.06h32.06z" />
				</g>
				<g id="&lt;Group&gt;">
					<path id="&lt;Path&gt;" class="s3" d="m412 538.5v13.1l-229.75-18.06l201-11.25l28.75 16.21z" />
					<g id="&lt;Group&gt;">
						<path id="&lt;Path&gt;" class="s5" d="m289 522.29h-27.11c-2.99 0-5.42-2.43-5.42-5.42v-113.85c0-2.99 2.43-5.42 5.42-5.42h27.11c2.99 0 5.42 2.43 5.42 5.42v113.85c0 2.99-2.43 5.42-5.42 5.42z" />
						<path id="&lt;Path&gt;" class="s6" d="m286.29 460.96h-21.69v-48.79h21.69v48.79z" />
						<path id="&lt;Path&gt;" class="s6" d="m286.29 508.74h-21.69v-24.4h21.69v24.4z" />
					</g>
					<g id="&lt;Group&gt;">
						<path id="&lt;Path&gt;" class="s4" d="m251.05 522.29h-27.11c-2.99 0-5.42-2.43-5.42-5.42v-113.85c0-2.99 2.43-5.42 5.42-5.42h27.11c2.99 0 5.42 2.43 5.42 5.42v113.85c0 2.99-2.43 5.42-5.42 5.42z" />
						<path id="&lt;Path&gt;" class="s7" d="m248.34 460.96h-21.69v-48.79h21.69v48.79z" />
						<path id="&lt;Path&gt;" class="s7" d="m248.34 508.74h-21.69v-24.4h21.69v24.4z" />
					</g>
					<path id="&lt;Path&gt;" class="s8" d="m383.25 533.54h-201v-11.25h201v11.25z" />
				</g>
				<g id="&lt;Group&gt;">
					<path id="&lt;Path&gt;" class="s9" d="m314.89 854.44c0 3.73-3.02 6.75-6.75 6.75h-64.5c-3.73 0-6.75-3.02-6.75-6.75c0-3.73 3.02-6.75 6.75-6.75h64.5c3.73 0 6.75 3.02 6.75 6.75z" />
					<path id="&lt;Path&gt;" class="s9" d="m296.47 941.44h-41.15c-4.01 0-7.32-3.16-7.49-7.17l-3.43-73.08h63l-3.43 73.08c-0.18 4.01-3.48 7.17-7.49 7.17z" />
					<path id="&lt;Path&gt;" class="s10" d="m314.89 854.44c0 3.73-3.02 6.75-6.75 6.75h-14.06c3.73 0 6.75-3.02 6.75-6.75c0-3.73-3.02-6.75-6.75-6.75h14.06c3.73 0 6.75 3.02 6.75 6.75z" />
					<path id="&lt;Path&gt;" class="s9" d="m305.89 847.69h-60c1.8-4.95 6.51-8.25 11.78-8.25h36.44c5.27 0 9.98 3.3 11.78 8.25z" />
					<path id="&lt;Path&gt;" class="s10" d="m305.89 847.69h-9c-1.8-4.95-6.51-8.25-11.78-8.25h9c5.27 0 9.98 3.3 11.78 8.25z" />
					<g id="&lt;Clip Group&gt;" clip-path="url(#cp1)">
						<path id="&lt;Path&gt;" class="s3" d="m314.89 858.94c0 3.73-3.02 6.75-6.75 6.75h-64.5c-3.73 0-6.75-3.02-6.75-6.75c0-3.73 3.02-6.75 6.75-6.75h64.5c3.73 0 6.75 3.02 6.75 6.75z" />
						<path id="&lt;Path&gt;" class="s11" d="m314.52 915.94h-77.25v-29.25h77.25v29.25z" />
						<path id="&lt;Compound Path&gt;" class="s12" d="" />
					</g>
					<path id="&lt;Path&gt;" class="s13" d="m263.39 861.19l3.43 73.08c0.17 4.01 3.48 7.17 7.49 7.17h-9.5c-4.01 0-7.31-3.16-7.49-7.17l-3.44-73.08h9.5z" />
					<path id="&lt;Path&gt;" class="s10" d="m307.39 861.19l-3.43 73.08c-0.18 4.01-3.48 7.17-7.49 7.17h-9.5c4.01 0 7.31-3.16 7.49-7.17l3.44-73.08h9.49z" />
					<path id="&lt;Path&gt;" class="s13" d="m263.39 861.19h-9.5l-0.75-13.5h9.5l0.75 13.5z" />
					<path id="&lt;Path&gt;" class="s13" d="m253.14 847.69c0-4.56 3.69-8.25 8.25-8.25h15.36l-1.09 0.42c-1.26 0.49-2.6 0.74-3.95 0.74h-1.87c-3.91 0-7.09 3.17-7.09 7.09h-9.61z" />
				</g>
				<g id="&lt;Group&gt;">
					<path id="&lt;Path&gt;" class="s8" d="m90 941.45h1020v25h-1020v-25z" />
					<g id="&lt;Group&gt;" style="opacity: .2">
						<path id="&lt;Path&gt;" class="s3" d="m90 941.45h320v25h-320v-25z" />
					</g>
				</g>
				<g id="&lt;Group&gt;">
					<path id="&lt;Path&gt;" class="s14" d="m733.25 941.44h-195v-11.25h195v11.25z" />
					<path id="&lt;Path&gt;" class="s3" d="m934.28 941.44h-201.03v-11.25h201.03v11.25z" />
					<g id="&lt;Group&gt;">
						<path id="&lt;Path&gt;" class="s3" d="m936.41 933.99l-8.16-3.8l81.46-174.69c0.53-1.13 1.86-1.61 2.99-1.09l6.12 2.85c1.13 0.53 1.61 1.86 1.09 2.99l-80.51 172.65c-0.53 1.13-1.86 1.61-2.99 1.09z" />
						<path id="&lt;Path&gt;" class="s3" d="m1011.72 754.2l-82.22 175.99h-194.66l81.88-175.99l195 0z" />
						<path id="&lt;Path&gt;" class="s14" d="m741.41 933.99l-6.12-2.85c-1.13-0.53-1.61-1.86-1.09-2.99l80.51-172.65c0.53-1.13 1.86-1.61 2.99-1.09l6.12 2.85c1.13 0.53 1.61 1.86 1.09 2.99l-80.51 172.65c-0.53 1.13-1.86 1.61-2.99 1.09z" />
					</g>
					<path id="&lt;Path&gt;" class="s0" d="m891.33 850.86c-3.94 8.45-13.52 12.31-21.41 8.64c-7.88-3.68-11.08-13.5-7.14-21.95c3.94-8.45 13.52-12.31 21.41-8.64c7.88 3.68 11.08 13.5 7.14 21.95z" />
				</g>
				<g id="&lt;Group&gt;">
					<path id="&lt;Path&gt;" class="s9" d="m1080.2 670.35h-135c-4.14 0-7.5-3.36-7.5-7.5v-60c0-4.14 3.36-7.5 7.5-7.5h135c4.14 0 7.5 3.36 7.5 7.5v60c0 4.14-3.36 7.5-7.5 7.5z" />
					<path id="&lt;Path&gt;" class="s9" d="m988.64 670.35l-32.06 32.06v-32.06h32.06z" />
					<g id="&lt;Group&gt;">
						<path id="&lt;Path&gt;" class="s0" d="m1020.2 632.85c0 4.14-3.36 7.5-7.5 7.5c-4.14 0-7.5-3.36-7.5-7.5c0-4.14 3.36-7.5 7.5-7.5c4.14 0 7.5 3.36 7.5 7.5z" />
						<path id="&lt;Path&gt;" class="s0" d="m1060.7 632.85c0 4.14-3.36 7.5-7.5 7.5c-4.14 0-7.5-3.36-7.5-7.5c0-4.14 3.36-7.5 7.5-7.5c4.14 0 7.5 3.36 7.5 7.5z" />
						<path id="&lt;Path&gt;" class="s0" d="m972.2 625.35c4.14 0 7.5 3.36 7.5 7.5c0 4.14-3.36 7.5-7.5 7.5c-4.14 0-7.5-3.36-7.5-7.5c0-4.14 3.36-7.5 7.5-7.5z" />
					</g>
				</g>
				<g id="&lt;Group&gt;">
					<path id="&lt;Compound Path&gt;" fill-rule="evenodd" class="s6" d="m494.42 404.46c0 8.01-6.49 14.5-14.5 14.5c-8.01 0-14.5-6.49-14.5-14.5c0-8.01 6.49-14.5 14.5-14.5c8.01 0 14.5 6.49 14.5 14.5zm-5.5 0c0-4.96-4.04-9-9-9c-4.96 0-9 4.04-9 9c0 4.96 4.04 9 9 9c4.96 0 9-4.04 9-9z" />
					<path id="&lt;Compound Path&gt;" fill-rule="evenodd" class="s6" d="m729.5 337.71c0 8.01-6.49 14.5-14.5 14.5c-8.01 0-14.5-6.49-14.5-14.5c0-8.01 6.49-14.5 14.5-14.5c8.01 0 14.5 6.49 14.5 14.5zm-5.5 0c0-4.96-4.04-9-9-9c-4.96 0-9 4.04-9 9c0 4.96 4.04 9 9 9c4.96 0 9-4.04 9-9z" />
					<path id="&lt;Path&gt;" class="s6" d="m988.64 504.76c0 4.54-3.68 8.22-8.22 8.22c-4.54 0-8.22-3.68-8.22-8.22c0-4.54 3.68-8.22 8.22-8.22c4.54 0 8.22 3.68 8.22 8.22z" />
					<path id="&lt;Path&gt;" class="s6" d="m762.37 564.56c0 4.54-3.68 8.22-8.22 8.22c-4.54 0-8.22-3.68-8.22-8.22c0-4.54 3.68-8.22 8.22-8.22c4.54 0 8.22 3.68 8.22 8.22z" />
				</g>
				<g id="&lt;Group&gt;">
					<path id="&lt;Compound Path&gt;" fill-rule="evenodd" class="s6" d="m975.74 285.1c0 52.47-42.53 95-95 95c-52.47 0-95-42.53-95-95c0-52.47 42.53-95 95-95c52.47 0 95 42.53 95 95zm-12 0c0-45.77-37.23-83-83-83c-45.77 0-83 37.23-83 83c0 45.77 37.23 83 83 83c45.77 0 83-37.23 83-83z" />
					<path id="&lt;Path&gt;" class="s6" d="m889.24 285.1c0 4.69-3.81 8.5-8.5 8.5c-4.69 0-8.5-3.81-8.5-8.5c0-4.69 3.81-8.5 8.5-8.5c4.69 0 8.5 3.81 8.5 8.5z" />
					<path id="&lt;Path&gt;" class="s6" d="m880.74 279.6c-1.66 0-3-1.34-3-3v-37.1c0-1.66 1.34-3 3-3c1.66 0 3 1.34 3 3v37.1c0 1.66-1.34 3-3 3z" />
					<path id="&lt;Path&gt;" class="s6" d="m832.42 336.42c-0.77 0-1.54-0.29-2.12-0.88c-1.17-1.17-1.17-3.07 0-4.24l48.32-48.32c1.17-1.17 3.07-1.17 4.24 0c1.17 1.17 1.17 3.07 0 4.24l-48.32 48.32c-0.59 0.59-1.35 0.88-2.12 0.88z" />
					<path id="&lt;Path&gt;" class="s6" d="m880.74 371.1c-1.66 0-3-1.34-3-3v-12.1c0-1.66 1.34-3 3-3c1.66 0 3 1.34 3 3v12.1c0 1.66-1.34 3-3 3z" />
					<path id="&lt;Path&gt;" class="s6" d="m880.74 217.21c-1.66 0-3-1.34-3-3v-12.1c0-1.66 1.34-3 3-3c1.66 0 3 1.34 3 3v12.1c0 1.66-1.34 3-3 3z" />
					<path id="&lt;Path&gt;" class="s6" d="m809.84 288.11h-12.1c-1.66 0-3-1.34-3-3c0-1.66 1.34-3 3-3h12.1c1.66 0 3 1.34 3 3c0 1.66-1.34 3-3 3z" />
					<path id="&lt;Path&gt;" class="s6" d="m963.74 288.11h-12.1c-1.66 0-3-1.34-3-3c0-1.66 1.34-3 3-3h12.1c1.66 0 3 1.34 3 3c0 1.66-1.34 3-3 3z" />
				</g>
			</g>
		</g>
	</g>
</svg>