<svg version="1.2" baseProfile="tiny-ps" xmlns="http://www.w3.org/2000/svg" viewBox="0 0 1650 1650" width="171" height="171">
	<title>awards-ai</title>
	<style>
		tspan { white-space:pre }
		.s0 { fill: #f4cfb4 } 
		.s1 { fill: #f2f2f2 } 
		.s2 { fill: #e8c7b1 } 
		.s3 { fill: #5b3324 } 
		.s4 { fill: #512c21 } 
		.s5 { fill: #e5e4e3 } 
		.s6 { fill: #e55c45 } 
		.s7 { fill: #262626 } 
		.s8 { fill: #261d19 } 
		.s9 { fill: #ffffff } 
		.s10 { fill: #562f22 } 
		.s11 { fill: #e5c3ac } 
		.s12 { fill: #663629 } 
		.s13 { fill: #663a27 } 
		.s14 { fill: #7c4633 } 
		.s15 { fill: #d8544a } 
		.s16 { fill: #efc849 } 
		.s17 { fill: #122a47 } 
		.s18 { fill: #102438 } 
		.s19 { fill: #e2b647 } 
		.s20 { fill: #bf952c } 
		.s21 { fill: #e0b438 } 
		.s22 { fill: #ddb33e } 
		.s23 { fill: #dbac42 } 
		.s24 { fill: #f7be9f } 
		.s25 { fill: #303030 } 
		.s26 { fill: #ededed } 
		.s27 { fill: #e8c5af } 
	</style>
	<g id="图层 1">
		<g id="&lt;Group&gt;">
			<g id="&lt;Group&gt;">
				<path id="&lt;Path&gt;" class="s0" d="m685.76 621.11l-68.79-250.06l62 9.47l62.01 221.9l-55.22 18.69z" />
			</g>
			<g id="&lt;Group&gt;">
				<g id="&lt;Group&gt;">
					<path id="&lt;Path&gt;" class="s1" d="m1147.15 783.23l-50.11 33.25c-8.37-32.89-42.07-67.7-56-79.4l37.43-44.57c0.92 0.77 22.75 19.22 42.86 46.26c11.25 15.12 19.85 29.96 25.82 44.46z" />
				</g>
			</g>
			<g id="&lt;Group&gt;">
				<g id="&lt;Group&gt;">
					<g id="&lt;Group&gt;">
						<g id="&lt;Group&gt;">
							<path id="&lt;Path&gt;" class="s0" d="m787.42 511.13c-3.7 17.86-21.19 29.35-39.05 25.64l-0.43-0.09c-17.87-3.7-29.35-21.19-25.64-39.05l5.15-24.86c3.7-17.87 21.19-29.35 39.05-25.64l0.43 0.09c17.87 3.7 29.35 21.19 25.64 39.05l-5.15 24.86z" />
						</g>
					</g>
				</g>
				<g id="&lt;Group&gt;">
					<g id="&lt;Group&gt;">
						<g id="&lt;Group&gt;">
							<path id="&lt;Path&gt;" class="s2" d="m778.47 513.34c-2.33 11.22-13.31 18.43-24.52 16.1l-0.08-0.02c-11.22-2.33-18.43-13.3-16.1-24.52l5.42-26.13c2.32-11.22 13.3-18.43 24.52-16.1l0.08 0.02c11.22 2.32 18.43 13.3 16.1 24.52l-5.42 26.14z" />
						</g>
					</g>
				</g>
			</g>
			<g id="&lt;Group&gt;">
				<g id="&lt;Group&gt;">
					<g id="&lt;Group&gt;">
						<g id="&lt;Group&gt;">
							<path id="&lt;Path&gt;" class="s0" d="m1168.44 590.11c-3.7 17.86-21.19 29.35-39.06 25.64l-0.43-0.09c-17.87-3.7-29.35-21.19-25.64-39.05l5.15-24.86c3.7-17.86 21.19-29.35 39.05-25.64l0.43 0.09c17.87 3.7 29.35 21.19 25.65 39.06l-5.15 24.86z" />
						</g>
					</g>
				</g>
				<g id="&lt;Group&gt;">
					<g id="&lt;Group&gt;">
						<g id="&lt;Group&gt;">
							<path id="&lt;Path&gt;" class="s2" d="m1152.97 590.97c-2.32 11.22-13.3 18.43-24.52 16.1l-0.08-0.01c-11.22-2.33-18.43-13.31-16.1-24.52l5.41-26.14c2.33-11.22 13.31-18.43 24.52-16.1l0.08 0.02c11.22 2.32 18.43 13.3 16.1 24.52l-5.42 26.14z" />
						</g>
					</g>
				</g>
			</g>
			<g id="&lt;Group&gt;">
				<g id="&lt;Group&gt;">
					<g id="&lt;Group&gt;">
						<path id="&lt;Path&gt;" class="s3" d="m789.63 283.17c4.42-28.9 16.65-46.24 36.68-52.03c-15.49 31.84-0.38 47.26 45.33 46.27c-53.93 17.59-81.48 20.51-82.68 8.75" />
					</g>
				</g>
			</g>
			<g id="&lt;Group&gt;">
				<g id="&lt;Group&gt;">
					<g id="&lt;Group&gt;">
						<path id="&lt;Path&gt;" class="s4" d="m799.55 254.75c3.75 13.2 15.72 18.52 35.92 15.97c-15.76 17.38-29.36 15.56-40.8-5.45c1.92-4.73 3.54-8.23 4.88-10.51z" />
					</g>
				</g>
			</g>
			<g id="&lt;Group&gt;">
				<g id="&lt;Group&gt;">
					<g id="&lt;Group&gt;">
						<path id="&lt;Path&gt;" class="s1" d="m740.98 602.42l32.98 119.86l-56.12 15.44l-32.08-116.61l55.22-18.69z" />
					</g>
				</g>
			</g>
			<g id="&lt;Group&gt;">
				<g id="&lt;Group&gt;">
					<g id="&lt;Group&gt;">
						<path id="&lt;Path&gt;" class="s0" d="m1104.71 709.14l-377.05-81.57l51.63-245.26c12.92-62.32 73.9-102.32 136.22-89.4l151.21 31.34c62.32 12.92 102.47 73.81 89.55 136.13l-51.56 248.75z" />
					</g>
				</g>
			</g>
			<g id="&lt;Group&gt;">
				<g id="&lt;Group&gt;">
					<g id="&lt;Group&gt;">
						<path id="&lt;Path&gt;" class="s1" d="m1046.14 905.88l-342.93-71.08l27.23-216.83l376.9 78.12l-61.2 209.78z" />
					</g>
				</g>
			</g>
			<g id="&lt;Group&gt;">
				<g id="&lt;Group&gt;">
					<g id="&lt;Group&gt;">
						<path id="&lt;Path&gt;" class="s5" d="m876.85 648.32l-3.07 14.79c-27.13 20.53-46.78 44.44-58.96 71.73c-33.24-12.93-62.64-46.37-88.2-100.32l3.02-16.72l147.21 30.51z" />
					</g>
				</g>
			</g>
			<g id="&lt;Group&gt;">
				<g id="&lt;Group&gt;">
					<g id="&lt;Group&gt;">
						<path id="&lt;Path&gt;" class="s5" d="m1107.41 696.11l-3.45 16.63c-63.52 35.48-124.38 50.21-182.57 44.2c-4.07-30.66-20.5-62.05-49.29-94.17l3.06-14.79l232.24 48.14z" />
					</g>
				</g>
			</g>
			<g id="&lt;Group&gt;">
				<g id="&lt;Group&gt;">
					<g id="&lt;Group&gt;">
						<path id="&lt;Path&gt;" class="s6" d="m908.15 654.81c-2.53 9.67-9.64 19.36-21.35 29.09c-12.42-0.72-23.04-3.01-31.86-6.87c-5.34-9.45-8.16-21.12-8.48-35.01l61.69 12.79z" />
					</g>
				</g>
			</g>
			<g id="&lt;Group&gt;">
				<g id="&lt;Group&gt;">
					<g id="&lt;Group&gt;">
						<path id="&lt;Path&gt;" class="s7" d="m1037.46 951.63l-328.82-68.16l-6.92-48.98l345.2 71.55l-9.45 45.59z" />
					</g>
				</g>
			</g>
			<g id="&lt;Group&gt;">
				<g id="&lt;Group&gt;">
					<g id="&lt;Group&gt;">
						<path id="&lt;Path&gt;" class="s6" d="m887.04 682.7l-13.47 114.77l-31.29 16.12l-21.72-25.8l34.57-111.7l31.91 6.61z" />
					</g>
				</g>
			</g>
			<g id="&lt;Group&gt;">
				<g id="&lt;Group&gt;">
					<g id="&lt;Group&gt;">
						<path id="&lt;Path&gt;" class="s8" d="m875.37 483.96c-3.68 17.76-15.82 30.26-27.1 27.92c-11.29-2.34-17.45-18.63-13.77-36.4c3.68-17.76 15.82-30.27 27.1-27.93c11.29 2.34 17.45 18.64 13.77 36.4z" />
					</g>
				</g>
			</g>
			<g id="&lt;Group&gt;">
				<g id="&lt;Group&gt;">
					<g id="&lt;Group&gt;">
						<path id="&lt;Path&gt;" class="s9" d="m859.91 474.47c-3.11 7.13-8.85 11.5-12.83 9.76c-3.98-1.73-4.69-8.92-1.58-16.04c3.11-7.13 8.85-11.5 12.83-9.76c3.98 1.74 4.69 8.92 1.58 16.04z" />
					</g>
				</g>
			</g>
			<g id="&lt;Group&gt;">
				<g id="&lt;Group&gt;">
					<g id="&lt;Group&gt;">
						<path id="&lt;Path&gt;" class="s8" d="m997.04 509.18c-3.68 17.76-15.81 30.27-27.1 27.93c-11.29-2.34-17.45-18.64-13.77-36.4c3.68-17.76 15.82-30.26 27.1-27.92c11.29 2.34 17.45 18.63 13.77 36.4z" />
					</g>
				</g>
			</g>
			<g id="&lt;Group&gt;">
				<g id="&lt;Group&gt;">
					<g id="&lt;Group&gt;">
						<path id="&lt;Path&gt;" class="s9" d="m981.49 499.9c-3.31 7.03-9.18 11.23-13.11 9.38c-3.93-1.85-4.43-9.05-1.11-16.09c3.31-7.03 9.18-11.23 13.11-9.38c3.93 1.85 4.43 9.05 1.11 16.08z" />
					</g>
				</g>
			</g>
			<g id="&lt;Group&gt;">
				<g id="&lt;Group&gt;">
					<g id="&lt;Group&gt;">
						<path id="&lt;Path&gt;" class="s6" d="m830.31 527.01l153.47 31.81c-14.34 52.13-47.39 71.55-99.17 58.29c-38.55-7.09-56.64-37.13-54.29-90.1z" />
					</g>
				</g>
			</g>
			<g id="&lt;Group&gt;">
				<g id="&lt;Group&gt;">
					<g id="&lt;Group&gt;">
						<path id="&lt;Path&gt;" class="s10" d="m772.4 336.02l35.93 31.07c-13.7 5.53-27.9 32.4-42.6 80.61c0.26-36.57 2.48-73.79 6.67-111.68z" />
					</g>
				</g>
			</g>
			<g id="&lt;Group&gt;">
				<g id="&lt;Group&gt;">
					<g id="&lt;Group&gt;">
						<path id="&lt;Path&gt;" class="s11" d="m1109.1 401.18l-4.03 19.43c-76.19 67.16-178.4 52.27-306.64-44.66c26.46 12.76 130.01 21.17 310.67 25.23z" />
					</g>
				</g>
			</g>
			<g id="&lt;Group&gt;">
				<g id="&lt;Group&gt;">
					<g id="&lt;Group&gt;">
						<path id="&lt;Path&gt;" class="s11" d="m1105.6 413l22.17 17.94l11.05 37.55c-25.07-5.22-45.05-21.12-59.95-47.69l26.72-7.8z" />
					</g>
				</g>
			</g>
			<g id="&lt;Group&gt;">
				<g id="&lt;Group&gt;">
					<g id="&lt;Group&gt;">
						<path id="&lt;Path&gt;" class="s7" d="m829.14 1057.99l-23.9 12.29l-95.8-186.34l30.46-15.67l89.23 189.72z" />
					</g>
				</g>
			</g>
			<g id="&lt;Group&gt;">
				<g id="&lt;Group&gt;">
					<g id="&lt;Group&gt;">
						<path id="&lt;Path&gt;" class="s7" d="m833.8 1064.94l-76.83 39.5c-4.75-5.04-6.72-8.67-5.9-10.9c-0.92-32.21 24.37-45.68 75.86-40.39l6.88 11.78z" />
					</g>
				</g>
			</g>
			<g id="&lt;Group&gt;">
				<g id="&lt;Group&gt;">
					<g id="&lt;Group&gt;">
						<path id="&lt;Path&gt;" class="s7" d="m1015.56 926.69l25.67 20.19l-125.42 165.2h-29.08l128.84-185.39z" />
					</g>
				</g>
			</g>
			<g id="&lt;Group&gt;">
				<g id="&lt;Group&gt;">
					<g id="&lt;Group&gt;">
						<path id="&lt;Path&gt;" class="s7" d="m886.73 1112.08c43.72-24.79 71.98-22.4 84.75 7.19c1.59 3.79 1.35 7.87-0.74 12.22l-86.31-1.79l2.3-17.62z" />
					</g>
				</g>
			</g>
			<g id="&lt;Group&gt;">
				<g id="&lt;Group&gt;">
					<g id="&lt;Group&gt;">
						<path id="&lt;Path&gt;" class="s12" d="m797.81 369.37c-7.26 0.45-14.73 10.09-22.42 28.94c-0.43-10.66 1.83-25.66 6.78-45.01l15.63 16.08z" />
					</g>
				</g>
			</g>
			<g id="&lt;Group&gt;">
				<g id="&lt;Group&gt;">
					<g id="&lt;Group&gt;">
						<path id="&lt;Path&gt;" class="s13" d="m1104.98 404.64c-27.39 31.2-61.92 43.79-103.59 37.77c-243.53-33.74-314.75-103.95-213.66-210.62c3.38 34.18 16.64 48.42 39.79 42.72c168.63-86.63 271.2-55.66 307.69 92.9c51.23 8.49 67.26 33.76 48.08 75.82l-40.66 82.59l-16.31-12.15l1.39-52.14c-18.67-15.9-26.25-34.87-22.73-56.89z" />
					</g>
				</g>
			</g>
			<g id="&lt;Group&gt;">
				<g id="&lt;Group&gt;">
					<g id="&lt;Group&gt;">
						<path id="&lt;Path&gt;" class="s3" d="m891.47 417.22c102.01 45.5 173.18 41.3 213.51-12.59c-62.16 21.9-133.33 26.09-213.51 12.59z" />
					</g>
				</g>
			</g>
			<g id="&lt;Group&gt;">
				<g id="&lt;Group&gt;">
					<g id="&lt;Group&gt;">
						<path id="&lt;Path&gt;" class="s3" d="m1104.98 404.64c27.8 10.34 40.25 26 37.34 46.97l0.31 74.2l-16.31-12.15l0.7-48.82c-19.93-19.91-27.28-39.98-22.04-60.21z" />
					</g>
				</g>
			</g>
			<g id="&lt;Group&gt;">
				<g id="&lt;Group&gt;">
					<g id="&lt;Group&gt;">
						<path id="&lt;Path&gt;" class="s14" d="m813.94 340c65.83 70.68 160.74 83.68 284.73 38.99c-125.01 5.98-219.92-7.02-284.73-38.99z" />
					</g>
				</g>
			</g>
			<g id="&lt;Group&gt;">
				<g id="&lt;Group&gt;">
					<g id="&lt;Group&gt;">
						<path id="&lt;Path&gt;" class="s14" d="m818.4 319.2c124.71 41.05 217.7 52.14 278.97 33.28c-116.26-32.64-209.25-43.73-278.97-33.28z" />
					</g>
				</g>
			</g>
			<g id="&lt;Group&gt;">
				<g id="&lt;Group&gt;">
					<g id="&lt;Group&gt;">
						<path id="&lt;Path&gt;" class="s14" d="m822 301.83c135.85-67.32 228.72-55.62 278.6 35.1c-69.65-51.8-162.51-63.5-278.6-35.1z" />
					</g>
				</g>
			</g>
			<g id="&lt;Group&gt;">
				<g id="&lt;Group&gt;">
					<g id="&lt;Group&gt;">
						<path id="&lt;Path&gt;" class="s14" d="m1124.19 392.46c24.37 4.12 35.91 22.55 34.63 55.28c21.15-39.97 9.61-58.4-34.63-55.28z" />
					</g>
				</g>
			</g>
			<g id="&lt;Group&gt;">
				<g id="&lt;Group&gt;">
					<g id="&lt;Group&gt;">
						<path id="&lt;Path&gt;" class="s2" d="m1107.41 696.11l-377.76-78.3l1.01-4.88l377.76 78.3l-1.01 4.88z" />
					</g>
				</g>
			</g>
			<g id="&lt;Group&gt;">
				<g id="&lt;Group&gt;">
					<g id="&lt;Group&gt;">
						<path id="&lt;Path&gt;" class="s15" d="m850.21 665.47c5.49-4.26 14.2-9.83 26.14-16.7c-9.3 10.14-16.43 19.56-21.4 28.26c-1.48-1.91-3.06-5.76-4.73-11.56z" />
					</g>
				</g>
			</g>
			<g id="&lt;Group&gt;">
				<g id="&lt;Group&gt;">
					<g id="&lt;Group&gt;">
						<path id="&lt;Path&gt;" class="s15" d="m875.53 649.34c12.46 12.14 19.62 20.37 21.49 24.67c-5.34 5.58-8.7 8.8-10.09 9.65c-4.78-15.89-8.58-27.33-11.4-34.32z" />
					</g>
				</g>
			</g>
			<g id="&lt;Group&gt;">
				<g id="&lt;Group&gt;">
					<g id="&lt;Group&gt;">
						<path id="&lt;Path&gt;" class="s9" d="m876.96 648.34c-32.2 21.74-54.06 46.59-65.55 74.55c-25.38-15.01-53.64-44.47-84.78-88.36l3.02-16.72l147.31 30.53z" />
					</g>
				</g>
			</g>
			<g id="&lt;Group&gt;">
				<g id="&lt;Group&gt;">
					<g id="&lt;Group&gt;">
						<path id="&lt;Path&gt;" class="s9" d="m1107.41 696.11l-3.45 16.63c-66.68 23.62-123.95 35.35-171.8 35.18c-2.72-30.9-22.12-64.3-58.21-100.2l233.46 48.39z" />
					</g>
				</g>
			</g>
			<g id="&lt;Group&gt;">
				<g id="&lt;Group&gt;">
					<path id="&lt;Path&gt;" class="s0" d="m1147.15 783.23c9.65 23.45 12.36 46.02 8.05 67.44c-9.28 46.15-49.78 80.68-120.36 102.64l-17.29-55.58c33.49-10.42 74.66-29.03 80.59-58.54c1.46-7.25 0.88-14.93-1.1-22.72l50.11-33.25z" />
				</g>
			</g>
			<g id="&lt;Group&gt;">
				<g id="&lt;Group&gt;">
					<path id="&lt;Path&gt;" class="s16" d="m528.59 173.71h112.24v192.12c-58.81-2.58-96.22-66.62-112.24-192.12z" />
				</g>
				<g id="&lt;Group&gt;">
					<path id="&lt;Path&gt;" class="s17" d="m717.96 522.83h-154.25v-90.9h154.25v90.9z" />
				</g>
				<g id="&lt;Group&gt;">
					<path id="&lt;Path&gt;" class="s18" d="m724.85 537.3h-169.4v-14.46h169.4v14.46z" />
				</g>
				<g id="&lt;Group&gt;">
					<path id="&lt;Path&gt;" class="s9" d="m696.96 509.06h-112.25v-63.35h112.25v63.35z" />
				</g>
				<path id="&lt;Path&gt;" class="s16" d="m571.68 338.42c-17.07 0-32.43-5.04-45.85-15.1c-46.31-34.69-51.76-117.15-51.97-120.65l-0.63-10.58h72.23v19.97h-50.53c2.93 22.06 12.77 72.76 42.91 95.3c14.31 10.7 31.23 13.63 51.71 8.94l4.46 19.47c-7.73 1.77-15.18 2.66-22.32 2.66z" />
				<path id="&lt;Path&gt;" class="s19" d="m710.34 343.24c-7.15 0-14.6-0.88-22.33-2.66l4.46-19.47c20.49 4.7 37.44 1.77 51.8-8.96c30.26-22.61 40.18-73.22 43.14-95.27h-51.21v-19.97h72.95l-0.66 10.6c-0.22 3.49-5.86 85.96-52.27 120.63c-13.44 10.04-28.81 15.09-45.88 15.09z" />
				<path id="&lt;Path&gt;" class="s20" d="m667.74 422.09l1.21-0.97l8.38 10.61h-20.31v-9.64h10.73z" />
				<path id="&lt;Path&gt;" class="s21" d="m657.02 422.09v9.64h-53.37l8.36-10.53l1 0.89h44.01z" />
				<g id="&lt;Group&gt;">
					<path id="&lt;Path&gt;" class="s19" d="m672.69 352.92c-1.54-0.98-3.37-1.55-5.33-1.55h-2.87c43.54-64.95 45.45-145.34 44.18-177.66h44.42c-14.55 113.96-52.61 160.35-80.39 179.21z" />
				</g>
				<g id="&lt;Group&gt;">
					<path id="&lt;Path&gt;" class="s16" d="m664.49 351.37h-23.65v-177.66h67.83c1.27 32.33-0.64 112.71-44.18 177.66z" />
				</g>
				<path id="&lt;Path&gt;" class="s16" d="m657.02 371.14h-43.04h-0.35c-5.51 0-10.32-4.26-10.32-9.77v-0.02c0-5.51 4.81-10.18 10.32-10.18h26.87v14.66c4.36-0.19 9.88-1.69 16.55-4.51c-0.01 0.01 0.67 0.02-0.02 0.03v9.78z" />
				<g id="&lt;Group&gt;">
					<path id="&lt;Path&gt;" class="s19" d="m657.39 361.32c4.49-1.9 9.69-4.59 15.3-8.4c2.79 1.77 4.65 4.88 4.65 8.42v0.02c0 5.51-4.47 9.98-9.98 9.98h-0.35h-9.64v-9.99c0.01-0.01 0.02-0.02 0.02-0.03z" />
				</g>
				<path id="&lt;Path&gt;" class="s16" d="m640.49 365.83v-14.66h23.99c-2.25 3.44-4.79 6.78-7.27 10.05c-6.67 2.81-12.25 4.35-16.72 4.61z" />
				<g id="&lt;Group&gt;">
					<path id="&lt;Path&gt;" class="s19" d="m667.36 351.37c1.96 0 3.79 0.57 5.33 1.55c-5.61 3.81-10.81 6.5-15.3 8.4c2.48-3.27 4.85-6.59 7.1-9.95h2.87z" />
				</g>
				<path id="&lt;Path&gt;" class="s22" d="m657.02 383.53h-43.38v-12.4h43.38v12.4z" />
				<path id="&lt;Path&gt;" class="s20" d="m657.02 371.14h9.64v12.4h-9.64v-12.4z" />
				<path id="&lt;Path&gt;" class="s20" d="m657.02 398.68h9.64v8.26h-9.64v-8.26z" />
				<path id="&lt;Path&gt;" class="s22" d="m657.02 406.94h-43.38v-8.26h43.38v8.26z" />
				<path id="&lt;Path&gt;" class="s16" d="m613.63 395.24v3.44h-0.51l-8.56-7.57l8.56-7.57h0.51v3.44h43.38v8.26h-43.38z" />
				<path id="&lt;Path&gt;" class="s16" d="m613.63 386.97v-3.44h43.38v3.44h-43.38z" />
				<g id="&lt;Group&gt;">
					<path id="&lt;Path&gt;" class="s23" d="m677.33 391.31l-9.47 7.58h-0.86v-3.44h-9.64v-8.26v-3.45h9.64h0.86l9.47 7.57z" />
				</g>
				<path id="&lt;Path&gt;" class="s16" d="m657.02 398.68h-43.38v-3.44h43.38v3.44z" />
				<g id="&lt;Group&gt;">
					<path id="&lt;Path&gt;" class="s23" d="m667 395.44v3.44h-9.64v-3.44h9.64z" />
				</g>
				<path id="&lt;Path&gt;" class="s16" d="m614.04 418.65l-2.03 2.61l-7.55-6.64l8.55-7.68h0.63v4.13h43.38v7.57h-42.98z" />
				<path id="&lt;Path&gt;" class="s16" d="m613.01 422.09l-1-0.89l2.03-2.56h42.98v3.44h-44.01z" />
				<g id="&lt;Group&gt;">
					<path id="&lt;Path&gt;" class="s23" d="m677.22 414.72l-8.26 6.61l-1.21 0.97h-10.38v-3.44v-7.58v-4.13h9.64h0.74l9.47 7.57z" />
				</g>
				<path id="&lt;Path&gt;" class="s16" d="m613.63 411.08v-4.13h43.38v4.13h-43.38z" />
				<path id="&lt;Path&gt;" class="s9" d="m752.85 134.87l7.74 31.09l31.09 7.75l-31.09 7.74l-7.74 31.09l-7.74-31.09l-31.09-7.74l31.09-7.75l7.74-31.09z" />
				<path id="&lt;Path&gt;" class="s9" d="m780.16 134.74l0.98 11.09l11.09 0.98l-11.09 0.98l-0.98 11.09l-0.98-11.09l-11.09-0.98l11.09-0.98l0.98-11.09z" />
				<path id="&lt;Path&gt;" class="s9" d="m775 184.32l0.78 8.87l8.87 0.78l-8.87 0.79l-0.78 8.87l-0.78-8.87l-8.87-0.79l8.87-0.78l0.78-8.87z" />
				<path id="&lt;Path&gt;" class="s9" d="m760.77 221.5l0.69 7.82l7.82 0.69l-7.82 0.69l-0.69 7.82l-0.69-7.82l-7.82-0.69l7.82-0.69l0.69-7.82z" />
				<path id="&lt;Path&gt;" class="s24" d="m679.05 464.1h-77.12v-6.2h77.12v6.2z" />
				<path id="&lt;Path&gt;" class="s24" d="m679.05 479.94h-77.12v-6.2h77.12v6.2z" />
				<path id="&lt;Path&gt;" class="s24" d="m679.05 496.46h-77.12v-6.2h77.12v6.2z" />
			</g>
			<path id="&lt;Path&gt;" class="s0" d="m689.54 380.52c0 5.88-4.76 10.64-10.64 10.64h-27.08c-5.88 0-10.64-4.76-10.64-10.64c0-5.87 4.76-10.64 10.64-10.64h27.08c5.88 0 10.64 4.76 10.64 10.64z" />
			<path id="&lt;Path&gt;" class="s0" d="m646.22 398.88c-2.58 4-7.35 5.52-10.66 3.4l-28.49-18.38c-3.3-2.13-3.89-7.1-1.3-11.11l0.46-0.72c2.58-4 7.36-5.52 10.66-3.39l28.49 18.38c3.3 2.13 3.88 7.1 1.3 11.11l-0.46 0.72z" />
			<path id="&lt;Path&gt;" class="s0" d="m639.58 413.82c-2.58 4-7.35 5.52-10.66 3.39l-28.49-18.38c-3.3-2.13-3.89-7.1-1.3-11.11l0.46-0.72c2.58-4 7.35-5.52 10.66-3.39l28.49 18.38c3.3 2.13 3.88 7.1 1.3 11.11l-0.46 0.72z" />
			<path id="&lt;Path&gt;" class="s0" d="m628.22 424.26c-2.12 3.28-6.03 4.52-8.73 2.78l-23.34-15.06c-2.71-1.74-3.18-5.82-1.07-9.1l0.38-0.59c2.12-3.28 6.02-4.52 8.73-2.78l23.34 15.05c2.71 1.74 3.18 5.82 1.07 9.1l-0.38 0.59z" />
			<path id="&lt;Path&gt;" class="s0" d="m621.15 435.57c-1.84 2.86-5.24 3.94-7.6 2.42l-20.31-13.1c-2.36-1.52-2.77-5.06-0.93-7.92l0.33-0.51c1.84-2.86 5.24-3.94 7.6-2.42l20.31 13.1c2.35 1.52 2.77 5.06 0.93 7.92l-0.33 0.51z" />
		</g>
		<g id="&lt;Group&gt;">
			<path id="&lt;Path&gt;" class="s25" d="m249.66 1511.85h-164.57l88.33-233.27l144.1 54.84l-67.86 178.43z" />
			<path id="&lt;Path&gt;" class="s9" d="m312.37 1331.38l-132.09-50.24l5.87-15.44l132.09 50.24l-5.87 15.44z" />
			<path id="&lt;Path&gt;" class="s26" d="m312.37 1331.38l-132.09-50.24l1.96-5.14l132.09 50.24l-1.96 5.15z" />
			<path id="&lt;Path&gt;" class="s0" d="m307.95 1312.02l-109.79-41.76l24.8-65.19l109.79 41.76l-24.79 65.19z" />
			<path id="&lt;Path&gt;" class="s0" d="m325.3 1285.72c-0.96 2.54-3.91 3.93-6.52 2.93l-114.9-43.7c-2.61-0.99-3.89-3.99-2.92-6.53l35-73.25c1.08-2.84 4.28-4.34 7.13-3.26l124.13 8.04c2.84 1.08 2.72 15.2 1.64 18.05l-43.56 97.72z" />
			<path id="&lt;Path&gt;" class="s27" d="m307.95 1312.02l-109.79-41.76l3.26-8.58l109.79 41.76l-3.26 8.58z" />
			<path id="&lt;Path&gt;" class="s9" d="m292.85 1355.52c-2.16 5.69-8.52 8.54-14.21 6.38c-5.68-2.16-8.54-8.53-6.38-14.2c2.16-5.69 8.52-8.54 14.21-6.38c5.68 2.16 8.54 8.52 6.38 14.2z" />
			<path id="&lt;Path&gt;" class="s9" d="m280.45 1388.11c-2.16 5.68-8.52 8.54-14.21 6.38c-5.69-2.17-8.54-8.52-6.38-14.21c2.16-5.68 8.52-8.54 14.21-6.37c5.68 2.16 8.54 8.52 6.38 14.2z" />
			<path id="&lt;Path&gt;" class="s0" d="m200.96 1238.42c4.14-42.21 17.11-68.53 38.92-78.96c8.43-5.51 13.36-10.71 14.81-15.6c9.14-8.56 19.28-12.85 30.42-12.85l10.29 41.75l-29.95 4.59l-64.49 61.07z" />
			<path id="&lt;Path&gt;" class="s0" d="m278.42 1131.85c22.57-20.75 34.5-38 35.79-51.77c-0.92-11.11 3.67-16.44 13.77-16c14.68 6.08 19.88 17.99 15.6 35.73c-3.97 18.96-17.73 42.67-41.28 71.12l-23.87 4.57v-43.65z" />
			<path id="&lt;Path&gt;" class="s0" d="m439.93 1185.16c0 10.14-8.22 18.35-18.35 18.35h-84.43c-10.14 0-18.35-8.22-18.35-18.35v-3.67c0-10.13 8.22-18.35 18.35-18.35l85.04 4.29c10.14 0 17.74 3.93 17.74 14.07v3.67z" />
			<path id="&lt;Path&gt;" class="s0" d="m430.75 1216.36c0 10.14-8.22 18.35-18.35 18.35h-84.43c-10.14 0-18.35-8.21-18.35-18.35v-3.67c0-10.13 8.22-18.35 18.35-18.35l85.04 4.28c10.14 0 17.74 3.93 17.74 14.07v3.67z" />
			<path id="&lt;Path&gt;" class="s0" d="m416.07 1247.56c0 10.14-8.22 18.35-18.35 18.35h-84.43c-10.14 0-18.35-8.22-18.35-18.35v-3.67c0-10.13 8.22-18.35 18.35-18.35l85.04 4.29c10.14 0 17.74 3.93 17.74 14.07v3.67z" />
			<path id="&lt;Path&gt;" class="s0" d="m399.55 1274.17c0 9.71-7.44 17.44-17.15 17.44h-80.89c-9.71 0-17.58-7.73-17.58-17.44v-3.52c0-9.72 7.87-17.59 17.58-17.59l81.26 4.1c9.71 0 16.78 3.77 16.78 13.48v3.52z" />
			<path id="&lt;Path&gt;" class="s0" d="m309.39 1159.7l37.74 4.3l-24.2 11.98h-24.32l5.51-12.85l5.28-3.43z" />
			<path id="&lt;Path&gt;" class="s0" d="m223.97 1225.27l-12.24 33.28c-6.53-0.83-10.12-6.38-10.78-16.65l23.01-16.63z" />
		</g>
		<g id="&lt;Group&gt;">
			<path id="&lt;Path&gt;" class="s25" d="m544.3 1511.85l-164.93 0.52l51-134.68l144.1 54.83l-30.17 79.33z" />
			<path id="&lt;Path&gt;" class="s9" d="m569.32 1430.49l-132.09-50.24l5.87-15.44l132.09 50.24l-5.87 15.44z" />
			<path id="&lt;Path&gt;" class="s26" d="m569.32 1430.49l-132.09-50.24l1.96-5.14l132.09 50.24l-1.96 5.15z" />
			<path id="&lt;Path&gt;" class="s0" d="m564.9 1411.13l-109.79-41.76l24.79-65.19l109.79 41.76l-24.79 65.19z" />
			<path id="&lt;Path&gt;" class="s0" d="m582.25 1384.83c-0.97 2.53-3.91 3.92-6.52 2.93l-114.9-43.7c-2.61-0.99-3.89-3.99-2.92-6.53l35-73.25c1.08-2.84 4.29-4.34 7.13-3.26l124.13 8.04c2.84 1.08 2.72 15.21 1.65 18.05l-43.57 97.72z" />
			<path id="&lt;Path&gt;" class="s27" d="m564.9 1411.13l-109.79-41.76l3.26-8.58l109.79 41.76l-3.26 8.58z" />
			<path id="&lt;Path&gt;" class="s9" d="m549.8 1454.63c-2.16 5.69-8.52 8.54-14.21 6.38c-5.68-2.16-8.54-8.52-6.38-14.2c2.16-5.68 8.52-8.54 14.21-6.38c5.68 2.16 8.54 8.52 6.38 14.21z" />
			<path id="&lt;Path&gt;" class="s9" d="m537.4 1487.22c-2.16 5.69-8.52 8.54-14.21 6.38c-5.69-2.17-8.54-8.52-6.38-14.21c2.16-5.68 8.52-8.54 14.21-6.38c5.68 2.16 8.54 8.52 6.38 14.2z" />
			<path id="&lt;Path&gt;" class="s0" d="m457.91 1337.53c4.14-42.21 17.11-68.53 38.92-78.96c8.43-5.51 13.36-10.71 14.81-15.6c9.14-8.57 19.28-12.85 30.42-12.85l10.29 41.75l-29.95 4.59l-64.49 61.07z" />
			<path id="&lt;Path&gt;" class="s0" d="m535.37 1230.96c22.57-20.74 34.5-38 35.79-51.76c-0.92-11.11 3.67-16.45 13.77-16c14.68 6.08 19.88 17.99 15.6 35.73c-3.97 18.96-17.73 42.67-41.28 71.12l-23.87 4.57v-43.65z" />
			<path id="&lt;Path&gt;" class="s0" d="m696.88 1284.27c0 10.14-8.22 18.35-18.35 18.35h-84.43c-10.14 0-18.35-8.21-18.35-18.35v-3.67c0-10.13 8.22-18.35 18.35-18.35l85.04 4.28c10.14 0 17.74 3.93 17.74 14.07v3.67z" />
			<path id="&lt;Path&gt;" class="s0" d="m687.7 1315.47c0 10.14-8.22 18.35-18.35 18.35h-84.43c-10.14 0-18.35-8.22-18.35-18.35v-3.67c0-10.13 8.22-18.35 18.35-18.35l85.04 4.28c10.14 0 17.74 3.94 17.74 14.07v3.67z" />
			<path id="&lt;Path&gt;" class="s0" d="m673.02 1346.66c0 10.14-8.22 18.35-18.35 18.35h-84.42c-10.14 0-18.35-8.21-18.35-18.35v-3.67c0-10.13 8.21-18.35 18.35-18.35l85.04 4.28c10.14 0 17.74 3.93 17.74 14.07v3.67z" />
			<path id="&lt;Path&gt;" class="s0" d="m656.5 1373.27c0 9.71-7.44 17.44-17.15 17.44h-80.89c-9.71 0-17.58-7.73-17.58-17.44v-3.52c0-9.71 7.87-17.59 17.58-17.59l81.26 4.1c9.71 0 16.78 3.77 16.78 13.48v3.52z" />
			<path id="&lt;Path&gt;" class="s0" d="m566.34 1258.81l37.74 4.3l-24.2 11.98h-24.32l5.51-12.85l5.28-3.43z" />
			<path id="&lt;Path&gt;" class="s0" d="m480.92 1324.38l-12.24 33.28c-6.53-0.83-10.12-6.38-10.78-16.65l23.01-16.63z" />
		</g>
		<g id="&lt;Group&gt;">
			<path id="&lt;Path&gt;" class="s25" d="m824.07 1511.85l-165.21 0.52l21.12-55.76l144.1 54.83v0.41z" />
			<path id="&lt;Path&gt;" class="s9" d="m818.92 1509.41l-132.09-50.24l5.87-15.44l132.09 50.24l-5.87 15.44z" />
			<path id="&lt;Path&gt;" class="s26" d="m818.92 1509.41l-132.09-50.24l1.96-5.14l132.09 50.24l-1.96 5.15z" />
			<path id="&lt;Path&gt;" class="s0" d="m814.5 1490.05l-109.79-41.76l24.79-65.19l109.79 41.76l-24.8 65.19z" />
			<path id="&lt;Path&gt;" class="s0" d="m831.86 1463.75c-0.96 2.53-3.91 3.92-6.52 2.93l-114.9-43.7c-2.61-0.99-3.89-3.99-2.92-6.53l35-73.25c1.08-2.84 4.29-4.34 7.13-3.26l124.13 8.04c2.84 1.08 2.72 15.2 1.64 18.05l-43.56 97.72z" />
			<path id="&lt;Path&gt;" class="s27" d="m814.5 1490.05l-109.79-41.76l3.26-8.58l109.79 41.76l-3.26 8.58z" />
			<path id="&lt;Path&gt;" class="s0" d="m707.52 1416.45c4.14-42.21 17.11-68.53 38.92-78.96c8.42-5.51 13.36-10.71 14.81-15.6c9.14-8.57 19.28-12.85 30.42-12.85l10.29 41.76l-29.94 4.59l-64.49 61.07z" />
			<path id="&lt;Path&gt;" class="s0" d="m784.97 1309.88c22.57-20.75 34.5-38 35.79-51.76c-0.92-11.11 3.67-16.45 13.77-16c14.68 6.08 19.88 17.99 15.6 35.73c-3.97 18.97-17.73 42.67-41.28 71.12l-23.88 4.57v-43.65z" />
			<path id="&lt;Path&gt;" class="s0" d="m946.49 1363.18c0 10.14-8.22 18.35-18.35 18.35h-84.43c-10.14 0-18.35-8.22-18.35-18.35v-3.67c0-10.13 8.22-18.35 18.35-18.35l85.04 4.28c10.14 0 17.74 3.93 17.74 14.07v3.67z" />
			<path id="&lt;Path&gt;" class="s0" d="m937.31 1394.39c0 10.14-8.22 18.35-18.35 18.35h-84.43c-10.14 0-18.35-8.21-18.35-18.35v-3.67c0-10.13 8.22-18.35 18.35-18.35l85.04 4.28c10.14 0 17.74 3.94 17.74 14.07v3.67z" />
			<path id="&lt;Path&gt;" class="s0" d="m922.63 1425.58c0 10.14-8.22 18.36-18.35 18.36h-84.43c-10.14 0-18.35-8.22-18.35-18.36v-3.67c0-10.13 8.22-18.35 18.35-18.35l85.04 4.29c10.14 0 17.74 3.93 17.74 14.07v3.67z" />
			<path id="&lt;Path&gt;" class="s0" d="m906.11 1452.19c0 9.71-7.44 17.44-17.15 17.44h-80.89c-9.71 0-17.59-7.73-17.59-17.44v-3.52c0-9.71 7.87-17.59 17.59-17.59l81.26 4.1c9.71 0 16.78 3.77 16.78 13.48v3.52z" />
			<path id="&lt;Path&gt;" class="s0" d="m815.95 1337.73l37.74 4.3l-24.2 11.98h-24.32l5.51-12.85l5.27-3.43z" />
			<path id="&lt;Path&gt;" class="s0" d="m730.53 1403.3l-12.24 33.28c-6.53-0.83-10.12-6.38-10.78-16.65l23.01-16.63z" />
		</g>
		<g id="&lt;Group&gt;">
			<path id="&lt;Path&gt;" class="s25" d="m1321.55 1333.42l144.1-54.84l88.33 233.27h-164.57l-67.86-178.43z" />
			<path id="&lt;Path&gt;" class="s9" d="m1320.82 1315.94l132.09-50.24l5.87 15.44l-132.09 50.24l-5.87-15.44z" />
			<path id="&lt;Path&gt;" class="s26" d="m1324.74 1326.23l132.09-50.24l1.96 5.14l-132.09 50.24l-1.96-5.15z" />
			<path id="&lt;Path&gt;" class="s0" d="m1306.32 1246.84l109.79-41.76l24.8 65.19l-109.79 41.76l-24.8-65.19z" />
			<path id="&lt;Path&gt;" class="s0" d="m1270.2 1188c-1.08-2.84-1.2-16.97 1.65-18.05l124.13-8.04c2.84-1.08 6.05 0.42 7.13 3.26l35 73.25c0.97 2.54-0.31 5.53-2.92 6.53l-114.9 43.7c-2.61 0.99-5.56-0.4-6.52-2.93l-43.57-97.72z" />
			<path id="&lt;Path&gt;" class="s27" d="m1327.85 1303.45l109.79-41.76l3.26 8.58l-109.79 41.76l-3.26-8.58z" />
			<path id="&lt;Path&gt;" class="s9" d="m1352.59 1341.32c5.69-2.17 12.05 0.69 14.21 6.38c2.16 5.68-0.69 12.04-6.38 14.2c-5.69 2.16-12.05-0.69-14.21-6.38c-2.16-5.68 0.69-12.05 6.38-14.2z" />
			<path id="&lt;Path&gt;" class="s9" d="m1364.99 1373.91c5.69-2.16 12.05 0.69 14.21 6.37c2.16 5.69-0.69 12.05-6.38 14.21c-5.68 2.16-12.05-0.69-14.21-6.38c-2.16-5.68 0.69-12.05 6.38-14.2z" />
			<path id="&lt;Path&gt;" class="s0" d="m1373.62 1177.36l-29.95-4.59l10.29-41.75c11.14 0 21.29 4.28 30.42 12.85c1.45 4.9 6.38 10.1 14.81 15.6c21.81 10.44 34.78 36.76 38.92 78.96l-64.49-61.07z" />
			<path id="&lt;Path&gt;" class="s0" d="m1361.27 1175.5l-24.15-4.57c-23.55-28.45-37.41-52.15-41.55-71.12c-4.28-17.74 0.94-29.65 15.68-35.73c10.09-0.44 14.73 4.89 13.92 16c1.29 13.77 13.32 31.02 36.1 51.77v43.65z" />
			<path id="&lt;Path&gt;" class="s0" d="m1199.76 1181.49c0-10.13 7.45-14.07 17.59-14.07l84.88-4.29c10.14 0 18.67 8.22 18.67 18.35v3.67c0 10.14-8.84 18.35-18.98 18.35h-84.43c-10.14 0-17.73-8.22-17.73-18.35v-3.67z" />
			<path id="&lt;Path&gt;" class="s0" d="m1208.94 1212.68c0-10.13 7.45-14.07 17.58-14.07l84.88-4.28c10.14 0 18.67 8.22 18.67 18.35v3.67c0 10.14-8.84 18.35-18.98 18.35h-84.43c-10.13 0-17.72-8.21-17.72-18.35v-3.67z" />
			<path id="&lt;Path&gt;" class="s0" d="m1223.62 1243.89c0-10.13 7.45-14.07 17.59-14.07l84.88-4.29c10.14 0 18.67 8.22 18.67 18.35v3.67c0 10.14-8.84 18.35-18.98 18.35h-84.43c-10.14 0-17.73-8.22-17.73-18.35v-3.67z" />
			<path id="&lt;Path&gt;" class="s0" d="m1240.14 1270.65c0-9.72 6.92-13.48 16.63-13.48l81.1-4.1c9.71 0 17.9 7.87 17.9 17.59v3.52c0 9.71-8.5 17.44-18.21 17.44h-80.89c-9.71 0-16.53-7.73-16.53-17.44v-3.52z" />
			<path id="&lt;Path&gt;" class="s0" d="m1334.95 1163.13l5.51 12.85h-24.32l-24.2-11.98l37.74-4.3l5.28 3.43z" />
			<path id="&lt;Path&gt;" class="s0" d="m1438.11 1241.9c-0.66 10.27-4.25 15.82-10.78 16.65l-12.24-33.28l23.01 16.63z" />
		</g>
		<g id="&lt;Group&gt;">
			<path id="&lt;Path&gt;" class="s25" d="m1064.6 1432.52l144.1-54.83l51 134.68l-164.93-0.52l-30.17-79.33z" />
			<path id="&lt;Path&gt;" class="s9" d="m1063.88 1415.05l132.09-50.24l5.87 15.44l-132.09 50.24l-5.87-15.44z" />
			<path id="&lt;Path&gt;" class="s26" d="m1067.79 1425.34l132.09-50.24l1.96 5.14l-132.09 50.24l-1.96-5.15z" />
			<path id="&lt;Path&gt;" class="s0" d="m1049.38 1345.95l109.79-41.76l24.8 65.19l-109.79 41.76l-24.79-65.19z" />
			<path id="&lt;Path&gt;" class="s0" d="m1013.25 1287.11c-1.08-2.84-1.2-16.97 1.64-18.05l124.13-8.04c2.84-1.08 6.05 0.42 7.13 3.26l35 73.25c0.97 2.53-0.31 5.53-2.92 6.53l-114.9 43.7c-2.61 0.99-5.56-0.4-6.52-2.93l-43.57-97.72z" />
			<path id="&lt;Path&gt;" class="s27" d="m1070.91 1402.55l109.79-41.76l3.26 8.58l-109.79 41.76l-3.26-8.58z" />
			<path id="&lt;Path&gt;" class="s9" d="m1095.64 1440.42c5.68-2.17 12.05 0.69 14.21 6.38c2.16 5.68-0.69 12.05-6.38 14.2c-5.69 2.16-12.05-0.69-14.21-6.38c-2.16-5.68 0.69-12.04 6.38-14.21z" />
			<path id="&lt;Path&gt;" class="s9" d="m1108.04 1473.01c5.69-2.16 12.05 0.69 14.21 6.38c2.16 5.69-0.69 12.05-6.38 14.21c-5.68 2.16-12.05-0.69-14.21-6.38c-2.16-5.68 0.69-12.04 6.38-14.2z" />
			<path id="&lt;Path&gt;" class="s0" d="m1116.67 1276.46l-29.95-4.59l10.29-41.75c11.14 0 21.28 4.28 30.42 12.85c1.45 4.89 6.38 10.09 14.81 15.6c21.81 10.44 34.78 36.76 38.92 78.96l-64.49-61.07z" />
			<path id="&lt;Path&gt;" class="s0" d="m1104.32 1274.61l-24.15-4.57c-23.55-28.45-37.41-52.16-41.55-71.12c-4.28-17.74 0.94-29.65 15.68-35.73c10.09-0.45 14.73 4.89 13.92 16c1.29 13.77 13.32 31.02 36.1 51.76v43.65z" />
			<path id="&lt;Path&gt;" class="s0" d="m942.82 1280.59c0-10.13 7.45-14.07 17.58-14.07l84.88-4.28c10.14 0 18.67 8.22 18.67 18.35v3.67c0 10.14-8.84 18.35-18.98 18.35h-84.42c-10.14 0-17.73-8.21-17.73-18.35v-3.67z" />
			<path id="&lt;Path&gt;" class="s0" d="m951.99 1311.79c0-10.13 7.45-14.07 17.59-14.07l84.88-4.28c10.14 0 18.67 8.22 18.67 18.35v3.67c0 10.14-8.84 18.35-18.98 18.35h-84.43c-10.14 0-17.72-8.22-17.72-18.35v-3.67z" />
			<path id="&lt;Path&gt;" class="s0" d="m966.68 1342.99c0-10.13 7.45-14.07 17.58-14.07l84.88-4.28c10.14 0 18.67 8.22 18.67 18.35v3.67c0 10.14-8.84 18.35-18.98 18.35h-84.42c-10.14 0-17.72-8.21-17.72-18.35v-3.67z" />
			<path id="&lt;Path&gt;" class="s0" d="m983.19 1369.76c0-9.71 6.92-13.48 16.63-13.48l81.1-4.1c9.71 0 17.9 7.87 17.9 17.59v3.52c0 9.71-8.5 17.44-18.21 17.44h-80.89c-9.71 0-16.53-7.73-16.53-17.44v-3.52z" />
			<path id="&lt;Path&gt;" class="s0" d="m1078 1262.24l5.51 12.85h-24.32l-24.2-11.98l37.73-4.3l5.28 3.43z" />
			<path id="&lt;Path&gt;" class="s0" d="m1181.16 1341.01c-0.66 10.27-4.25 15.82-10.78 16.65l-12.24-33.28l23.01 16.63z" />
		</g>
	</g>
</svg>