<svg version="1.2" baseProfile="tiny-ps" xmlns="http://www.w3.org/2000/svg" viewBox="0 0 1000 1000" width="171" height="171">
	<title>hrm_finance_project_inventory-eps</title>
	<defs>
		<clipPath clipPathUnits="userSpaceOnUse" id="cp1">
			<path d="m0 0h1000v1000h-1000z" />
		</clipPath>
		<clipPath clipPathUnits="userSpaceOnUse" id="cp2">
			<path d="m881.78 284.49c0 3.33-2.7 6.03-6.03 6.03c-32.85 0-189.93 0-222.78 0c-3.33 0-6.03-2.7-6.03-6.03c0-23.43 0-108.26 0-131.69c0-3.33 2.7-6.03 6.03-6.03c32.85 0 189.93 0 222.78 0c3.33 0 6.03 2.7 6.03 6.03c0 23.43 0 108.26 0 131.69z" />
		</clipPath>
		<clipPath clipPathUnits="userSpaceOnUse" id="cp3">
			<path d="m350.81 284.49c0 3.33-2.7 6.03-6.03 6.03c-32.85 0-189.93 0-222.78 0c-3.33 0-6.03-2.7-6.03-6.03c0-23.43 0-108.26 0-131.69c0-3.33 2.7-6.03 6.03-6.03c32.85 0 189.93 0 222.78 0c3.33 0 6.03 2.7 6.03 6.03c0 23.43 0 108.26 0 131.69z" />
		</clipPath>
		<clipPath clipPathUnits="userSpaceOnUse" id="cp4">
			<path d="m661.34 317.48c0 1.6-0.64 3.14-1.77 4.27c-1.13 1.13-2.67 1.77-4.27 1.77c-40.49 0-272.36 0-312.85 0c-1.6 0-3.14-0.64-4.27-1.77c-1.13-1.13-1.77-2.67-1.77-4.27c0-30.47 0-167.2 0-197.68c0-1.6 0.64-3.13 1.77-4.26c1.13-1.13 2.67-1.77 4.27-1.77c40.49 0 272.36 0 312.85 0c1.6 0 3.14 0.64 4.27 1.77c1.13 1.13 1.77 2.66 1.77 4.26c0 30.47 0 167.21 0 197.68z" />
		</clipPath>
		<clipPath clipPathUnits="userSpaceOnUse" id="cp5">
			<path d="m687.19 655.58c0 3.27-2.65 5.91-5.91 5.91c-45.34 0-337.2 0-382.54 0c-3.27 0-5.91-2.65-5.91-5.91c0-34.02 0-204.49 0-238.52c0-3.27 2.65-5.91 5.91-5.91c45.34 0 337.2 0 382.54 0c3.27 0 5.91 2.65 5.91 5.91c0 34.03 0 204.5 0 238.52z" />
		</clipPath>
		<clipPath clipPathUnits="userSpaceOnUse" id="cp6">
			<path d="m399.5 869.79v0l-8.28-142.81l-49.5-4.39c1.94-71.83 60.85-129.55 133.14-129.55h47.83c72.29 0 131.2 57.71 133.14 129.55l-49.5 4.39l-8.28 142.81v0c-69.71 22.38-135.75 21.44-198.54 0z" />
		</clipPath>
	</defs>
	<style>
		tspan { white-space:pre }
		.shp0 { fill: #ffffff } 
		.shp1 { fill: #656e84 } 
		.shp2 { fill: #e85575 } 
		.shp3 { fill: #8cc63f } 
		.shp4 { fill: #f9a153 } 
		.shp5 { fill: none;stroke: #e85575;stroke-linecap:round;stroke-linejoin:round;stroke-width: 5.069 } 
		.shp6 { fill: none;stroke: #8cc63f;stroke-linecap:round;stroke-linejoin:round;stroke-width: 5.069 } 
		.shp7 { fill: #e7f6fc } 
		.shp8 { fill: #abe0f1 } 
		.shp9 { fill: #58595c } 
		.shp10 { fill: #f3b5a3 } 
		.shp11 { fill: #0c6d53 } 
		.shp12 { fill: #fec14f } 
	</style>
	<g id="Page 1" clip-path="url(#cp1)">
		<path id="Path 1" class="shp0" d="m881.78 284.49c0 3.33-2.7 6.03-6.03 6.03c-32.85 0-189.93 0-222.78 0c-3.33 0-6.03-2.7-6.03-6.03c0-23.43 0-108.26 0-131.69c0-3.33 2.7-6.03 6.03-6.03c32.85 0 189.93 0 222.78 0c3.33 0 6.03 2.7 6.03 6.03c0 23.43 0 108.26 0 131.69z" />
		<g id="Mask" clip-path="url(#cp2)">
			<path id="Path 3" class="shp1" d="m881.78 191.6h-234.84c0 0 0-110.45 0-137.72c0-3.33 2.7-6.03 6.03-6.03c32.85 0 189.93 0 222.78 0c3.33 0 6.03 2.7 6.03 6.03c0 27.27 0 137.72 0 137.72z" />
		</g>
		<path id="Path 5" class="shp2" d="m693.98 257.63h-16.34v-55.96h16.34v55.96zm43.51 0h-16.34v-44.18h16.34v44.18zm43.51 0h-16.34v-38.43h16.34v38.43zm43.51 0h-16.34v-44.18h16.34v44.18z" />
		<path id="Path 6" class="shp3" d="m710.32 257.63h-16.34v-21.71h16.34v21.71zm43.51 0h-16.34v-38.43h16.34v38.43zm43.51 0h-16.34v-44.18h16.34v44.18zm43.51 0h-16.34v-31.49h16.34v31.49z" />
		<path id="Path 7" class="shp1" d="m863.63 260.76c0 0.49-0.4 0.88-0.88 0.88c-13.72 0-183.05 0-196.77 0c-0.49 0-0.88-0.4-0.88-0.88c0-0.67 0-1.58 0-2.25c0-0.49 0.4-0.88 0.88-0.88c13.72 0 183.05 0 196.77 0c0.49 0 0.88 0.39 0.88 0.88c0 0.67 0 1.58 0 2.25zm-48.95 19.18c0 0.49-0.4 0.88-0.88 0.88c-5.08 0-30.52 0-35.59 0c-0.49 0-0.88-0.4-0.88-0.88c0-0.67 0-1.58 0-2.25c0-0.49 0.39-0.88 0.88-0.88c5.08 0 30.52 0 35.59 0c0.49 0 0.88 0.39 0.88 0.88c0 0.67 0 1.58 0 2.25zm-61.36 0c0 0.49-0.4 0.88-0.88 0.88c-5.08 0-30.52 0-35.59 0c-0.49 0-0.88-0.4-0.88-0.88c0-0.67 0-1.58 0-2.25c0-0.49 0.39-0.88 0.88-0.88c5.08 0 30.52 0 35.59 0c0.49 0 0.88 0.39 0.88 0.88c0 0.67 0 1.58 0 2.25z" />
		<path id="Path 8" class="shp3" d="m771.9 282.11h-6.59v-6.59h6.59v6.59z" />
		<path id="Path 9" class="shp2" d="m710.54 282.11h-6.59v-6.59h6.59v6.59z" />
		<path id="Path 10" class="shp4" d="m855.6 159.88c4.36 0 7.91 3.54 7.91 7.91c0 4.36-3.54 7.91-7.91 7.91c-4.36 0-7.91-3.54-7.91-7.91c0-4.36 3.54-7.91 7.91-7.91z" />
		<path id="Path 11" class="shp2" d="m836.58 159.88c4.36 0 7.91 3.54 7.91 7.91c0 4.36-3.54 7.91-7.91 7.91c-4.36 0-7.91-3.54-7.91-7.91c0-4.36 3.54-7.91 7.91-7.91z" />
		<path id="Path 12" class="shp3" d="m817.55 159.88c4.36 0 7.91 3.54 7.91 7.91c0 4.36-3.54 7.91-7.91 7.91c-4.36 0-7.91-3.54-7.91-7.91c0-4.36 3.54-7.91 7.91-7.91z" />
		<path id="Path 13" class="shp0" d="m881.78 284.49c0 3.33-2.7 6.03-6.03 6.03c-32.85 0-189.93 0-222.78 0c-3.33 0-6.03-2.7-6.03-6.03c0-23.43 0-108.26 0-131.69c0-3.33 2.7-6.03 6.03-6.03c32.85 0 189.93 0 222.78 0c3.33 0 6.03 2.7 6.03 6.03c0 23.43 0 108.26 0 131.69zm-530.97 0c0 3.33-2.7 6.03-6.03 6.03c-32.85 0-189.93 0-222.78 0c-3.33 0-6.03-2.7-6.03-6.03c0-23.43 0-108.26 0-131.69c0-3.33 2.7-6.03 6.03-6.03c32.85 0 189.93 0 222.78 0c3.33 0 6.03 2.7 6.03 6.03c0 23.43 0 108.26 0 131.69z" />
		<g id="Mask" clip-path="url(#cp3)">
			<path id="Path 15" class="shp1" d="m350.81 191.6h-234.84c0 0 0-110.45 0-137.72c0-3.33 2.7-6.03 6.03-6.03c32.85 0 189.93 0 222.78 0c3.33 0 6.03 2.7 6.03 6.03c0 27.27 0 137.72 0 137.72z" />
		</g>
		<path id="Path 17" class="shp5" d="m318.59 226.65l-55.43-15.55l-56.94 24.23l-50.91-33.65" />
		<path id="Path 18" class="shp6" d="m155.31 237.13l50.91-23.66l56.94 25.84l55.43 5.04" />
		<path id="Path 19" class="shp3" d="m318.59 239.31c2.78 0 5.04 2.26 5.04 5.04c0 2.78-2.26 5.04-5.04 5.04c-2.78 0-5.04-2.26-5.04-5.04c0-2.78 2.26-5.04 5.04-5.04z" />
		<path id="Path 20" class="shp2" d="m318.59 220.2c2.78 0 5.04 2.26 5.04 5.04c0 2.78-2.26 5.04-5.04 5.04c-2.78 0-5.04-2.26-5.04-5.04c0-2.78 2.26-5.04 5.04-5.04z" />
		<path id="Path 21" class="shp3" d="m262.97 234.27c2.78 0 5.04 2.26 5.04 5.04c0 2.78-2.26 5.04-5.04 5.04c-2.78 0-5.04-2.26-5.04-5.04c0-2.78 2.26-5.04 5.04-5.04z" />
		<path id="Path 22" class="shp2" d="m262.97 206.7c2.78 0 5.04 2.26 5.04 5.04c0 2.78-2.26 5.04-5.04 5.04c-2.78 0-5.04-2.26-5.04-5.04c0-2.78 2.26-5.04 5.04-5.04z" />
		<path id="Path 23" class="shp3" d="m206.22 208.57c2.78 0 5.04 2.26 5.04 5.04c0 2.78-2.26 5.04-5.04 5.04c-2.78 0-5.04-2.26-5.04-5.04c0-2.78 2.26-5.04 5.04-5.04z" />
		<path id="Path 24" class="shp2" d="m206.22 230.28c2.78 0 5.04 2.26 5.04 5.04c0 2.78-2.26 5.04-5.04 5.04c-2.78 0-5.04-2.26-5.04-5.04c0-2.78 2.26-5.04 5.04-5.04z" />
		<path id="Path 25" class="shp3" d="m155.31 234.27c2.78 0 5.04 2.26 5.04 5.04c0 2.78-2.26 5.04-5.04 5.04c-2.78 0-5.04-2.26-5.04-5.04c0-2.78 2.26-5.04 5.04-5.04z" />
		<path id="Path 26" class="shp2" d="m155.31 196.63c2.78 0 5.04 2.26 5.04 5.04c0 2.78-2.26 5.04-5.04 5.04c-2.78 0-5.04-2.26-5.04-5.04c0-2.78 2.26-5.04 5.04-5.04z" />
		<path id="Path 27" class="shp1" d="m332.66 260.76c0 0.49-0.4 0.88-0.88 0.88c-13.72 0-183.05 0-196.77 0c-0.49 0-0.88-0.4-0.88-0.88c0-0.67 0-1.58 0-2.25c0-0.49 0.4-0.88 0.88-0.88c13.72 0 183.05 0 196.77 0c0.49 0 0.88 0.39 0.88 0.88c0 0.67 0 1.58 0 2.25zm-195.4-64.26c0.49 0 0.88 0.39 0.88 0.88c0 7.2 0 56.19 0 63.38c0 0.49-0.39 0.88-0.88 0.88c-0.67 0-1.58 0-2.25 0c-0.49 0-0.88-0.4-0.88-0.88c0-7.2 0-56.19 0-63.38c0-0.49 0.4-0.88 0.88-0.88c0.67 0 1.58 0 2.25 0zm146.45 83.44c0 0.49-0.4 0.88-0.88 0.88c-5.08 0-30.52 0-35.59 0c-0.49 0-0.88-0.4-0.88-0.88c0-0.67 0-1.58 0-2.25c0-0.49 0.39-0.88 0.88-0.88c5.07 0 30.52 0 35.59 0c0.49 0 0.88 0.39 0.88 0.88c0 0.67 0 1.58 0 2.25zm-61.36 0c0 0.49-0.4 0.88-0.88 0.88c-5.08 0-30.52 0-35.59 0c-0.49 0-0.88-0.4-0.88-0.88c0-0.67 0-1.58 0-2.25c0-0.49 0.39-0.88 0.88-0.88c5.07 0 30.52 0 35.59 0c0.49 0 0.88 0.39 0.88 0.88c0 0.67 0 1.58 0 2.25z" />
		<path id="Path 28" class="shp3" d="m240.93 282.11h-6.59v-6.59h6.59v6.59z" />
		<path id="Path 29" class="shp2" d="m179.57 282.11h-6.59v-6.59h6.59v6.59z" />
		<path id="Path 30" class="shp4" d="m324.64 159.88c4.36 0 7.91 3.54 7.91 7.91c0 4.36-3.54 7.91-7.91 7.91c-4.36 0-7.91-3.54-7.91-7.91c0-4.36 3.54-7.91 7.91-7.91z" />
		<path id="Path 31" class="shp2" d="m305.61 159.88c4.36 0 7.91 3.54 7.91 7.91c0 4.36-3.54 7.91-7.91 7.91c-4.36 0-7.91-3.54-7.91-7.91c0-4.36 3.54-7.91 7.91-7.91z" />
		<path id="Path 32" class="shp3" d="m286.59 159.88c4.36 0 7.91 3.54 7.91 7.91c0 4.36-3.54 7.91-7.91 7.91c-4.36 0-7.91-3.54-7.91-7.91c0-4.36 3.54-7.91 7.91-7.91z" />
		<path id="Path 33" class="shp0" d="m350.81 284.49c0 3.33-2.7 6.03-6.03 6.03c-32.85 0-189.93 0-222.78 0c-3.33 0-6.03-2.7-6.03-6.03c0-23.43 0-108.26 0-131.69c0-3.33 2.7-6.03 6.03-6.03c32.85 0 189.93 0 222.78 0c3.33 0 6.03 2.7 6.03 6.03c0 23.43 0 108.26 0 131.69zm310.52 32.99c0 1.6-0.64 3.14-1.77 4.27c-1.13 1.13-2.67 1.77-4.27 1.77c-40.49 0-272.36 0-312.85 0c-1.6 0-3.14-0.64-4.27-1.77c-1.13-1.13-1.77-2.67-1.77-4.27c0-30.47 0-167.2 0-197.68c0-1.6 0.64-3.13 1.77-4.26c1.13-1.13 2.67-1.77 4.27-1.77c40.49 0 272.36 0 312.85 0c1.6 0 3.14 0.64 4.27 1.77c1.13 1.13 1.77 2.66 1.77 4.26c0 30.47 0 167.21 0 197.68z" />
		<g id="Mask" clip-path="url(#cp4)">
			<path id="Path 35" class="shp1" d="m664.09 179.19h-328.17c0 0 0-169.36 0-203.71c0-1.6 0.64-3.13 1.77-4.26c1.13-1.13 2.67-1.77 4.27-1.77c40.75 0 275.36 0 316.11 0c1.6 0 3.13 0.64 4.26 1.77c1.13 1.13 1.77 2.66 1.77 4.26c0 34.35 0 203.71 0 203.71z" />
		</g>
		<path id="Path 37" class="shp2" d="m519.09 242.08h-20.21v-21.31h20.21v21.31z" />
		<path id="Path 38" class="shp1" d="m633.93 225.74c0 0.49-0.39 0.88-0.88 0.88c-9.46 0-92.14 0-101.61 0c-0.49 0-0.88-0.4-0.88-0.88c0-1.11 0-2.99 0-4.1c0-0.49 0.39-0.88 0.88-0.88c9.46 0 92.14 0 101.61 0c0.49 0 0.88 0.4 0.88 0.88c0 1.1 0 2.99 0 4.1zm0 39.9c0 0.49-0.39 0.88-0.88 0.88c-9.46 0-92.14 0-101.61 0c-0.49 0-0.88-0.4-0.88-0.88c0-1.11 0-2.99 0-4.1c0-0.49 0.39-0.88 0.88-0.88c9.46 0 92.14 0 101.61 0c0.49 0 0.88 0.4 0.88 0.88c0 1.11 0 2.99 0 4.1zm-51.69-29.25c0 0.49-0.39 0.88-0.88 0.88c-6.24 0-43.68 0-49.92 0c-0.49 0-0.88-0.4-0.88-0.88c0-1.1 0-2.99 0-4.1c0-0.49 0.39-0.88 0.88-0.88c6.24 0 43.68 0 49.92 0c0.49 0 0.88 0.39 0.88 0.88c0 1.11 0 2.99 0 4.1zm0 39.9c0 0.49-0.39 0.88-0.88 0.88c-6.24 0-43.68 0-49.92 0c-0.49 0-0.88-0.4-0.88-0.88c0-1.1 0-2.99 0-4.1c0-0.49 0.39-0.88 0.88-0.88c6.24 0 43.68 0 49.92 0c0.49 0 0.88 0.39 0.88 0.88c0 1.11 0 2.99 0 4.1z" />
		<path id="Path 39" class="shp3" d="m519.09 279.58h-20.21v-21.31h20.21v21.31zm-97.51-86.28c13.31 0.09 25.21 6.47 33.18 16.46l-33.46 29.62v-46.08h0.28z" />
		<path id="Path 40" fill-rule="evenodd" class="shp2" d="m455.51 215.25c-0.49-0.6-0.99-1.19-1.5-1.76c0.51 0.57 1.01 1.16 1.5 1.76zm12.24 34.92c0 29.67-22.84 53.75-50.97 53.75c-28.13 0-50.97-24.09-50.97-53.75c0-29.55 22.66-53.56 50.64-53.75l0.33 0v53.75l39.03-34.55c-0.1-0.12-0.2-0.25-0.3-0.37c7.63 9.39 12.24 21.59 12.24 34.92zm-13.87-36.84l0.13 0.15l-0.22-0.25l0.09 0.1zm-0.21-0.24l0.11 0.12l-0.22-0.24l0.11 0.12zm-1.79-1.88c0.49 0.49 0.96 0.99 1.43 1.5c-0.47-0.51-0.95-1.01-1.43-1.5zm-0.16-0.16l0.15 0.15l-0.22-0.22l0.08 0.08zm-0.22-0.22l0.12 0.12l-0.21-0.21l0.1 0.09zm-0.23-0.22l0.09 0.09l-0.21-0.2l0.12 0.11zm-0.23-0.22l0.07 0.07l-0.22-0.21l0.15 0.14zm-0.17-0.16c-0.41-0.39-0.83-0.78-1.26-1.16c0.43 0.38 0.84 0.76 1.26 1.16zm-1.51-1.38l0.22 0.2l-0.15-0.14l-0.06-0.06zm-0.25-0.22l0.2 0.18l-0.12-0.11l-0.08-0.07zm-0.52-0.44l0.2 0.17l-0.08-0.07l-0.12-0.1zm-0.27-0.23l0.21 0.18l-0.06-0.05l-0.15-0.13zm-0.09-0.07l0.04 0.04l-0.25-0.21l0.2 0.17zm-1.01-0.81c0.08 0.06 0.16 0.13 0.24 0.19l-0.24-0.19zm0.8 0.64l-0.27-0.22c-0.05-0.04-0.1-0.08-0.16-0.13c0.14 0.11 0.28 0.23 0.42 0.34zm-0.42-0.34c-0.04-0.03-0.09-0.07-0.13-0.1l0.02 0.01c0.04 0.03 0.08 0.06 0.11 0.09zm-0.58-0.46l0.16 0.13l-0.21-0.17l0.05 0.04zm-0.25-0.19l0.13 0.1l-0.2-0.15l0.07 0.05zm-0.25-0.19l0.1 0.08l-0.19-0.14l0.09 0.06zm-0.25-0.19l0.08 0.06l-0.19-0.14l0.1 0.08zm-0.25-0.19l0.06 0.05l-0.19-0.14l0.13 0.09zm-0.25-0.19l0.05 0.04l-0.21-0.15l0.16 0.11zm-0.25-0.18l0.03 0.02l-0.25-0.18l0.22 0.16zm-0.79-0.56c0.18 0.13 0.37 0.26 0.55 0.39l-0.28-0.2l-0.27-0.19zm-0.23-0.16l0.17 0.12l-0.21-0.14l0.04 0.03zm-0.26-0.18l0.13 0.09l-0.19-0.13l0.06 0.04zm-0.26-0.17l0.11 0.07l-0.18-0.12l0.07 0.05zm-0.26-0.17l0.08 0.06l-0.17-0.11l0.09 0.06zm-0.37-0.24l0.17 0.11l-0.07-0.04l-0.11-0.07zm-0.16-0.1l0.05 0.03l-0.18-0.11l0.13 0.08zm-0.53-0.33l0.02 0.01l-0.27-0.17l0.25 0.15zm-0.55-0.34c0.01 0.01 0.02 0.01 0.04 0.02l-0.04-0.02zm0.04 0.02l0.25 0.15c-0.08-0.05-0.16-0.1-0.25-0.15zm-0.29-0.17l0.17 0.1l-0.2-0.12l0.03 0.02zm-0.31-0.19l0.17 0.1l-0.13-0.08l-0.04-0.03zm-0.23-0.13l0.11 0.06l-0.17-0.1l0.06 0.03zm-0.27-0.16l0.09 0.05l-0.16-0.09l0.07 0.04zm-0.27-0.15l0.07 0.04l-0.16-0.09l0.09 0.05zm-0.38-0.21l0.16 0.09l-0.05-0.03l-0.11-0.06zm-0.16-0.09l0.04 0.02l-0.17-0.09l0.13 0.07zm-0.28-0.15l0.02 0.01l-0.18-0.1l0.16 0.09zm-0.55-0.29c0.1 0.05 0.19 0.1 0.29 0.15l-0.29-0.15zm-0.28-0.14l0.17 0.09l-0.19-0.1l0.02 0.01zm-0.31-0.16l0.16 0.08l-0.13-0.07l-0.03-0.02zm-0.25-0.12l0.11 0.06l-0.16-0.08l0.05 0.02zm-0.34-0.17l0.15 0.08l-0.09-0.04l-0.06-0.03zm-0.59-0.29l0.15 0.07l-0.06-0.03l-0.09-0.05zm-0.19-0.09l0.04 0.02l-0.15-0.07l0.11 0.05zm-0.28-0.13l0.03 0.01l-0.15-0.07l0.13 0.06zm-0.44-0.2l0.16 0.08l-0.01 0l-0.15-0.07zm-0.71-0.31l0.13 0.06l-0.15-0.06l0.02 0.01zm-0.29-0.12l0.11 0.05l-0.15-0.06l0.04 0.01zm-0.29-0.12l0.09 0.04l-0.15-0.06l0.05 0.02zm-0.29-0.12l0.08 0.03l-0.14-0.06l0.07 0.03zm18.29 12.83l0.09 0.1l-0.22-0.24l0.13 0.15zm-4.5-4.37l0.1 0.09l-0.2-0.17l0.1 0.09zm-6.02-4.46l0.03 0.02l-0.2-0.12l0.16 0.1zm-4.91-2.73l0.07 0.04l-0.15-0.07l0.08 0.04zm-1.71-0.79l0.17 0.07l-0.17-0.07zm-1.73-0.72l0 0l0 0zm-0.3-0.11l0.01 0l-0.01 0zm-0.29-0.11h0h0zm-1.18-0.43l0.01 0l-0.01 0zm-0.3-0.1h0h0zm-1.2-0.39l0 0l0 0zm-0.3-0.09l0 0l0 0zm-1.21-0.35h0h0zm-0.31-0.08h0h0zm-1.54-0.39l0.01 0l-0.01 0zm-1.55-0.34h0.01h-0.01zm-0.31-0.06h0.01h-0.01zm-1.26-0.23l0.01 0l-0.01 0zm-0.32-0.05l0.01 0l-0.01 0zm-1.27-0.19l0.01 0l-0.01 0zm-0.32-0.04l0.02 0l-0.02 0zm-0.31-0.04l0.01 0l-0.01 0zm-0.96-0.11l0.02 0l-0.02 0zm-0.33-0.03l0.03 0l-0.03 0zm-0.32-0.03l0.02 0l-0.02 0zm-0.97-0.07l0.02 0l-0.02 0zm-0.33-0.02l0.04 0l-0.04 0zm-0.33-0.02l0.03 0l-0.03 0zm-0.32-0.01h0.01h-0.01zm-0.65-0.03l0.03 0l-0.03 0zm-0.34-0.01l0.04 0l-0.04 0zm-0.33-0.01h0.04h-0.04zm-0.33-0.01h0.03h-0.03z" />
		<path id="Path 41" class="shp4" d="m625.12 132.9c6.04 0 10.94 5.17 10.94 11.54c0 6.37-4.9 11.54-10.94 11.54c-6.04 0-10.94-5.17-10.94-11.54c0-6.37 4.9-11.54 10.94-11.54z" />
		<path id="Path 42" class="shp2" d="m598.8 132.9c6.04 0 10.94 5.17 10.94 11.54c0 6.37-4.9 11.54-10.94 11.54c-6.04 0-10.94-5.17-10.94-11.54c0-6.37 4.9-11.54 10.94-11.54z" />
		<path id="Path 43" class="shp3" d="m572.47 132.9c6.04 0 10.94 5.17 10.94 11.54c0 6.37-4.9 11.54-10.94 11.54c-6.04 0-10.94-5.17-10.94-11.54c0-6.37 4.9-11.54 10.94-11.54z" />
		<path id="Path 44" class="shp1" d="m879.58 743.58c0 2.02-0.8 3.96-2.23 5.39c-1.43 1.43-3.37 2.23-5.39 2.23h-746.16c-2.02 0-3.96-0.8-5.39-2.23c-1.43-1.43-2.23-3.37-2.23-5.39v0c0-2.02 0.8-3.96 2.23-5.39c1.43-1.43 3.37-2.23 5.39-2.23c74.49 0 671.66 0 746.16 0c2.02 0 3.96 0.8 5.39 2.23c1.43 1.43 2.23 3.37 2.23 5.39v0zm-172.39-72.92c0 3.27-2.65 5.91-5.91 5.91c-48.09 0-374.43 0-422.52 0c-3.27 0-5.91-2.65-5.91-5.91c0-36.62 0-232.05 0-268.67c0-3.27 2.65-5.91 5.91-5.91c48.09 0 374.43 0 422.52 0c3.26 0 5.91 2.65 5.91 5.91c0 36.62 0 232.05 0 268.67z" />
		<path id="Path 45" class="shp7" d="m687.19 655.58c0 3.27-2.65 5.91-5.91 5.91c-45.34 0-337.2 0-382.54 0c-3.27 0-5.91-2.65-5.91-5.91c0-34.02 0-204.49 0-238.52c0-3.27 2.65-5.91 5.91-5.91c45.34 0 337.2 0 382.54 0c3.27 0 5.91 2.65 5.91 5.91c0 34.03 0 204.5 0 238.52z" />
		<g id="Mask" clip-path="url(#cp5)">
			<path id="Path 47" class="shp8" d="m481.25 439.02c82.02 0 148.6 66.59 148.6 148.6c0 82.02-66.59 148.6-148.6 148.6c-82.02 0-148.6-66.59-148.6-148.6c0-82.02 66.59-148.6 148.6-148.6z" />
		</g>
		<path id="Path 49" class="shp4" d="m670.26 421.74c4.15 0 7.51 3.37 7.51 7.51c0 4.15-3.37 7.51-7.51 7.51c-4.15 0-7.51-3.36-7.51-7.51c0-4.15 3.37-7.51 7.51-7.51z" />
		<path id="Path 50" class="shp2" d="m652.18 421.74c4.15 0 7.51 3.37 7.51 7.51c0 4.15-3.37 7.51-7.51 7.51c-4.15 0-7.51-3.36-7.51-7.51c0-4.15 3.37-7.51 7.51-7.51z" />
		<path id="Path 51" class="shp3" d="m634.11 421.74c4.15 0 7.51 3.37 7.51 7.51c0 4.15-3.37 7.51-7.51 7.51c-4.15 0-7.51-3.36-7.51-7.51c0-4.15 3.37-7.51 7.51-7.51z" />
		<path id="Path 52" class="shp1" d="m506.1 736.23h-47.89l-6.41-59.66h60.7l-6.41 59.66zm-76.97-18.39h106.06l14.2 18.39h-134.45l14.2-18.39z" />
		<path id="Path 53" class="shp9" d="m612.33 456.38c0 14.29-2.3 26.03-4.42 33.93c-3.74-0.59-17.64-1.08-36.76-1.44l-8.54-34.59l-5.51 34.36c-35.17-0.49-81.5-0.59-116.67-0.18l-5.48-34.18l-8.49 34.38c-19.13 0.34-33.06 0.87-36.82 1.64c-2.88-10.78-4.42-22.16-4.42-33.93c0-66.89 49.76-121.45 112.17-124.3v-0.1c0.46 0.01 0.92 0.03 1.38 0.05c0.46-0.02 0.92-0.04 1.38-0.05v0.1c62.41 2.85 112.17 57.41 112.17 124.3z" />
		<path id="Path 54" fill-rule="evenodd" class="shp10" d="m522.57 609.71c-2.24 1.66-4.92 2.63-7.93 2.63h-31.77c-9.96 0-16.43-10.55-14.57-22.09l2.68-16.66l0.47-2.94c1.34-8.33 8.33-14.55 15.64-14.55h23.34c7.32 0 14.31 6.23 15.64 14.55l3.15 19.6c1.29 8.01-1.44 15.53-6.54 19.39l-0.1 0.08zm-51.09-35.89c-0.09-0.04-0.17-0.08-0.25-0.12l-0.12-0.06c0.08 0.04 0.16 0.08 0.25 0.12l0.13 0.06zm144.55-93.61c0 15.14-12.27 27.41-27.41 27.41c-15.14 0-27.41-12.27-27.41-27.41c0-15.14 12.27-27.41 27.41-27.41c15.14 0 27.41 12.27 27.41 27.41zm-181.68 0c0 15.14-12.27 27.41-27.41 27.41c-15.14 0-27.42-12.27-27.42-27.41c0-15.14 12.27-27.41 27.42-27.41c15.14 0 27.41 12.27 27.41 27.41z" />
		<path id="Path 55" class="shp9" d="m396.54 506.87c-3.94-11.19-6.08-23.2-6.08-35.68v-26.24c0-51.37 42.03-93.4 93.4-93.4h29.8c51.37 0 93.4 42.03 93.4 93.4v26.24c0 11.5-1.81 22.59-5.17 33.01v0l-16.17 65.03l2.34-36.95v0c-19.57 28.46-52.35 47.21-89.3 47.21c-36.79 0-69.44-18.59-89.04-46.83l2.32 36.57l-15.5-62.35zm92.82-173.19c0 0 30.69-13.45 55.89-15.31c0 0-17.49 8.1-30.95 17.9c-13.47 9.8-24.93-2.59-24.93-2.59z" />
		<path id="Path 56" class="shp2" d="m399.5 869.79v0l-8.28-142.81l-49.5-4.39c1.94-71.83 60.85-129.55 133.14-129.55h47.83c72.29 0 131.2 57.71 133.14 129.55l-49.5 4.39l-8.28 142.81v0c-69.71 22.38-135.75 21.44-198.54 0z" />
		<g id="Mask" clip-path="url(#cp6)">
			<path id="Path 58" class="shp0" d="m446.75 574.91c0-1.86 0.38-3.67 1.09-5.42c16.63-3.57 34.3-5.5 52.39-5.5c18.1 0 35.76 1.93 52.39 5.5c0.71 1.75 1.09 3.56 1.09 5.42c0 14.81-23.94 26.82-53.48 26.82c-29.54 0-53.48-12.01-53.48-26.82zm220.57 146.97l-63.69 5.46l-0.95-11.09l63.69-5.46l0.95 11.09zm-331.8-10.51l63.79 5.47l-0.93 10.84l-63.79-5.47l0.93-10.84z" />
			<path id="Path 59" class="shp4" d="m602.41 794.24l-12.06-113.13l15.96 45.88l-3.9 67.25zm-211.2-67.25l16.19-45.88l-12.06 113.13l-4.12-67.25z" />
		</g>
		<path id="Path 61" class="shp9" d="m460.82 729.97c-7.07 0-12.81-5.74-12.81-12.81l25.06-134.68c0-7.07 5.74-12.81 12.81-12.81h26c7.07 0 12.81 5.74 12.81 12.81l25.06 134.68c0 7.07-5.74 12.81-12.81 12.81h-76.12z" />
		<path id="Path 62" class="shp2" d="m469.6 572.06c0-1.88 1.53-3.41 3.41-3.41c18.31-3.83 35.5-3.64 51.74 0c1.88 0 3.41 1.53 3.41 3.41v6.81c0 1.88-1.53 3.41-3.41 3.41c-18.3-4.65-35.51-4.48-51.74 0c-1.88 0-3.41-1.53-3.41-3.41v-6.81z" />
		<path id="Path 63" class="shp10" d="m655.82 722.59c0 0 1.54 18.85 2.84 34.66c0.98 11.95-7.51 22.59-19.38 24.29c-0.99 0.14-1.98 0.28-2.97 0.43c-6.03 0.86-12.16-0.74-17-4.45c-4.84-3.71-7.98-9.21-8.71-15.26c-1.97-16.29-4.28-35.27-4.28-35.27l49.5-4.39zm-264.6 4.39c0 0-2.22 18.9-4.13 35.18c-0.71 6.07-3.85 11.59-8.69 15.32c-4.84 3.73-10.99 5.34-17.03 4.47c-0.99-0.14-1.98-0.28-2.97-0.42c-11.83-1.69-20.31-12.28-19.39-24.2c1.23-15.83 2.7-34.74 2.7-34.74l49.5 4.39z" />
		<path id="Path 64" class="shp1" d="m754.51 726.11c0 2.7-1.11 5.16-2.88 6.94c-1.79 1.79-4.25 2.9-6.95 2.9h-44.27c-5.41 0-9.84-4.43-9.84-9.84c0-6.6 2.71-12.61 7.05-16.96c4.35-4.35 10.37-7.05 16.97-7.05h15.92c13.21 0 24.01 10.81 24.01 24.02z" />
		<path id="Path 65" class="shp0" d="m724.17 702.1v11.37c0 0.91-0.74 1.64-1.64 1.64c-0.9 0-1.64-0.73-1.64-1.64v-11.37h3.27z" />
		<path id="Path 66" class="shp11" d="m836.11 670.75c-34.24-69.19 41.61-107.95 41.61-107.95c0 0 30.22 79.65-41.61 107.95zm-20.41 0c34.25-69.19-41.61-107.95-41.61-107.95c0 0-30.21 79.65 41.61 107.95z" />
		<path id="Path 67" class="shp3" d="m825.9 677.1c-74.06-68.07 0-150.74 0-150.74c0 0 74.06 82.67 0 150.74z" />
		<path id="Path 68" class="shp1" d="m860.57 735.95h-69.33c-4.14 0-7.62-2.35-8.1-5.47l-10.88-70.39c-0.57-3.68 3.22-6.91 8.1-6.91h91.08c4.88 0 8.67 3.23 8.1 6.91l-10.88 70.39c-0.48 3.12-3.96 5.47-8.1 5.47z" />
		<path id="Path 69" class="shp12" d="m264.85 607.02v128.94h-33.95v-128.94h33.95z" />
		<path id="Path 70" class="shp0" d="m247.87 613.71c4.16 0 7.54 3.38 7.54 7.54c0 4.16-3.38 7.54-7.54 7.54c-4.17 0-7.54-3.38-7.54-7.54c0-4.17 3.38-7.54 7.54-7.54z" />
		<path id="Path 71" class="shp1" d="m231.25 607.02v128.94h-33.95v-128.94h33.95z" />
		<path id="Path 72" class="shp0" d="m214.27 613.71c4.17 0 7.54 3.38 7.54 7.54c0 4.16-3.38 7.54-7.54 7.54c-4.16 0-7.54-3.38-7.54-7.54c0-4.17 3.38-7.54 7.54-7.54z" />
		<path id="Path 73" class="shp2" d="m197.29 608.15l-17.88 127.69l-33.62-4.71l17.88-127.69l33.62 4.71z" />
		<path id="Path 74" class="shp0" d="m179.77 613.48c4.13 0.58 7 4.39 6.42 8.52c-0.58 4.12-4.39 7-8.52 6.42c-4.12-0.58-7-4.39-6.42-8.52c0.58-4.12 4.39-7 8.52-6.42z" />
		<path id="Path 75" class="shp1" d="m633.13 886.22h-268.51c0 0 0-61.09 0-123.83c0-35.61 14.14-69.75 39.32-94.93c25.18-25.18 59.32-39.32 94.93-39.32v0c74.15 0 134.25 60.11 134.25 134.25v123.83z" />
	</g>
</svg>