<svg version="1.2" baseProfile="tiny-ps" xmlns="http://www.w3.org/2000/svg" viewBox="0 0 1200 1200" width="171" height="171">
	<title>hrm-ai</title>
	<defs>
		<linearGradient id="grd1" gradientUnits="userSpaceOnUse"  x1="174.308" y1="611.795" x2="271.644" y2="527.243">
			<stop offset="0" stop-color="#000000"  />
			<stop offset="1" stop-color="#ffffff"  />
		</linearGradient>
		<linearGradient id="grd2" gradientUnits="userSpaceOnUse"  x1="192.521" y1="507.287" x2="302.982" y2="483.916">
			<stop offset="0" stop-color="#000000"  />
			<stop offset="1" stop-color="#ffffff"  />
		</linearGradient>
		<linearGradient id="grd3" gradientUnits="userSpaceOnUse"  x1="1000.812" y1="35.061" x2="1261.969" y2="650.389">
			<stop offset="0" stop-color="#78bdc4"  />
			<stop offset="1" stop-color="#f8444f"  />
		</linearGradient>
		<linearGradient id="grd4" gradientUnits="userSpaceOnUse"  x1="230.596" y1="996.601" x2="109.516" y2="292.824">
			<stop offset="0" stop-color="#000000"  />
			<stop offset="1" stop-color="#ffffff"  />
		</linearGradient>
		<linearGradient id="grd5" gradientUnits="userSpaceOnUse"  x1="39.717" y1="542.678" x2="318.414" y2="30.544">
			<stop offset="0" stop-color="#000000"  />
			<stop offset="1" stop-color="#ffffff"  />
		</linearGradient>
		<linearGradient id="grd6" gradientUnits="userSpaceOnUse"  x1="997.526" y1="885.935" x2="1069.931" y2="842.782">
			<stop offset="0" stop-color="#000000"  />
			<stop offset="1" stop-color="#ffffff"  />
		</linearGradient>
		<linearGradient id="grd7" gradientUnits="userSpaceOnUse"  x1="865.491" y1="827.028" x2="1020.292" y2="859.838">
			<stop offset="0" stop-color="#000000"  />
			<stop offset="1" stop-color="#ffffff"  />
		</linearGradient>
		<linearGradient id="grd8" gradientUnits="userSpaceOnUse"  x1="1079.206" y1="738.628" x2="1038.26" y2="677.813">
			<stop offset="0" stop-color="#000000"  />
			<stop offset="1" stop-color="#ffffff"  />
		</linearGradient>
		<linearGradient id="grd9" gradientUnits="userSpaceOnUse"  x1="896.609" y1="901.127" x2="981.528" y2="904.124">
			<stop offset="0" stop-color="#000000"  />
			<stop offset="1" stop-color="#ffffff"  />
		</linearGradient>
		<linearGradient id="grd10" gradientUnits="userSpaceOnUse"  x1="441.081" y1="702.665" x2="725.369" y2="364.655">
			<stop offset="0" stop-color="#ffffff"  />
			<stop offset="1" stop-color="#000000"  />
		</linearGradient>
		<linearGradient id="grd11" gradientUnits="userSpaceOnUse"  x1="487.465" y1="879.649" x2="335.155" y2="526.933">
			<stop offset="0" stop-color="#000000"  />
			<stop offset="1" stop-color="#ffffff"  />
		</linearGradient>
		<linearGradient id="grd12" gradientUnits="userSpaceOnUse"  x1="409.672" y1="472.957" x2="526.175" y2="186.79">
			<stop offset="0" stop-color="#000000"  />
			<stop offset="1" stop-color="#ffffff"  />
		</linearGradient>
		<linearGradient id="grd13" gradientUnits="userSpaceOnUse"  x1="952.17" y1="427.239" x2="979.164" y2="390.191">
			<stop offset="0" stop-color="#ffffff"  />
			<stop offset="1" stop-color="#000000"  />
		</linearGradient>
		<linearGradient id="grd14" gradientUnits="userSpaceOnUse"  x1="959.11" y1="478.069" x2="919.742" y2="376.886">
			<stop offset="0" stop-color="#000000"  />
			<stop offset="1" stop-color="#ffffff"  />
		</linearGradient>
		<linearGradient id="grd15" gradientUnits="userSpaceOnUse"  x1="951.715" y1="466.421" x2="919.649" y2="360.709">
			<stop offset="0" stop-color="#000000"  />
			<stop offset="1" stop-color="#ffffff"  />
		</linearGradient>
		<linearGradient id="grd16" gradientUnits="userSpaceOnUse"  x1="685.465" y1="191.389" x2="710.706" y2="155.079">
			<stop offset="0" stop-color="#ffffff"  />
			<stop offset="1" stop-color="#000000"  />
		</linearGradient>
		<linearGradient id="grd17" gradientUnits="userSpaceOnUse"  x1="688.293" y1="252.241" x2="657.413" y2="150.438">
			<stop offset="0" stop-color="#000000"  />
			<stop offset="1" stop-color="#ffffff"  />
		</linearGradient>
		<linearGradient id="grd18" gradientUnits="userSpaceOnUse"  x1="646.59" y1="195.555" x2="699.146" y2="86.81">
			<stop offset="0" stop-color="#000000"  />
			<stop offset="1" stop-color="#ffffff"  />
		</linearGradient>
		<linearGradient id="grd19" gradientUnits="userSpaceOnUse"  x1="253.724" y1="705.841" x2="494.304" y2="478.429">
			<stop offset="0" stop-color="#ffffff"  />
			<stop offset="1" stop-color="#000000"  />
		</linearGradient>
		<linearGradient id="grd20" gradientUnits="userSpaceOnUse"  x1="573.967" y1="570.445" x2="343.897" y2="450.695">
			<stop offset="0" stop-color="#000000"  />
			<stop offset="1" stop-color="#ffffff"  />
		</linearGradient>
		<linearGradient id="grd21" gradientUnits="userSpaceOnUse"  x1="662.821" y1="405.968" x2="447.172" y2="293.724">
			<stop offset="0" stop-color="#000000"  />
			<stop offset="1" stop-color="#ffffff"  />
		</linearGradient>
		<linearGradient id="grd22" gradientUnits="userSpaceOnUse"  x1="787.83" y1="768.58" x2="816.618" y2="483.61">
			<stop offset="0" stop-color="#ffffff"  />
			<stop offset="1" stop-color="#000000"  />
		</linearGradient>
	</defs>
	<style>
		tspan { white-space:pre }
		.shp0 { fill: #ffffff } 
		.shp1 { fill: #012c3d } 
		.shp2 { fill: #f8444f } 
		.shp3 { fill: #cde4e3 } 
		.shp4 { mix-blend-mode: overlay;fill: url(#grd1) } 
		.shp5 { fill: #a2d1d4 } 
		.shp6 { mix-blend-mode: overlay;fill: url(#grd2) } 
		.shp7 { fill: url(#grd3) } 
		.shp8 { mix-blend-mode: overlay;fill: url(#grd4) } 
		.shp9 { mix-blend-mode: overlay;fill: url(#grd5) } 
		.shp10 { fill: #a63c49 } 
		.shp11 { mix-blend-mode: overlay;fill: url(#grd6) } 
		.shp12 { fill: #f7bcbc } 
		.shp13 { mix-blend-mode: overlay;fill: url(#grd7) } 
		.shp14 { mix-blend-mode: overlay;fill: url(#grd8) } 
		.shp15 { fill: #78bdc4 } 
		.shp16 { mix-blend-mode: overlay;fill: url(#grd9) } 
		.shp17 { opacity: 0.2;mix-blend-mode: multiply;fill: url(#grd10) } 
		.shp18 { fill: #f7f8f3 } 
		.shp19 { fill: #e2e2e0 } 
		.shp20 { fill: #f88086 } 
		.shp21 { fill: #f9cda5 } 
		.shp22 { fill: #fbdcbc } 
		.shp23 { fill: #000000 } 
		.shp24 { mix-blend-mode: overlay;fill: url(#grd11) } 
		.shp25 { mix-blend-mode: overlay;fill: url(#grd12) } 
		.shp26 { opacity: 0.149;mix-blend-mode: multiply;fill: url(#grd13) } 
		.shp27 { mix-blend-mode: overlay;fill: url(#grd14) } 
		.shp28 { mix-blend-mode: overlay;fill: url(#grd15) } 
		.shp29 { opacity: 0.149;mix-blend-mode: multiply;fill: url(#grd16) } 
		.shp30 { mix-blend-mode: overlay;fill: url(#grd17) } 
		.shp31 { mix-blend-mode: overlay;fill: url(#grd18) } 
		.shp32 { opacity: 0.102;mix-blend-mode: multiply;fill: url(#grd19) } 
		.shp33 { fill: #427577 } 
		.shp34 { opacity: 0.102;fill: #000000 } 
		.shp35 { fill: #508d97 } 
		.shp36 { fill: #bfd1cf } 
		.shp37 { opacity: 0.149;fill: #f7f8f3 } 
		.shp38 { mix-blend-mode: overlay;fill: url(#grd20) } 
		.shp39 { mix-blend-mode: overlay;fill: url(#grd21) } 
		.shp40 { fill: #ff9393 } 
		.shp41 { opacity: 0.102;mix-blend-mode: multiply;fill: url(#grd22) } 
		.shp42 { fill: #f9cfaa } 
	</style>
	<g id="Layer 1">
		<g id="&lt;Group&gt;">
			<g id="&lt;Group&gt;">
				<path id="&lt;Path&gt;" class="shp0" d="m1200 0v1200h-1200v-1200h1200z" />
				<g id="&lt;Group&gt;">
					<path id="&lt;Compound Path&gt;" class="shp1" d="m100.99 983.98v41.99h-8.44v-18.26h-17.96v18.26h-8.39v-41.99h8.39v17.01h17.96v-17.01h8.44z" />
					<path id="&lt;Compound Path&gt;" class="shp1" d="m141.32 993.02v32.95h-8.38v-6.66c-0.87 2.22-2.31 3.96-4.31 5.21c-2 1.24-4.31 1.87-6.93 1.87c-3.8 0-6.83-1.25-9.09-3.74c-2.26-2.5-3.39-5.99-3.39-10.47v-19.15h8.33v18.2c0 2.62 0.67 4.65 2.02 6.09c1.35 1.45 3.17 2.17 5.47 2.17c2.42 0 4.34-0.77 5.77-2.32c1.42-1.55 2.14-3.77 2.14-6.66v-17.48h8.38z" />
					<path id="&lt;Compound Path&gt;" class="shp1" d="m201.53 996.26c2.31 2.48 3.47 6 3.47 10.56v19.15h-8.32v-18.2c0-2.54-0.65-4.49-1.93-5.86c-1.29-1.37-3.06-2.05-5.32-2.05c-2.34 0-4.21 0.74-5.6 2.2c-1.39 1.46-2.08 3.61-2.08 6.42v17.48h-8.33v-18.2c0-2.54-0.64-4.49-1.93-5.86c-1.29-1.37-3.06-2.05-5.33-2.05c-2.33 0-4.2 0.74-5.59 2.2c-1.38 1.46-2.07 3.61-2.07 6.42v17.48h-8.39v-32.95h8.39v6.24c0.87-2.14 2.24-3.79 4.13-4.96c1.89-1.17 4.08-1.75 6.57-1.75c2.66 0 4.97 0.63 6.93 1.9c1.96 1.27 3.44 3.09 4.43 5.47c1.03-2.26 2.57-4.05 4.61-5.38c2.04-1.33 4.33-1.99 6.87-1.99c4.01 0 7.17 1.24 9.49 3.72z" />
					<path id="&lt;Compound Path&gt;" fill-rule="evenodd" class="shp1" d="m233.61 994.56c1.99 1.31 3.39 3.07 4.23 5.29v-6.84h8.32v32.95h-8.32v-6.9c-0.84 2.23-2.24 4-4.23 5.33c-1.98 1.33-4.36 1.99-7.14 1.99c-2.77 0-5.27-0.67-7.49-2.02c-2.23-1.35-3.95-3.3-5.2-5.86c-1.25-2.55-1.88-5.56-1.88-9.01c0-3.45 0.62-6.45 1.88-9.01c1.25-2.55 2.98-4.51 5.2-5.85c2.22-1.35 4.72-2.02 7.49-2.02c2.78 0 5.16 0.66 7.14 1.96zm-10.82 7.9c-1.59 1.71-2.38 4.05-2.38 7.02c0 2.98 0.79 5.31 2.38 6.99c1.58 1.69 3.68 2.53 6.3 2.53c2.53 0 4.62-0.86 6.27-2.58c1.65-1.73 2.47-4.04 2.47-6.93c0-2.93-0.83-5.26-2.47-6.98c-1.65-1.72-3.74-2.59-6.27-2.59c-2.63 0-4.72 0.86-6.3 2.55z" />
					<path id="&lt;Compound Path&gt;" class="shp1" d="m283.69 996.29c2.26 2.5 3.39 6.01 3.39 10.53v19.15h-8.33v-18.2c0-2.61-0.67-4.65-2.02-6.09c-1.35-1.45-3.19-2.17-5.53-2.17c-2.38 0-4.28 0.77-5.71 2.32c-1.42 1.55-2.14 3.77-2.14 6.66v17.48h-8.39v-32.95h8.39v6.6c0.87-2.23 2.31-3.96 4.31-5.2c2-1.25 4.31-1.88 6.93-1.88c3.81 0 6.84 1.25 9.1 3.74z" />
					<path id="&lt;Compound Path&gt;" fill-rule="evenodd" class="shp1" d="m88.09 1097.33l-9.81-16.36h-3.69v16.36h-8.39v-41.99h16c4.88 0 8.6 1.19 11.15 3.57c2.55 2.38 3.84 5.51 3.84 9.4c0 3.17-0.88 5.83-2.65 7.97c-1.76 2.14-4.31 3.57-7.64 4.28l10.46 16.77h-9.28zm-13.5-22.13h6.9c4.8 0 7.2-2.12 7.2-6.36c0-2.02-0.59-3.6-1.76-4.73c-1.17-1.13-2.99-1.69-5.44-1.69h-6.9v12.79z" />
					<path id="&lt;Compound Path&gt;" fill-rule="evenodd" class="shp1" d="m134.72 1082.46h-24.15c0.12 2.94 0.91 5.1 2.38 6.49c1.47 1.39 3.29 2.08 5.47 2.08c1.95 0 3.56-0.47 4.85-1.43c1.29-0.95 2.11-2.24 2.47-3.87h8.86c-0.44 2.31-1.37 4.36-2.79 6.19c-1.43 1.83-3.26 3.26-5.5 4.28c-2.24 1.03-4.73 1.55-7.47 1.55c-3.21 0-6.07-0.69-8.57-2.05c-2.5-1.36-4.44-3.32-5.83-5.86c-1.39-2.54-2.08-5.53-2.08-8.98c0-3.45 0.69-6.45 2.08-9.01c1.39-2.55 3.33-4.51 5.83-5.85c2.5-1.35 5.36-2.02 8.57-2.02c3.25 0 6.09 0.67 8.53 2.02c2.44 1.35 4.32 3.21 5.65 5.56c1.33 2.36 1.99 5.04 1.99 8.06c0 0.83-0.09 1.78-0.29 2.85zm-10.27-9.81c-1.52-1.39-3.4-2.09-5.61-2.09c-2.26 0-4.17 0.7-5.71 2.09c-1.55 1.38-2.4 3.43-2.56 6.12h16c0.12-2.7-0.59-4.74-2.12-6.12z" />
					<path id="&lt;Compound Path&gt;" class="shp1" d="m163.14 1067c2.42 2.02 3.93 4.72 4.52 8.09h-7.85c-0.32-1.58-1.03-2.86-2.13-3.81c-1.11-0.95-2.56-1.43-4.35-1.43c-1.43 0-2.54 0.34-3.33 1.01c-0.8 0.67-1.19 1.59-1.19 2.74c0 0.91 0.32 1.65 0.95 2.2c0.63 0.55 1.42 0.99 2.38 1.31c0.95 0.32 2.31 0.7 4.1 1.13c2.5 0.55 4.52 1.14 6.09 1.76c1.57 0.61 2.92 1.58 4.04 2.91c1.13 1.34 1.7 3.13 1.7 5.38c0 2.82-1.1 5.1-3.3 6.84c-2.2 1.75-5.17 2.62-8.89 2.62c-4.28 0-7.72-0.96-10.29-2.88c-2.58-1.93-4.14-4.67-4.7-8.24h8.03c0.2 1.62 0.91 2.91 2.14 3.84c1.23 0.93 2.84 1.4 4.82 1.4c1.42 0 2.51-0.35 3.27-1.04c0.76-0.69 1.13-1.59 1.13-2.71c0-0.95-0.33-1.72-0.98-2.31c-0.66-0.59-1.47-1.05-2.44-1.36c-0.97-0.32-2.34-0.7-4.13-1.14c-2.46-0.55-4.45-1.11-5.98-1.69c-1.52-0.57-2.83-1.5-3.92-2.77c-1.1-1.27-1.63-3.02-1.63-5.24c0-2.85 1.09-5.17 3.27-6.96c2.18-1.78 5.19-2.67 9.04-2.67c4 0 7.21 1.01 9.63 3.04z" />
					<path id="&lt;Compound Path&gt;" fill-rule="evenodd" class="shp1" d="m199.39 1065.99c2.55 1.35 4.56 3.3 6.04 5.85c1.46 2.56 2.2 5.57 2.2 9.01c0 3.45-0.73 6.45-2.2 8.98c-1.47 2.54-3.48 4.49-6.04 5.86c-2.56 1.37-5.45 2.05-8.66 2.05c-3.21 0-6.09-0.69-8.65-2.05c-2.56-1.36-4.57-3.32-6.04-5.86c-1.47-2.54-2.2-5.53-2.2-8.98c0-3.45 0.73-6.45 2.2-9.01c1.46-2.55 3.47-4.51 6.04-5.85c2.55-1.35 5.44-2.02 8.65-2.02c3.21 0 6.1 0.67 8.66 2.02zm-14.6 7.71c-1.63 1.64-2.44 4.03-2.44 7.16c0 3.13 0.81 5.53 2.44 7.17c1.62 1.64 3.6 2.46 5.94 2.46c2.34 0 4.32-0.82 5.95-2.46c1.62-1.65 2.44-4.04 2.44-7.17c0-3.13-0.81-5.52-2.44-7.16c-1.63-1.65-3.61-2.47-5.95-2.47c-2.34 0-4.32 0.82-5.94 2.47z" />
					<path id="&lt;Compound Path&gt;" class="shp1" d="m246.28 1064.39v32.95h-8.38v-6.66c-0.88 2.22-2.31 3.96-4.31 5.21c-2 1.24-4.31 1.87-6.93 1.87c-3.8 0-6.84-1.25-9.1-3.74c-2.26-2.5-3.39-5.99-3.39-10.47v-19.15h8.32v18.2c0 2.62 0.68 4.65 2.03 6.09c1.35 1.45 3.17 2.17 5.47 2.17c2.41 0 4.34-0.77 5.77-2.32c1.43-1.55 2.14-3.77 2.14-6.66v-17.48h8.38z" />
					<path id="&lt;Compound Path&gt;" class="shp1" d="m268.35 1065.72c2.02-1.21 4.28-1.81 6.78-1.81v8.98h-2.44c-6.15 0-9.22 2.86-9.22 8.57v15.88h-8.39v-32.95h8.39v6.3c1.23-2.1 2.85-3.76 4.88-4.97z" />
					<path id="&lt;Compound Path&gt;" class="shp1" d="m306.39 1067.41c2.83 2.3 4.6 5.44 5.32 9.4h-8.86c-0.36-1.75-1.17-3.12-2.44-4.13c-1.27-1.01-2.88-1.52-4.82-1.52c-2.22 0-4.07 0.82-5.56 2.47c-1.49 1.65-2.23 4.05-2.23 7.22c0 3.18 0.74 5.58 2.23 7.23c1.49 1.64 3.34 2.47 5.56 2.47c1.94 0 3.55-0.51 4.82-1.52c1.27-1.01 2.08-2.39 2.44-4.14h8.86c-0.72 3.97-2.49 7.1-5.32 9.4c-2.84 2.3-6.38 3.45-10.62 3.45c-3.21 0-6.07-0.69-8.57-2.05c-2.5-1.36-4.44-3.32-5.83-5.86c-1.39-2.54-2.08-5.53-2.08-8.98c0-3.45 0.69-6.45 2.08-9.01c1.39-2.55 3.33-4.51 5.83-5.85c2.5-1.35 5.36-2.02 8.57-2.02c4.24 0 7.78 1.15 10.62 3.45z" />
					<path id="&lt;Compound Path&gt;" fill-rule="evenodd" class="shp1" d="m349.52 1082.46h-24.14c0.12 2.94 0.91 5.1 2.38 6.49c1.46 1.39 3.29 2.08 5.47 2.08c1.94 0 3.55-0.47 4.84-1.43c1.29-0.95 2.11-2.24 2.47-3.87h8.86c-0.43 2.31-1.37 4.36-2.79 6.19c-1.42 1.83-3.26 3.26-5.5 4.28c-2.24 1.03-4.72 1.55-7.47 1.55c-3.21 0-6.06-0.69-8.56-2.05c-2.5-1.36-4.44-3.32-5.83-5.86c-1.39-2.54-2.08-5.53-2.08-8.98c0-3.45 0.69-6.45 2.08-9.01c1.39-2.55 3.33-4.51 5.83-5.85c2.5-1.35 5.35-2.02 8.56-2.02c3.25 0 6.1 0.67 8.54 2.02c2.44 1.35 4.32 3.21 5.65 5.56c1.32 2.36 1.99 5.04 1.99 8.06c0 0.83-0.11 1.78-0.3 2.85zm-10.25-9.81c-1.53-1.39-3.4-2.09-5.63-2.09c-2.26 0-4.16 0.7-5.71 2.09c-1.55 1.38-2.4 3.43-2.55 6.12h16c0.12-2.7-0.59-4.74-2.11-6.12z" />
				</g>
				<path id="&lt;Path&gt;" class="shp2" d="m366 1146h-366v-12h366v12z" />
			</g>
			<g id="Human Resource 2 ">
				<g id="&lt;Group&gt;">
					<g id="&lt;Group&gt;">
						<path id="&lt;Path&gt;" class="shp3" d="m106.7 407.3c-3.64-3.21-6.16-7.85-7.57-13.01c-5.6-19.85 4.17-47.78 24.78-36.11c24.67 13.96 22.32 31.49 14.97 50.84c11.36 17.84 22.8-16.78 49.56-4.5c25.11 11.55-15.95 38.25-13.51 54.05c0.13 1.02 0.47 1.99 1.02 2.91c9.04 15.26 42.76-23.92 49.07-6.11c6.94 19.54-28.97 45.2-8.49 55.55c20.17 10.17 18.56 21.71-12.3 61.63c-0.48 0.65-0.97 1.31-1.49 1.94c-0.3-0.26-0.71-0.64-1.23-1.13c-6.6-5.88-38.27-33.37-64.96-41.9c-64.36-20.46-36.11-50.93-18.53-52.28c17.58-1.35 12.82-8.43 1.8-10.68c-11.01-2.24-34.4-22-35.74-33.74c-2.21-19.22 45.59-7.18 22.63-27.47z" />
						<path id="&lt;Path&gt;" class="shp0" d="m121.71 410.11c-0.98-3.86-1.71-7.32-2.27-10.41c-3.68-20.25 0.85-24.37 1.48-24.81c0.57-0.42 1.35-0.32 1.77 0.25c0.44 0.53 0.38 1.32-0.14 1.82c-0.06 0.02-4.33 4.2 0.11 25.57c0.45 2.13 0.97 4.44 1.6 6.93c2.35 9.15 7.11 18.07 13.26 27.02c0.04 0.02 0.04 0.02 0.02 0.06c4.72 6.97 10.3 13.94 16.11 21.05c-1.31-17.23 11.74-35.63 20.17-40.28c0.64-0.34 1.45-0.13 1.8 0.51c0.34 0.64 0.09 1.44-0.55 1.78c-8.76 4.84-22.11 25.33-18.25 41.91c0.13 0.15 0.25 0.3 0.38 0.46c0.44 0.53 0.88 1.07 1.32 1.6c8.96 10.98 18.27 22.49 26.14 35.16c0.07-11.11 6.81-16.41 12.91-21.13c3.14-2.51 6.15-4.84 7.99-7.78c0.38-0.65 1.19-0.82 1.79-0.46l0.04 0.02c0.61 0.37 0.77 1.21 0.4 1.82c-2.12 3.35-5.26 5.86-8.63 8.46c-6.73 5.26-13.68 10.7-11.46 24.14c1.97 3.38 3.8 6.85 5.5 10.41l0.02 0.06c0.01 0.04 0.03 0.08 0.04 0.12c8.13 16.98 12.94 36 10.94 58.17c-0.05 0.65-0.12 1.35-0.18 2.04c-0.09 0.73-0.75 1.26-1.45 1.19c-0.18-0.03-0.4-0.08-0.54-0.19c-0.43-0.24-0.68-0.74-0.65-1.25c0.04-0.32 0.05-0.65 0.09-0.97c2.18-21.94-2.52-40.87-10.55-57.75c-10.24-12.66-20.33-11.02-31.98-9.01c-7.03 1.17-14.32 2.37-22.3 0.7c-9.68-2.09-15.38-4.47-18.76-6.51c-4.12-2.46-4.78-4.44-4.85-4.81c-0.17-0.7 0.25-1.43 0.91-1.62c0.7-0.17 1.43 0.25 1.6 0.95c0.04 0.02 2.07 5.21 21.64 9.38c7.51 1.65 14.56 0.45 21.34-0.69c9.81-1.67 19.23-3.22 28.47 3.98c-8.97-16.29-20.73-30.73-31.84-44.35c-0.06-0.08-0.12-0.15-0.19-0.23c-3.34-4.09-6.66-8.12-9.8-12.12c-2.98-0.46-5.7-1.18-8.14-2.08c-4.83-1.71-8.71-4.06-12.34-6.21c-5.37-3.21-9.63-5.78-15-5.22c-0.25 0.03-0.57-0.01-0.8-0.16c-0.34-0.2-0.58-0.55-0.62-1c-0.07-0.71 0.41-1.36 1.16-1.41c9.64-1.07 15.94 6.56 26.96 10.97c1.95 0.82 4.07 1.47 6.39 2.02c-2.05-2.65-4.01-5.3-5.87-7.96c-7.02-9.92-12.6-19.83-15.22-30.11z" />
						<path id="&lt;Path&gt;" class="shp4" d="m106.7 407.3c-3.64-3.21-6.16-7.85-7.57-13.01c7.32-1.71 14.32 0.77 20.31 5.41c1.11 0.88 2.19 1.8 3.23 2.83c9.49 9.24 15.58 23.76 14.86 33.96c0.04 0.02 0.04 0.02 0.02 0.06c-0.1 1.31-0.3 2.52-0.62 3.68c-0.56 2.02-0.71 3.98-0.52 5.94c0.08 1 0.29 2.06 0.63 3.03c2.08 7.15 8.94 12.99 17.95 14.2c1.15 0.13 2.32 0.21 3.54 0.18c5.09 0.05 10.73-1.45 16.41-5.01c0.13 1.02 0.47 1.99 1.02 2.91c9.04 15.26 42.76-23.92 49.07-6.11c6.94 19.54-28.97 45.2-8.49 55.55c20.17 10.17 18.56 21.71-12.3 61.63c-0.05 0.65-0.12 1.35-0.18 2.04c-0.09 0.73-0.75 1.26-1.45 1.19c-0.18-0.03-0.4-0.08-0.54-0.19c-0.43-0.24-0.68-0.74-0.65-1.25c0.04-0.32 0.05-0.65 0.09-0.97c-6.6-5.88-38.27-33.37-64.96-41.9c-64.36-20.46-36.11-50.93-18.53-52.28c17.58-1.35 12.82-8.43 1.8-10.68c-11.01-2.24-34.4-22-35.74-33.74c-2.21-19.22 45.59-7.18 22.63-27.47z" />
					</g>
					<g id="&lt;Group&gt;">
						<path id="&lt;Path&gt;" class="shp5" d="m215.49 307.21c-1.52-4.27-1.47-9.2-0.29-14.05c4.43-18.74 25.05-37.11 36.58-18.24c13.81 22.56 3.96 35.81-10.81 48.28c1.2 19.7 26.21-3.37 42.48 18.78c15.26 20.8-30.34 24-35.51 37.99c-0.36 0.89-0.52 1.84-0.49 2.84c0.46 16.55 45.73-0.15 42.82 17.24c-3.18 19.09-44.12 23.76-32.1 41.49c11.85 17.44 5.32 26.13-37.96 44.72c-0.69 0.31-1.38 0.63-2.1 0.91c-0.13-0.35-0.29-0.84-0.5-1.48c-2.72-7.79-16.12-44.57-34.03-63.63c-43.26-45.86-6.4-57.92 8.56-51.06c14.96 6.86 14.28-1.08 6.31-7.9c-7.97-6.82-18.11-33.54-13.89-43.73c6.9-16.69 40.46 14.8 30.91-12.17z" />
						<path id="&lt;Path&gt;" class="shp0" d="m226.46 316.3c0.95-3.6 1.92-6.75 2.87-9.53c6.17-18.2 11.73-19.5 12.45-19.58c0.66-0.08 1.24 0.35 1.33 1.01c0.12 0.63-0.29 1.25-0.94 1.43c-0.06-0.01-5.44 1.47-11.49 20.92c-0.6 1.94-1.22 4.06-1.84 6.38c-2.23 8.53-2.38 17.97-1.42 28.06c0.02 0.03 0.02 0.03-0.01 0.06c0.69 7.82 2.09 16.04 3.61 24.48c6.73-14.65 25.73-23.76 34.71-23.73c0.68 0.01 1.24 0.56 1.24 1.23c-0.01 0.67-0.58 1.21-1.26 1.2c-9.34-0.02-29.52 10.66-33.88 25.94c0.03 0.18 0.07 0.36 0.1 0.54c0.12 0.63 0.23 1.27 0.35 1.9c2.34 13.02 4.72 26.63 5.41 40.54c5.09-9.04 12.99-10.31 20.11-11.39c3.7-0.63 7.21-1.16 10.05-2.73c0.61-0.36 1.34-0.13 1.67 0.44l0.02 0.03c0.33 0.57 0.08 1.33-0.5 1.66c-3.25 1.78-6.95 2.4-10.88 3c-7.87 1.24-16.02 2.54-20.28 14.51c0.07 3.65 0 7.32-0.22 10.99l-0.01 0.06c-0.01 0.04-0.01 0.08-0.02 0.12c-1.06 17.54-5.75 35.24-17.42 52.43c-0.34 0.51-0.71 1.05-1.07 1.58c-0.4 0.56-1.18 0.69-1.72 0.32c-0.13-0.11-0.29-0.25-0.35-0.4c-0.24-0.39-0.22-0.91 0.04-1.32c0.18-0.24 0.34-0.51 0.52-0.75c11.72-16.92 16.45-34.5 17.55-51.91c-2.63-14.97-11.6-18.2-22.02-21.84c-6.27-2.23-12.76-4.56-18.52-9.54c-6.96-6.09-10.52-10.62-12.37-13.81c-2.25-3.87-1.89-5.79-1.78-6.13c0.18-0.65 0.85-1.05 1.48-0.91c0.65 0.18 1.05 0.85 0.88 1.5c0.02 0.03-0.67 5.19 13.41 17.46c5.38 4.75 11.68 6.96 17.73 9.1c8.76 3.08 17.15 6.08 21.44 16.15c0.06-17.35-3-34.47-5.9-50.63c-0.02-0.09-0.03-0.18-0.05-0.27c-0.87-4.85-1.76-9.65-2.51-14.34c-2.23-1.72-4.11-3.55-5.71-5.39c-3.17-3.59-5.27-7.26-7.26-10.66c-2.93-5.05-5.25-9.08-9.87-11.05c-0.22-0.09-0.46-0.27-0.58-0.49c-0.19-0.32-0.22-0.71-0.05-1.09c0.26-0.61 0.95-0.92 1.59-0.63c8.35 3.49 10.04 12.58 17.03 21.17c1.22 1.55 2.66 3.05 4.3 4.54c-0.48-3.09-0.87-6.15-1.18-9.16c-1.23-11.28-1.3-21.89 1.22-31.47z" />
						<path id="&lt;Path&gt;" class="shp6" d="m215.49 307.21c-1.52-4.27-1.47-9.2-0.29-14.05c6.75 1.92 11.34 7.12 14.13 13.62c0.5 1.22 0.98 2.46 1.35 3.77c3.57 11.84 1.95 26.45-3.26 34.44c0.02 0.03 0.02 0.03-0.01 0.06c-0.67 1.02-1.39 1.92-2.18 2.72c-1.37 1.39-2.38 2.93-3.12 4.62c-0.38 0.86-0.7 1.81-0.86 2.76c-1.54 6.78 1.41 14.65 8.21 19.72c0.88 0.62 1.8 1.22 2.81 1.75c4.14 2.34 9.41 3.67 15.66 3.35c-0.36 0.89-0.52 1.84-0.49 2.84c0.46 16.55 45.73-0.15 42.82 17.24c-3.18 19.09-44.12 23.76-32.1 41.49c11.85 17.44 5.32 26.13-37.96 44.72c-0.34 0.51-0.71 1.05-1.07 1.58c-0.4 0.56-1.18 0.69-1.72 0.32c-0.13-0.11-0.29-0.25-0.35-0.4c-0.24-0.39-0.22-0.91 0.04-1.32c0.18-0.24 0.34-0.51 0.52-0.75c-2.72-7.79-16.12-44.57-34.03-63.63c-43.26-45.86-6.4-57.92 8.56-51.06c14.96 6.86 14.28-1.08 6.31-7.9c-7.97-6.82-18.11-33.54-13.89-43.73c6.9-16.69 40.46 14.8 30.91-12.17z" />
					</g>
				</g>
				<g id="&lt;Group&gt;">
					<path id="&lt;Path&gt;" class="shp7" d="m1076.9 684.76c33.25 145.41-165.03 247.83-256.69 130.83c-34.71-44.33-73.69-73.5-117.13-88.98c-71.46-25.54-154.97-14.08-251.27 28.15c-66.5 29.17-141.59 7.39-198.09-39.11c-4.27-3.5-8.47-7.13-12.48-10.96c-2.1-1.91-4.14-3.89-6.12-5.86c-4.08-4.01-8.02-8.22-11.85-12.48c-1.66-1.91-3.31-3.82-4.9-5.8c-0.64-0.7-1.21-1.4-1.72-2.1c-1.53-1.85-2.99-3.69-4.46-5.61c-0.51-0.64-0.96-1.21-1.4-1.85c-1.27-1.66-2.55-3.38-3.76-5.16c-1.47-2.04-2.93-4.2-4.39-6.31c-2.99-4.39-5.8-8.92-8.41-13.5c-0.76-1.27-1.46-2.55-2.17-3.82c-0.06-0.06-0.13-0.13-0.13-0.26c-1.08-1.85-2.04-3.69-2.99-5.54c-2.23-4.27-4.27-8.54-6.24-12.93c-0.38-1.02-0.83-2.04-1.27-3.06c-0.26-0.57-0.51-1.21-0.76-1.85c-0.76-1.85-1.47-3.63-2.17-5.48c-0.77-2.04-1.53-4.08-2.23-6.12c-0.25-0.76-0.51-1.53-0.76-2.29c-0.89-2.55-1.66-5.03-2.36-7.58c-0.7-2.42-1.4-4.84-1.91-7.2c-0.89-3.44-1.66-6.94-2.36-10.45c-0.45-2.23-0.83-4.52-1.15-6.88c-0.38-2.36-0.7-4.71-0.96-7.13c0-0.32 0-0.7-0.13-1.08c-0.06-0.38-0.06-0.76-0.06-1.15c-0.25-2.36-0.45-4.71-0.57-7.13v-0.45c-0.19-2.8-0.25-5.6-0.25-8.41c0-16.43 2.36-32.87 7.52-48.98c0.51-1.78 1.15-3.57 1.78-5.35c3.82-10.64 8.85-21.08 15.22-31.34c12.55-20.13 30.57-36.75 48.28-52.36c41.72-36.75 81.46-67.52 42.67-123.44c-55.29-79.55 135.09-211.14 217.45-155.86c10.06 6.75 19.24 13.95 27.71 21.21c60.64 52.04 86.43 107.39 173.56 36.5c99.36-80.7 215.92-86.37 313.37-12.61c24.52 18.54 44.08 38.22 58.6 58.47c43.12 60.38 40.89 125.86-12.74 180.95c-71.65 73.57-15.54 124.97 17.71 270.32z" />
					<path id="&lt;Path&gt;" class="shp8" d="m1076.9 684.76c9.94 43.38-0.76 82.93-23.12 113.95c-52.42 73.06-169.23 98.98-233.56 16.88c-10.57-13.44-21.47-25.54-32.8-36.24c-25.99-24.52-54.08-41.97-84.33-52.74c-71.46-25.54-154.97-14.08-251.27 28.15c-66.5 29.17-141.59 7.39-198.09-39.11c-4.27-3.5-8.47-7.13-12.48-10.96c-2.1-1.91-4.14-3.89-6.12-5.86c-4.08-4.01-8.02-8.22-11.85-12.48c-1.66-1.91-3.31-3.82-4.9-5.8c-0.64-0.7-1.21-1.4-1.72-2.1c-1.53-1.85-2.99-3.69-4.46-5.61c-0.51-0.64-0.96-1.21-1.4-1.85c-1.27-1.66-2.55-3.38-3.76-5.16c-1.47-2.04-2.93-4.2-4.39-6.31c-2.99-4.39-5.8-8.92-8.41-13.5c-0.76-1.27-1.46-2.55-2.17-3.82c-0.06-0.06-0.13-0.13-0.13-0.26c-1.08-1.85-2.04-3.69-2.99-5.54c-2.23-4.27-4.27-8.54-6.24-12.93c-0.38-1.02-0.83-2.04-1.27-3.06c-0.26-0.57-0.51-1.21-0.76-1.85c-0.76-1.85-1.47-3.63-2.17-5.48c-0.77-2.04-1.53-4.08-2.23-6.12c-0.25-0.76-0.51-1.53-0.76-2.29c-0.89-2.55-1.66-5.03-2.36-7.58c-0.7-2.42-1.4-4.84-1.91-7.2c-0.89-3.44-1.66-6.94-2.36-10.45c-0.45-2.23-0.83-4.52-1.15-6.88c-0.38-2.36-0.7-4.71-0.96-7.13c0-0.32 0-0.7-0.13-1.08c-0.06-0.38-0.06-0.76-0.06-1.15c-0.25-2.36-0.45-4.71-0.57-7.13v-0.45c-0.19-2.8-0.25-5.6-0.25-8.41c0-16.43 2.36-32.87 7.52-48.98c0.51-1.78 1.15-3.57 1.78-5.35c3.82-10.64 8.85-21.08 15.22-31.34c12.55-20.13 30.57-36.75 48.28-52.36c33.44 2.23 67.71 15.54 95.86 41.59c3.44 3.12 6.75 6.43 10 10c81.97 89.55 205.86 71.15 316.94-67.9c0.25-0.32 0.45-0.57 0.7-0.89c14.65-18.41 29.04-38.92 43.12-61.53c97.26-156.43 258.41-154.33 366.75-97.01c43.12 60.38 40.89 125.86-12.74 180.95c-71.65 73.57-15.54 124.97 17.71 270.32z" />
					<path id="&lt;Path&gt;" class="shp9" d="m857.99 666.22c-193.95 81.97-397.9 28.09-489.74-118.28c-55.03-87.71-141.27-37.77-201.59 16.43c-3.5-34.65 3.18-70.06 23.63-102.8c12.55-20.13 30.57-36.75 48.28-52.36c41.72-36.75 81.46-67.52 42.67-123.44c-55.29-79.55 135.09-211.14 217.45-155.86c10.06 6.75 19.24 13.95 27.71 21.21c-46.62 119.55 21.27 275.09 212.55 235.41c210.38-43.69 312.99 197.71 119.04 279.68z" />
				</g>
				<g id="&lt;Group&gt;">
					<g id="&lt;Group&gt;">
						<path id="&lt;Path&gt;" class="shp10" d="m1007.93 808.38c6.87-1.49 13.67-2.45 20.28-2.86c-1.85 8-14.6 8.93-10.47 14.64c4.3 6.08 13.2-0.46 8.42-4.97c-3.01-2.92 0.77-4.34 4.63-9.87c20.08-0.99 38.19 2.63 49.8 8.81c-2.4 2.36-5.42 5.16-9.04 8.39c-9.17-0.38-16.64-6.41-21.54-4.58c-5.76 2.2 1.21 9.14 7.27 7.5c3.65-0.99 8.84-1.77 11.76-0.74c-6.08 5.35-13.76 11.63-21.28 16.69l-0.05 0.03c-4.07 2.74-8.07 5.08-11.66 6.67c-2.37 1.04-4.91 1.5-7.52 1.65c-3.4-1.75-5.33-5.12-3.32-7.72c3.46-4.48-0.56-9.3-5.99-4.25c-1.82 1.64-5.41 4.06 0.59 6.98c3.31 1.6 3.27 3.3 2.17 4.67c-15.5-2.24-33.7-13.24-51.21-9.25c-15.42 3.51-21.61 2.11-18.57-4.21c16.72-14.67 36.43-23.35 55.73-27.57z" />
						<path id="&lt;Path&gt;" class="shp11" d="m1007.93 808.38c1.1 5.87 0.57 13.26 6.98 19.67c10.22 10.32 28.07 0.74 32.85 13.32l-0.05 0.03c-4.07 2.74-8.07 5.08-11.66 6.67c-2.37 1.04-4.91 1.5-7.52 1.65c-3.4-1.75-5.33-5.12-3.32-7.72c3.46-4.48-0.56-9.3-5.99-4.25c-1.82 1.64-5.41 4.06 0.59 6.98c3.31 1.6 3.27 3.3 2.17 4.67c-15.5-2.24-33.7-13.24-51.21-9.25c-15.42 3.51-21.61 2.11-18.57-4.21c16.72-14.67 36.43-23.35 55.73-27.57z" />
					</g>
					<g id="&lt;Group&gt;">
						<path id="&lt;Path&gt;" class="shp12" d="m1005.21 591.51c0.48-6.34 3.35-12.64 7.63-18.2c16.34-21.53 53.26-33.37 57.33-2.59c4.88 36.82-15.3 48.21-41.35 55.8c-9.68 25.97 35.55 10.59 43.83 48.28c7.75 35.38-52.6 13.53-67.19 28.54c-0.97 0.94-1.72 2.06-2.24 3.37c-8.82 21.5 58.78 25.83 45.14 46.49c-14.95 22.69-70.14 5.39-64.8 34.98c5.29 29.13-8.05 36.56-74.16 35.8c-1.07 0.01-2.13 0.02-3.21-0.03c0.04-0.52 0.1-1.25 0.2-2.18c0.93-11.54 4.68-66.37-7.47-101.03c-29.42-83.47 24.75-77.98 40.04-60.66c15.29 17.32 18.94 6.75 12.59-6.54c-6.35-13.29-4.16-53.35 7.06-64.02c18.35-17.49 43.5 42.01 46.59 1.98z" />
						<path id="&lt;Path&gt;" class="shp0" d="m1014.12 609.42c3.26-4.08 6.3-7.57 9.1-10.59c18.28-19.84 26.15-18.35 27.12-18.04c0.89 0.27 1.4 1.16 1.13 2.05c-0.21 0.88-1.09 1.44-2.01 1.3c-0.07-0.04-7.81-1.21-26.65 20.31c-1.87 2.16-3.87 4.52-5.99 7.14c-7.71 9.68-13.28 21.71-17.79 35.21c0.01 0.06 0.01 0.06-0.04 0.07c-3.56 10.43-6.44 21.78-9.3 33.47c16.98-14.97 46.54-15.86 58.05-10.71c0.86 0.39 1.28 1.42 0.89 2.28c-0.39 0.86-1.44 1.22-2.3 0.83c-11.97-5.34-43.95-3.13-58.24 14.01c-0.06 0.25-0.12 0.5-0.18 0.75c-0.21 0.88-0.42 1.76-0.63 2.64c-4.4 18.04-9.1 36.86-16.13 55.1c11.67-8.7 22.54-5.83 32.29-3.18c5.11 1.3 9.92 2.62 14.45 2.22c0.98-0.11 1.8 0.59 1.89 1.52l0.01 0.06c0.1 0.93-0.66 1.75-1.59 1.85c-5.18 0.43-10.28-0.87-15.67-2.35c-10.81-2.88-22-5.86-34.29 7.08c-1.98 4.73-4.16 9.39-6.54 13.97l-0.04 0.07c-0.03 0.05-0.06 0.09-0.09 0.14c-11.33 21.91-27.43 41.95-52.19 57.37c-0.72 0.46-1.5 0.94-2.28 1.42c-0.83 0.49-1.91 0.21-2.39-0.57c-0.11-0.21-0.23-0.48-0.23-0.72c-0.09-0.63 0.23-1.3 0.8-1.67c0.37-0.2 0.72-0.46 1.09-0.67c24.67-15.04 40.75-34.91 52.06-56.63c5.15-20.71-4.53-29.96-15.83-40.56c-6.77-6.43-13.78-13.1-18.34-22.78c-5.46-11.77-7.46-19.61-8.01-24.76c-0.68-6.25 0.87-8.5 1.2-8.88c0.6-0.73 1.7-0.87 2.41-0.32c0.73 0.6 0.87 1.7 0.27 2.43c0.01 0.06-3.82 6.28 7.28 30.03c4.2 9.16 11.03 15.58 17.57 21.77c9.49 8.94 18.55 17.57 18.32 32.92c9.95-22.24 15.77-45.94 21.24-68.33c0.03-0.13 0.06-0.25 0.09-0.38c1.64-6.73 3.23-13.38 4.94-19.83c-1.88-3.48-3.26-6.89-4.26-10.16c-2.02-6.41-2.63-12.32-3.25-17.8c-0.89-8.15-1.56-14.64-6.38-19.8c-0.23-0.24-0.44-0.61-0.46-0.96c-0.06-0.52 0.12-1.03 0.56-1.43c0.68-0.63 1.75-0.64 2.39 0.1c8.73 9.24 5.73 21.85 9.81 36.86c0.68 2.69 1.68 5.42 2.93 8.27c1.15-4.24 2.38-8.38 3.7-12.42c4.83-15.18 10.79-28.84 19.48-39.69z" />
						<path id="&lt;Path&gt;" class="shp13" d="m1005.21 591.51c0.48-6.34 3.35-12.64 7.63-18.2c7.57 6.3 10.5 15.59 10.38 25.52c-0.05 1.85-0.15 3.71-0.42 5.61c-2.16 17.22-12.55 35.06-23.78 42.35c0.01 0.06 0.01 0.06-0.04 0.07c-1.44 0.93-2.87 1.68-4.34 2.25c-2.55 1.01-4.72 2.4-6.63 4.15c-0.98 0.88-1.92 1.93-2.67 3.05c-5.83 7.82-6.53 19.6-0.68 29.98c0.78 1.3 1.61 2.59 2.61 3.84c3.97 5.36 9.99 10.07 18.19 13.21c-0.97 0.94-1.72 2.06-2.24 3.37c-8.82 21.5 58.78 25.83 45.14 46.49c-14.95 22.69-70.14 5.39-64.8 34.98c5.29 29.13-8.05 36.56-74.16 35.8c-0.72 0.46-1.5 0.94-2.28 1.42c-0.83 0.49-1.91 0.21-2.39-0.57c-0.11-0.21-0.23-0.48-0.23-0.72c-0.09-0.63 0.23-1.3 0.8-1.67c0.37-0.2 0.72-0.46 1.09-0.67c0.93-11.54 4.68-66.37-7.47-101.03c-29.42-83.47 24.75-77.98 40.04-60.66c15.29 17.32 18.94 6.75 12.59-6.54c-6.35-13.29-4.16-53.35 7.06-64.02c18.35-17.49 43.5 42.01 46.59 1.98z" />
					</g>
					<g id="&lt;Group&gt;">
						<path id="&lt;Path&gt;" class="shp10" d="m1007.63 721.09c-4.74 0.41-7.45-4.66-6.82-10.24c2.23-3.1 4.88-5.79 8.09-7.95c4.54-2.98 10.16-5.8 16.27-8.52c12.5-5.42 27.11-10.1 38.91-13.46c-1.04 4.46-6.15 10.2-10.33 13.92c-6.86 6.15-3.88 20.3 3.45 14.95c6.16-4.5 4.72-18.64 11.64-30.19c6.86-1.88 12.7-3.37 17.52-4.49c-1.69 19.31-11.64 44.46-28.94 68.5c-9.93 0.35-14.74 3.86-15.88-2.19c-1.73-9.49-16.93-3.85-12.9 6.39c3.81 9.69 15.07-5.34 26.44-1.16c-4.22 5.63-8.89 11.21-13.89 16.59c-21.39 23.04-49.88 42.98-84.48 52.71c-10.24-1.28-7-10.02 9.7-26.24c18.95-18.4 19.92-49.62 29.54-70.51c2.56-0.33 4.67 1.04 4.03 6.41c-1.16 9.76 4.66 7.24 8.17 6.34c10.56-2.72 7.83-11.54-0.5-10.87z" />
						<path id="&lt;Path&gt;" class="shp14" d="m1007.63 721.09c-4.74 0.41-7.45-4.66-6.82-10.24c2.23-3.1 4.88-5.79 8.09-7.95c4.54-2.98 10.16-5.8 16.27-8.52c20.01 3.45 25.74 20.96 13.99 28.53c-13.24 8.57-36.54 23.49-12.32 32.17c5.95 2.12 10.72 4.97 14.34 8.17c-21.39 23.04-49.88 42.98-84.48 52.71c-10.24-1.28-7-10.02 9.7-26.24c18.95-18.4 19.92-49.62 29.54-70.51c2.56-0.33 4.67 1.04 4.03 6.41c-1.16 9.76 4.66 7.24 8.17 6.34c10.56-2.72 7.83-11.54-0.5-10.87z" />
					</g>
					<g id="&lt;Group&gt;">
						<path id="&lt;Path&gt;" class="shp15" d="m937.84 769.48c11.63 14.07-2.72 20.17 9.86 22.61c9.1 1.78 8.54-12.1 12.11-18.01c1.33-2.32 3.26-3.4 6.6-2.05c11.3 4.74 11.62 21.29 6.33 25.8c5.67-2.91 24.92-11.66 31.63-1.33c8.69 13.5-29.11 20.85-35.91 28.76c-6.93 7.9 3.84 20.4 24.09 6.33c20.28-14.02 38.18-4.24 27.66 8.08c-10.59 12.28-6.59 22.44 10.27 25.19c20.57 3.37 5.9 37.22-37.55 30.21c-3.64-0.59-7.22-1.2-10.81-1.81c-0.08-0.03-0.2-0.04-0.28-0.07c-34.56-6.02-67.7-14.28-78.05-26.82c-0.91-1.12-1.65-2.25-2.17-3.47c-0.32-0.74-0.71-1.52-0.87-2.33c-11.21-48.96 25.34-105.16 37.1-91.08z" />
						<path id="&lt;Path&gt;" class="shp0" d="m930.82 782.94c0.33 0.49 0.31 1.18-0.15 1.57c-0.11 0.17-13.19 12.51-8.64 28.09c3.45 11.65-2.34 34.51-11.26 46.9c22.67-13.4 41.35-40.92 45.7-57.84c0.09-0.67 0.76-1.01 1.38-0.9c0.58 0.19 0.92 0.68 0.79 1.42c-4.77 18.6-26.22 49.49-51.73 61.97c18.01 3.83 29.31-0.28 38.97-4.58l1.81-0.77c7.42-3.22 13.81-6.06 21.74-4.66c18.36 3.18 33.8-10.54 33.99-10.68c0.49-0.46 1.19-0.44 1.65 0.05c0.39 0.46 0.32 1.18-0.13 1.62c-0.66 0.66-16.52 14.74-35.92 11.32c-7.25-1.25-13.34 1.4-20.36 4.51l-2.29 0.97c-0.85 0.36-1.7 0.72-2.63 1.05c1.16 0.51 2.29 1.1 3.39 1.63c4.17 1.99 8.22 3.98 12.11 5.9c15.92 8.23 29.62 15.34 43.32 10.08c17.86-6.84 18.53-7.06 22.16-4.71l0.52 0.34c0.58 0.32 0.71 1.08 0.31 1.62c-0.27 0.55-1.03 0.69-1.57 0.29l-0.54-0.4c-2.51-1.63-2.64-1.64-20.16 4.99c-14.61 5.65-28.78-1.7-45.16-10.11c-3.21-1.65-6.44-3.35-9.81-4.93c-2.46-1.21-4.98-2.4-7.57-3.5c-8.95 3.3-20.24 5.53-36.29 1.74c-0.19 0.14-0.46 0.26-0.7 0.42c-0.91-1.12-1.65-2.25-2.17-3.47c0.54 0.09 1.1 0.22 1.58 0.33c0.71-0.24 1.41-0.53 2.15-0.85c0.66-0.66 1.22-1.27 1.74-1.81c9.7-11.15 16.19-35.44 12.73-47.27c-4.98-17.03 8.79-29.97 9.36-30.4c0.44-0.44 1.19-0.44 1.65 0.05z" />
						<path id="&lt;Path&gt;" class="shp16" d="m937.84 769.48c11.63 14.07-2.72 20.17 9.86 22.61c9.1 1.78 8.54-12.1 12.11-18.01c11.81 18.33 3.66 37.1-7.85 55.8c-5.75 9.35-7.95 19.82-6.08 29.7c0.08 0.78 0.29 1.57 0.5 2.36c0.2 0.92 0.46 1.81 0.77 2.69c0.32 1.05 0.7 2.09 1.18 3.08c4.92 11.28 15.82 20.83 33.49 25.49c-34.56-6.02-67.7-14.28-78.05-26.82c-0.91-1.12-1.65-2.25-2.17-3.47c-0.32-0.74-0.71-1.52-0.87-2.33c-11.21-48.96 25.34-105.16 37.1-91.08z" />
					</g>
				</g>
				<path id="&lt;Mesh&gt;" class="shp17" d="m516.24 402.43c18.71-74.34 154.91-38.65 209.28-39.96c-14.47 8.38-18.04 74.72-21.28 90.7c-6.23 30.72-12.46 61.45-18.69 92.17c-14.01 69.08-28 138.17-42.02 207.26c-60.4-5.83-120.81-11.66-181.21-17.49c-17.13-1.66-27.77-15.8-23.69-31.53c15.67-60.81 31.34-121.61 47.01-182.42c2.85-11.06 5.69-22.12 8.53-33.18c7.36-28.51 14.72-57.03 22.07-85.54zm25.7-103.63c13.38-47.96 32.67-64.27 48.73-60.38c54.17 5.31 108.34 10.63 162.52 15.94c9.61-0.96 15.06 35.96 15.73 40.53c6.32 43.14-8.79 47.52-43.4 67.57c-54.37 1.31-190.57-34.38-209.28 39.96c8.84-34.27 17.68-68.53 26.53-102.8c0.53-0.73 0.25-1-0.83-0.83zm183.58 63.67c75.6-1.82 167.02 2.62 239.29-21.18c-10.66-1.34-21.31-2.68-31.97-4.02c-34.74 134.66-69.47 269.3-104.21 403.95c-4.01 15.73-21.27 27.2-38.41 25.54c-48.9-4.72-97.79-9.44-146.69-14.16c14.02-69.08 28.01-138.17 42.02-207.26c6.23-30.72 12.46-61.45 18.69-92.17c3.24-15.98 6.81-82.32 21.28-90.7zm27.66-108.11c73.07 7.17 146.13 14.36 219.2 21.53c23.62-7.55 44.69 25.21 38.79 71.23c-15.46-1.95-30.91-3.89-46.37-5.83c-72.27 23.8-163.69 19.36-239.29 21.18c34.61-20.05 49.71-24.43 43.4-67.57c-0.67-4.57-6.13-41.49-15.73-40.53z" />
				<g id="&lt;Group&gt;">
					<path id="&lt;Path&gt;" class="shp18" d="m960.02 244.83l-36.56 46.43l-11.15 14.14l-104.2 403.95c-4.01 15.73-21.27 27.2-38.41 25.54l-327.9-31.66c-17.13-1.66-27.77-15.8-23.69-31.53l47.01-182.42l8.54-33.18l48.6-188.34c0.06-0.25 0.19-0.45 0.25-0.64l-1.08-0.19c13.38-47.96 32.67-64.27 48.73-60.38l164.9 16.18l224.97 22.1z" />
					<path id="&lt;Path&gt;" class="shp19" d="m912.31 305.39c28.81-103.11 87.73-63.39 78.35 9.86l-78.35-9.86z" />
					<path id="&lt;Path&gt;" class="shp3" d="m658.32 358.06c-2.37 9.21-7 17.74-13.24 25.03c-1.81 2.17-3.84 4.26-5.97 6.23c-5.18 4.88-11.24 9.04-17.76 12.36c-0.71 0.33-1.43 0.72-2.2 1.05c-1.63 0.76-3.24 1.46-4.89 2.04c-1.04 0.41-2.14 0.82-3.23 1.18c-9.56 3.25-19.86 4.55-30.13 3.55c-8.08-0.78-15.5-2.93-21.88-6.23c-1.5-0.72-2.9-1.54-4.3-2.42c-0.17-0.07-0.32-0.2-0.49-0.28c-2.57-1.62-4.96-3.45-7.12-5.49c-3.83-3.52-7.02-7.54-9.5-11.96c-1.38-2.36-2.56-4.82-3.44-7.42c-3.16-9-3.71-19.18-0.99-29.72c8.17-31.7 42.83-54.72 77.35-51.39c34.58 3.34 55.96 31.77 47.79 63.47z" />
					<path id="&lt;Path&gt;" class="shp3" d="m759.65 339.67l-62.51-6.04l3.16-12.27l62.51 6.04l-3.16 12.27z" />
					<path id="&lt;Path&gt;" class="shp3" d="m829.73 369.41l-138.37-13.36l3.16-12.27l138.37 13.36l-3.16 12.27z" />
					<g id="&lt;Group&gt;">
						<path id="&lt;Path&gt;" class="shp20" d="m527.84 425.58l0.49 5.27l5.83 0.56c0.43 0.04 0.48 0.57 0.07 0.77l-5.53 2.69l0.49 5.27c0.04 0.39-0.52 0.66-0.81 0.39l-3.91-3.6l-5.53 2.69c-0.41 0.2-0.8-0.16-0.57-0.53l3.12-4.92l-3.91-3.6c-0.29-0.27 0.02-0.76 0.46-0.72l5.83 0.56l3.12-4.92c0.23-0.37 0.81-0.31 0.85 0.08z" />
						<path id="&lt;Path&gt;" class="shp20" d="m554.01 428.11l0.49 5.27l5.83 0.56c0.43 0.04 0.48 0.57 0.07 0.77l-5.53 2.69l0.49 5.27c0.04 0.39-0.52 0.66-0.81 0.39l-3.91-3.6l-5.53 2.69c-0.41 0.2-0.8-0.16-0.57-0.53l3.12-4.92l-3.91-3.6c-0.29-0.27 0.02-0.76 0.45-0.72l5.83 0.56l3.12-4.92c0.23-0.37 0.82-0.31 0.85 0.08z" />
						<path id="&lt;Path&gt;" class="shp20" d="m580.19 430.64l0.49 5.27l5.83 0.56c0.43 0.04 0.48 0.57 0.07 0.77l-5.53 2.69l0.49 5.27c0.04 0.39-0.52 0.66-0.81 0.39l-3.91-3.6l-5.53 2.69c-0.41 0.2-0.8-0.16-0.57-0.53l3.12-4.92l-3.91-3.6c-0.29-0.27 0.02-0.76 0.45-0.72l5.83 0.56l3.12-4.92c0.23-0.37 0.82-0.31 0.85 0.08z" />
						<path id="&lt;Path&gt;" class="shp20" d="m606.36 433.17l0.49 5.27l5.83 0.56c0.43 0.04 0.48 0.57 0.07 0.77l-5.53 2.69l0.49 5.27c0.04 0.39-0.52 0.66-0.81 0.39l-3.91-3.6l-5.53 2.69c-0.41 0.2-0.8-0.16-0.57-0.53l3.12-4.92l-3.91-3.6c-0.29-0.27 0.02-0.76 0.45-0.72l5.83 0.56l3.12-4.92c0.23-0.37 0.81-0.31 0.85 0.08z" />
						<path id="&lt;Path&gt;" class="shp12" d="m632.53 435.7l0.49 5.27l5.83 0.56c0.43 0.04 0.48 0.57 0.07 0.77l-5.53 2.69l0.49 5.27c0.04 0.39-0.52 0.66-0.81 0.39l-3.91-3.6l-5.53 2.69c-0.41 0.2-0.8-0.16-0.57-0.53l3.12-4.92l-3.91-3.6c-0.29-0.27 0.02-0.76 0.45-0.72l5.83 0.56l3.12-4.92c0.23-0.37 0.81-0.31 0.85 0.08z" />
					</g>
					<g id="&lt;Group&gt;">
						<path id="&lt;Path&gt;" class="shp20" d="m599.94 526.57c-0.16-0.02-0.32-0.05-0.47-0.12c-0.73-0.32-0.95-1.15-0.49-1.86c15.72-24.16 45.76-40.32 80.35-43.23c31.68-2.67 59.97 6.38 70.35 22.48c0.4 0.63 0.12 1.51-0.64 1.96c-0.77 0.45-1.71 0.3-2.12-0.33c-9.87-15.33-37.09-23.89-67.69-21.32c-33.97 2.85-62.25 18.01-77.6 41.6c-0.37 0.56-1.05 0.87-1.68 0.81z" />
					</g>
					<g id="&lt;Group&gt;">
						<path id="&lt;Path&gt;" class="shp20" d="m720.82 590.9c-0.69-0.07-1.2-0.56-1.2-1.22c-0.01-15.58-14.68-34.65-36.49-47.43c-26.06-15.27-56.68-18.86-83.99-9.84c-0.83 0.29-1.68-0.08-1.88-0.81c-0.21-0.72 0.31-1.53 1.15-1.81c28.25-9.35 59.83-5.67 86.66 10.04c22.53 13.2 37.67 33.08 37.68 49.48c0 0.77-0.69 1.47-1.56 1.57c-0.13 0.02-0.25 0.02-0.36 0z" />
					</g>
					<g id="&lt;Group&gt;">
						<path id="&lt;Path&gt;" class="shp20" d="m695.12 666.25c-0.84-0.08-1.36-0.77-1.16-1.54c6-23.27-4.6-57.69-25.78-83.7c-19.35-23.76-45.07-37.31-72.29-38.33c-0.92 0.03-1.42-0.68-1.28-1.45c0.14-0.77 0.95-1.38 1.8-1.35c28.16 0.93 54.55 14.95 74.37 39.29c21.62 26.55 32.4 61.85 26.22 85.83c-0.2 0.77-1.04 1.33-1.88 1.25z" />
					</g>
					<g id="&lt;Group&gt;">
						<path id="&lt;Path&gt;" class="shp12" d="m589.15 558.91l-93.52-9.03c-8.03-0.78-13-7.39-11.1-14.76l10.63-41.21c1.9-7.38 9.96-12.73 17.99-11.95l93.52 9.03c8.03 0.78 13.01 7.39 11.1 14.76l-10.63 41.21c-1.9 7.38-9.96 12.73-17.99 11.95z" />
						<path id="&lt;Path&gt;" class="shp0" d="m532.38 503.01l-24.59-2.38l1.42-5.51l24.59 2.37l-1.42 5.51z" />
						<path id="&lt;Path&gt;" class="shp0" d="m591.46 544.19l-92.59-8.94l7.3-28.31l92.59 8.94l-7.3 28.31z" />
					</g>
					<g id="&lt;Group&gt;">
						<path id="&lt;Path&gt;" class="shp12" d="m798.72 527.74l-59.77-5.77c-5.14-0.5-8.31-4.72-7.1-9.44l6.79-26.34c1.22-4.72 6.37-8.14 11.5-7.64l59.77 5.77c5.14 0.5 8.31 4.72 7.1 9.44l-6.79 26.34c-1.22 4.72-6.36 8.14-11.5 7.64z" />
						<path id="&lt;Path&gt;" class="shp0" d="m762.44 492.01l-15.72-1.52l0.91-3.52l15.72 1.52l-0.91 3.53z" />
						<path id="&lt;Path&gt;" class="shp0" d="m789.83 502.4l-45.05-4.35l0.91-3.52l45.05 4.35l-0.91 3.52z" />
					</g>
					<g id="&lt;Group&gt;">
						<path id="&lt;Path&gt;" class="shp12" d="m777.96 608.27l-59.77-5.77c-5.14-0.5-8.31-4.72-7.1-9.44l6.79-26.34c1.22-4.72 6.36-8.14 11.5-7.64l59.77 5.77c5.14 0.5 8.31 4.72 7.1 9.44l-6.79 26.34c-1.22 4.72-6.36 8.14-11.5 7.64z" />
						<path id="&lt;Path&gt;" class="shp0" d="m741.67 572.54l-15.72-1.52l0.91-3.53l15.72 1.52l-0.91 3.52z" />
						<path id="&lt;Path&gt;" class="shp0" d="m769.06 582.93l-45.05-4.35l0.91-3.52l45.05 4.35l-0.91 3.52z" />
					</g>
					<g id="&lt;Group&gt;">
						<path id="&lt;Path&gt;" class="shp12" d="m757.19 688.8l-59.77-5.77c-5.14-0.5-8.31-4.72-7.1-9.44l6.79-26.34c1.22-4.72 6.36-8.14 11.5-7.64l59.77 5.77c5.14 0.5 8.31 4.72 7.1 9.44l-6.79 26.34c-1.22 4.72-6.37 8.14-11.5 7.64z" />
						<path id="&lt;Path&gt;" class="shp0" d="m720.9 653.07l-15.72-1.52l0.91-3.52l15.72 1.52l-0.91 3.52z" />
						<path id="&lt;Path&gt;" class="shp0" d="m748.29 663.45l-45.05-4.35l0.91-3.53l45.05 4.35l-0.91 3.52z" />
					</g>
					<g id="&lt;Group&gt;">
						<path id="&lt;Path&gt;" class="shp10" d="m559.02 403.26c-1.5-0.72-2.9-1.54-4.3-2.42c-0.17-0.07-0.32-0.2-0.49-0.28c-2.57-1.62-4.96-3.45-7.12-5.49c-3.83-3.52-7.02-7.54-9.5-11.96c2.58-1.3 5.06-2.49 7.45-3.51c7.74-3.43 14.64-5.56 20.56-6.54c4.11 7.49 1.95 17.58-6.6 30.19z" />
						<path id="&lt;Path&gt;" class="shp10" d="m639.11 389.32c-5.18 4.88-11.24 9.04-17.76 12.36c-0.71 0.33-1.43 0.72-2.2 1.05c-1.63 0.76-3.24 1.46-4.89 2.04c-1.04 0.41-2.14 0.82-3.23 1.18c0.79-11.99 7.01-20.43 14.42-26.46c4.89 2.3 9.18 5.46 13.66 9.84z" />
						<path id="&lt;Path&gt;" class="shp10" d="m621.34 401.67c-0.71 0.33-1.43 0.72-2.2 1.05c-1.63 0.76-3.24 1.46-4.89 2.04c-1.04 0.41-2.14 0.82-3.23 1.18c-9.56 3.25-19.86 4.55-30.13 3.55c-8.08-0.78-15.5-2.93-21.88-6.23c-1.5-0.72-2.9-1.54-4.3-2.42c-0.17-0.07-0.32-0.2-0.49-0.28c-2.57-1.62-4.96-3.45-7.12-5.49c-0.27-5.23-1-10.39-2.05-15.47c0.01-0.06-0.05-0.06-0.03-0.12c10.37-4.72 20.57-7.79 30.54-9c0.59-0.11 1.23-0.17 1.8-0.23c7.82-0.85 15.54-0.61 23.18 0.69c1.19 0.23 2.37 0.46 3.5 0.68c7.24 1.62 14.41 4.25 21.4 7.84c-1.61 7.68-2.96 15.1-4.1 22.2z" />
						<path id="&lt;Path&gt;" class="shp21" d="m574.95 370.78c6.58-2.43 9.85-8.63 9.83-18.61c5.7-1.16 10.83-0.12 15.39 3.12c-1.7 6.8-0.39 12.23 3.93 16.32c-10.69 6.02-20.41 5.74-29.15-0.83z" />
						<path id="&lt;Path&gt;" class="shp22" d="m605.03 330.84c4.09 9.78 1.97 19.69-6.35 29.74c-9.04 8.69-15.3 5.59-20.85-1.35c-7.34-9.39-6.36-19.62 2.95-30.7c8.91-4.9 16.3-1.47 24.24 2.31z" />
						<path id="&lt;Path&gt;" class="shp23" d="m596.75 335.26c-8.88-1.13-15.5 0.31-19.87 4.32c-2.01 2.75-3.16 6.31-3.45 10.66c-4.02-4.67-4.31-12.05-0.89-22.15c2.6-5.65 8.65-10.09 18.15-13.31c9.3-2.34 15.88 0.1 19.74 7.32c10-0.52 6.98 23.47-9.03 35.97c-2.65-0.88-3.82-3.6-3.51-8.14c4.97-3.47 6.82-6.17 5.56-8.12c-1.67-1.72-4.36 0.34-8.09 6.17c1.06-4.04 1.52-8.27 1.39-12.71z" />
					</g>
					<path id="&lt;Path&gt;" class="shp24" d="m917.35 289.56l-5.04 15.84l-104.2 403.95c-4.01 15.73-21.27 27.2-38.41 25.54l-327.9-31.66c-17.13-1.66-27.77-15.8-23.69-31.53l47.01-182.42c6.37 12.68 13.95 23.95 22.55 33.82c3.57 4.2 7.33 8.22 11.27 11.91c0.13 0.13 0.19 0.25 0.32 0.32c6.75 6.37 13.89 11.97 21.34 16.94c43.95 29.43 98.98 35.6 143.88 24.39c1.15-0.32 2.29-0.57 3.44-0.96c13.63-3.69 26.31-9.05 37.26-15.86c0.96-0.57 1.85-1.15 2.74-1.78c14.46-9.43 25.8-21.59 32.61-35.99c2.61-5.54 4.59-11.34 5.73-17.52c0.32-1.4 0.51-2.8 0.7-4.2c0.13-0.7 0.19-1.34 0.19-2.04c0.19-1.21 0.32-2.42 0.32-3.63c0.13-1.34 0.19-2.74 0.19-4.14c0-1.15-0.06-2.36-0.06-3.57c-0.13-2.68-0.38-5.41-0.76-8.22c-0.76-5.8-2.23-11.78-4.27-17.96c-36.31-108.41 65.04-184.43 174.78-171.25z" />
					<path id="&lt;Path&gt;" class="shp25" d="m663.59 502.4c-80.83-106.75-133.57 6.75-189.93-46.31l48.6-188.34c0.06-0.25 0.19-0.45 0.25-0.64l-1.08-0.19c13.38-47.96 32.67-64.27 48.73-60.38l164.9 16.18c-47.96 59.81 51.78 86.69 69.17 184.97c20.89 118.09-42.68 224.01-140.64 94.71z" />
				</g>
				<g id="&lt;Group&gt;">
					<path id="&lt;Mesh&gt;" class="shp26" d="m955.6 386.46c7.75 1.2 15.46 2.48 23.21 3.67c-1.26 3.81-14.74 35.11-5.5 40.16c-7.24-0.93-14.48-1.86-21.73-2.8c-4.96-0.77-3.93-11.02-4.23-14.73c-0.21-0.89-0.15-1.93 0.21-3.01c2.67-7.77 5.34-15.54 8.03-23.29zm13.99-25.35c6.47 0.83 12.93 1.66 19.39 2.5c-4.57-0.4-8.98 22.92-10.17 26.52c-7.75-1.2-15.46-2.48-23.21-3.67c2.38-6.87 4.77-13.73 7.15-20.6c1.03-2.97 4.1-5.09 6.83-4.75zm9.23 29.02c10.56 1.21 25.55 5.01 39.93 7.1c-2.88 9.33-10.26 27.94-8.85 37.77c-12.19-1.57-24.39-3.14-36.58-4.71c-9.24-5.05 4.24-36.35 5.5-40.16zm10.17-26.52c7.1 0.91 14.2 1.83 21.3 2.74c3.79 0.51 7.57 1.01 11.36 1.5c3.41 5.44-1.61 24.77-2.89 29.38c-14.39-2.09-29.37-5.88-39.93-7.1c1.19-3.61 5.59-26.92 10.17-26.52zm29.76 33.62c12.26 1.78 24.08 2.31 32.35-1.06c-4.25 12.29-8.5 24.58-12.75 36.87c-1.02 3.02-4.1 5.14-6.88 4.75c-7.19-0.93-14.38-1.85-21.57-2.78c-1.41-9.84 5.97-28.44 8.85-37.77zm2.89-29.38c9.28 1.2 18.56 2.4 27.83 3.6c0.94 0.13 2.99 2.13 3.31 2.03c0.33 4.17 0.66 8.34 0.99 12.51c0.28 3.56-1.59 7.04-2.68 10.19c-8.27 3.37-20.09 2.84-32.35 1.06c1.28-4.61 6.3-23.94 2.89-29.38z" />
					<g id="&lt;Group&gt;">
						<path id="&lt;Path&gt;" class="shp20" d="m1046.81 371.72l0.85 10.74l-0.17 0.04c0.23 0.81 0.31 1.74-0.09 2.68l-14.67 37.7c-0.99 2.59-3.91 4.42-6.54 4.08l-75.53-8.83c-0.04 0-0.04 0-0.09 0c-2.03-0.3-3.18-1.87-3.07-3.74h-0.04l-0.7-8.92l4.49-1.49l6.24-16.01l4.96-12.78c0.99-2.55 3.92-4.37 6.5-4.08l34.05 4.03l11.84 1.4l13.13 1.53l18.56-6.28l0.29-0.08z" />
						<g id="&lt;Group&gt;">
							<path id="&lt;Path&gt;" class="shp12" d="m1046.93 373.17c0.05 0.64-0.02 1.32-0.31 2l-14.67 37.7c-0.99 2.55-3.92 4.37-6.54 4.08l-71.23-8.36l-4.3-0.51c-1.63-0.17-2.74-1.23-3.1-2.59c-0.19-0.76-0.13-1.66 0.22-2.59l6.73-17.37l7.94-20.34c0.99-2.55 3.92-4.37 6.5-4.08l38.47 4.5l5.94 0.72l31.12 3.65c1.34 0.17 2.33 0.85 2.83 1.83c0.24 0.38 0.37 0.85 0.41 1.36z" />
							<g id="&lt;Group&gt;">
								<path id="&lt;Compound Path&gt;" class="shp18" d="m984.31 378.22l-5.36 13.67l-2.91 7.47l-4.52-0.55l3.41-8.7l0.14-0.42l-2.37-0.26l-4.47-0.51l-1.72-0.21l-0.18 0.42l-2.09 5.43l-1.28 3.27l-4.56-0.55l1.35-3.48l1.1-2.84l5.78-14.82l4.56 0.55l-3.23 8.28l8.56 0.98l3.23-8.28l4.56 0.55z" />
								<path id="&lt;Compound Path&gt;" class="shp18" d="m988.1 395.46c-0.25 0.64-0.25 1.15-0.01 1.49c0.24 0.34 0.68 0.51 1.24 0.59c0.82 0.08 1.79 0.04 3.06-0.17l-1.1 2.85l-0.18 0.42c-1.33 0.38-2.78 0.47-4.41 0.25c-1.81-0.21-2.96-0.81-3.42-1.78c-0.46-0.98-0.36-2.38 0.31-4.16l0.11-0.25l2.94-7.56l-2.15-0.21l0.75-1.87l3.02-1.19l2.64-3.27l2.88 0.34l-1.35 3.44l4.61 0.55l-1.27 3.31l-4.61-0.55l-3.05 7.77z" />
								<path id="&lt;Compound Path&gt;" class="shp18" d="m1023.41 393.89l-4.11 10.53l-4.52-0.51l3.69-9.47c0.46-1.15 0.61-2.04 0.43-2.67c-0.18-0.64-0.72-0.98-1.54-1.1c-1.12-0.13-2.08 0.17-2.91 0.89c-0.88 0.68-1.6 1.87-2.28 3.57l-3.15 8.11l-4.48-0.55l3.65-9.43c0.46-1.15 0.6-2.08 0.43-2.67c-0.12-0.42-0.4-0.72-0.79-0.89c-0.22-0.13-0.44-0.17-0.74-0.21c-1.16-0.13-2.16 0.17-3 0.93c-0.83 0.76-1.62 2.12-2.37 3.99l-2.51 6.54l-0.43 1.06l-1.68-0.17l-2.84-0.34l6.31-16.18l3.44 0.42l-0.22 2.12l0.26 0.04c0.71-0.68 1.57-1.19 2.57-1.53c1-0.3 2.06-0.42 3.13-0.3c2.45 0.3 3.85 1.27 4.07 2.97l0.43 0.04c0.71-0.68 1.61-1.19 2.61-1.53c1.04-0.3 2.1-0.38 3.18-0.25c1.85 0.21 3.09 0.85 3.69 1.91c0.6 1.06 0.46 2.59-0.31 4.67z" />
								<path id="&lt;Compound Path&gt;" class="shp18" d="m1037.18 383.02l-6.03 15.45l-2.73 7.01l-4.52-0.51l4.5-11.55l4.25-10.95l4.52 0.55z" />
							</g>
						</g>
						<path id="&lt;Path&gt;" class="shp27" d="m1046.81 371.72l0.85 10.74l-0.17 0.04c0.23 0.81 0.31 1.74-0.09 2.68l-14.67 37.7c-0.99 2.59-3.91 4.42-6.54 4.08l-75.53-8.83c-0.04 0-0.04 0-0.09 0c-2.03-0.3-3.18-1.87-3.07-3.74h-0.04l-0.7-8.92c-0.19-0.76-0.13-1.66 0.22-2.59l6.73-17.37c1.25 0.68 2.55 1.49 3.78 2.46c1.14 0.89 2.28 1.87 3.35 2.97c0.28 0.25 0.51 0.51 0.74 0.76c0.37 0.34 0.7 0.72 1.02 1.1c0.52 0.59 1.07 1.19 1.63 1.74c9.07 9.04 21 10.49 30.1 8.11c0.96-0.21 1.88-0.51 2.75-0.85c0.75-0.25 1.45-0.55 2.1-0.89c5.59-2.63 9.18-6.84 8.62-11.25c-0.13-1.1-0.52-2.21-1.2-3.31c-2.25-3.65-3.54-7.6-3.61-11.21c-0.12-3.74 1.02-7.09 3.64-9.55l5.94 0.72l31.12 3.65c1.34 0.17 2.33 0.85 2.83 1.83l0.29-0.08z" />
						<path id="&lt;Path&gt;" class="shp28" d="m994.34 402.67c-1.05-0.89-2.05-1.7-3.05-2.46c-2.73-2.21-5.26-4.03-7.6-5.52c-1.66-1.1-3.27-2.04-4.74-2.8c-1.42-0.72-2.75-1.32-4.02-1.78c-0.79-0.3-1.53-0.51-2.23-0.68c-1.61-0.42-3.12-0.59-4.47-0.51c-0.68 0-1.32 0.09-1.9 0.21c-1.8 0.38-3.4 1.27-4.74 2.59c-0.68 0.59-1.26 1.27-1.84 2.08c-2.42 3.4-4.11 8.41-5.5 14.52c-0.04 0.09-0.03 0.17-0.06 0.25c-0.82 3.69-2.1 6.88-3.59 9.55c-2.03-0.3-3.18-1.87-3.07-3.74h-0.04l-0.7-8.92c-0.19-0.76-0.13-1.66 0.22-2.59l6.73-17.37l7.94-20.34c0.99-2.55 3.92-4.37 6.5-4.08l38.47 4.5l5.94 0.72c-0.29 3.31 0.62 6.79 2.26 10.23c2.91 6.03 8.11 11.93 12.93 16.26l0.64 0.59c1.48 1.53 2.35 3.27 2.74 5.05c2.3 10.74-13.89 23.35-36.81 4.2z" />
					</g>
				</g>
				<g id="&lt;Group&gt;">
					<path id="&lt;Mesh&gt;" class="shp29" d="m684.7 155.45c8.43-3.47 17.27-4.08 26.51-1.82c-1.05 3.3-13.28 38.09-4.15 40.37c-7.37-0.87-14.74-1.73-22.11-2.6c-3.22-0.36-5.13-2.81-5-5.77c-0.45-5.03-0.85-10.06-1.25-15.08c0.1-0.03 0.2-0.07 0.3-0.1c0.02-0.42 0.15-0.78 0.32-1.2c1.79-4.6 3.58-9.19 5.36-13.79zm10.43-26.88c3.55-8.95 14.12-5.83 21.88-4.93c1.22 10.28-2.81 20.57-5.81 30c-9.24-2.26-18.08-1.65-26.51 1.82c3.48-8.96 6.95-17.92 10.43-26.88zm16.08 25.07c16.15 1.96 32.29 3.88 48.44 5.81c-1.93 5.05-9.29 39.2-15.09 38.97c-12.5-1.47-25-2.94-37.5-4.41c-9.13-2.28 3.1-37.07 4.15-40.37zm5.81-30c14.56 1.69 29.13 3.4 43.69 5.11c9.74 5.15 1.41 23.96-1.06 30.7c-16.15-1.94-32.29-3.86-48.44-5.81c3-9.42 7.03-19.72 5.81-30zm42.63 35.81c10.91 1.31 21.82 2.62 32.73 3.95c-4.11 10.55-8.22 21.1-12.33 31.65c-1.56 4.01-6.09 6.81-10.15 6.35c-8.45-0.99-16.89-1.99-25.34-2.98c5.8 0.24 13.16-33.91 15.09-38.97zm1.06-30.7c9.84 1.15 19.68 2.31 29.52 3.47c2.64 0.31 4.39 1.98 4.87 4.16c0.54 5.44 0.97 10.94 1.4 16.44c-0.28 0.47-0.35 0.83-0.48 1.2c-1.3 3.09-2.43 6.27-3.65 9.39c-10.91-1.33-21.82-2.64-32.73-3.95c2.47-6.74 10.8-25.55 1.06-30.7z" />
					<g id="&lt;Group&gt;">
						<path id="&lt;Path&gt;" class="shp20" d="m784.71 135.1l1.19 15.05l-0.19 0.05c-0.06 0.38-0.13 0.71-0.25 1.04c-0.04 0.09-0.08 0.24-0.12 0.33l-14.47 37.13c-1.43 3.66-5.56 6.22-9.27 5.79l-77.53-9.12c-2.94-0.33-4.68-2.56-4.56-5.27h-0.05l-1.09-13.77l0.28-0.1l6.66-1.95l1.66-4.27l7.41-19.09c1.43-3.66 5.56-6.22 9.27-5.79l35.56 4.18l5.82 0.66l8.67 1.04l7.75 0.9l0.09-0.05l23.07-6.74l0.09-0.05z" />
						<g id="&lt;Group&gt;">
							<path id="&lt;Path&gt;" class="shp12" d="m784.78 135.91c0.07 0.85-0.1 1.8-0.45 2.8l-3.8 9.78l-10.66 27.35c-1.43 3.61-5.56 6.22-9.27 5.79l-34.89-4.08l-42.64-5.03c-2.65-0.33-4.36-2.14-4.55-4.51c-0.05-0.57 0.01-1.14 0.15-1.76c0.02-0.38 0.13-0.71 0.3-1.09l3.84-9.88l5.74-14.81l4.83-12.44c1.43-3.61 5.56-6.22 9.27-5.75l27.77 3.23l49.76 5.84c2.41 0.28 4.01 1.8 4.45 3.8c0.11 0.24 0.13 0.47 0.16 0.76z" />
							<g id="&lt;Group&gt;">
								<path id="&lt;Compound Path&gt;" class="shp18" d="m724.2 144.03l-16.88 4.84l12.08 7.45l-1.9 4.89l-9.36-6.17l-8-5.27l1.07-2.71l0.08-0.24l24.85-7.74l-1.95 4.94z" />
								<path id="&lt;Compound Path&gt;" class="shp18" d="m746.96 137.62l-1.91 2.37l-0.87 1.09l-0.7 0.85l-19.67 24.41l-4.14-0.48l-1.68-0.19l10.47-12.96l4.82-5.98l5.95-7.41l1.3-1.61l0.65-0.81l5.78 0.71z" />
								<path id="&lt;Compound Path&gt;" class="shp18" d="m764.44 154.24l-1.15 2.94l-6.25 1.71l-18.07 4.84l1.9-4.89l14.4-3.56l2.2-0.52l-4.29-2.99l-7.52-5.22l1.07-2.8l0.83-2.14l16.88 12.63z" />
							</g>
						</g>
						<path id="&lt;Path&gt;" class="shp30" d="m785.47 151.24c-0.04 0.09-0.08 0.24-0.12 0.33l-14.47 37.13c-1.43 3.66-5.56 6.22-9.27 5.79l-77.53-9.12c-2.94-0.33-4.68-2.56-4.56-5.27h-0.05l-1.09-13.77l0.28-0.1c0.02-0.38 0.13-0.71 0.3-1.09l3.84-9.88c1.33 1.76 2.74 3.32 4.19 4.75c11.29 11.35 24.33 11.58 32.69 5.84c3.66-2.52 6.42-6.22 7.75-10.59c0.26-0.9 0.62-1.76 1.04-2.56c1.11-2.28 2.76-4.32 4.82-5.98c2.68-2.23 6.13-3.85 10.21-4.8c3.09-0.76 6.54-1.04 10.23-0.9c2.48 0.05 5.13 0.38 7.84 0.85c5.91 1.14 12.27 3.28 18.97 6.6c1.64 0.85 3.29 1.76 4.94 2.75z" />
						<path id="&lt;Path&gt;" class="shp31" d="m760.6 181.63c-2.63 8.36-11.58 10.92-25.5 3.13c-3.49-1.95-6.6-4.42-9.39-7.22c-3.15-3.09-6-6.6-8.62-10.16c-3.14-4.18-6.01-8.45-8.94-12.34c-2.24-2.99-4.5-5.7-6.92-7.98c-2.22-2.14-4.65-3.89-7.26-5.03c-1.68-0.81-3.49-1.33-5.42-1.57l4.83-12.44c1.43-3.61 5.56-6.22 9.27-5.75l27.77 3.23c0.6 3.94 4.94 7.55 10.12 12.2c0.72 0.66 1.44 1.33 2.16 1.99c0.46 0.43 0.98 0.9 1.49 1.38c0.16 0.19 0.36 0.38 0.57 0.57c0.67 0.66 1.35 1.38 1.98 2.09c2.28 2.33 4.49 4.99 6.45 8.02c0.75 1.09 1.42 2.28 2.09 3.51c0.67 1.23 1.24 2.42 1.76 3.61c4.26 9.21 5.27 17.24 3.56 22.74z" />
					</g>
				</g>
				<g id="&lt;Group&gt;">
					<path id="&lt;Mesh&gt;" class="shp32" d="m310.95 509.34c64.51 8.11 122.16-1 183.36-21.1c-5.09 45.72-9.19 91.53-13.58 137.31c-3.86 40.19-15.73 79.32 1.29 116.82c-9.92 3.78-19.99 7.91-30.2 12.39c-66.5 29.17-141.59 7.39-198.09-39.11c-6.46-5.3-12.69-10.9-18.6-16.81c25.27-63.17 50.55-126.33 75.82-189.5zm45-112.35c50.7-14.72 101.4-29.43 152.1-44.15c-5.12 45.07-8.73 90.31-13.75 135.39c-61.2 20.1-118.84 29.21-183.36 21.1c7.81-19.52 15.65-39.02 23.48-58.53c7.18-17.94 14.35-35.88 21.53-53.82zm138.35 91.25c56.64-18.56 115.09-31.21 174.8-33.4c11.32 90.59 22.59 181.19 33.98 271.77c-63.89-22.83-137.4-16.09-221.07 15.77c-17.02-37.5-5.15-76.64-1.29-116.82c4.4-45.78 8.49-91.6 13.58-137.31zm13.75-135.39c14.84-4.31 29.68-8.61 44.52-12.92c32.87-9.53 65.73-19.07 98.6-28.6c3.35 26.88 6.71 53.76 10.06 80.64c0.04 0.32 0.09 0.64 0.13 0.96c2.58 20.64 5.16 41.28 7.74 61.92c-59.71 2.2-118.16 14.84-174.8 33.4c5.02-45.08 8.63-90.33 13.75-135.39z" />
					<g id="&lt;Group&gt;">
						<g id="&lt;Group&gt;">
							<path id="&lt;Path&gt;" class="shp33" d="m300.54 614.51c-3.89 16.43-9.87 35.16-18.09 56.24c-6.88 13.76-16.43 28.66-28.73 44.9c-4.27-3.5-8.47-7.13-12.48-10.96c-6.31-5.8-12.23-11.97-17.96-18.34c6.69-10.96 13.12-19.62 19.24-25.86c-2.1-47.77 0.57-81.27 7.96-100.45c19.17-12.48 37.2-11.91 54.08 1.72c2.36 13.63 1.02 31.21-4.01 52.74z" />
							<path id="&lt;Path&gt;" class="shp34" d="m300.54 614.51c-3.89 16.43-9.87 35.16-18.09 56.24c-6.88 13.76-16.43 28.66-28.73 44.9c-4.27-3.5-8.47-7.13-12.48-10.96c8.85-12.36 17.71-23.88 24.97-31.85c19.43-21.53 28.66-45.41 24.9-68.6c2.76 2.63 5.9 6.05 9.43 10.25z" />
						</g>
						<g id="&lt;Group&gt;">
							<path id="&lt;Path&gt;" class="shp35" d="m368.25 669.54c-0.64 45.73-57.77 58.6-171.34 38.47c-0.89-0.13-1.85-0.25-2.74-0.45c0.06-3.38 1.34-6.56 3.82-9.55c1.53-1.85 3.63-3.69 6.18-5.41c0.38-0.06 0.7-0.13 1.08-0.19c48.22-8.92 86.11-17.64 113.76-26.31c-30.7-24.84-41.91-60-33.63-105.54c12.1-9.17 26.37-11.15 42.74-5.86c7.45 11.02 13.89 21.91 19.24 32.74c14.01 27.96 20.96 55.35 20.89 82.1z" />
							<path id="&lt;Path&gt;" class="shp23" d="m206.66 694.76c-1.85 1.59-3.82 2.55-5.48 4.01c-1.97 1.72-3.44 4.14-3.5 9.11c-0.25 0.06-0.51 0.06-0.76 0.13c-11.08 2.1-15.1 14.2-22.99 10.7c5.16-9.94 9.55-17.71 13.38-23.31c3.12-4.71 5.8-7.96 8.09-9.68c4.2 1.02 7.45 3.25 9.87 6.69c0.51 0.7 0.96 1.53 1.4 2.36z" />
							<path id="&lt;Path&gt;" class="shp34" d="m368.25 669.54c-0.64 45.73-57.77 58.6-171.34 38.47c-11.08 2.1-15.1 14.2-22.99 10.7c5.16-9.94 9.55-17.71 13.38-23.31c2.23 0.45 4.52 1.02 6.88 1.66c1.27 0.32 2.55 0.7 3.82 0.96c1.08 0.32 2.17 0.57 3.18 0.76c80.51 19.17 146.43-9.17 153.76-30.83c7.45-22.23-0.64-45.67-47.13-70.76c5.61-2.72 11.15-5.86 16.62-9.43c2.48-1.59 11.34-2.17 22.93-0.32c14.01 27.96 20.96 55.35 20.89 82.1z" />
						</g>
						<path id="&lt;Path&gt;" class="shp2" d="m361.32 427.66c9.8 22.02 17.27 41.83 22.42 59.45c28.81-21.15 60.08-43.96 93.81-68.44c3.43-0.77 6.03 2.74 7.8 10.53c-44.19 62.42-78.96 95.85-104.31 100.3c-23.15-1.28-43.71-24.11-61.69-68.48c5.08-18.48 19.06-29.6 41.97-33.36z" />
						<g id="&lt;Group&gt;">
							<g id="&lt;Group&gt;">
								<path id="&lt;Compound Path&gt;" fill-rule="evenodd" class="shp35" d="m651.05 365.84c-12.1 16.5-32.93 30-57.26 38.85c-5.1 1.85-10.45 3.5-15.86 5.03c-18.85 4.97-39.24 7.26-58.73 5.99c-0.45 0-0.83-0.06-1.21-0.06l-11.4 15.54l-0.13 0.13l-7.07 9.62c0.89 1.08 1.47 2.29 1.72 3.57c0.38 2.1-0.19 4.46-1.97 6.75l-2.48 3.38l-32.8 44.97l-9.43 12.87c-4.97 6.88-17.71 11.08-28.41 9.43c-7.71-1.15-12.17-5.22-12.1-9.94c0-0.38 0.06-0.76 0.13-1.15h-0.13l1.4-10.45l0.83-6.43c0-0.32 0-0.64 0.06-0.96l0.13-0.7l10.25-0.45l14.46-19.75l19.62-26.82c2.68-3.69 7.64-6.5 13.19-8.15l9.04-12.23l0.76-1.08l4.52-6.31l4.27-5.67c-3.06-0.83-6.11-1.78-8.98-2.67c-4.33-1.53-8.47-3.31-12.23-5.16c-15.29-7.83-25.22-18.66-28.47-31.27c-1.85-7.32-1.4-15.16 1.4-23.18c1.72-4.78 4.33-9.68 7.96-14.59c6.11-8.41 14.46-15.86 24.46-22.48c2.8-1.85 5.67-3.76 8.73-5.35l-4.14-1.97l14.46-8.41l34.14-19.81c42.12-4.16 63.91-6.16 65.35-5.99c1.4 0.25 13.99 5.27 37.77 15.03l8.85 13.31l-3.63 1.08c5.16 3.25 9.55 6.94 13.06 10.96c5.22 5.8 8.47 12.42 9.75 19.43c0.13 0.83 0.32 1.66 0.32 2.48c1.21 10.25-2.04 21.46-10.19 32.61zm-187.45-4.52c0.19 9.68 5.1 18.79 14.01 25.86l12.61 0.26l24.97 0.57l52.67-0.89l6.94-2.23l12.04-3.89l36.69-11.72l-0.32 2.42c2.93-2.8 5.73-5.86 7.96-8.98c7.07-9.55 9.49-19.11 7.96-27.9c-0.32-1.4-0.57-2.87-1.02-4.27c-2.1-6.31-6.37-12.04-12.55-16.94c-8.6-6.88-21.08-11.97-36.56-14.33c-28.34-4.46-60.32 1.27-84.9 13.5c-4.27 2.04-8.34 4.33-12.04 6.81c-8.22 5.48-15.1 11.66-20.13 18.54c-2.36 3.25-4.27 6.5-5.54 9.68c-1.91 4.65-2.87 9.04-2.8 13.5z" />
								<g id="&lt;Group&gt;">
									<path id="&lt;Path&gt;" class="shp36" d="m524.43 391.99l-4.14 5.71l-18.44 25.19l-3.24 4.43l-15.73-2.45l-9.91-1.4l3.26-4.55l7.22-9.8l11.34-15.39l4.14-5.71l25.5 3.97z" />
									<path id="&lt;Compound Path&gt;" fill-rule="evenodd" class="shp3" d="m662.19 330.69c-0.38 0.76-0.64 1.72-0.96 2.55c-1.72 4.78-4.33 9.68-7.83 14.46c-13.25 18.09-36.81 32.61-64.08 41.4c-4.65 1.53-9.43 2.8-14.33 3.95c-17.83 4.2-36.62 5.92-54.71 4.65c-4.46-0.32-8.79-0.83-13.18-1.53c-4.27-0.57-8.41-1.4-12.29-2.42c-3.12-0.7-5.86-1.66-8.53-2.55c-16.11-5.41-28.03-13.69-35.03-23.57c-4.01-5.48-6.43-11.66-7.07-18.09c-1.08-10.25 2.17-21.47 10.32-32.67c2.55-3.44 5.48-6.75 8.73-10c7.32-7.2 16.43-13.63 26.62-19.11c31.34-16.94 73.5-25.09 110.83-19.36c37.07 5.73 59.87 23.76 62.93 45.6c0.64 5.35 0.25 10.96-1.4 16.69zm-22.42-19.62c-5.54-14.46-22.55-25.86-48.41-29.87c-31.97-4.97-68.47 2.93-93.82 18.47c-6.94 4.08-13.06 8.85-17.96 14.08c-1.97 1.97-3.69 4.08-5.35 6.31c-6.88 9.43-9.36 18.98-7.83 27.77c0.64 3.57 1.78 6.94 3.82 10.25c5.03 8.85 14.9 16.31 28.66 21.08h0.06c5.29 1.85 11.15 3.38 17.45 4.33c19.24 2.93 39.81 1.27 58.85-3.76c3.5-0.89 6.94-1.97 10.25-3.12c20.45-7.01 37.96-18.22 47.96-31.97c2.48-3.25 4.4-6.5 5.67-9.81c0.51-1.4 1.08-2.8 1.4-4.14c1.97-6.94 1.59-13.57-0.76-19.62z" />
									<path id="&lt;Path&gt;" class="shp37" d="m639.14 334.83c-1.27 3.31-3.18 6.56-5.67 9.81c-10 13.76-27.52 24.97-47.96 31.97c-3.31 1.15-6.75 2.23-10.25 3.12c-19.04 5.03-39.62 6.69-58.85 3.76c-6.31-0.96-12.17-2.48-17.45-4.33h-0.06c-13.76-4.78-23.63-12.23-28.66-21.08c-2.04-3.31-3.18-6.69-3.82-10.25c1.27-3.18 3.18-6.43 5.54-9.68c5.03-6.88 11.91-13.06 20.13-18.54c3.69-2.48 7.77-4.78 12.04-6.81c24.59-12.23 56.56-17.96 84.9-13.5c15.48 2.36 27.96 7.45 36.56 14.33c6.18 4.9 10.45 10.64 12.55 16.94c0.45 1.4 0.7 2.87 1.02 4.27z" />
									<path id="&lt;Path&gt;" class="shp3" d="m501.5 433.16l-44.59 61.1l-0.14 0.12c-5.02 6.88-17.72 11.08-28.43 9.33c-8.22-1.28-12.77-5.6-12.11-10.73l0.09-0.7c0.27-1.17 0.94-2.57 1.83-3.85l18.88-25.77l25.96-35.45c2.67-3.73 7.66-6.65 13.22-8.28c3.92-1.17 7.99-1.63 11.97-1.4c1.09 0 2.05 0.12 3.13 0.23c4.88 0.82 8.53 2.68 10.52 5.13c2.3 2.92 2.44 6.53-0.35 10.26z" />
								</g>
							</g>
							<path id="&lt;Path&gt;" class="shp38" d="m577.93 409.73c-19.24 5.1-40.06 7.32-59.94 5.92l-18.6 25.29c2.42 2.93 2.55 6.69-0.25 10.32l-35.29 48.34c-2.36-1.46-4.78-3.25-6.94-5.35c-5.99-5.48-11.34-12.8-15.86-22.17c-0.7-1.27-1.21-2.8-1.91-4.2c-0.7-1.72-1.46-3.5-2.1-5.22l25.99-35.48c2.67-3.69 7.64-6.62 13.18-8.28l7.26-9.75c-4.33-1.53-8.47-3.31-12.23-5.16c-15.29-7.83-25.22-18.66-28.47-31.27c2.55-1.72 5.48-3.44 8.47-5.1c3.89-2.1 8.09-4.2 12.36-6.31c2.17-1.02 4.4-2.1 6.62-3.25c5.03 8.85 14.9 16.31 28.66 21.08h0.06c5.29 1.85 11.15 3.38 17.45 4.33c19.24 2.93 39.81 1.27 58.85-3.76c-0.25 1.78-0.32 3.5-0.45 5.16c-0.06 2.67-0.06 5.48 0.19 8.15c0.38 5.6 1.21 11.08 2.93 16.69z" />
							<path id="&lt;Path&gt;" class="shp39" d="m663.59 314c-4.2-1.4-8.34-2.23-12.42-2.68c-3.95-0.51-7.71-0.64-11.4-0.26c-4.9 0.26-9.62 1.02-14.2 2.55c-8.6-6.88-21.08-11.97-36.56-14.33c-28.34-4.46-60.32 1.27-84.9 13.5c-1.53-4.2-3.76-8.47-6.56-13.12c-0.57-0.96-1.21-1.91-1.91-2.93c-1.72-2.8-3.76-5.86-5.8-8.98c31.34-16.94 73.5-25.09 110.83-19.36c37.07 5.73 59.87 23.76 62.93 45.6z" />
						</g>
						<path id="&lt;Path&gt;" class="shp2" d="m388.95 469.03c0 0.06-0.06 0.06-0.06 0.13c-7.58 11.21-14.08 23.76-19.55 37.83c-1.66 4.2-3.18 8.53-4.59 12.99c-6.69 20.76-11.4 44.33-14.01 70.7c-14.27 4.78-28.66 7.2-42.87 6.5h-0.06c-22.04-1.08-43.69-9.55-63.82-28.09c11.85-46.37 38.22-90.19 74.14-120.06c27.96-5.22 51.59 1.46 70.83 20z" />
						<path id="&lt;Path&gt;" class="shp2" d="m506.72 431.39c-22.42 73.12-45.03 115.73-67.71 127.9c-21.02 5.61-45.8-7.52-74.27-39.3c-1.91-2.1-3.82-4.27-5.73-6.5c-0.06-1.53-0.06-3.06 0-4.52c0.13-2.93 0.51-5.8 1.15-8.47c3.18-13.06 12.61-23.63 28.28-31.85c0.13 0.19 0.32 0.32 0.45 0.51c15.99 17.71 29.17 34.01 39.43 48.98c20.76-29.11 43.31-60.51 67.71-94.33c3.06-1.78 6.62 0.7 10.7 7.58z" />
						<path id="&lt;Path&gt;" class="shp40" d="m338.58 447.93c4.86-4.57 8.1-10.98 9.72-19.25c6.15-0.73 11.47 1.2 15.97 5.78c-3.47 5.13-3.74 11.31-0.83 18.55c-9.38 2.81-17.67 1.12-24.87-5.07z" />
						<path id="&lt;Path&gt;" class="shp22" d="m378.03 397.36c2.87 20.3 0.79 34.05-6.23 41.24c-6.39 5.67-15.34 2.65-26.86-9.06c-1.96-12.28 1.72-23.13 11.04-32.54c7.85-3.72 15.2-3.6 22.06 0.36z" />
						<path id="&lt;Path&gt;" class="shp23" d="m370.52 443.17c8.96 12.02 1.54 20.99-15.97 33.02c-17.5 12.03-56.42-8.39-48.01-21.87c8.4-13.48 28.15-9.35 30.71-18.84c2.56-9.49-20.85-15.6-7.76-37.38c14.94-24.87 32.71-3.82 43.16-18.39c16.04-22.35 27.47-0.52 24.91 14.59c-2.56 15.1-14.5 32.25-27.04 17.4c-5.97 12.97-5.97 23.46 0 31.47z" />
						<path id="&lt;Path&gt;" class="shp22" d="m496.04 423.81c-2.47-17.08 5.62-22.59 5.5-14c-0.09 6.23 2.05 2.31 4.1-4.86c2.05-7.17 12.92-3.75 14.07 4.86c1.04 7.75-3.29 14.94-12.97 21.56c-6.65-1.69-10.22-4.22-10.7-7.56z" />
						<g id="&lt;Group&gt;">
							<path id="&lt;Path&gt;" class="shp2" d="m368.82 418.62c-0.42 0-0.85-0.11-1.23-0.34c-1.13-0.68-1.49-2.15-0.81-3.28c5.93-9.82 4.92-18.27 2-22.9c-1.55-2.46-3.66-3.83-5.62-3.69c-1.3 0.15-2.48-0.83-2.61-2.15c-0.13-1.31 0.83-2.48 2.15-2.61c3.74-0.4 7.56 1.83 10.12 5.89c3.68 5.84 5.1 16.24-1.94 27.92c-0.45 0.74-1.24 1.15-2.05 1.15z" />
						</g>
						<path id="&lt;Path&gt;" class="shp34" d="m506.72 431.39c-22.42 73.12-45.03 115.73-67.71 127.9c-21.02 5.61-45.8-7.52-74.27-39.3c-6.69 20.76-11.4 44.33-14.01 70.7c-14.27 4.78-28.66 7.2-42.87 6.5c3.44-1.4 29.43-12.29 40.89-39.36c8.03-18.98 9.94-37.96 10.25-48.85c0.13-3.91 0.11-7.03-0.06-9.36c0.3 0.21 0.7 0.51 1.21 0.89c1.66 1.21 4.9 3.5 9.17 6.5c15.67 10.7 45.48 29.87 63.5 32.87c25.41 4.27 58.92-72.93 73.88-108.47z" />
					</g>
				</g>
				<g id="&lt;Group&gt;">
					<path id="&lt;Mesh&gt;" class="shp41" d="m732.26 482.5c28.15-1.15 56.48 6.22 84.77 3.65c22.04 123.71 42.11 254.02 65.33 373.8c-23.05-7.54-44.56-21.91-62.14-44.36c-10.57-13.44-21.47-25.54-32.8-36.24c-18.38-98.95-36.77-197.9-55.15-296.85zm-12.68-68.24c27.29-4.06 54.58-8.11 81.88-12.17c5.34 27.54 10.51 55.63 15.58 84.07c-28.3 2.57-56.63-4.81-84.77-3.65c-4.23-22.75-8.45-45.5-12.68-68.24zm97.45 71.9c14.99-1.39 31.47-1.61 46.52-3.81c17.35 25.28 40.68 35.41 56.42 57.86c44.6 86.17 89.2 172.34 133.81 258.51c-38.09 53.08-110.17 81.28-171.42 61.24c-23.22-119.78-43.29-250.08-65.33-373.8zm-15.58-84.07c14.55-2.16 29.11-4.33 43.66-6.49c14.7 28.39 29.4 56.79 44.09 85.18c10.25 19.81 20.51 39.62 30.76 59.43c-15.74-22.45-39.07-32.58-56.42-57.86c-15.06 2.2-31.53 2.42-46.52 3.81c-5.07-28.44-10.24-56.53-15.58-84.07z" />
					<g id="&lt;Group&gt;">
						<g id="&lt;Group&gt;">
							<path id="&lt;Path&gt;" class="shp1" d="m918.94 741.38c-0.7 70.38-7.9 128.34-13.18 176.49c-0.26 2.29-0.51 4.59-0.76 6.82c-3.18 1.46-6.24 2.36-9.11 2.67c-1.72 0.26-3.38 0.26-4.97 0.06c-0.45-2.17-0.89-4.27-1.27-6.37c-17.45-86.88-25.48-151.34-24.14-193.44c0.32-29.11 0.96-58.53 1.91-88.28c0.57-19.68 1.27-39.43 2.17-59.36c22.1-5.16 48.47 3.76 64.71 21.53c2.48 43.89-4.27 89.81-15.35 139.87z" />
							<path id="&lt;Path&gt;" class="shp2" d="m911.87 932.59c-7.39 2.1-14.78 3.82-22.23 5.16c-7.71 1.4-15.41 2.36-23.12 2.99c-5.03-9.87 13.76-7.58 23.12-19.68c0.26-0.32 0.51-0.64 0.76-1.02c2.55 1.4 4.91 2.04 7.13 2.04c2.99-0.06 5.73-1.47 8.22-4.2c0.26-0.32 0.57-0.7 0.89-1.08c4.78 4.52 6.56 9.81 5.22 15.8z" />
							<path id="&lt;Path&gt;" class="shp34" d="m897.54 922.08c-0.38 1.91-0.96 3.69-1.66 5.29c-1.53 3.38-3.69 6.94-6.24 10.38c-7.71 1.4-15.41 2.36-23.12 2.99c-5.03-9.87 13.76-7.58 23.12-19.68c-17.45-86.88-25.48-151.34-24.14-193.44c0.32-29.11 0.96-58.53 1.91-88.28c3.4 2.55 6.31 6.28 8.73 11.21c-7.9 61.34 7.96 120.44 7.96 161.27c0 37.77 18.41 86.5 13.44 110.25z" />
						</g>
						<g id="&lt;Group&gt;">
							<path id="&lt;Path&gt;" class="shp1" d="m900.66 601.7c-9.11 47.71-24.14 98.09-57.83 147.58c-2.36 50.13-10.89 108.15-14.46 177.26c-0.19 2.74-0.32 5.61-0.45 8.41c-3.76 1.53-7.45 1.59-11.08 0.32c-1.4-0.51-2.87-1.27-4.27-2.23c-0.45-2.29-0.83-4.52-1.21-6.75c-15.8-86.24-22.99-150.44-21.66-192.42c1.85-24.59 11.72-56.18 29.75-94.65c8.47-18.22 18.79-37.96 30.96-59.3c20.89-2.48 37.64 4.78 50.25 21.78z" />
							<path id="&lt;Path&gt;" class="shp2" d="m830.28 942.34c-4.9 0.51-9.68 0.83-14.52 1.02c-10.57 0.45-21.08 0.13-31.53-0.89c-3.31-10.83 15.8-4.71 27.13-16.18c1.97 1.59 3.95 2.61 5.92 3.06c3.57 0.76 7.13-0.38 10.64-3.5c0.19 0.25 0.32 0.45 0.45 0.7c3.5 5.1 4.14 10.38 1.91 15.8z" />
							<path id="&lt;Path&gt;" class="shp34" d="m817.29 906.86c0.25 7.45 0.38 15.22 0 22.48c-0.06 2.04-0.25 4.01-0.45 5.92c-0.25 2.8-0.64 5.54-1.08 8.09c-10.57 0.45-21.08 0.13-31.53-0.89c-3.31-10.83 15.8-4.71 27.13-16.18c-15.8-86.24-22.99-150.44-21.66-192.42c1.85-24.59 11.72-56.18 29.75-94.65c7.73 2.21 14.27 4.27 19.62 6.18c-45.03 88.47-23.06 225.16-21.78 261.46z" />
						</g>
						<path id="&lt;Path&gt;" class="shp22" d="m925.95 581.45c-7.58-21.85-13.69-43.82-18.28-65.86c-4.2-19.55-7.13-39.17-8.98-58.85c10.76 3.44 29.94 18.79 41.85 50.25c1.15 2.93 2.23 5.99 3.18 9.24c1.97 14.65-0.45 35.86-17.77 65.22z" />
						<path id="&lt;Path&gt;" class="shp15" d="m940.53 506.99c-6.05 4.9-14.71 9.62-26.05 10.57c-1.27 0.34-3.55-0.32-6.82-1.97c-4.2-19.55-7.13-39.17-8.98-58.85c10.76 3.44 29.94 18.79 41.85 50.25z" />
						<path id="&lt;Path&gt;" class="shp15" d="m936.14 625.91c-13.76 9.3-30.83 15.29-51.15 17.9c-20.32 2.67-43.89 1.97-70.64-2.04c10.06-34.39 15.03-67.01 14.97-97.71c0-3.63-0.06-7.2-0.25-10.76c-0.76-18.41-3.44-36.11-7.96-53.18c0.13-0.06 0.19-0.13 0.32-0.19c28.34-15.1 54.08-22.93 77.26-23.5c31.85 69.81 44.33 126.37 37.45 169.49z" />
						<path id="&lt;Path&gt;" class="shp22" d="m845.12 520.62c-2.42 4.2-4.84 8.09-7.26 11.78c-2.8 4.2-5.67 8.09-8.53 11.66c-1.08 1.34-2.17 2.67-3.25 3.89c-15.61 18.03-31.66 26.37-46.69 24.59c-23.95-6.75-40.45-46.62-55.92-121.72c-0.26-1.08-0.45-2.17-0.7-3.31c0.51-2.23 5.1-6.88 10.38-4.46c14.14 30 31.21 52.55 50.7 84.78c3.95-7.58 7.77-13.95 11.46-19.3c10.51-15.41 19.36-22.68 24.78-28.09c0.45-0.19 0.89-0.38 1.34-0.51c16.05-5.54 24.08 10.64 23.69 40.7z" />
						<path id="&lt;Path&gt;" class="shp42" d="m845.56 468.29c9.4-11.56 1.48-16.6-1.82-26.67c7.24-7.73 15.75-10.92 25.54-9.58c-3.36 9.62 1.39 18.96 10.17 26.42c-9.98 8.07-22.63 10.82-33.88 9.84z" />
						<path id="&lt;Path&gt;" class="shp22" d="m865.11 400.93c8.92 14.27 9.52 29.46 1.81 45.57c-17.47 9.81-27.31 9.21-31.11 2.42c-6.89-13.56-8.07-30.31 1.04-43.58c7.96-6.33 19.5-7.11 28.26-4.4z" />
						<path id="&lt;Path&gt;" class="shp15" d="m845.12 520.62c-6.18 10.76-12.55 19.87-19.04 27.32c-12.1-4.14-21.78-20.76-30.76-39.43c10.51-15.41 19.36-22.68 24.78-28.09c16.94-6.94 25.41 9.3 25.03 40.19z" />
						<path id="&lt;Path&gt;" class="shp22" d="m717.98 433.65c2.3-3.77 6.37-6.1 4.24-8.98c-2.13-2.88-3.81-9.55-2.64-10.42c1.36-1 4.14 2.36 7.6 8.2c2.48 4.18 4.46 11.04 5.95 20.59c-4.2 4.41-7.66 5.9-10.38 4.46c-4.17-2.2-7.09-10.08-4.78-13.85z" />
						<path id="&lt;Path&gt;" class="shp23" d="m847.03 420.15c-7.59 3.41-13.16 4.14-16.7 2.18c-11.13-6.52-14.61-14.15-10.43-22.87c6.27-13.08 18.35-11.55 25.23-3.87c6.88 7.68 10.85-9.95 24.03 6.27c10.43-1.07 14.79 5.66 13.07 20.18c-2.19 18.46-8.94 15.72-9.1 24.22c-0.16 8.5-21.88 10.36-24.18 6.53c-2.3-3.84-1.54-13.05 3.33-15.1c4.86-2.05 4.73-7.42 0.64-7.93c-2.73-0.34-5.59 1.62-8.57 5.89c-0.91-5.25-0.62-10.44 2.69-15.48z" />
						<path id="&lt;Path&gt;" class="shp34" d="m884.99 643.8c-20.32 2.67-43.89 1.97-70.64-2.04c10.06-34.39 15.03-67.01 14.97-97.71c-1.08 1.34-2.17 2.67-3.25 3.89c-15.61 18.03-31.66 26.37-46.69 24.59c-23.95-6.75-40.45-46.62-55.92-121.72c15.67 31.34 33.69 107.26 60.51 109.3c16.24 1.21 33.69-14.2 45.09-26.82c7.07-7.83 11.85-14.59 12.55-15.54c-0.25 0.89-1.97 6.24-3.76 14.65c-2.93 14.08-6.05 36.94-3.12 62.8c4.84 42.99 33.5 37.07 46.56 45.54c1.46 0.96 2.74 1.97 3.69 3.06z" />
					</g>
				</g>
			</g>
		</g>
	</g>
</svg>