<svg version="1.2" baseProfile="tiny-ps" xmlns="http://www.w3.org/2000/svg" viewBox="0 0 1200 1200" width="171" height="171">
	<title>hrm_finance_project-ai</title>
	<style>
		tspan { white-space:pre }
		.shp0 { fill: #fbb040 } 
		.shp1 { fill: #fff200 } 
		.shp2 { fill: #c7eaa9 } 
		.shp3 { fill: #f9b7e2 } 
		.shp4 { fill: #838bd6 } 
		.shp5 { fill: #8ca5a4 } 
		.shp6 { fill: #724f1d } 
		.shp7 { fill: #231f20 } 
		.shp8 { fill: #dcfeff } 
		.shp9 { fill: #ffffff;stroke: #231f20 } 
		.shp10 { fill: #000000 } 
		.shp11 { fill: #f7edd0 } 
		.shp12 { fill: #ddd1b3 } 
		.shp13 { fill: #18564f } 
		.shp14 { fill: #aaf9ed } 
		.shp15 { fill: #d3296e } 
		.shp16 { fill: #badbdb } 
		.shp17 { fill: #ffffff;stroke: #231f20;stroke-width: 5 } 
		.shp18 { fill: #ffc33e } 
		.shp19 { fill: #1a136b } 
		.shp20 { fill: #97afad } 
		.shp21 { fill: #fcfc22 } 
		.shp22 { fill: #10ffe2 } 
		.shp23 { fill: none;stroke: #231f20;stroke-width: 6 } 
		.shp24 { fill: none;stroke: #231f20;stroke-width: 3 } 
		.shp25 { fill: #eacd1f } 
		.shp26 { fill: #ffffff } 
		.shp27 { fill: #350f0f } 
		.shp28 { fill: #3ea03c } 
		.shp29 { fill: #63e260 } 
		.shp30 { fill: #3ea03c;stroke: #231f20 } 
		.shp31 { fill: #ff66ac } 
		.shp32 { fill: #4f5453 } 
		.shp33 { fill: #3178a3 } 
		.shp34 { fill: #ffd400 } 
		.shp35 { fill: #f2240f } 
		.shp36 { fill: #eaeaea } 
		.shp37 { fill: #ffff15 } 
		.shp38 { fill: #d30909 } 
		.shp39 { fill: #593e13 } 
	</style>
	<g id="Layer 2">
		<g id="&lt;Group&gt;">
			<path id="&lt;Path&gt;" class="shp0" d="m268.53 348.02c0 58.69-47.58 106.26-106.26 106.26c-58.69 0-106.26-47.58-106.26-106.26c0-58.69 47.58-106.26 106.26-106.26c58.69 0 106.26 47.58 106.26 106.26z" />
			<path id="&lt;Path&gt;" class="shp1" d="m492.78 299.09c0 58.69-47.58 106.26-106.26 106.26c-58.69 0-106.26-47.58-106.26-106.26c0-58.69 47.58-106.26 106.26-106.26c58.69 0 106.26 47.58 106.26 106.26z" />
			<path id="&lt;Path&gt;" class="shp2" d="m717.93 190.56c0 58.69-47.58 106.26-106.26 106.26c-58.69 0-106.26-47.58-106.26-106.26c0-58.69 47.58-106.26 106.26-106.26c58.69 0 106.26 47.58 106.26 106.26z" />
			<path id="&lt;Path&gt;" class="shp3" d="m925.95 299.44c0 58.69-47.58 106.26-106.26 106.26c-58.69 0-106.26-47.58-106.26-106.26c0-58.69 47.58-106.26 106.26-106.26c58.69 0 106.26 47.58 106.26 106.26z" />
			<path id="&lt;Path&gt;" class="shp4" d="m1144 346.43c0 58.69-47.58 106.26-106.26 106.26c-58.69 0-106.26-47.58-106.26-106.26c0-58.69 47.58-106.26 106.26-106.26c58.69 0 106.26 47.58 106.26 106.26z" />
			<path id="&lt;Path&gt;" class="shp5" d="m878.79 1115.71h-170.1v-229.63h170.1v229.63z" />
			<path id="&lt;Path&gt;" class="shp6" d="m350.07 282.22c-10.64-13.7-5.85-20.32 14.35-19.84c5.08-11.34 14.95-13.47 29.59-6.38c9.45-8.47 17.01-4.68 22.68 11.36c8.5-5.25 12.76 2.29 12.76 22.63c11.39 13.93 7.61 23.63-11.34 29.09c-6.22 13.25-16.75 18.34-31.6 15.26c-20.52 6.84-31.72-0.14-33.61-20.93c-20.32-6.14-21.26-16.54-2.83-31.18z" />
			<path id="&lt;Path&gt;" class="shp7" d="m371.33 770.17v-163.17c0-18.1 14.67-32.77 32.77-32.77h297.33c18.1 0 32.77 14.67 32.77 32.77v163.17c0 18.1-14.67 32.77-32.77 32.77h-297.33c-18.1 0-32.77-14.67-32.77-32.77z" />
			<path id="&lt;Path&gt;" class="shp8" d="m386.51 759.98v-142.79c0-15.84 13.45-28.68 30.03-28.68h272.45c16.59 0 30.03 12.84 30.03 28.68v142.79c0 15.84-13.45 28.68-30.03 28.68h-272.45c-16.59 0-30.03-12.84-30.03-28.68z" />
			<path id="&lt;Path&gt;" class="shp9" d="m304.71 806.34c-4.72-8.27-4.72-13.82 0-16.66c7.09-4.25 9.21-14.17 6.38-24.1" />
			<path id="&lt;Path&gt;" class="shp9" d="m319.59 765.59c3.31 4.72 3.31 10.39 0 17.01c-8.03 4.72-10.46 12.64-7.29 23.74" />
			<path id="&lt;Path&gt;" class="shp9" d="m321.8 806.34c-4.2-4.02-4.2-8.62 0-13.82" />
			<path id="&lt;Path&gt;" class="shp10" d="m179.97 290.02c34.02-0.71 28.35 12.76 29.77 37.56c0.94 16.54-6.38 25.75-21.97 27.64c14.17-37.33 8.27-50.56-17.72-39.69c-25.99 10.87-36.85 5.67-32.6-15.59c9.92 17.01 8.5-9.21 42.52-9.92z" />
			<path id="&lt;Path&gt;" class="shp11" d="m156.58 359.48c-9.97-10.75-12.55-23.91-7.74-39.46c4.81-15.55 18.96-18.94 42.47-10.15c14.17 19.37 12.99 34.49-3.54 45.36c-24.81 16.3-25.65 12.89-31.18 4.25z" />
			<path id="&lt;Path&gt;" class="shp12" d="m166.81 375.07v-8.61l23.79-12.84v17.91c-12.28 8.5-20.22 9.69-23.79 3.54z" />
			<path id="&lt;Path&gt;" class="shp13" d="m142.41 429.64v-22.68c3.78-15.59 3.78-26.46 0-32.6c-3.78-6.14 4.35-7.32 24.4-3.54c-1.83 10.43 3.92 11.97 17.26 4.63c20-11.01 32.05 1.75 29.93 9.54c-1.42 5.2-4.02 25.99-7.8 62.37c-25.99 5.67-42.52 6.85-49.61 3.54c3.6-10.39 0.36-16.06-9.71-17.01l-4.47-4.25z" />
			<path id="&lt;Path&gt;" class="shp14" d="m234.54 429.64c-5.67 5.67-14.33 4.26-25.97-4.22l4.56-36.08c12.19 20.85 25.94 23.66 41.25 8.41c-7.56 15.59-14.17 26.22-19.84 31.89z" />
			<path id="&lt;Path&gt;" class="shp14" d="m142.41 406.96c-14.17 2.36-20.18 5.91-18 10.63c2.17 4.72 9.66 10.16 22.47 16.3l-5.18 12.05c-18.43-10.87-31.18-21.03-38.27-30.48c-7.09-9.45 5.91-23.15 38.98-41.11c4.72 6.14 4.72 17.01 0 32.6z" />
			<path id="&lt;Path&gt;" class="shp11" d="m141.69 445.94l5.18-12.05c7.99-5.19 11.23 0.48 9.71 17.01c-5.14-0.98-10.11-2.64-14.89-4.96z" />
			<path id="&lt;Path&gt;" class="shp11" d="m394.72 274.43c-2.83 11.81 1.65 17 13.47 15.57c2.13 19.82-3.54 39.01-21.97 39.01c-12.28 0-19.55-9.92-21.8-29.77c14.76 5.67 24.86-2.6 30.3-24.81z" />
			<path id="&lt;Path&gt;" class="shp12" d="m381.96 340.34v-11.34l16.22-3.65v11.08c-6.56 8.28-11.97 9.58-16.22 3.91z" />
			<path id="&lt;Path&gt;" class="shp15" d="m381.96 336.43c2.36 6.84 7.77 6.84 16.22 0c1.94 0.72 7.4 2.02 16.38 3.91c13.47 2.83 24.1 44.65 24.1 49c0 2.9-3.99 4.99-11.96 6.29c2.42-4.25-2.33-14.14-14.26-29.67c-5.2 7.02-7.8 12.66-7.8 16.91c0 4.25 4.25 10.87 12.76 19.84c-11.34 4.72-24.81 4.72-40.4 0l-2.83-24.42c-11.34-7.78-12.28-20.43-2.83-37.95h10.63c-2.36-9.45-2.36-10.75 0-3.91z" />
			<path id="&lt;Path&gt;" class="shp16" d="m195.56 886.07h35.44v229.63h-35.44v-229.63z" />
			<path id="&lt;Path&gt;" class="shp16" d="m171.46 886.07v-32.6h764.03v32.6h-764.03z" />
			<path id="&lt;Path&gt;" class="shp16" d="m678.92 1115.71v-229.63h29.77v229.63h-29.77z" />
			<path id="&lt;Path&gt;" class="shp16" d="m878.79 1115.71v-229.63h25.51v229.63h-25.51z" />
			<path id="&lt;Path&gt;" class="shp17" d="m708.69 961.2h170.1" />
			<path id="&lt;Path&gt;" class="shp17" d="m708.69 1040.58h170.1" />
			<path id="&lt;Path&gt;" class="shp18" d="m488.98 843.48c-34.6 6.66-54.79 6.66-60.58 0c-5.79-6.66 5.75-28.37 34.63-65.14c-4.56 15.06 4.09 36.77 25.95 65.14z" />
			<path id="&lt;Path&gt;" class="shp18" d="m632.28 759.92c40.81 39.64 56.2 67.5 46.16 83.57c-18.94 3.74-34.32 3.74-46.16 0c20.12-43.43 20.12-71.28 0-83.57z" />
			<path id="&lt;Path&gt;" class="shp10" d="m545.68 713.01c-47.25-50-56.23-92.01-26.93-126.03c-22.94-3.78-27.73-10.39-14.37-19.84c13.36-9.45 35.63-5.2 66.81 12.76c-19.86-11.34-25.77-19.37-17.73-24.1c12.06-7.09 54.58 18.43 54.58 43.94c0 25.51 17.01 124.48-62.37 113.27z" />
			<path id="&lt;Path&gt;" class="shp19" d="m615.14 961.2v126.16l-32.6-4.25l-7.09-109.15l-34.02 12.76l-11.34 100.64h-31.98v-121.82c39.16-10.34 78.17-11.79 117.03-4.33z" />
			<path id="&lt;Path&gt;" class="shp20" d="m800.83 843.48h29.77c-3.78-16.02 1.42-24.03 15.59-24.03c14.17 0 18.9 8.01 14.17 24.03h31.18v9.99h-90.72v-9.99z" />
			<path id="&lt;Path&gt;" class="shp20" d="m911.39 769.84l-54.23 54.23l-7.8-7.8l55.65-55.65l6.38 9.21z" />
			<path id="&lt;Path&gt;" class="shp20" d="m844.77 686.21l7.8-7.8l73 73h-21.26l-59.53-65.2z" />
			<path id="&lt;Path&gt;" class="shp21" d="m779.57 678.41l45.36-10.63l19.84-19.84c29.77-2.83 18.43 25.51 7.8 30.48c-7.09 3.31-13.47 20.08-19.14 50.32l-53.86-50.32z" />
			<path id="&lt;Path&gt;" class="shp22" d="m925.57 767c-13.7 4.25-20.79-0.94-21.26-15.59c-0.71-21.97 35.44-5.67 21.26 15.59z" />
			<path id="&lt;Path&gt;" class="shp23" d="m82.16 1115.71h1046.11" />
			<path id="&lt;Path&gt;" class="shp24" d="m371.33 402.71c-17.95 20.79-9.45 29.77 25.51 26.93c52.45-4.25 72.29 29.77 50.64 69.46c-14.43 26.46-0.6 49.61 41.5 69.46" />
			<path id="&lt;Path&gt;" class="shp24" d="m650.57 574.23c0.94-56.7 20.32-80.8 58.12-72.29c56.7 12.76 111.98-4.25 106.31-60.95c-3.32-23.62 8.13-36.38 34.36-38.27" />
			<path id="&lt;Path&gt;" class="shp24" d="m1046.05 455.16c-1.42 65.2-53.86 69.46-77.96 66.62c-24.1-2.83-73.71-39.69-104.25 52.45c-20.36 61.42-63.57 76.54-129.64 45.36" />
			<path id="&lt;Path&gt;" class="shp24" d="m578.28 293.56c-60.48 45.36-66.15 66.15-17.01 62.37c73.71-5.67 114.82 59.53 35.44 77.96c-52.92 12.28-67.57 59.06-43.94 140.33" />
			<path id="&lt;Path&gt;" class="shp24" d="m371.33 606.83c-43.47 8.86-60.95-12.31-52.45-63.52c12.76-76.81-94.97-27.2-123.32-44.21c-18.9-11.34-24.57-25.99-17.01-43.94" />
			<path id="&lt;Path&gt;" class="shp25" d="m294.79 853.47v-40.34h28.35v6.32c15.12 0 19.37 5.67 12.76 17.01l-9.92 11.46v5.55h-31.18z" />
			<path id="&lt;Path&gt;" class="shp26" d="m335.36 829.55c0.94 0.94-2.78 4.67-11.16 11.16v-14.53c6.73-3.9 9.75 1.95 11.16 3.37z" />
			<path id="&lt;Path&gt;" class="shp27" d="m190.6 806.34h35.44h39.33c2.36 35.44-5.91 51.15-24.81 47.13h-29.77c-12.52 4.25-19.25-11.46-20.2-47.13z" />
			<path id="&lt;Path&gt;" class="shp28" d="m228.06 676.29v130.05h-2.02v-130.05h2.02z" />
			<path id="&lt;Path&gt;" class="shp29" d="m230.29 785.79c3.31-29.06 16.18-42.52 38.63-40.4c2.36 29.06-10.51 42.52-38.63 40.4z" />
			<path id="&lt;Path&gt;" class="shp28" d="m224.27 798.54c-1.42-24.57-14.65-38.51-39.69-41.82c-9.45 25.99 3.78 39.93 39.69 41.82z" />
			<path id="&lt;Path&gt;" class="shp28" d="m228.06 741.31c0.78-29.89 12.75-42.7 35.9-38.45c-0.85 26.22-12.82 39.04-35.9 38.45z" />
			<path id="&lt;Path&gt;" class="shp29" d="m224.27 752.83c0.47-21.97-10.75-34.61-33.67-37.92c-4.72 21.26 6.5 33.9 33.67 37.92z" />
			<path id="&lt;Path&gt;" class="shp28" d="m224.27 714.91c3.37-17.95-3.53-29.53-20.69-34.73c-5.58 19.84 1.32 31.42 20.69 34.73z" />
			<path id="&lt;Path&gt;" class="shp29" d="m230.29 700.38c0.47-21.03 9.1-29.89 25.87-26.58c-1.42 18.66-10.04 27.52-25.87 26.58z" />
			<path id="&lt;Path&gt;" class="shp30" d="m228.06 676.29c-13.87-5.2-14.54-15.83-2.02-31.89c11.91 10.39 12.58 21.03 2.02 31.89z" />
			<path id="&lt;Path&gt;" class="shp31" d="m353.61 399.88l2.83-21.59c-0.47-24.31 4.49-36.96 14.88-37.95c-8.98 16.54-8.03 29.19 2.83 37.95l-9.75 21.59h-10.8z" />
			<path id="&lt;Path&gt;" class="shp10" d="m576.16 173.79c4.72-27.4 19.37-37.8 43.94-31.18c3.31 37.8-16.06 52.68-58.12 44.65c7.09-0.47 11.81-4.96 14.17-13.47z" />
			<path id="&lt;Path&gt;" class="shp10" d="m603.09 221.27c-24.1-3.31-36.62-8.98-37.56-17.01c9.12-3.47 13.87-8.83 14.28-16.07l11.38-1.58c-1.98 15.55 1.99 25.21 11.91 28.99v5.67z" />
			<path id="&lt;Path&gt;" class="shp32" d="m620.1 142.6c14.97-0.47 21.55 12.52 19.73 38.98c0.07 14.69 5.07 22.14 14.99 22.36c-15.69 17.22-27.18 23-34.45 17.33c-7.27-5.67-5.95-12.52 3.97-20.55c5.57-10.39 4.24-20.32-3.97-29.77c-12.94-8.5-13.04-17.95-0.28-28.35z" />
			<path id="&lt;Path&gt;" class="shp11" d="m616.42 168.09c13.33-7.82 27.78 40.42 0 46.57c-18.52 4.1-26.93-5.25-25.24-28.06c7.94-7.13 16.35-13.3 25.24-18.51z" />
			<path id="&lt;Path&gt;" class="shp33" d="m591.18 221.27h11.91c0.37 5.2 6.13 5.2 17.29 0l7.53 1.5c-3.74 8.45-1.96 14.33 5.34 17.64c-12.65 20.32-16.94 31.66-12.87 34.02c6.1 3.54 17.93 16.3 19.46 19.14c-28.17 9.86-44.41 10.08-48.71 0.66c5.62-8 6.77-16.26 3.47-24.76c-4.96-12.76-17.72-14.88-13.47-28.35c2.83-8.98 6.19-15.59 10.06-19.84z" />
			<path id="&lt;Path&gt;" class="shp11" d="m636.4 274.43c8.5-10.39 13.23-17.7 14.17-21.92c1.42-6.33-6.38-2.88-17.33-12.1c-7.3-6.14-9.08-12.02-5.34-17.64c18.89 3.25 29.99 10.55 33.29 21.89c3.31 11.34-2.36 22.92-17.01 34.73v14.17c-7.56-0.47-10.16-6.85-7.8-19.14z" />
			<path id="&lt;Path&gt;" class="shp11" d="m565.53 218.44c-8.03 5.67-11.1 12.76-9.21 21.26c2.83 12.76 0.71 17.01 9.21 10.63c8.5-6.38 13.74-29.06 25.65-29.06c-9.33 16.84-12.35 27.25-9.06 31.23c-19.1 18.66-30.06 21.43-32.9 8.3c-4.25-19.69 0.71-40.24 3.54-42.37c2.83-2.13 21.27-11.14 12.76 0z" />
			<path id="&lt;Path&gt;" class="shp12" d="m603.09 221.27v-5.67c6.99-0.07 11.44-0.38 13.33-0.93l3.96 6.6c-12 6.61-17.76 6.61-17.29 0z" />
			<path id="&lt;Path&gt;" class="shp34" d="m767.52 388.54l4.96-19.26c3.31-25.59 10.16-37.79 20.55-36.58v36.58l-10.63 26.34l-14.88-7.09z" />
			<path id="&lt;Path&gt;" class="shp34" d="m855.4 364.16l2.83-31.45c8.5 1.31 13.94 10.48 16.3 27.49l4.96 23.39l-12.05 7.8l-12.05-27.22z" />
			<path id="&lt;Path&gt;" class="shp35" d="m793.03 332.7l13.47-3.7l14.17 21.97l5.67-10.63l5.67 10.63l12.76-21.97l13.47 3.7l-2.83 67.18c-31.66 9.45-52.45 9.45-62.37 0v-67.18z" />
			<path id="&lt;Path&gt;" class="shp36" d="m810.75 319.79l14.88 16.16l-4.96 15.02l-14.17-21.97l4.25-9.21z" />
			<path id="&lt;Path&gt;" class="shp36" d="m837.68 319.79l7.09 9.21l-12.76 21.97l-6.38-15.02l12.05-16.16z" />
			<path id="&lt;Path&gt;" class="shp12" d="m810.75 319.79c14.65 3.78 23.62 3.78 26.93 0l-12.05 16.16l-14.88-16.16z" />
			<path id="&lt;Path&gt;" class="shp11" d="m844.77 260.81c0 28.9 5.67 59.69-23.29 61c-19.3 0.87-26.43-18.23-21.36-57.3c7.09 8.03 21.97 6.8 44.65-3.7z" />
			<path id="&lt;Path&gt;" class="shp10" d="m788.78 260.81c9.92-15.49 23.39-19.69 40.4-12.6c0.93-11.28 7.66-9.84 20.19 4.3c10.07 35.37 7.8 53.54-6.8 54.5c0.99-26.65-0.64-42.05-4.89-46.2c-4.33 16.64-17.11 21.18-38.33 13.62c0.39 17.56 1.57 28.42 3.53 32.58c2.95 6.24-24.03-5.25-14.11-46.2z" />
			<path id="&lt;Path&gt;" class="shp10" d="m1019.83 356.64c-18.9-5.2-22.44-14.41-10.63-27.64c-13.23-16.54-10.87-25.28 7.09-26.22c0-10.87 7.56-12.99 22.68-6.38c15.12-12.09 25.51-8.03 31.18 12.19c22.21 7.94 21.03 22.06-3.54 42.38c-3.31 14.75-7.56 18.44-12.76 11.06c4.25-16.92 4.02-28.31-0.71-34.17c-14.17 10.02-25.04 12.71-32.6 8.08l-0.71 20.69z" />
			<path id="&lt;Path&gt;" class="shp11" d="m1036.84 376.49c-11.81 0.56-17.48-6.05-17.01-19.84c0.47-13.79 0.71-20.69 0.71-20.69c17.95-2.86 28.35-7.57 31.18-14.12c14.17 32.19 9.21 50.41-14.88 54.66z" />
			<path id="&lt;Path&gt;" class="shp37" d="m1034.01 395.62l4.87-11.34l4.18 11.34l14.88-18.09c2.72-4.03 7.74-4.03 15.05 0c10.87 5.42 18.66 22.79 23.39 52.11c1.42 2.83-4.49 6.85-17.72 12.05l-8.5-38.98l-3.54 46.07c-14.17 5.67-34.02 5.67-59.53 0l1.42-42.6l-9.92 37.64l-13.47-9.92c-2.83-10.39 2.85-26.93 17.05-49.61c1.92-7.56 7.8-9.21 17.65-4.96l14.2 16.3z" />
			<path id="&lt;Path&gt;" class="shp36" d="m1052.87 367.59l5.07 9.95l-14.88 18.09l-4.18-15.59l-4.87 15.59l-14.2-16.3l5.1-7.3c10.94 7.42 20.26 5.94 27.96-4.43z" />
			<path id="&lt;Path&gt;" class="shp38" d="m446.46 880.4c19.84 26.93 34.02 62.37 56.7 39.69c22.68-22.68-53.86-82.21-51.03-150.25c2.83-68.04 161.59-79.38 189.94-9.92c28.35 69.46-53.86 137.5-36.85 160.81c17.01 23.31 29.77-20.47 48.19-43.15c12.28-15.12 20.79-15.12 25.51 0c-6.61 64.26-48.43 96.39-125.45 96.39c-77.02 0-118.83-29.29-125.45-87.88c-0.94-21.73 5.2-23.62 18.43-5.67z" />
			<path id="&lt;Path&gt;" class="shp39" d="m450.71 1080.98h78.67l12.05-12.05v-82.21l-17.51-14.9c0 0 3.47 0.71 10.42 2.14c6.95 1.43 20.65 1.43 41.11 0l-20.55 11.34v85.05l13.47 12.76h90.72v19.84h-29.77v-8.5h-66.62v8.5h-25.51v-8.5h-66.62v8.5h-19.84v-21.97z" />
			<path id="&lt;Path&gt;" class="shp1" d="m806.5 1000.89c0 7.05-5.71 12.76-12.76 12.76c-7.05 0-12.76-5.71-12.76-12.76c0-7.05 5.71-12.76 12.76-12.76c7.05 0 12.76 5.71 12.76 12.76z" />
			<path id="&lt;Path&gt;" class="shp1" d="m806.5 923.64c0 7.05-5.71 12.76-12.76 12.76c-7.05 0-12.76-5.71-12.76-12.76c0-7.05 5.71-12.76 12.76-12.76c7.05 0 12.76 5.71 12.76 12.76z" />
			<path id="&lt;Path&gt;" class="shp1" d="m806.5 1078.14c0 7.05-5.71 12.76-12.76 12.76c-7.05 0-12.76-5.71-12.76-12.76c0-7.05 5.71-12.76 12.76-12.76c7.05 0 12.76 5.71 12.76 12.76z" />
		</g>
	</g>
</svg>