<svg version="1.2" baseProfile="tiny-ps" xmlns="http://www.w3.org/2000/svg" viewBox="0 0 1650 1650" width="171" height="171">
	<title>performance-ai</title>
	<style>
		tspan { white-space:pre }
		.s0 { fill: #f4cfb4 } 
		.s1 { fill: #191919 } 
		.s2 { fill: #ffffff } 
		.s3 { fill: #5b3324 } 
		.s4 { fill: #512c21 } 
		.s5 { fill: #e8c7b1 } 
		.s6 { fill: #0f0f0f } 
		.s7 { fill: #e55c45 } 
		.s8 { fill: #562f22 } 
		.s9 { fill: #e5c3ac } 
		.s10 { fill: #663629 } 
		.s11 { fill: #663a27 } 
		.s12 { fill: #7c4633 } 
		.s13 { fill: #d8544a } 
		.s14 { fill: #261d19 } 
		.s15 { fill: #f9f9f7 } 
		.s16 { fill: #eaeaea } 
		.s17 { fill: #685853 } 
		.s18 { fill: #7b9b7b } 
		.s19 { fill: #efc354 } 
	</style>
	<g id="图层 1">
		<path id="&lt;Path&gt;" class="s0" d="m690.01 610.25c0 5.35-4.34 9.69-9.69 9.69h-36c-5.35 0-9.69-4.34-9.69-9.69v-0.76c0-5.36 4.34-9.69 9.69-9.69h36c5.35 0 9.69 4.34 9.69 9.69v0.76z" />
		<path id="&lt;Path&gt;" class="s0" d="m1225.47 681.9c-0.84 5.29-5.81 8.89-11.1 8.05l-35.55-5.66c-5.29-0.84-8.89-5.81-8.05-11.09l0.12-0.75c0.84-5.29 5.81-8.89 11.1-8.05l35.55 5.67c5.29 0.84 8.89 5.81 8.05 11.09l-0.12 0.75z" />
		<path id="&lt;Path&gt;" class="s1" d="m1076.65 804.95c20.63 0.15 75.31-5.1 106.73-27.32c7.44-5.26 13.59-11.47 17.66-18.79c9.19-16.54 6.57-38.14-1.2-59.85c21.14-5.81 42.55-11.39 62.25-21.83c15.52 43.65 14.42 81.74-3.37 113.75c-12.04 21.66-30.98 39.13-56.56 52.27c-15.81 8.13-34.15 14.6-54.98 19.37c-37.26 8.54-69.67 8.4-71.02 8.39l0.49-65.99z" />
		<path id="&lt;Path&gt;" class="s2" d="m1198.18 694.62c20.62-3.02 53.08-16.75 62.62-20.92c0.43 1.15 0.89 2.32 1.3 3.46c-19.7 10.44-41.11 16.02-62.25 21.83c-0.52-1.46-1.1-2.91-1.66-4.37z" />
		<g id="&lt;Group&gt;">
			<g id="&lt;Group&gt;">
				<g id="&lt;Group&gt;">
					<path id="&lt;Path&gt;" class="s3" d="m727.2 306.61c5.28-34.52 19.88-55.24 43.81-62.15c-18.5 38.03-0.45 56.45 54.15 55.27c-64.41 21.01-97.33 24.5-98.75 10.46" />
				</g>
			</g>
		</g>
		<g id="&lt;Group&gt;">
			<g id="&lt;Group&gt;">
				<g id="&lt;Group&gt;">
					<path id="&lt;Path&gt;" class="s4" d="m739.05 272.66c4.48 15.76 18.78 22.12 42.9 19.07c-18.83 20.76-35.07 18.59-48.73-6.51c2.29-5.64 4.23-9.83 5.83-12.56z" />
				</g>
			</g>
		</g>
		<g id="&lt;Group&gt;">
			<g id="&lt;Group&gt;">
				<g id="&lt;Group&gt;">
					<path id="&lt;Path&gt;" class="s1" d="m1117.95 1021.89l-390.88-14.18l-0.87-74.44l396.75 35.96l-5 52.66z" />
				</g>
			</g>
		</g>
		<g id="&lt;Group&gt;">
			<g id="&lt;Group&gt;">
				<g id="&lt;Group&gt;">
					<g id="&lt;Group&gt;">
						<path id="&lt;Path&gt;" class="s0" d="m767.43 569.17c-1.2 20.65-18.92 36.42-39.57 35.22l-0.5-0.03c-20.65-1.2-36.42-18.92-35.22-39.57l1.67-28.74c1.2-20.66 18.92-36.42 39.57-35.23l0.5 0.03c20.65 1.2 36.43 18.92 35.23 39.57l-1.67 28.74z" />
					</g>
				</g>
			</g>
			<g id="&lt;Group&gt;">
				<g id="&lt;Group&gt;">
					<g id="&lt;Group&gt;">
						<path id="&lt;Path&gt;" class="s5" d="m757.76 573.12c-0.75 12.97-11.88 22.87-24.85 22.12l-0.1-0.01c-12.97-0.75-22.87-11.88-22.12-24.85l1.76-30.22c0.75-12.97 11.88-22.87 24.84-22.12l0.1 0c12.97 0.76 22.87 11.88 22.12 24.85l-1.76 30.22z" />
					</g>
				</g>
			</g>
		</g>
		<g id="&lt;Group&gt;">
			<g id="&lt;Group&gt;">
				<g id="&lt;Group&gt;">
					<g id="&lt;Group&gt;">
						<path id="&lt;Path&gt;" class="s0" d="m1207.94 594.76c-1.2 20.65-18.92 36.42-39.58 35.22l-0.5-0.02c-20.65-1.2-36.43-18.92-35.22-39.57l1.67-28.74c1.2-20.66 18.92-36.43 39.57-35.23l0.5 0.03c20.65 1.2 36.43 18.92 35.22 39.57l-1.67 28.74z" />
					</g>
				</g>
			</g>
			<g id="&lt;Group&gt;">
				<g id="&lt;Group&gt;">
					<g id="&lt;Group&gt;">
						<path id="&lt;Path&gt;" class="s5" d="m1190.74 598.28c-0.76 12.97-11.88 22.87-24.85 22.12l-0.1-0.01c-12.97-0.76-22.87-11.88-22.12-24.85l1.76-30.21c0.75-12.97 11.88-22.87 24.85-22.12l0.09 0.01c12.97 0.75 22.87 11.87 22.12 24.85l-1.76 30.22z" />
					</g>
				</g>
			</g>
		</g>
		<g id="&lt;Group&gt;">
			<g id="&lt;Group&gt;">
				<g id="&lt;Group&gt;">
					<path id="&lt;Path&gt;" class="s0" d="m1156.13 738.83l-436.48-29.17l17.36-283.68c4.19-72.05 65.99-127 138.04-122.81l174.82 10.16c72.05 4.19 127.16 65.87 122.97 137.92l-16.71 287.59z" />
				</g>
			</g>
		</g>
		<g id="&lt;Group&gt;">
			<g id="&lt;Group&gt;">
				<g id="&lt;Group&gt;">
					<path id="&lt;Path&gt;" class="s1" d="m1110.13 987.75l-383.66-41.55l-5.3-247.75l435.74 25.32l-46.78 263.98z" />
				</g>
			</g>
		</g>
		<g id="&lt;Group&gt;">
			<g id="&lt;Group&gt;">
				<g id="&lt;Group&gt;">
					<path id="&lt;Path&gt;" class="s6" d="m890.44 708.28l-1 17.1c-27.04 27.52-45.13 57.59-54.28 90.22c-39.43-9.01-77.94-41.67-115.54-97.96l0.62-19.25l170.19 9.89z" />
				</g>
			</g>
		</g>
		<g id="&lt;Group&gt;">
			<g id="&lt;Group&gt;">
				<g id="&lt;Group&gt;">
					<path id="&lt;Path&gt;" class="s6" d="m1157 723.77l-1.12 19.22c-65.39 50.31-131.23 76.89-197.5 79.76c-9.64-33.72-33.26-66.22-70.87-97.49l0.99-17.1l268.5 15.61z" />
				</g>
			</g>
		</g>
		<g id="&lt;Group&gt;">
			<g id="&lt;Group&gt;">
				<g id="&lt;Group&gt;">
					<path id="&lt;Path&gt;" class="s7" d="m926.63 710.38c-1.24 11.26-7.62 23.32-19.14 36.16c-14.05 1.25-26.34 0.44-36.87-2.44c-7.55-9.72-12.65-22.34-15.3-37.87l71.32 4.14z" />
				</g>
			</g>
		</g>
		<g id="&lt;Group&gt;">
			<g id="&lt;Group&gt;">
				<g id="&lt;Group&gt;">
					<path id="&lt;Path&gt;" class="s8" d="m721.63 375.19l45.44 28.91c-14.46 8.47-25.94 40.96-34.46 97.47c-5.76-41.06-9.42-83.19-10.98-126.38z" />
				</g>
			</g>
		</g>
		<g id="&lt;Group&gt;">
			<g id="&lt;Group&gt;">
				<g id="&lt;Group&gt;">
					<path id="&lt;Path&gt;" class="s9" d="m1110.13 392.62l-1.31 22.47c-74.37 87.94-191.5 88.14-351.39 0.6c31.79 9.95 149.36 2.26 352.7-23.07z" />
				</g>
			</g>
		</g>
		<g id="&lt;Group&gt;">
			<g id="&lt;Group&gt;">
				<g id="&lt;Group&gt;">
					<path id="&lt;Path&gt;" class="s9" d="m1108.16 406.46l27.84 16.46l18.6 40.3c-28.99-1.71-54.04-16.24-75.14-43.59l28.69-13.17z" />
				</g>
			</g>
		</g>
		<g id="&lt;Group&gt;">
			<g id="&lt;Group&gt;">
				<g id="&lt;Group&gt;">
					<path id="&lt;Path&gt;" class="s10" d="m755.66 408.41c-8.07 1.7-14.86 13.76-20.36 36.17c-2.25-11.88-2.19-29.09 0.16-51.62l20.2 15.45z" />
				</g>
			</g>
		</g>
		<g id="&lt;Group&gt;">
			<g id="&lt;Group&gt;">
				<g id="&lt;Group&gt;">
					<path id="&lt;Path&gt;" class="s11" d="m1106.08 397.18c-25.57 39.53-62.23 59.36-109.97 59.49c-278.79 2.42-370.29-64.57-274.52-200.95c-3.53 5.02 13.31 26.79 16.69 30.48c8.16 8.92 20.46 17.33 33.1 12.85c14.94-5.3 26.97-16.2 39.18-25.92c13.22-10.52 27.71-19.28 42.68-27.08c29.32-15.3 61.13-26.21 94.06-30.06c10.29-1.2 20.66-1.71 31.01-1.49c1.63 0.04 3.27 0.09 4.9 0.17c7.88 0.35 15.73 1.2 23.5 2.54c57.84 9.99 109.37 49.17 122.82 107.85c1.92 8.37 3.05 16.87 4.3 25.36c58.88 1.05 81.03 26.75 66.47 77.11l-31.95 99.38l-20.31-10.93l-7.06-58.72c-23.58-14.75-35.21-34.77-34.91-60.06z" />
				</g>
			</g>
		</g>
		<g id="&lt;Group&gt;">
			<g id="&lt;Group&gt;">
				<g id="&lt;Group&gt;">
					<path id="&lt;Path&gt;" class="s3" d="m868.63 446.61c121.96 34.17 201.11 17.7 237.45-49.42c-66.12 34.85-145.27 51.32-237.45 49.42z" />
				</g>
			</g>
		</g>
		<g id="&lt;Group&gt;">
			<g id="&lt;Group&gt;">
				<g id="&lt;Group&gt;">
					<path id="&lt;Path&gt;" class="s3" d="m1106.08 397.18c32.9 7 49.45 22.51 49.66 46.52l12.62 83.2l-20.31-10.93l-7.28-54.88c-25.66-19.04-37.22-40.34-34.68-63.9z" />
				</g>
			</g>
		</g>
		<g id="&lt;Group&gt;">
			<g id="&lt;Group&gt;">
				<g id="&lt;Group&gt;">
					<path id="&lt;Path&gt;" class="s12" d="m768.9 372.79c85.54 68.41 194.16 67.3 325.87-3.33c-139.26 27.38-247.88 28.49-325.87 3.33z" />
				</g>
			</g>
		</g>
		<g id="&lt;Group&gt;">
			<g id="&lt;Group&gt;">
				<g id="&lt;Group&gt;">
					<path id="&lt;Path&gt;" class="s12" d="m770.46 348.72c146.69 25.43 252.85 22.5 318.47-8.8c-135.83-17.4-241.98-14.46-318.47 8.8z" />
				</g>
			</g>
		</g>
		<g id="&lt;Group&gt;">
			<g id="&lt;Group&gt;">
				<g id="&lt;Group&gt;">
					<path id="&lt;Path&gt;" class="s12" d="m771.63 328.64c141.27-97.99 247.39-100.22 318.35-6.69c-86.7-46.6-192.82-44.37-318.35 6.69z" />
				</g>
			</g>
		</g>
		<g id="&lt;Group&gt;">
			<g id="&lt;Group&gt;">
				<g id="&lt;Group&gt;">
					<path id="&lt;Path&gt;" class="s12" d="m1125.62 380.34c28.01 0.59 44.01 19.36 47.99 56.29c17.12-48.34 1.12-67.1-47.99-56.29z" />
				</g>
			</g>
		</g>
		<g id="&lt;Group&gt;">
			<g id="&lt;Group&gt;">
				<g id="&lt;Group&gt;">
					<path id="&lt;Path&gt;" class="s5" d="m1157 723.77l-436.74-25.39l0.33-5.65l436.74 25.38l-0.33 5.65z" />
				</g>
			</g>
		</g>
		<g id="&lt;Group&gt;">
			<g id="&lt;Group&gt;">
				<g id="&lt;Group&gt;">
					<path id="&lt;Path&gt;" class="s13" d="m863.39 731.92c5.45-5.69 14.3-13.37 26.55-23.05c-8.75 12.91-15.2 24.66-19.34 35.24c-1.98-1.9-4.39-5.96-7.22-12.18z" />
				</g>
			</g>
		</g>
		<g id="&lt;Group&gt;">
			<g id="&lt;Group&gt;">
				<g id="&lt;Group&gt;">
					<path id="&lt;Path&gt;" class="s13" d="m889.13 709.64c15.98 11.56 25.38 19.6 28.19 24.12c-5.06 7.14-8.3 11.31-9.72 12.49c-8-17.03-14.15-29.24-18.47-36.61z" />
				</g>
			</g>
		</g>
		<g id="&lt;Group&gt;">
			<g id="&lt;Group&gt;">
				<g id="&lt;Group&gt;">
					<path id="&lt;Path&gt;" class="s2" d="m890.57 708.29c-32.54 29.71-52.94 61.2-61.22 94.47c-30.95-12.65-67.53-41.02-109.72-85.12l0.62-19.25l170.31 9.9z" />
				</g>
			</g>
		</g>
		<g id="&lt;Group&gt;">
			<g id="&lt;Group&gt;">
				<g id="&lt;Group&gt;">
					<path id="&lt;Path&gt;" class="s2" d="m1157 723.77l-1.12 19.22c-70.9 37.52-133.2 60.15-186.92 67.88c-8.16-34.22-35.45-68.48-81.87-102.79l269.91 15.69z" />
				</g>
			</g>
		</g>
		<g id="&lt;Group&gt;">
			<g id="&lt;Group&gt;">
				<g id="&lt;Group&gt;">
					<path id="&lt;Path&gt;" class="s14" d="m864.51 519.3c-3.26 20.89-16.67 36.14-29.95 34.07c-13.27-2.08-21.39-20.69-18.12-41.58c3.27-20.89 16.68-36.14 29.95-34.06c13.27 2.07 21.39 20.69 18.12 41.58z" />
				</g>
			</g>
		</g>
		<g id="&lt;Group&gt;">
			<g id="&lt;Group&gt;">
				<g id="&lt;Group&gt;">
					<path id="&lt;Path&gt;" class="s2" d="m845.97 509.15c-3.21 8.48-9.64 13.89-14.37 12.1c-4.73-1.79-5.97-10.11-2.77-18.59c3.21-8.48 9.64-13.89 14.37-12.1c4.73 1.79 5.97 10.11 2.77 18.59z" />
				</g>
			</g>
		</g>
		<g id="&lt;Group&gt;">
			<g id="&lt;Group&gt;">
				<g id="&lt;Group&gt;">
					<path id="&lt;Path&gt;" class="s14" d="m1007.6 541.67c-3.26 20.89-16.67 36.14-29.94 34.07c-13.27-2.07-21.39-20.69-18.12-41.58c3.26-20.89 16.67-36.14 29.94-34.07c13.27 2.08 21.39 20.69 18.12 41.58z" />
				</g>
			</g>
		</g>
		<g id="&lt;Group&gt;">
			<g id="&lt;Group&gt;">
				<g id="&lt;Group&gt;">
					<path id="&lt;Path&gt;" class="s2" d="m988.97 531.76c-3.45 8.38-10.04 13.61-14.72 11.67c-4.68-1.92-5.67-10.28-2.22-18.66c3.45-8.38 10.04-13.61 14.72-11.68c4.68 1.93 5.67 10.28 2.22 18.66z" />
				</g>
			</g>
		</g>
		<path id="&lt;Path&gt;" class="s7" d="m864.18 784.88l6.49-41.86l36.89 2.14l1.27 42.85l-27.18 16.13l-17.47-19.26z" />
		<path id="&lt;Path&gt;" class="s15" d="m907.32 746.06l1.51-0.48c4.35 2.52 12.74 12.53 25.18 30.02l-25.18 12.42l-1.51-41.96z" />
		<path id="&lt;Path&gt;" class="s16" d="m907.56 745.16c2-0.71 5.2-4.43 9.59-11.16c9.32 6.01 19.64 17.67 30.96 34.98l-14.11 6.61c-0.84-1.18-9.65-11.33-26.44-30.43z" />
		<path id="&lt;Path&gt;" class="s15" d="m864.18 784.88l-10.7-11.3c8.6-15.09 14.02-23.28 16.26-24.58l-5.56 35.87z" />
		<path id="&lt;Path&gt;" class="s16" d="m870.5 744.11c0.11 1.38-0.14 3.01-0.76 4.89c-1.73 0.88-7.15 9.07-16.26 24.58l-8.48-8.12c2.95-7.15 9.73-17 20.33-29.55l5.17 8.2z" />
		<path id="&lt;Path&gt;" class="s2" d="m878.52 822.86c4.41 0 7.99 3.58 7.99 8c0 4.41-3.57 7.99-7.99 7.99c-4.42 0-7.99-3.58-7.99-7.99c0-4.42 3.58-8 7.99-8z" />
		<path id="&lt;Path&gt;" class="s2" d="m877.53 850.94c4.42 0 7.99 3.58 7.99 7.99c0 4.41-3.58 7.99-7.99 7.99c-4.41 0-7.99-3.58-7.99-7.99c0-4.41 3.58-7.99 7.99-7.99z" />
		<g id="&lt;Group&gt;">
			<g id="&lt;Group&gt;">
				<g id="&lt;Group&gt;">
					<path id="&lt;Path&gt;" class="s7" d="m813.78 574.46l172.66 27.24c-13.26 59.92-49.62 83.85-109.08 71.78c-42-5.83-63.2-38.84-63.58-99.03z" />
				</g>
			</g>
		</g>
		<path id="&lt;Path&gt;" class="s1" d="m728.33 818.64c-1.33-0.27-33.05-6.91-67.7-23.04c-19.37-9.02-35.96-19.19-49.73-30.43c-22.26-18.2-37.14-39.24-44.39-62.94c-10.71-35.01-3.82-72.49 20.47-111.93c17.08 14.32 36.86 24.25 56.32 34.35c-12.14 19.6-19.21 40.19-13.67 58.28c2.45 8.01 7.17 15.37 13.34 22.06c26.09 28.3 78.47 44.86 98.67 49.02l-13.31 64.64z" />
		<path id="&lt;Path&gt;" class="s2" d="m643.3 624.64c-19.46-10.09-39.23-20.03-56.32-34.35c0.64-1.04 1.33-2.08 1.99-3.12c8.45 6.07 37.33 26.28 56.86 33.55c-0.86 1.3-1.73 2.61-2.54 3.92z" />
		<path id="&lt;Path&gt;" class="s0" d="m1177.76 654.21l56.23-35.73c13.25 20.98 19.73 36.27 26.81 55.23c-9.54 4.17-41.99 17.9-62.62 20.92c-6.21-15.99-11.74-26.68-20.42-40.42z" />
		<path id="&lt;Path&gt;" class="s0" d="m645.84 620.72c-19.54-7.26-48.41-27.47-56.86-33.55c10.88-17.06 24.95-34.48 42.29-52.23l47.2 46.13c-11.36 11.62-23.21 25.3-32.63 39.65z" />
		<path id="&lt;Path&gt;" class="s2" d="m1038.79 853.08l-68.51-6.42l0.32-3.34l68.51 6.42l-0.31 3.34z" />
		<path id="&lt;Path&gt;" class="s0" d="m631.27 534.94c24.34-4.96 40.07 10.42 47.2 46.13l-50.98-14.83l3.78-31.3z" />
		<path id="&lt;Path&gt;" class="s0" d="m1177.91 654.07c11.93-30.45 30.62-42.31 56.08-35.6l-0.5 9.86l-55.58 25.74z" />
		<path id="&lt;Path&gt;" class="s7" d="m1058.63 1467.9h-229.32v-412.35h229.32v412.35z" />
		<path id="&lt;Path&gt;" class="s7" d="m766.19 1467.9h-229.32v-345.03h229.32v345.03z" />
		<path id="&lt;Path&gt;" class="s7" d="m471.66 1467.9h-229.32v-212.48h229.32v212.48z" />
		<path id="&lt;Path&gt;" class="s7" d="m1353.16 1467.9h-229.32v-591.18h229.32v591.18z" />
		<g id="&lt;Group&gt;">
			<g id="&lt;Group&gt;">
				<g id="&lt;Group&gt;">
					<g id="&lt;Group&gt;">
						<path id="&lt;Path&gt;" class="s1" d="m915.7 1279.83h-28.75v-224.19h36.65l-7.9 224.19z" />
					</g>
				</g>
			</g>
			<g id="&lt;Group&gt;">
				<g id="&lt;Group&gt;">
					<g id="&lt;Group&gt;">
						<path id="&lt;Path&gt;" class="s1" d="m916.73 1288.73h-92.43c-2.05-7.12-2.15-11.54-0.29-13.25c14.88-31.11 45.53-31.55 91.94-1.32l0.78 14.58z" />
					</g>
				</g>
			</g>
		</g>
		<g id="&lt;Group&gt;">
			<g id="&lt;Group&gt;">
				<g id="&lt;Group&gt;">
					<g id="&lt;Group&gt;">
						<path id="&lt;Path&gt;" class="s1" d="m830.51 1214.28l-25.21-9.77l81-209.04l32.58 12.63l-88.37 206.19z" />
					</g>
				</g>
			</g>
			<g id="&lt;Group&gt;">
				<g id="&lt;Group&gt;">
					<g id="&lt;Group&gt;">
						<path id="&lt;Path&gt;" class="s1" d="m828.9 1221.29l-86.19-33.4c-0.2-5.17 1.29-9.28 4.46-12.33c25.12-23.63 53.83-12.92 86.15 32.13l-4.43 13.59z" />
					</g>
				</g>
			</g>
		</g>
		<path id="&lt;Path&gt;" class="s17" d="m1131.33 1038.88c0 9.03-7.32 16.34-16.34 16.34h-373.13c-9.03 0-16.34-7.32-16.34-16.34v-204.19c0-9.03 7.32-16.34 16.34-16.34h373.13c9.03 0 16.34 7.32 16.34 16.34v204.19z" />
		<path id="&lt;Path&gt;" class="s2" d="m577.25 945.33c0 122.42-99.24 221.65-221.66 221.65c-122.42 0-221.66-99.24-221.66-221.65c0-122.42 99.24-221.66 221.66-221.66c122.42 0 221.66 99.24 221.66 221.66z" />
		<g id="&lt;Group&gt;">
			<path id="&lt;Path&gt;" class="s7" d="m201.62 1066.44l-13.7-10.45l83.43-109.39l36.77 52.21l75.28-131.47l36.76 58.92l61.45-77.52l13.5 10.71l-76.63 96.67l-34.45-55.21l-74.42 129.96l-38.82-55.13l-69.18 90.7z" />
			<g id="&lt;Group&gt;">
				<path id="&lt;Path&gt;" class="s7" d="m489.94 899.14l-4.73-41.05l-41.04 4.76l15.41-19.44l41.04-4.74l4.74 41.03l-15.41 19.44z" />
			</g>
		</g>
		<path id="&lt;Path&gt;" class="s2" d="m551.75 524.86c0 86.39-70.03 156.43-156.43 156.43c-86.39 0-156.43-70.03-156.43-156.43c0-86.39 70.03-156.43 156.43-156.43c86.4 0 156.43 70.03 156.43 156.43z" />
		<g id="&lt;Group&gt;">
			<path id="&lt;Path&gt;" class="s18" d="m286.67 610.32l-9.67-7.37l58.88-77.2l25.95 36.84l53.13-92.78l25.94 41.58l43.37-54.7l9.53 7.56l-54.08 68.21l-24.31-38.96l-52.52 91.72l-27.4-38.9l-48.82 64.01z" />
			<g id="&lt;Group&gt;">
				<path id="&lt;Path&gt;" class="s18" d="m490.14 492.26l-3.34-28.97l-28.97 3.36l10.88-13.72l28.96-3.35l3.35 28.96l-10.88 13.72z" />
			</g>
		</g>
		<path id="&lt;Path&gt;" class="s2" d="m659.92 266.99c0 57.38-46.52 103.9-103.9 103.9c-57.38 0-103.9-46.51-103.9-103.9c0-57.38 46.52-103.89 103.9-103.89c57.38 0 103.9 46.51 103.9 103.89z" />
		<g id="&lt;Group&gt;">
			<path id="&lt;Path&gt;" class="s19" d="m483.86 323.75l-6.42-4.9l39.11-51.27l17.23 24.47l35.29-61.62l17.23 27.62l28.8-36.33l6.33 5.02l-35.92 45.31l-16.15-25.88l-34.88 60.91l-18.2-25.84l-32.42 42.52z" />
			<g id="&lt;Group&gt;">
				<path id="&lt;Path&gt;" class="s19" d="m618.99 245.33l-2.22-19.24l-19.24 2.23l7.22-9.11l19.24-2.22l2.22 19.23l-7.22 9.11z" />
			</g>
		</g>
		<path id="&lt;Path&gt;" class="s2" d="m1546.75 489.85c0 84.5-68.5 153.01-153.01 153.01c-84.5 0-153.01-68.5-153.01-153.01c0-84.5 68.51-153 153.01-153c84.5 0 153.01 68.5 153.01 153z" />
		<g id="&lt;Group&gt;">
			<path id="&lt;Path&gt;" class="s7" d="m1287.46 573.45l-9.46-7.22l57.59-75.51l25.38 36.04l51.97-90.76l25.38 40.67l42.42-53.51l9.32 7.39l-52.9 66.72l-23.78-38.11l-51.37 89.7l-26.79-38.05l-47.75 62.61z" />
			<g id="&lt;Group&gt;">
				<path id="&lt;Path&gt;" class="s7" d="m1486.48 457.96l-3.26-28.33l-28.33 3.28l10.64-13.41l28.33-3.27l3.27 28.33l-10.64 13.42z" />
			</g>
		</g>
	</g>
</svg>