<svg version="1.2" baseProfile="tiny-ps" xmlns="http://www.w3.org/2000/svg" viewBox="0 0 1600 1600" width="171" height="171">
	<title>35f1ac59359d1b1ed64e8efb9a84b604-ai</title>
	<style>
		tspan { white-space:pre }
		.s0 { fill: #f7f8f8 } 
		.s1 { fill: #fac413 } 
		.s2 { fill: #ffffff } 
	</style>
	<g id="327">
		<g id="&lt;Group&gt;">
			<path id="&lt;Path&gt;" class="s0" d="m0 0h1600v1600h-1600v-1600z" />
			<g id="&lt;Group&gt;">
				<path id="&lt;Path&gt;" class="s1" d="m800 255.11c300.98 0 544.89 243.99 544.89 544.89c0 300.98-243.91 544.88-544.89 544.88c-300.9 0-544.9-243.91-544.9-544.88c0-300.9 243.99-544.89 544.9-544.89z" />
			</g>
		</g>
		<g id="&lt;Group&gt;">
			<g id="&lt;Group&gt;">
				<path id="&lt;Path&gt;" class="s2" d="m652.2 696.71l51.8 40.23v55.97l-76.97-66.32c-4.47-3.72-7.03-9.19-7.03-15.01c0-12.1 10.21-19.59 19.67-19.59c4.5 0 8.78 1.58 12.37 4.58c0.05 0.04 0.11 0.09 0.16 0.13z" />
				<path id="&lt;Path&gt;" class="s2" d="m754.92 579.85c-0.65-2.07-0.97-4.21-0.97-6.42c0-2.15 0.31-4.26 0.93-6.33c0.62-2.07 1.56-3.91 2.82-5.53c1.27-1.62 2.83-2.92 4.68-3.91c1.86-1 4.05-1.49 6.58-1.49c2.42 0 4.56 0.47 6.42 1.41c1.86 0.94 3.43 2.21 4.72 3.79c1.29 1.59 2.26 3.42 2.9 5.49c0.65 2.07 0.97 4.21 0.97 6.42c0 2.15-0.31 4.26-0.93 6.33c-0.62 2.07-1.55 3.93-2.79 5.57c-1.24 1.64-2.8 2.97-4.68 3.99c-1.88 1.02-4.09 1.53-6.62 1.53c-2.42 0-4.57-0.48-6.46-1.45c-1.88-0.97-3.46-2.26-4.72-3.87c-1.27-1.61-2.22-3.46-2.87-5.53z" />
				<path id="&lt;Path&gt;" class="s2" d="m740 932h48v144h-48v-144z" />
				<path id="&lt;Compound Path&gt;" fill-rule="evenodd" class="s2" d="m730.7 680h-146.7v-156h420v156h-152.35c0-0.16 0-0.32 0-0.48c0-33.35-27.13-60.48-60.48-60.48c-33.35 0-60.48 27.13-60.48 60.48c0 0.16 0 0.32 0 0.48zm201.3-66c0 3.31 2.69 6 6 6c3.31 0 6-2.69 6-6v-60c0-3.31-2.69-6-6-6c-3.31 0-6 2.69-6 6v60zm0 36c0 1.59 0.63 3.13 1.75 4.25c1.13 1.12 2.68 1.75 4.25 1.75c1.58 0 3.12-0.64 4.23-1.75c1.13-1.12 1.77-2.66 1.77-4.25c0-1.58-0.64-3.12-1.77-4.24c-1.1-1.13-2.65-1.76-4.23-1.76c-1.58 0-3.13 0.64-4.25 1.76c-1.12 1.12-1.75 2.65-1.75 4.24zm-79.44-48h40.27v-11.62h-27.04v-12.19h22.6v-10.73h-22.6v-11.14h26.31v-11.62h-39.54v57.29zm-54.63-45.67h17.51v45.67h13.23v-45.67h17.43v-11.62h-48.18v11.62zm-55.32 6.05c-1.43 3.5-2.14 7.13-2.14 10.89c0 3.71 0.69 7.32 2.06 10.81c1.37 3.5 3.29 6.61 5.77 9.32c2.48 2.72 5.46 4.91 8.96 6.58c3.5 1.67 7.37 2.5 11.62 2.5c4.14 0 7.96-0.81 11.46-2.42c3.5-1.62 6.51-3.75 9.04-6.42c2.53-2.66 4.51-5.74 5.93-9.24c1.42-3.5 2.14-7.13 2.14-10.89c0-3.6-0.67-7.15-2.02-10.65c-1.34-3.5-3.25-6.62-5.73-9.36c-2.47-2.74-5.46-4.95-8.96-6.62c-3.5-1.67-7.37-2.5-11.62-2.5c-4.14 0-7.96 0.8-11.46 2.38c-3.5 1.59-6.52 3.71-9.08 6.38c-2.56 2.66-4.55 5.74-5.97 9.24zm-86.61 87.62c0-1.58-0.64-3.12-1.76-4.24c-1.1-1.13-2.65-1.76-4.24-1.76c-1.58 0-3.13 0.64-4.24 1.75c-1.13 1.12-1.76 2.66-1.76 4.25c0 1.59 0.64 3.13 1.76 4.24c1.12 1.13 2.65 1.76 4.24 1.76c1.58 0 3.12-0.64 4.24-1.76c1.13-1.12 1.76-2.65 1.76-4.24zm0-96c0-3.31-2.69-6-6-6c-3.31 0-6 2.69-6 6v60c0 3.31 2.69 6 6 6c3.31 0 6-2.69 6-6v-60zm62.84 48l21.71-57.29h-13.96l-13.32 40.67l-13.48-40.67h-14.04l21.95 57.29h11.13z" />
				<path id="&lt;Path&gt;" class="s2" d="m800 932h48v144h-48v-144z" />
				<path id="&lt;Path&gt;" class="s2" d="m968 711.59c0 5.81-2.56 11.28-7.11 15.07l-76.89 66.25v-55.97l51.8-40.23c0.05-0.04 0.11-0.09 0.16-0.13c3.59-2.99 7.87-4.58 12.37-4.58c9.46 0 19.67 7.49 19.67 19.59z" />
				<path id="&lt;Path&gt;" class="s2" d="m839.66 679.52c0 1.85-0.12 3.79-0.35 5.77c0 0 0 0 0 0c-2.89 24.35-23.58 42.7-48.13 42.7c-24.55 0-45.24-18.36-48.13-42.71c-0.08-0.72-0.14-1.42-0.19-2.12c-0.02-0.31-0.06-0.63-0.08-0.94c-0.05-0.92-0.08-1.82-0.08-2.71c0-3.34 0.34-6.61 0.99-9.76c4.53-22.07 24.1-38.72 47.49-38.72c26.73 0 48.48 21.75 48.48 48.48z" />
				<path id="&lt;Path&gt;" class="s2" d="m632 950c0 9.93-8.07 18-18 18c-9.92 0-18-8.07-18-18c0-9.93 8.08-18 18-18c9.93 0 18 8.07 18 18z" />
				<path id="&lt;Path&gt;" class="s2" d="m1016 866c0 9.93-8.07 18-18 18c-9.93 0-18-8.07-18-18c0-9.93 8.07-18 18-18c9.93 0 18 8.07 18 18z" />
				<path id="&lt;Compound Path&gt;" fill-rule="evenodd" class="s2" d="m716 740h156v180h-156v-180zm72 30c0 1.57 0.63 3.12 1.75 4.25c1.13 1.12 2.67 1.75 4.25 1.75c1.58 0 3.12-0.64 4.23-1.75c1.13-1.12 1.77-2.66 1.77-4.25c0-1.58-0.64-3.13-1.77-4.25c-1.12-1.12-2.65-1.75-4.23-1.75c-1.58 0-3.13 0.64-4.25 1.75c-1.12 1.13-1.75 2.68-1.75 4.25zm0 36c0 1.58 0.63 3.13 1.75 4.25c1.13 1.12 2.68 1.75 4.25 1.75c1.57 0 3.12-0.64 4.25-1.75c1.12-1.13 1.75-2.66 1.75-4.25c0-1.58-0.64-3.13-1.75-4.25c-1.13-1.12-2.66-1.75-4.25-1.75c-1.58 0-3.12 0.64-4.25 1.75c-1.12 1.12-1.75 2.66-1.75 4.25z" />
			</g>
		</g>
	</g>
	<g id="Layer 1">
	</g>
</svg>