<svg version="1.2" baseProfile="tiny-ps" xmlns="http://www.w3.org/2000/svg" viewBox="0 0 1200 1200" width="171" height="171">
	<title>projects_management-ai</title>
	<defs>
		<linearGradient id="grd1" gradientUnits="userSpaceOnUse"  x1="1140.249" y1="221.853" x2="1147.743" y2="1002.784">
			<stop offset="0" stop-color="#4adfde"  />
			<stop offset="1" stop-color="#1e2f97"  />
		</linearGradient>
		<linearGradient id="grd2" gradientUnits="userSpaceOnUse"  x1="219.34" y1="1166.828" x2="-23.735" y2="410.593">
			<stop offset="0" stop-color="#000000"  />
			<stop offset="1" stop-color="#ffffff"  />
		</linearGradient>
		<linearGradient id="grd3" gradientUnits="userSpaceOnUse"  x1="458.773" y1="1089.713" x2="262.599" y2="629.456">
			<stop offset="0" stop-color="#000000"  />
			<stop offset="1" stop-color="#ffffff"  />
		</linearGradient>
		<linearGradient id="grd4" gradientUnits="userSpaceOnUse"  x1="422.184" y1="561.159" x2="617.308" y2="561.159">
			<stop offset="0" stop-color="#1e2f97"  />
			<stop offset="1" stop-color="#4adfde"  />
		</linearGradient>
		<linearGradient id="grd5" gradientUnits="userSpaceOnUse"  x1="581.854" y1="525.529" x2="671.188" y2="759.341">
			<stop offset="0" stop-color="#4adfde"  />
			<stop offset="1" stop-color="#797df5"  />
		</linearGradient>
		<linearGradient id="grd6" gradientUnits="userSpaceOnUse"  x1="642.848" y1="744.157" x2="701.984" y2="752.005">
			<stop offset="0" stop-color="#4adfde"  />
			<stop offset="1" stop-color="#797df5"  />
		</linearGradient>
		<linearGradient id="grd7" gradientUnits="userSpaceOnUse"  x1="115.077" y1="629.411" x2="115.862" y2="520.328">
			<stop offset="0" stop-color="#1e2f97"  />
			<stop offset="1" stop-color="#4adfde"  />
		</linearGradient>
		<linearGradient id="grd8" gradientUnits="userSpaceOnUse"  x1="213.593" y1="537.663" x2="196.563" y2="616.989">
			<stop offset="0" stop-color="#4adfde"  />
			<stop offset="1" stop-color="#797df5"  />
		</linearGradient>
		<linearGradient id="grd9" gradientUnits="userSpaceOnUse"  x1="957.8" y1="182.901" x2="947.835" y2="652.887">
			<stop offset="0" stop-color="#1e2f97"  />
			<stop offset="1" stop-color="#1ba8ec"  />
		</linearGradient>
		<linearGradient id="grd10" gradientUnits="userSpaceOnUse"  x1="574.897" y1="609.517" x2="608.058" y2="234.79">
			<stop offset="0" stop-color="#1e2f97"  />
			<stop offset="1" stop-color="#1ba8ec"  />
		</linearGradient>
		<linearGradient id="grd11" gradientUnits="userSpaceOnUse"  x1="671.555" y1="193.294" x2="675.847" y2="263.564">
			<stop offset="0" stop-color="#1e2f97"  />
			<stop offset="1" stop-color="#1ba8ec"  />
		</linearGradient>
		<linearGradient id="grd12" gradientUnits="userSpaceOnUse"  x1="686.899" y1="193.56" x2="691.19" y2="263.83">
			<stop offset="0" stop-color="#1e2f97"  />
			<stop offset="1" stop-color="#1ba8ec"  />
		</linearGradient>
		<linearGradient id="grd13" gradientUnits="userSpaceOnUse"  x1="702.242" y1="193.826" x2="706.534" y2="264.096">
			<stop offset="0" stop-color="#1e2f97"  />
			<stop offset="1" stop-color="#1ba8ec"  />
		</linearGradient>
		<linearGradient id="grd14" gradientUnits="userSpaceOnUse"  x1="791.767" y1="486.456" x2="787.83" y2="547.614">
			<stop offset="0" stop-color="#4adfde"  />
			<stop offset="1" stop-color="#797df5"  />
		</linearGradient>
		<linearGradient id="grd15" gradientUnits="userSpaceOnUse"  x1="834.333" y1="470.615" x2="828.354" y2="563.489">
			<stop offset="0" stop-color="#4adfde"  />
			<stop offset="1" stop-color="#797df5"  />
		</linearGradient>
		<linearGradient id="grd16" gradientUnits="userSpaceOnUse"  x1="874.435" y1="492.749" x2="869.211" y2="573.882">
			<stop offset="0" stop-color="#4adfde"  />
			<stop offset="1" stop-color="#797df5"  />
		</linearGradient>
		<linearGradient id="grd17" gradientUnits="userSpaceOnUse"  x1="916.635" y1="482.478" x2="910.31" y2="580.726">
			<stop offset="0" stop-color="#4adfde"  />
			<stop offset="1" stop-color="#797df5"  />
		</linearGradient>
		<linearGradient id="grd18" gradientUnits="userSpaceOnUse"  x1="759.786" y1="388.354" x2="771.283" y2="388.354">
			<stop offset="0" stop-color="#4adfde"  />
			<stop offset="1" stop-color="#797df5"  />
		</linearGradient>
		<linearGradient id="grd19" gradientUnits="userSpaceOnUse"  x1="799.811" y1="361.607" x2="811.308" y2="361.607">
			<stop offset="0" stop-color="#4adfde"  />
			<stop offset="1" stop-color="#797df5"  />
		</linearGradient>
		<linearGradient id="grd20" gradientUnits="userSpaceOnUse"  x1="842.32" y1="437.395" x2="853.817" y2="437.395">
			<stop offset="0" stop-color="#4adfde"  />
			<stop offset="1" stop-color="#797df5"  />
		</linearGradient>
		<linearGradient id="grd21" gradientUnits="userSpaceOnUse"  x1="876.524" y1="415.643" x2="888.021" y2="415.643">
			<stop offset="0" stop-color="#4adfde"  />
			<stop offset="1" stop-color="#797df5"  />
		</linearGradient>
		<linearGradient id="grd22" gradientUnits="userSpaceOnUse"  x1="216.075" y1="251.17" x2="210.759" y2="361.232">
			<stop offset="0" stop-color="#4adfde"  />
			<stop offset="1" stop-color="#797df5"  />
		</linearGradient>
		<linearGradient id="grd23" gradientUnits="userSpaceOnUse"  x1="169.387" y1="260.402" x2="176.958" y2="256.013">
			<stop offset="0" stop-color="#4adfde"  />
			<stop offset="1" stop-color="#797df5"  />
		</linearGradient>
		<linearGradient id="grd24" gradientUnits="userSpaceOnUse"  x1="349.278" y1="245.473" x2="344.022" y2="354.314">
			<stop offset="0" stop-color="#4adfde"  />
			<stop offset="1" stop-color="#797df5"  />
		</linearGradient>
		<linearGradient id="grd25" gradientUnits="userSpaceOnUse"  x1="303.006" y1="254.536" x2="310.494" y2="250.196">
			<stop offset="0" stop-color="#4adfde"  />
			<stop offset="1" stop-color="#797df5"  />
		</linearGradient>
		<linearGradient id="grd26" gradientUnits="userSpaceOnUse"  x1="456.03" y1="117.364" x2="450.774" y2="226.205">
			<stop offset="0" stop-color="#4adfde"  />
			<stop offset="1" stop-color="#797df5"  />
		</linearGradient>
		<linearGradient id="grd27" gradientUnits="userSpaceOnUse"  x1="409.757" y1="126.427" x2="417.245" y2="122.087">
			<stop offset="0" stop-color="#4adfde"  />
			<stop offset="1" stop-color="#797df5"  />
		</linearGradient>
		<linearGradient id="grd28" gradientUnits="userSpaceOnUse"  x1="451.448" y1="425.053" x2="456.38" y2="605.077">
			<stop offset="0" stop-color="#4adfde"  />
			<stop offset="1" stop-color="#797df5"  />
		</linearGradient>
		<linearGradient id="grd29" gradientUnits="userSpaceOnUse"  x1="450.188" y1="387.906" x2="447.326" y2="447.172">
			<stop offset="0" stop-color="#4adfde"  />
			<stop offset="1" stop-color="#797df5"  />
		</linearGradient>
		<linearGradient id="grd30" gradientUnits="userSpaceOnUse"  x1="331.634" y1="440.046" x2="330.268" y2="468.342">
			<stop offset="0" stop-color="#4adfde"  />
			<stop offset="1" stop-color="#797df5"  />
		</linearGradient>
		<linearGradient id="grd31" gradientUnits="userSpaceOnUse"  x1="393.226" y1="403.16" x2="394.592" y2="429.873">
			<stop offset="0" stop-color="#4adfde"  />
			<stop offset="1" stop-color="#797df5"  />
		</linearGradient>
		<linearGradient id="grd32" gradientUnits="userSpaceOnUse"  x1="657.908" y1="756.152" x2="564.432" y2="735.194">
			<stop offset="0" stop-color="#4adfde"  />
			<stop offset="1" stop-color="#797df5"  />
		</linearGradient>
		<linearGradient id="grd33" gradientUnits="userSpaceOnUse"  x1="684.62" y1="660.783" x2="657.583" y2="752.583">
			<stop offset="0" stop-color="#4adfde"  />
			<stop offset="1" stop-color="#797df5"  />
		</linearGradient>
	</defs>
	<style>
		tspan { white-space:pre }
		.shp0 { fill: #ffffff } 
		.shp1 { fill: #0d9cd3 } 
		.shp2 { fill: #4adfde } 
		.shp3 { fill: url(#grd1) } 
		.shp4 { opacity: 0.4;mix-blend-mode: overlay;fill: url(#grd2) } 
		.shp5 { opacity: 0.4;mix-blend-mode: overlay;fill: url(#grd3) } 
		.shp6 { fill: url(#grd4) } 
		.shp7 { fill: url(#grd5) } 
		.shp8 { fill: #ffde83 } 
		.shp9 { fill: #1e2f97 } 
		.shp10 { fill: #1ba8ec } 
		.shp11 { fill: #eef2f5 } 
		.shp12 { opacity: 0.102;fill: #000000 } 
		.shp13 { fill: #002172 } 
		.shp14 { fill: url(#grd6) } 
		.shp15 { fill: #5ff4ee } 
		.shp16 { fill: url(#grd7) } 
		.shp17 { fill: url(#grd8) } 
		.shp18 { fill: url(#grd9) } 
		.shp19 { fill: url(#grd10) } 
		.shp20 { fill: url(#grd11) } 
		.shp21 { fill: url(#grd12) } 
		.shp22 { fill: url(#grd13) } 
		.shp23 { fill: url(#grd14) } 
		.shp24 { fill: url(#grd15) } 
		.shp25 { fill: url(#grd16) } 
		.shp26 { fill: url(#grd17) } 
		.shp27 { fill: url(#grd18) } 
		.shp28 { fill: url(#grd19) } 
		.shp29 { fill: url(#grd20) } 
		.shp30 { fill: url(#grd21) } 
		.shp31 { fill: url(#grd22) } 
		.shp32 { fill: url(#grd23) } 
		.shp33 { fill: url(#grd24) } 
		.shp34 { fill: url(#grd25) } 
		.shp35 { fill: url(#grd26) } 
		.shp36 { fill: url(#grd27) } 
		.shp37 { fill: url(#grd28) } 
		.shp38 { fill: url(#grd29) } 
		.shp39 { fill: url(#grd30) } 
		.shp40 { fill: url(#grd31) } 
		.shp41 { fill: #f2d079 } 
		.shp42 { fill: url(#grd32) } 
		.shp43 { fill: url(#grd33) } 
	</style>
	<g id="Layer 1">
		<g id="&lt;Group&gt;">
			<g id="&lt;Group&gt;">
				<path id="&lt;Path&gt;" class="shp0" d="m0 0h1200v1200h-1200v-1200z" />
				<g id="&lt;Group&gt;">
					<path id="&lt;Compound Path&gt;" fill-rule="evenodd" class="shp1" d="m96.11 1026.34c0 4.43-1.45 7.83-4.36 10.19c-2.9 2.36-7.04 3.54-12.4 3.54h-4.41v15.88h-6.94v-42.46h12.23c5.3 0 9.28 1.08 11.92 3.25c2.64 2.17 3.96 5.36 3.96 9.58zm-21.17 7.9h3.69c3.56 0 6.18-0.62 7.84-1.86c1.67-1.24 2.5-3.17 2.5-5.81c0-2.44-0.75-4.26-2.24-5.46c-1.49-1.2-3.81-1.8-6.97-1.8h-4.82v14.93z" />
					<path id="&lt;Compound Path&gt;" class="shp1" d="m120.16 1023.27c1.37 0 2.51 0.1 3.4 0.29l-0.67 6.36c-0.97-0.23-1.97-0.35-3.02-0.35c-2.73 0-4.94 0.89-6.64 2.67c-1.69 1.78-2.54 4.1-2.54 6.94v16.78h-6.82v-32.12h5.34l0.9 5.66h0.35c1.06-1.92 2.45-3.44 4.17-4.56c1.71-1.12 3.56-1.68 5.53-1.68z" />
					<path id="&lt;Compound Path&gt;" fill-rule="evenodd" class="shp1" d="m158 1039.85c0 5.25-1.35 9.34-4.04 12.28c-2.69 2.94-6.44 4.41-11.24 4.41c-3 0-5.65-0.68-7.96-2.03c-2.3-1.36-4.08-3.3-5.31-5.84c-1.24-2.54-1.86-5.48-1.86-8.83c0-5.21 1.34-9.27 4.01-12.2c2.67-2.92 6.44-4.38 11.3-4.38c4.65 0 8.33 1.5 11.04 4.49c2.71 2.99 4.06 7.02 4.06 12.1zm-23.38 0c0 7.41 2.74 11.12 8.22 11.12c5.42 0 8.13-3.71 8.13-11.12c0-7.34-2.73-11.01-8.19-11.01c-2.87 0-4.94 0.95-6.23 2.85c-1.29 1.9-1.93 4.62-1.93 8.16z" />
					<path id="&lt;Compound Path&gt;" class="shp1" d="m162.56 1070.25c-2.05 0-3.76-0.24-5.11-0.73v-5.4c1.32 0.35 2.66 0.52 4.04 0.52c2.9 0 4.36-1.65 4.36-4.94v-35.86h6.82v36.33c0 3.31-0.87 5.82-2.6 7.52c-1.73 1.7-4.24 2.56-7.51 2.56zm2.87-54.91c0-1.22 0.33-2.16 1-2.82c0.67-0.66 1.62-0.99 2.86-0.99c1.2 0 2.13 0.33 2.8 0.99c0.67 0.66 1 1.6 1 2.82c0 1.16-0.33 2.08-1 2.74c-0.67 0.67-1.6 1-2.8 1c-1.24 0-2.19-0.33-2.86-1c-0.67-0.67-1-1.58-1-2.74z" />
					<path id="&lt;Compound Path&gt;" fill-rule="evenodd" class="shp1" d="m196.45 1056.54c-4.99 0-8.9-1.46-11.72-4.37c-2.82-2.91-4.23-6.93-4.23-12.04c0-5.25 1.31-9.37 3.92-12.37c2.61-3 6.2-4.5 10.77-4.5c4.24 0 7.59 1.29 10.05 3.86c2.46 2.58 3.69 6.12 3.69 10.63v3.69h-21.4c0.1 3.12 0.94 5.51 2.53 7.19c1.59 1.67 3.82 2.51 6.71 2.51c1.9 0 3.66-0.18 5.3-0.54c1.64-0.36 3.39-0.95 5.27-1.79v5.55c-1.67 0.79-3.35 1.36-5.05 1.68c-1.7 0.33-3.65 0.49-5.84 0.49zm-1.25-28.11c-2.17 0-3.91 0.69-5.21 2.06c-1.31 1.37-2.09 3.38-2.34 6.01h14.58c-0.04-2.65-0.68-4.66-1.92-6.03c-1.24-1.37-2.94-2.05-5.11-2.05z" />
					<path id="&lt;Compound Path&gt;" class="shp1" d="m229.64 1056.54c-4.86 0-8.55-1.42-11.08-4.25c-2.53-2.84-3.79-6.91-3.79-12.21c0-5.4 1.32-9.55 3.96-12.46c2.64-2.9 6.46-4.36 11.46-4.36c3.39 0 6.44 0.63 9.15 1.89l-2.06 5.49c-2.89-1.12-5.27-1.68-7.14-1.68c-5.56 0-8.33 3.69-8.33 11.06c0 3.6 0.69 6.31 2.08 8.12c1.38 1.81 3.41 2.72 6.08 2.72c3.04 0 5.91-0.75 8.63-2.27v5.95c-1.22 0.72-2.52 1.23-3.91 1.54c-1.38 0.31-3.06 0.46-5.04 0.46z" />
					<path id="&lt;Compound Path&gt;" class="shp1" d="m258.1 1051.03c1.67 0 3.33-0.26 4.99-0.78v5.14c-0.75 0.33-1.73 0.6-2.92 0.83c-1.19 0.22-2.42 0.33-3.7 0.33c-6.47 0-9.7-3.41-9.7-10.22v-17.31h-4.38v-3.02l4.7-2.5l2.32-6.8h4.21v7.14h9.15v5.17h-9.15v17.19c0 1.65 0.41 2.86 1.23 3.64c0.82 0.78 1.9 1.18 3.24 1.18z" />
					<path id="&lt;Compound Path&gt;" class="shp1" d="m86.36 1127.33l-12.31-35.46h-0.23c0.33 5.27 0.49 10.2 0.49 14.81v20.65h-6.3v-42.46h9.79l11.79 33.77h0.17l12.14-33.77h9.82v42.46h-6.68v-21c0-2.11 0.05-4.86 0.16-8.25c0.11-3.39 0.2-5.44 0.28-6.16h-0.23l-12.75 35.4h-6.13z" />
					<path id="&lt;Compound Path&gt;" fill-rule="evenodd" class="shp1" d="m142.26 1127.33l-1.36-4.47h-0.23c-1.55 1.95-3.11 3.29-4.68 3.99c-1.57 0.71-3.58 1.06-6.04 1.06c-3.16 0-5.62-0.85-7.39-2.55c-1.77-1.7-2.66-4.11-2.66-7.23c0-3.31 1.23-5.81 3.69-7.49c2.46-1.68 6.2-2.6 11.24-2.76l5.55-0.17v-1.71c0-2.05-0.48-3.59-1.44-4.6c-0.96-1.02-2.44-1.52-4.46-1.52c-1.65 0-3.22 0.24-4.73 0.73c-1.51 0.48-2.96 1.05-4.36 1.71l-2.21-4.88c1.74-0.91 3.65-1.6 5.72-2.08c2.07-0.47 4.03-0.71 5.87-0.71c4.08 0 7.17 0.89 9.25 2.67c2.08 1.78 3.12 4.58 3.12 8.39v21.64h-4.88zm-10.16-4.65c2.48 0 4.47-0.69 5.97-2.08c1.5-1.38 2.25-3.32 2.25-5.82v-2.79l-4.12 0.17c-3.21 0.12-5.55 0.65-7.01 1.61c-1.46 0.96-2.19 2.42-2.19 4.4c0 1.43 0.43 2.54 1.28 3.32c0.85 0.78 2.13 1.18 3.83 1.18z" />
					<path id="&lt;Compound Path&gt;" class="shp1" d="m184.92 1127.33h-6.85v-19.75c0-2.48-0.5-4.33-1.5-5.55c-1-1.22-2.58-1.83-4.75-1.83c-2.88 0-5 0.85-6.33 2.55c-1.33 1.7-2 4.56-2 8.57v16h-6.82v-32.12h5.34l0.96 4.21h0.35c0.97-1.53 2.34-2.71 4.12-3.54c1.78-0.83 3.76-1.25 5.92-1.25c7.7 0 11.56 3.92 11.56 11.76v20.94z" />
					<path id="&lt;Compound Path&gt;" fill-rule="evenodd" class="shp1" d="m214.51 1127.33l-1.37-4.47h-0.23c-1.55 1.95-3.11 3.29-4.68 3.99c-1.57 0.71-3.58 1.06-6.04 1.06c-3.16 0-5.62-0.85-7.39-2.55c-1.77-1.7-2.66-4.11-2.66-7.23c0-3.31 1.23-5.81 3.69-7.49c2.46-1.68 6.2-2.6 11.24-2.76l5.55-0.17v-1.71c0-2.05-0.48-3.59-1.44-4.6c-0.96-1.02-2.44-1.52-4.46-1.52c-1.65 0-3.22 0.24-4.73 0.73c-1.51 0.48-2.96 1.05-4.36 1.71l-2.21-4.88c1.74-0.91 3.65-1.6 5.72-2.08c2.07-0.47 4.03-0.71 5.87-0.71c4.08 0 7.17 0.89 9.25 2.67c2.08 1.78 3.12 4.58 3.12 8.39v21.64h-4.88zm-10.16-4.65c2.48 0 4.47-0.69 5.97-2.08c1.5-1.38 2.25-3.32 2.25-5.82v-2.79l-4.12 0.17c-3.21 0.12-5.55 0.65-7.01 1.61c-1.46 0.96-2.19 2.42-2.19 4.4c0 1.43 0.43 2.54 1.28 3.32c0.85 0.78 2.13 1.18 3.83 1.18z" />
					<path id="&lt;Compound Path&gt;" fill-rule="evenodd" class="shp1" d="m256.04 1095.21v3.75l-5.49 1.02c0.5 0.68 0.92 1.51 1.25 2.5c0.33 0.99 0.49 2.03 0.49 3.14c0 3.31-1.14 5.91-3.43 7.81c-2.28 1.9-5.43 2.85-9.44 2.85c-1.03 0-1.96-0.08-2.79-0.23c-1.47 0.91-2.21 1.97-2.21 3.19c0 0.74 0.34 1.29 1.03 1.66c0.69 0.37 1.95 0.55 3.79 0.55h5.6c3.54 0 6.23 0.75 8.07 2.26c1.84 1.51 2.76 3.69 2.76 6.53c0 3.64-1.5 6.45-4.5 8.42c-3 1.97-7.34 2.96-13.01 2.96c-4.38 0-7.71-0.77-10.02-2.32c-2.3-1.55-3.46-3.76-3.46-6.62c0-1.97 0.62-3.63 1.87-4.98c1.25-1.35 3-2.28 5.24-2.8c-0.91-0.39-1.66-1.01-2.25-1.87c-0.59-0.86-0.89-1.77-0.89-2.71c0-1.2 0.34-2.22 1.02-3.05c0.68-0.83 1.68-1.66 3.02-2.47c-1.66-0.72-3.01-1.88-4.05-3.5c-1.04-1.62-1.55-3.51-1.55-5.68c0-3.49 1.1-6.19 3.3-8.1c2.2-1.92 5.33-2.87 9.39-2.87c0.91 0 1.86 0.06 2.86 0.19c1 0.13 1.75 0.26 2.25 0.39h11.12zm-25.24 37.11c0 1.47 0.66 2.6 1.99 3.4c1.33 0.79 3.19 1.19 5.59 1.19c3.72 0 6.49-0.53 8.31-1.6c1.82-1.06 2.73-2.48 2.73-4.24c0-1.39-0.5-2.39-1.5-2.98c-1-0.59-2.85-0.89-5.56-0.89h-5.17c-1.95 0-3.51 0.46-4.66 1.38c-1.15 0.92-1.73 2.16-1.73 3.73zm2.93-26.72c0 2.01 0.52 3.56 1.55 4.65c1.03 1.08 2.52 1.63 4.46 1.63c3.95 0 5.92-2.11 5.92-6.33c0-2.09-0.49-3.7-1.47-4.84c-0.98-1.13-2.46-1.7-4.46-1.7c-1.97 0-3.47 0.56-4.49 1.68c-1.02 1.12-1.52 2.76-1.52 4.91z" />
					<path id="&lt;Compound Path&gt;" fill-rule="evenodd" class="shp1" d="m276.01 1127.91c-4.99 0-8.9-1.46-11.72-4.37c-2.82-2.91-4.23-6.93-4.23-12.04c0-5.25 1.31-9.37 3.92-12.37c2.61-3 6.2-4.5 10.77-4.5c4.24 0 7.59 1.29 10.05 3.86c2.46 2.57 3.69 6.12 3.69 10.63v3.69h-21.4c0.1 3.12 0.94 5.51 2.53 7.19c1.59 1.67 3.82 2.51 6.71 2.51c1.9 0 3.66-0.18 5.3-0.54c1.63-0.36 3.39-0.95 5.27-1.79v5.55c-1.67 0.79-3.35 1.35-5.05 1.68c-1.7 0.33-3.65 0.49-5.84 0.49zm-1.25-28.11c-2.17 0-3.91 0.69-5.21 2.06c-1.31 1.38-2.09 3.38-2.34 6.01h14.58c-0.04-2.65-0.68-4.66-1.92-6.03c-1.24-1.36-2.94-2.05-5.11-2.05z" />
					<path id="&lt;Compound Path&gt;" class="shp1" d="m323.32 1127.33h-6.85v-19.81c0-2.46-0.46-4.29-1.39-5.5c-0.93-1.21-2.38-1.82-4.36-1.82c-2.63 0-4.56 0.86-5.79 2.57c-1.23 1.71-1.84 4.56-1.84 8.55v16h-6.82v-32.12h5.34l0.96 4.21h0.35c0.89-1.53 2.18-2.71 3.88-3.54c1.69-0.83 3.56-1.25 5.59-1.25c4.94 0 8.21 1.68 9.81 5.05h0.46c0.95-1.59 2.28-2.83 4.01-3.72c1.72-0.89 3.7-1.34 5.92-1.34c3.83 0 6.63 0.97 8.38 2.9c1.75 1.94 2.63 4.89 2.63 8.86v20.94h-6.83v-19.81c0-2.46-0.47-4.29-1.41-5.5c-0.94-1.21-2.4-1.82-4.37-1.82c-2.65 0-4.59 0.83-5.82 2.48c-1.23 1.66-1.84 4.2-1.84 7.62v17.02z" />
					<path id="&lt;Compound Path&gt;" fill-rule="evenodd" class="shp1" d="m367.14 1127.91c-4.99 0-8.9-1.46-11.72-4.37c-2.82-2.91-4.23-6.93-4.23-12.04c0-5.25 1.31-9.37 3.92-12.37c2.61-3 6.2-4.5 10.77-4.5c4.24 0 7.59 1.29 10.05 3.86c2.46 2.57 3.69 6.12 3.69 10.63v3.69h-21.4c0.1 3.12 0.94 5.51 2.53 7.19c1.59 1.67 3.82 2.51 6.71 2.51c1.9 0 3.66-0.18 5.3-0.54c1.64-0.36 3.39-0.95 5.27-1.79v5.55c-1.67 0.79-3.35 1.35-5.05 1.68c-1.7 0.33-3.65 0.49-5.84 0.49zm-1.25-28.11c-2.17 0-3.91 0.69-5.21 2.06c-1.31 1.38-2.09 3.38-2.34 6.01h14.58c-0.04-2.65-0.68-4.66-1.92-6.03c-1.24-1.36-2.94-2.05-5.11-2.05z" />
					<path id="&lt;Compound Path&gt;" class="shp1" d="m415.64 1127.33h-6.85v-19.75c0-2.48-0.5-4.33-1.5-5.55c-1-1.22-2.58-1.83-4.75-1.83c-2.88 0-4.99 0.85-6.33 2.55c-1.34 1.7-2 4.56-2 8.57v16h-6.82v-32.12h5.34l0.96 4.21h0.35c0.97-1.53 2.34-2.71 4.12-3.54c1.78-0.83 3.76-1.25 5.92-1.25c7.71 0 11.56 3.92 11.56 11.76v20.94z" />
					<path id="&lt;Compound Path&gt;" class="shp1" d="m437.1 1122.39c1.66 0 3.33-0.26 4.99-0.78v5.14c-0.75 0.33-1.73 0.6-2.92 0.83c-1.19 0.22-2.43 0.33-3.7 0.33c-6.47 0-9.7-3.41-9.7-10.22v-17.31h-4.38v-3.02l4.7-2.5l2.32-6.79h4.21v7.14h9.15v5.17h-9.15v17.19c0 1.65 0.41 2.86 1.23 3.64c0.82 0.78 1.9 1.18 3.24 1.18z" />
				</g>
				<path id="&lt;Path&gt;" class="shp2" d="m24.94 1145.4h-24.94v-152.4h24.94c11.08 0 20.06 8.98 20.06 20.06v112.29c0 11.08-8.98 20.06-20.06 20.06z" />
			</g>
			<g id="Project Management 1 ">
				<g id="&lt;Group&gt;">
					<path id="&lt;Path&gt;" class="shp3" d="m1004.14 686.72c-124.26 79.73-99.45 312.28-368.93 312.28c-175.51 0-231.61-117.21-285.91-199.76c-28.17-43.04-55.95-76.6-99.84-79.26c-130.44-7.9-176.68-61.27-181.77-117.14c-5.32-57.35 32.79-117.37 67.92-133.49c102.03-46.87 16.67-171.36 130.98-285.83c166.9-167.13 247.34 50.86 369.71 57.43c18.15 0.94 36.54 0.7 54.93-0.31c75.43-3.99 152.42-20.42 226.91-15.88c29.81 1.8 59.31 6.96 88.03 17.61c116.04 42.96 215.49 304.85-2.03 444.36z" />
					<path id="&lt;Path&gt;" class="shp4" d="m1004.14 686.72c-124.26 79.73-99.45 312.28-368.93 312.28c-267.05 0-257.59-271.28-385.75-279.03c-130.44-7.9-176.68-61.27-181.77-117.14c47.5-59.31 118.78-97.96 193.58-112.13c125.59-23.94 263.69 15.88 378.63-40.14c23.87-11.58 46.56-27.86 59.15-51.17c9.39-17.37 12.6-37.4 13.15-57.12c0.94-30.75-4.62-61.58-15.57-90.3c-1.41-3.68-3.21-7.43-5.4-11.35c105.63-5.63 214.32-35.52 314.94 1.72c116.04 42.96 215.49 304.85-2.03 444.36z" />
					<path id="&lt;Path&gt;" class="shp5" d="m1004.14 686.72c-124.26 79.73-99.45 312.28-368.93 312.28c-175.51 0-231.61-117.21-285.91-199.76c41.31-49.3 108.53-78.56 173.16-93.11c85.44-19.17 175.98-21.99 254.93-59.86c70.03-33.65 126.45-94.52 154.61-166.98c28.17-72.38 27.78-155.4-1.1-227.54c-3.68-9.15-7.9-18.23-12.75-27c29.81 1.8 59.31 6.96 88.03 17.61c116.04 42.96 215.49 304.85-2.03 444.36z" />
					<g id="&lt;Group&gt;" style="mix-blend-mode: overlay">
						<g id="&lt;Group&gt;">
							<g id="&lt;Group&gt;">
								<g id="&lt;Group&gt;">
									<path id="&lt;Path&gt;" class="shp0" d="m914.25 251.95l1.98 2.96l2.96 1.98l-2.96 1.98l-1.98 2.96l-1.98-2.96l-2.96-1.98l2.96-1.98l1.98-2.96z" />
								</g>
							</g>
							<g id="&lt;Group&gt;">
								<g id="&lt;Group&gt;">
									<path id="&lt;Path&gt;" class="shp0" d="m1005.32 326.28l1.98 2.96l2.96 1.98l-2.96 1.98l-1.98 2.96l-1.98-2.96l-2.96-1.98l2.96-1.98l1.98-2.96z" />
								</g>
							</g>
							<g id="&lt;Group&gt;">
								<g id="&lt;Group&gt;">
									<path id="&lt;Path&gt;" class="shp0" d="m1065.08 524.8l1.98 2.96l2.96 1.98l-2.96 1.98l-1.98 2.96l-1.98-2.96l-2.96-1.98l2.96-1.98l1.98-2.96z" />
								</g>
							</g>
							<g id="&lt;Group&gt;">
								<g id="&lt;Group&gt;">
									<path id="&lt;Path&gt;" class="shp0" d="m976.44 589.85l1.98 2.96l2.96 1.98l-2.96 1.98l-1.98 2.96l-1.98-2.96l-2.96-1.98l2.96-1.98l1.98-2.96z" />
								</g>
							</g>
							<g id="&lt;Group&gt;">
								<g id="&lt;Group&gt;">
									<path id="&lt;Path&gt;" class="shp0" d="m1083.27 413.82l1.98 2.96l2.96 1.98l-2.96 1.98l-1.98 2.96l-1.98-2.96l-2.96-1.98l2.96-1.98l1.98-2.96z" />
								</g>
							</g>
							<g id="&lt;Group&gt;">
								<g id="&lt;Group&gt;">
									<path id="&lt;Path&gt;" class="shp0" d="m981.74 452.36l1.98 2.96l2.96 1.98l-2.96 1.98l-1.98 2.96l-1.98-2.96l-2.96-1.98l2.96-1.98l1.98-2.96z" />
								</g>
							</g>
							<g id="&lt;Group&gt;">
								<g id="&lt;Group&gt;">
									<path id="&lt;Path&gt;" class="shp0" d="m698.58 585.44l1.98 2.96l2.96 1.98l-2.96 1.98l-1.98 2.96l-1.98-2.96l-2.96-1.98l2.96-1.98l1.98-2.96z" />
								</g>
							</g>
							<g id="&lt;Group&gt;">
								<g id="&lt;Group&gt;">
									<path id="&lt;Path&gt;" class="shp0" d="m863.7 694.41l1.98 2.96l2.96 1.98l-2.96 1.98l-1.98 2.96l-1.98-2.96l-2.96-1.98l2.96-1.98l1.98-2.96z" />
								</g>
							</g>
							<g id="&lt;Group&gt;">
								<g id="&lt;Group&gt;">
									<path id="&lt;Path&gt;" class="shp0" d="m544.24 303.51l1.98 2.96l2.96 1.98l-2.96 1.98l-1.98 2.96l-1.98-2.96l-2.96-1.98l2.96-1.98l1.98-2.96z" />
								</g>
							</g>
							<g id="&lt;Group&gt;">
								<g id="&lt;Group&gt;">
									<path id="&lt;Path&gt;" class="shp0" d="m458.68 173.22l1.98 2.96l2.96 1.98l-2.96 1.98l-1.98 2.96l-1.98-2.96l-2.96-1.98l2.96-1.98l1.98-2.96z" />
								</g>
							</g>
							<g id="&lt;Group&gt;">
								<g id="&lt;Group&gt;">
									<path id="&lt;Path&gt;" class="shp0" d="m297.85 194.15l1.98 2.96l2.96 1.98l-2.96 1.98l-1.98 2.96l-1.98-2.96l-2.96-1.98l2.96-1.98l1.98-2.96z" />
								</g>
							</g>
							<g id="&lt;Group&gt;">
								<g id="&lt;Group&gt;">
									<path id="&lt;Path&gt;" class="shp0" d="m222.38 448.73l1.98 2.96l2.96 1.98l-2.96 1.98l-1.98 2.96l-1.98-2.96l-2.96-1.98l2.96-1.98l1.98-2.96z" />
								</g>
							</g>
							<g id="&lt;Group&gt;">
								<g id="&lt;Group&gt;">
									<path id="&lt;Path&gt;" class="shp0" d="m99.01 562.98l1.98 2.96l2.96 1.98l-2.96 1.98l-1.98 2.96l-1.98-2.96l-2.96-1.98l2.96-1.98l1.98-2.96z" />
								</g>
							</g>
							<g id="&lt;Group&gt;">
								<g id="&lt;Group&gt;">
									<path id="&lt;Path&gt;" class="shp0" d="m241.36 662.33l1.98 2.96l2.96 1.98l-2.96 1.98l-1.98 2.96l-1.98-2.96l-2.96-1.98l2.96-1.98l1.98-2.96z" />
								</g>
							</g>
							<g id="&lt;Group&gt;">
								<g id="&lt;Group&gt;">
									<path id="&lt;Path&gt;" class="shp0" d="m361.21 731.37l1.98 2.96l2.96 1.98l-2.96 1.98l-1.98 2.96l-1.98-2.96l-2.96-1.98l2.96-1.98l1.98-2.96z" />
								</g>
							</g>
							<g id="&lt;Group&gt;">
								<g id="&lt;Group&gt;">
									<path id="&lt;Path&gt;" class="shp0" d="m410.69 605.49l1.98 2.96l2.96 1.98l-2.96 1.98l-1.98 2.96l-1.98-2.96l-2.96-1.98l2.96-1.98l1.98-2.96z" />
								</g>
							</g>
							<g id="&lt;Group&gt;">
								<g id="&lt;Group&gt;">
									<path id="&lt;Path&gt;" class="shp0" d="m538.9 792.14l1.98 2.96l2.96 1.98l-2.96 1.98l-1.98 2.96l-1.98-2.96l-2.96-1.98l2.96-1.98l1.98-2.96z" />
								</g>
							</g>
							<g id="&lt;Group&gt;">
								<g id="&lt;Group&gt;">
									<path id="&lt;Path&gt;" class="shp0" d="m537.78 501.91l1.98 2.96l2.96 1.98l-2.96 1.98l-1.98 2.96l-1.98-2.96l-2.96-1.98l2.96-1.98l1.98-2.96z" />
								</g>
							</g>
							<g id="&lt;Group&gt;">
								<g id="&lt;Group&gt;">
									<path id="&lt;Path&gt;" class="shp0" d="m428.14 342.98l1.98 2.96l2.96 1.98l-2.96 1.98l-1.98 2.96l-1.98-2.96l-2.96-1.98l2.96-1.98l1.98-2.96z" />
								</g>
							</g>
							<g id="&lt;Group&gt;">
								<g id="&lt;Group&gt;">
									<path id="&lt;Path&gt;" class="shp0" d="m606.06 407.37l1.98 2.96l2.96 1.98l-2.96 1.98l-1.98 2.96l-1.98-2.96l-2.96-1.98l2.96-1.98l1.98-2.96z" />
								</g>
							</g>
							<g id="&lt;Group&gt;">
								<g id="&lt;Group&gt;">
									<path id="&lt;Path&gt;" class="shp0" d="m473.42 432.2l1.98 2.96l2.96 1.98l-2.96 1.98l-1.98 2.96l-1.98-2.96l-2.96-1.98l2.96-1.98l1.98-2.96z" />
								</g>
							</g>
						</g>
						<g id="&lt;Group&gt;">
							<g id="&lt;Group&gt;">
								<g id="&lt;Group&gt;">
									<path id="&lt;Path&gt;" class="shp0" d="m1006.41 361.27l4.64 6.93l6.93 4.64l-6.93 4.64l-4.64 6.93l-4.64-6.93l-6.93-4.64l6.93-4.64l4.64-6.93z" />
								</g>
							</g>
							<g id="&lt;Group&gt;">
								<g id="&lt;Group&gt;">
									<path id="&lt;Path&gt;" class="shp0" d="m1010.71 533.77l4.64 6.93l6.93 4.64l-6.93 4.64l-4.64 6.93l-4.64-6.93l-6.93-4.64l6.93-4.64l4.64-6.93z" />
								</g>
							</g>
							<g id="&lt;Group&gt;">
								<g id="&lt;Group&gt;">
									<path id="&lt;Path&gt;" class="shp0" d="m927.62 708.88l4.64 6.93l6.93 4.64l-6.93 4.64l-4.64 6.93l-4.64-6.93l-6.93-4.64l6.93-4.64l4.64-6.93z" />
								</g>
							</g>
							<g id="&lt;Group&gt;">
								<g id="&lt;Group&gt;">
									<path id="&lt;Path&gt;" class="shp0" d="m626.55 555.06l4.64 6.93l6.93 4.64l-6.93 4.64l-4.64 6.93l-4.64-6.93l-6.93-4.64l6.93-4.64l4.64-6.93z" />
								</g>
							</g>
							<g id="&lt;Group&gt;">
								<g id="&lt;Group&gt;">
									<path id="&lt;Path&gt;" class="shp0" d="m518.27 383.64l4.64 6.93l6.93 4.64l-6.93 4.64l-4.64 6.93l-4.64-6.93l-6.93-4.64l6.93-4.64l4.64-6.93z" />
								</g>
							</g>
							<g id="&lt;Group&gt;">
								<g id="&lt;Group&gt;">
									<path id="&lt;Path&gt;" class="shp0" d="m267.93 244.28l4.64 6.93l6.93 4.64l-6.93 4.64l-4.64 6.93l-4.64-6.93l-6.93-4.64l6.93-4.64l4.64-6.93z" />
								</g>
							</g>
							<g id="&lt;Group&gt;">
								<g id="&lt;Group&gt;">
									<path id="&lt;Path&gt;" class="shp0" d="m263.08 432.62l4.64 6.93l6.93 4.64l-6.93 4.64l-4.64 6.93l-4.64-6.93l-6.93-4.64l6.93-4.64l4.64-6.93z" />
								</g>
							</g>
							<g id="&lt;Group&gt;">
								<g id="&lt;Group&gt;">
									<path id="&lt;Path&gt;" class="shp0" d="m188.12 620.78l4.64 6.93l6.93 4.64l-6.93 4.64l-4.64 6.93l-4.64-6.93l-6.93-4.64l6.93-4.64l4.64-6.93z" />
								</g>
							</g>
							<g id="&lt;Group&gt;">
								<g id="&lt;Group&gt;">
									<path id="&lt;Path&gt;" class="shp0" d="m406.83 690.47l4.64 6.93l6.93 4.64l-6.93 4.64l-4.64 6.93l-4.64-6.93l-6.93-4.64l6.93-4.64l4.64-6.93z" />
								</g>
							</g>
							<g id="&lt;Group&gt;">
								<g id="&lt;Group&gt;">
									<path id="&lt;Path&gt;" class="shp0" d="m500.08 235.83l4.64 6.93l6.93 4.64l-6.93 4.64l-4.64 6.93l-4.64-6.93l-6.93-4.64l6.93-4.64l4.64-6.93z" />
								</g>
							</g>
						</g>
					</g>
				</g>
				<g id="&lt;Group&gt;">
					<g id="&lt;Group&gt;">
						<path id="&lt;Compound Path&gt;" fill-rule="evenodd" class="shp6" d="m504.05 579.92l30.58 16.45c7.3 3.93 13.24 12.56 13.26 19.38l0.05 11.34c0.85 0.74 1.69 1.48 2.54 2.3l8.5-3.38c5.13-2.04 13.42 2.43 18.59 10l21.75 31.82c5.09 7.54 5.12 15.29 0.07 17.37l-8.57 3.41c0.39 0.92 0.7 1.95 1.01 2.91l12.14 6.53c7.3 3.93 13.24 12.56 13.26 19.38l0.12 28.56c0.03 6.75-5.86 9.09-13.16 5.16l-12.14-6.53c-0.3 0.62-0.61 1.25-0.99 1.83l8.64 12.59c5.09 7.54 5.12 15.36 0.07 17.37l-21.58 8.58c-5.13 2.04-13.42-2.43-18.59-10l-8.56-12.55c-0.84-0.17-1.69-0.26-2.53-0.43l0.05 11.34c0.03 6.75-5.86 9.09-13.16 5.16l-30.58-16.45c-7.22-3.89-13.16-12.59-13.19-19.34l-0.05-11.34c-0.85-0.81-1.69-1.56-2.54-2.3l-8.5 3.38c-5.13 2.04-13.42-2.43-18.59-10l-21.75-31.89c-5.17-7.51-5.2-15.33-0.07-17.37l8.57-3.34c-0.39-1-0.7-1.95-1.09-2.95l-12.14-6.53c-7.22-3.89-13.16-12.59-13.19-19.34l-0.12-28.56c-0.03-6.82 5.86-9.09 13.09-5.2l12.14 6.53c0.38-0.58 0.68-1.28 1.07-1.79l-8.64-12.67c-5.17-7.58-5.2-15.33-0.07-17.37l21.58-8.51c5.13-2.04 13.43 2.43 18.59 10l8.56 12.55c0.84 0.1 1.69 0.26 2.53 0.43l-0.05-11.34c-0.03-6.82 5.87-9.09 13.09-5.2zm15.47 51.57c-28.2-15.17-50.93-6.06-50.82 20.28c0.11 26.34 23.01 60 51.21 75.17c28.27 15.21 51 6.1 50.9-20.24c-0.11-26.34-23.01-60-51.28-75.21z" />
						<path id="&lt;Compound Path&gt;" fill-rule="evenodd" class="shp7" d="m522.12 569.56l30.58 16.45c7.3 3.93 13.24 12.56 13.26 19.38l0.05 11.34c0.85 0.74 1.69 1.48 2.54 2.3l8.5-3.38c5.13-2.04 13.42 2.43 18.59 10l21.75 31.82c5.09 7.54 5.12 15.29 0.07 17.37l-8.57 3.41c0.39 0.93 0.7 1.95 1.01 2.91l12.14 6.53c7.3 3.93 13.24 12.56 13.26 19.38l0.12 28.56c0.03 6.75-5.87 9.09-13.16 5.16l-12.14-6.53c-0.3 0.62-0.61 1.25-0.99 1.83l8.64 12.59c5.09 7.54 5.12 15.36 0.07 17.37l-21.58 8.58c-5.13 2.04-13.43-2.42-18.59-10l-8.56-12.55c-0.84-0.17-1.69-0.26-2.53-0.43l0.05 11.34c0.03 6.75-5.87 9.09-13.16 5.16l-30.58-16.45c-7.22-3.89-13.16-12.59-13.19-19.34l-0.05-11.34c-0.85-0.81-1.69-1.56-2.54-2.3l-8.5 3.38c-5.13 2.04-13.42-2.43-18.59-10l-21.75-31.89c-5.17-7.51-5.2-15.33-0.07-17.37l8.57-3.34c-0.39-1-0.7-1.95-1.09-2.95l-12.14-6.53c-7.22-3.89-13.16-12.59-13.19-19.34l-0.12-28.56c-0.03-6.82 5.87-9.09 13.09-5.2l12.14 6.53c0.38-0.58 0.69-1.28 1.07-1.79l-8.64-12.67c-5.17-7.58-5.2-15.33-0.07-17.37l21.58-8.51c5.13-2.04 13.43 2.43 18.59 10l8.56 12.55c0.84 0.1 1.69 0.26 2.53 0.43l-0.05-11.34c-0.03-6.82 5.87-9.09 13.09-5.2zm15.47 51.57c-28.2-15.17-50.93-6.06-50.82 20.28c0.11 26.34 23.01 60 51.21 75.17c28.27 15.21 51 6.1 50.9-20.24c-0.11-26.34-23.01-60-51.28-75.21z" />
					</g>
					<g id="&lt;Group&gt;">
						<g id="&lt;Group&gt;">
							<path id="&lt;Path&gt;" class="shp8" d="m741.75 558.53c0.73-1.39 0.45-3.91-0.81-7.54c-1.33-1.73 1.59-3.13 2.97-0.63l3.51 9.57c1.11 1.41 2.04 2.87 2.56 4.48c-0.23 2.16-1.4 4.58-2.88 7.08l0.93 6.35l-8.31 1.24l-0.93-6.35c-1.74-2.86-3.39-5.01-3.02-8.37c1.7-2.9 4.99-3.89 5.99-5.82z" />
							<path id="&lt;Path&gt;" class="shp9" d="m786.19 671.5c-15.25 0.35-22.36-14.92-34.26-26.61c-6.94-8.03-8.68-36.78-13.46-66.69c3.04-1.8 6.71-2.35 11.01-1.64l14.75 54.77c8.8 5.35 20.83 13.77 36.09 25.27l-14.13 14.9z" />
						</g>
						<g id="&lt;Group&gt;">
							<path id="&lt;Path&gt;" class="shp8" d="m771.5 921.19l3.04 11.24l-12.09 3.43l-1.24-10.93l10.29-3.74z" />
							<path id="&lt;Path&gt;" class="shp10" d="m773.21 927.52c2.13 1 4.08 8.1 1.57 9.14c-2.93 1.22-0.25 7.46-3.93 6.99c-1.13-0.39 0.61-6.22-2.85-6.83c-9.63-1.7-11.61 3.53-20.99-4.14c-2.82-2.3 8.57-5.36 14.5-4.99c-0.36 2.21 0.76 3.23 3.33 3.08c3.87-0.23 5.39-3.85 8.35-3.25z" />
							<path id="&lt;Path&gt;" class="shp8" d="m771.65 921.73c-0.04 3.52-5.26 4.04-10.43 3.19l-15.65-71.31c-2.96-18.95 0.52-46.05 9.86-74.61l35.59-18.35c3.85 35.96-17.25 58.17-20.46 85.46l1.09 75.61z" />
						</g>
						<g id="&lt;Group&gt;">
							<path id="&lt;Path&gt;" class="shp8" d="m811.07 898.29l4.76 10.63l-11.41 5.27l-2.93-10.6l9.58-5.3z" />
							<path id="&lt;Path&gt;" class="shp10" d="m813.75 904.29c2.26 0.66 5.29 7.36 2.98 8.78c-2.7 1.66 0.92 7.4-2.79 7.51c-1.18-0.21-0.37-6.24-3.88-6.3c-9.78-0.18-10.92 5.3-21.38-0.82c-3.14-1.84 7.63-6.63 13.55-7.19c-0.01 2.23 1.25 3.07 3.77 2.52c3.79-0.82 4.72-4.64 7.74-4.51z" />
							<path id="&lt;Path&gt;" class="shp8" d="m811.3 898.81c0.51 3.48-4.57 4.81-9.81 4.78l-26.57-67.99c-5.88-18.25-6.67-45.57-1.89-75.24l32.29-23.67c9.41 34.92-7.96 60.14-6.88 87.61l12.87 74.51z" />
						</g>
						<path id="&lt;Path&gt;" class="shp11" d="m804.46 810.18c8.41 22.06-38.35 25.6-49.55 23.23c-10.99-2.33-14.99-4.78-14.45-14.74c0.41-7.48 3.11-24.51 8.1-51.08c41.96-17.29 63.35-19.69 64.18-7.22c2 30.39-8.24 34.49-8.28 49.82z" />
						<path id="&lt;Path&gt;" class="shp9" d="m814.78 758.68c-1.06 8.37-22.38 13.31-40.89 13.57c-14.54 0.18-27.32-2.38-27.32-8.2c7.4-25.03 4.32-36.57 1.06-48.12c-2.91-10.49-5.99-20.97-1.15-41.69c11.63-18.07 33.49-25.73 49.62-20.97c25.12 17.1 1.15 52.79 18.68 105.4z" />
						<g id="&lt;Group&gt;">
							<path id="&lt;Path&gt;" class="shp8" d="m765.19 657.66c0.18-6.43 0.98-8.28-2.22-15.84l13.82-7.49c0.6 6.74 1.96 12.62 3.84 17.9c-1.93 4.44-10.39 5.37-15.44 5.44z" />
							<path id="&lt;Path&gt;" class="shp12" d="m776.77 634.3c0.63 6.76 1.95 12.62 3.83 17.92c-0.63 1.4-1.81 2.37-3.35 3.14c-0.91-0.14-1.88-0.42-2.58-0.84c-0.7-0.49-1.05-1.32-1.6-1.95c-1.19-1.26-3.07-1.39-4.74-1.26c-0.98 0.07-1.95 0.14-2.93 0c-0.07-2.58-0.56-5.09-2.44-9.48l13.8-7.53z" />
						</g>
						<g id="&lt;Group&gt;">
							<path id="&lt;Path&gt;" class="shp8" d="m763.42 612.11l27.48 3.11l0.31 0.79l-7.73 25.66c-1.39 1.8-3.41 3.3-5.7 4.33c-6.22 2.88-14.33 2.79-17.36-0.96c-4.31-6.36-3.9-14.73-1.78-21.89c1.18-4.32 2.94-8.2 4.77-11.03z" />
							<path id="&lt;Path&gt;" class="shp12" d="m757.28 614.61l26.85-2.74c0.34 0.12-0.18 2.29 1.38 1.17l-2.4 26.25c-0.98 2.05-2.64 3.94-4.66 5.43c-0.13-0.09-0.19-0.17-0.33-0.18c-2.12-0.99-3.9-2.91-4.73-5.13c-0.63-1.63-0.73-3.47-1.28-5.16c-1.13-3.67-4.31-6.69-8.07-7.55c-1.29-0.31-2.39 1.33-3.8 1.35c-1.62 0-3.73 0-5.43 0.05c0.24-4.47 1.27-10.34 2.47-13.49z" />
						</g>
						<path id="&lt;Path&gt;" class="shp13" d="m763.74 629.81c-9.28 0.24-7.76-5.49-8.83-11.09c-1.07-5.6 2.35-15.72 10.36-14.56c8.01 1.16 11.73 2.66 19.93 5.79c8.2 3.13 8.51 9.41 11.05 16.83c2.54 7.42-2.77 9.17-5.84 12.93c-4.21 5.14 8.67 16.19-8.18 18.12c-7.57 0.87-22.99-14.96-18.83-17.2c4.16-2.24 7.84-11.02 0.34-10.82z" />
						<path id="&lt;Path&gt;" class="shp12" d="m773.89 772.25c-14.54 0.18-27.32-2.38-27.32-8.2c7.4-25.03 4.32-36.57 1.06-48.12c3.7-4.94 8.02-9.43 11.54-14.54c3.61-5.29 6.26-11.19 7.76-17.36c2.56 4.41 2.64 9.69 2.73 14.81c0 7.67 0 15.69-3.44 22.56c-1.76 3.52-4.32 6.52-6.08 10.05c-3.26 6.17-3.88 13.75-1.76 20.36c1.15 3.44 3.08 6.79 6.17 8.55c1.85 0.97 3.97 1.41 5.55 2.73c1.5 1.23 2.38 3.08 3 4.94c0.44 1.32 0.71 2.73 0.79 4.23z" />
						<g id="&lt;Group&gt;">
							<g id="&lt;Group&gt;">
								<path id="&lt;Path&gt;" class="shp14" d="m662.67 698.84l39.11-9.02l3.38 27.72l-37.38 17.82l-5.11-36.52z" />
							</g>
							<g id="&lt;Group&gt;">
								<path id="&lt;Path&gt;" class="shp8" d="m663.93 733.04c-2.13-2.07 0.59-13.65 1.79-12.41c0.73 2.87 1.64 4.5 2.75 4.88c5.88 0.48-0.04-5.04 1.55-5.42c1.61-0.71 6.11 3.44 8.41 5.03l6.17-0.44l0.59 8.08l-6.17 0.44c-2.88 1.47-5.06 2.9-8.27 2.3c-3.28 0.54-5.55-0.28-6.81-2.46z" />
								<path id="&lt;Path&gt;" class="shp9" d="m767.36 683.7c25.55 31.04-7.67 28.89-18 42.1c-8.23 6.09-36 5.67-65.11 8.1c-1.51-3.06-1.77-6.62-0.78-10.7l51.19-9.97c2.2-9.39 6.12-22.37 11.78-38.93l20.91 9.41z" />
							</g>
							<path id="&lt;Path&gt;" class="shp15" d="m668.89 718.26l-1.95-11.36l4.05-0.7l1.79 11.77l-3.89 0.28z" />
							<path id="&lt;Path&gt;" class="shp15" d="m676.12 717.13l-2-16.26l5.44-1.22l1.76 16.87l-5.19 0.61z" />
							<path id="&lt;Path&gt;" class="shp15" d="m685.01 715.95l-2-16.26l5.44-1.22l1.76 16.87l-5.19 0.61z" />
							<path id="&lt;Path&gt;" class="shp15" d="m693.9 714.77l-2-16.26l5.44-1.22l1.76 16.87l-5.19 0.61z" />
						</g>
					</g>
					<g id="&lt;Group&gt;">
						<path id="&lt;Path&gt;" class="shp16" d="m188.89 537.74c1.35 3.66 2.12 7.99 2.12 12.99c0 21.91-14.27 47.51-31.87 57.17c-17.6 9.66-31.87-0.27-31.87-22.18c0-20.25 12.19-43.62 27.93-54.67l2.25 5.19c-1.94 1.07-9.61-4.2-10.02-6.99c-0.36-2.4 0.24-6.44 2.18-7.51l19.05-10.46c1.94-1.07 10.91 3.1 10.91 5.52c0 2.42-3.96 5.54-5.9 6.61l-7.61 2.69l-2.99 0.63c7.97-3.15 15.01-2.14 20.04 2.26c0.14-0.31 0.28-0.62 0.45-0.93c2.15-3.85 5.63-5.77 7.78-4.27l7.68 5.21c2.15 1.5-4.73 1.18-6.88 5.03c-0.91 1.64-2.07 2.89-3.26 3.72z" />
						<g id="&lt;Group&gt;">
							<path id="&lt;Path&gt;" class="shp0" d="m197.22 543.26c1.35 3.66 2.12 7.99 2.12 12.99c0 21.91-14.27 47.51-31.87 57.17c-17.6 9.66-31.87-0.27-31.87-22.18c0-20.25 12.19-43.62 27.93-54.67v-3.62l-5.59 3.07c-1.94 1.07-3.52-0.03-3.52-2.45c0-2.42 1.57-5.24 3.52-6.31l19.05-10.46c1.94-1.07 3.52 0.03 3.52 2.45c0 2.42-1.57 5.24-3.52 6.31l-5.59 3.07v3.62c7.97-3.15 15.01-2.14 20.04 2.26c0.14-0.31 0.28-0.62 0.45-0.93c2.15-3.85 5.63-5.77 7.78-4.27l0.8 0.56c2.15 1.5 2.15 5.83 0 9.69c-0.91 1.64-2.07 2.89-3.26 3.72z" />
							<path id="&lt;Path&gt;" class="shp17" d="m192.92 559.77c0 17.5-11.4 37.94-25.45 45.66c-14.06 7.72-25.45-0.22-25.45-17.72c0-17.5 11.4-37.94 25.45-45.66c14.06-7.72 25.45 0.22 25.45 17.72z" />
							<g id="&lt;Group&gt;">
								<path id="&lt;Path&gt;" class="shp0" d="m180.09 585.07c-0.71 0.39-1.41 0.44-1.95 0.06l-12.01-8.36c-0.52-0.36-0.81-1.08-0.81-1.99v-17.53c0-1.9 1.24-4.12 2.76-4.96c1.53-0.84 2.76 0.02 2.76 1.92v16.11l11.2 7.79c1.08 0.75 1.08 2.93 0 4.86c-0.54 0.97-1.25 1.69-1.95 2.08z" />
							</g>
						</g>
					</g>
					<g id="&lt;Group&gt;">
						<path id="&lt;Path&gt;" class="shp18" d="m936 345.51v11.68v24.04v254.91c0 10.07-16.97 23.91-24.22 19.75l-260.71-165.22c-7.25-4.17-13.13-15.71-13.13-25.78v-254.91v-24.04l-12.68-6.94c0-3.62 14.79-10.08 17.4-8.59l144.31 82.91l135.9 78.08l0 0l8.41 4.83c2.61 1.5 4.72 5.65 4.72 9.27z" />
						<g id="&lt;Group&gt;">
							<path id="&lt;Path&gt;" class="shp19" d="m909.59 654.4l-271.81-156.17c-7.25-4.16-13.13-15.71-13.13-25.78v-278.95c0-10.07 5.88-14.86 13.13-10.7l271.81 156.17c7.25 4.16 13.13 15.71 13.13 25.78v278.95c0 10.07-5.88 14.86-13.13 10.7z" />
							<path id="&lt;Path&gt;" class="shp0" d="m918 392.63l-288.62-165.83c-2.61-1.5-4.72-5.65-4.72-9.27v-35.73c0-3.62 2.11-5.34 4.72-3.85l288.62 165.83c2.61 1.5 4.72 5.65 4.72 9.27v35.73c0 3.62-2.11 5.34-4.72 3.85z" />
							<path id="&lt;Path&gt;" class="shp20" d="m660.82 220.45c0 4.5-2.62 6.63-5.86 4.77c-3.23-1.86-5.86-7.01-5.86-11.51c0-4.5 2.62-6.63 5.86-4.77c3.24 1.86 5.86 7.01 5.86 11.51z" />
							<path id="&lt;Path&gt;" class="shp21" d="m676.78 229.63c0 4.5-2.62 6.63-5.86 4.77c-3.23-1.86-5.86-7.01-5.86-11.51c0-4.5 2.62-6.63 5.86-4.77c3.23 1.86 5.86 7.01 5.86 11.51z" />
							<path id="&lt;Path&gt;" class="shp22" d="m692.74 238.8c0 4.5-2.62 6.63-5.86 4.77c-3.23-1.86-5.86-7.01-5.86-11.51c0-4.5 2.62-6.63 5.86-4.77c3.24 1.86 5.86 7.01 5.86 11.51z" />
						</g>
						<g id="&lt;Group&gt;">
							<path id="&lt;Path&gt;" class="shp0" d="m725.86 399.31l-77.93-45.45c-3.01-1.75-5.45-6.2-5.45-9.94v-73.3c0-3.73 2.44-5.34 5.45-3.58l77.93 45.45c3.01 1.75 5.45 6.2 5.45 9.93v73.3c0 3.73-2.44 5.34-5.45 3.58z" />
							<path id="&lt;Path&gt;" class="shp0" d="m678.78 409.83l-30.84-17.99c-3.01-1.75-5.45-6.2-5.45-9.93v-8.19c0-3.73 2.44-5.34 5.45-3.58l30.84 17.99c3.01 1.75 5.45 6.2 5.45 9.93v8.19c0 3.73-2.44 5.34-5.45 3.58z" />
							<path id="&lt;Path&gt;" class="shp0" d="m725.86 475.28l-77.93-45.45c-3.01-1.75-5.45-6.2-5.45-9.93v-8.19c0-3.73 2.44-5.34 5.45-3.58l77.93 45.45c3.01 1.75 5.45 6.2 5.45 9.93v8.19c0 3.73-2.44 5.34-5.45 3.58z" />
							<path id="&lt;Path&gt;" class="shp0" d="m725.86 507.84l-77.93-45.45c-3.01-1.75-5.45-6.2-5.45-9.93v-8.19c0-3.73 2.44-5.34 5.45-3.58l77.93 45.45c3.01 1.75 5.45 6.2 5.45 9.93v8.19c0 3.73-2.44 5.34-5.45 3.58z" />
							<path id="&lt;Path&gt;" class="shp0" d="m776.65 484.5v46.18c0 3.72-2.41 5.33-5.47 3.57l-11.31-6.57c-2.99-1.75-5.47-6.2-5.47-9.92v-46.18c0-3.79 2.48-5.4 5.47-3.57l11.31 6.57c3.06 1.75 5.47 6.2 5.47 9.92z" />
							<path id="&lt;Path&gt;" class="shp0" d="m816.7 459.04v94.98c0 3.72-2.48 5.33-5.47 3.57l-11.31-6.57c-3.06-1.75-5.47-6.2-5.47-9.92v-95.05c0-3.72 2.41-5.33 5.47-3.57l11.31 6.64c2.99 1.75 5.47 6.2 5.47 9.92z" />
							<path id="&lt;Path&gt;" class="shp0" d="m856.68 506.97v70.4c0 3.72-2.41 5.32-5.4 3.57l-11.38-6.57c-2.99-1.75-5.4-6.2-5.4-9.92v-70.4c0-3.79 2.41-5.4 5.4-3.65l11.38 6.64c2.99 1.75 5.4 6.2 5.4 9.92z" />
							<path id="&lt;Path&gt;" class="shp0" d="m896.73 489.46v111.25c0 3.72-2.41 5.33-5.47 3.57l-11.31-6.57c-2.99-1.75-5.47-6.2-5.47-9.92v-111.32c0-3.72 2.48-5.32 5.47-3.57l11.31 6.64c3.06 1.75 5.47 6.2 5.47 9.92z" />
							<path id="&lt;Path&gt;" class="shp23" d="m776.65 519.44v11.23c0 3.72-2.41 5.33-5.47 3.57l-11.31-6.57c-2.99-1.75-5.47-6.2-5.47-9.92v-11.23c0-3.79 2.48-5.4 5.47-3.65l11.31 6.64c3.06 1.75 5.47 6.2 5.47 9.92z" />
							<path id="&lt;Path&gt;" class="shp24" d="m816.7 493.98v60.04c0 3.72-2.48 5.33-5.47 3.57l-11.31-6.57c-3.06-1.75-5.47-6.2-5.47-9.92v-60.11c0-3.72 2.41-5.32 5.47-3.57l11.31 6.64c2.99 1.75 5.47 6.2 5.47 9.92z" />
							<path id="&lt;Path&gt;" class="shp25" d="m856.68 541.91v35.45c0 3.72-2.41 5.32-5.4 3.57l-11.38-6.57c-2.99-1.75-5.4-6.2-5.4-9.92v-35.53c0-3.72 2.41-5.33 5.4-3.57l11.38 6.64c2.99 1.75 5.4 6.2 5.4 9.92z" />
							<path id="&lt;Path&gt;" class="shp26" d="m896.73 524.4v76.31c0 3.72-2.41 5.33-5.47 3.57l-11.31-6.57c-2.99-1.75-5.47-6.2-5.47-9.92v-76.38c0-3.72 2.48-5.33 5.47-3.57l11.31 6.64c3.06 1.75 5.47 6.2 5.47 9.92z" />
							<g id="&lt;Group&gt;">
								<path id="&lt;Path&gt;" class="shp0" d="m846.69 462.24l-42.1-76.8l-37.06 24.38l-4-6.09l43.66-28.73l42.1 76.8l30.98-20.38l4 6.09l-37.58 24.73z" />
							</g>
							<path id="&lt;Path&gt;" class="shp27" d="m771.28 410.12c0 3.94-2.57 5.63-5.75 3.78c-3.17-1.85-5.75-6.55-5.75-10.49c0-3.94 2.57-5.63 5.75-3.78c3.18 1.85 5.75 6.55 5.75 10.49z" />
							<path id="&lt;Path&gt;" class="shp28" d="m811.31 383.37c0 3.94-2.57 5.63-5.75 3.78c-3.18-1.85-5.75-6.55-5.75-10.49c0-3.94 2.57-5.63 5.75-3.78c3.17 1.85 5.75 6.55 5.75 10.49z" />
							<path id="&lt;Path&gt;" class="shp29" d="m853.82 459.16c0 3.94-2.57 5.63-5.75 3.78c-3.18-1.85-5.75-6.55-5.75-10.49c0-3.94 2.57-5.63 5.75-3.78c3.17 1.85 5.75 6.55 5.75 10.49z" />
							<path id="&lt;Path&gt;" class="shp30" d="m888.02 437.41c0 3.94-2.57 5.63-5.75 3.78c-3.18-1.85-5.75-6.55-5.75-10.49c0-3.94 2.57-5.63 5.75-3.78c3.17 1.85 5.75 6.55 5.75 10.49z" />
						</g>
					</g>
					<g id="&lt;Group&gt;">
						<path id="&lt;Path&gt;" class="shp31" d="m195.83 365.11l-49.1 28.46c-3.34 1.93-6.05 0-6.05-4.33v-89.52c0-4.33 2.71-9.4 6.05-11.34l49.1-28.46c3.34-1.94 6.05 0 6.05 4.33v89.51c0 4.33-2.71 9.4-6.05 11.34z" />
						<path id="&lt;Path&gt;" class="shp0" d="m170.54 309.33l-18.42 10.67c-1.45 0.84-2.63 0-2.63-1.88v-17.73c0-1.88 1.18-4.09 2.63-4.93l18.42-10.67c1.45-0.84 2.63 0 2.63 1.88v17.73c0 1.88-1.18 4.09-2.63 4.93z" />
						<path id="&lt;Path&gt;" class="shp0" d="m173.34 332.95l-22.08 12.8c-0.97 0.57-1.76 0-1.76-1.26v-3.82c0-1.26 0.79-2.74 1.76-3.31l22.08-12.8c0.97-0.57 1.76 0 1.76 1.26v3.82c0 1.26-0.79 2.74-1.76 3.31z" />
						<path id="&lt;Path&gt;" class="shp0" d="m192.51 336.94l-40.67 23.57c-1.3 0.75-2.35 0-2.35-1.68v-2.31c0-1.68 1.05-3.65 2.35-4.4l40.67-23.57c1.3-0.75 2.35 0 2.35 1.68v2.31c0 1.68-1.05 3.65-2.35 4.4z" />
						<path id="&lt;Path&gt;" class="shp0" d="m192.51 352.04l-40.67 23.57c-1.3 0.75-2.35 0-2.35-1.68v-2.31c0-1.68 1.05-3.65 2.35-4.4l40.67-23.57c1.3-0.75 2.35 0 2.35 1.68v2.31c0 1.68-1.05 3.65-2.35 4.4z" />
						<path id="&lt;Path&gt;" class="shp32" d="m176.96 270.87c0 2.71-1.69 5.89-3.79 7.1c-2.09 1.21-3.79 0-3.79-2.71c0-2.71 1.69-5.89 3.79-7.1c2.09-1.21 3.79 0 3.79 2.71z" />
					</g>
					<g id="&lt;Group&gt;">
						<path id="&lt;Path&gt;" class="shp33" d="m329.15 358.2l-48.56 28.14c-3.3 1.91-5.98 0-5.98-4.28v-88.52c0-4.28 2.68-9.3 5.98-11.21l48.56-28.14c3.3-1.91 5.98 0 5.98 4.28v88.52c0 4.28-2.68 9.3-5.98 11.21z" />
						<path id="&lt;Path&gt;" class="shp0" d="m304.15 303.03l-18.21 10.56c-1.44 0.83-2.6 0-2.6-1.86v-17.54c0-1.86 1.17-4.05 2.6-4.88l18.21-10.56c1.44-0.83 2.6 0 2.6 1.86v17.54c0 1.86-1.16 4.05-2.6 4.88z" />
						<path id="&lt;Path&gt;" class="shp0" d="m306.91 326.4l-21.84 12.66c-0.96 0.56-1.74 0-1.74-1.25v-3.78c0-1.25 0.78-2.71 1.74-3.27l21.84-12.66c0.96-0.56 1.74 0 1.74 1.25v3.78c0 1.25-0.78 2.71-1.74 3.27z" />
						<path id="&lt;Path&gt;" class="shp0" d="m325.88 330.34l-40.22 23.31c-1.28 0.74-2.32 0-2.32-1.66v-2.28c0-1.66 1.04-3.61 2.32-4.35l40.22-23.31c1.28-0.74 2.32 0 2.32 1.66v2.28c0 1.66-1.04 3.61-2.32 4.35z" />
						<path id="&lt;Path&gt;" class="shp0" d="m325.88 345.28l-40.22 23.31c-1.28 0.74-2.32 0-2.32-1.66v-2.28c0-1.66 1.04-3.61 2.32-4.35l40.22-23.31c1.28-0.74 2.32 0 2.32 1.66v2.28c0 1.66-1.04 3.61-2.32 4.35z" />
						<path id="&lt;Path&gt;" class="shp34" d="m310.49 265c0 2.68-1.68 5.82-3.74 7.02c-2.07 1.2-3.74 0-3.74-2.68c0-2.68 1.68-5.82 3.74-7.02c2.07-1.2 3.74 0 3.74 2.68z" />
					</g>
					<g id="&lt;Group&gt;">
						<path id="&lt;Path&gt;" class="shp35" d="m435.9 230.09l-48.56 28.14c-3.3 1.91-5.98 0-5.98-4.28v-88.52c0-4.28 2.68-9.3 5.98-11.21l48.56-28.14c3.3-1.91 5.98 0 5.98 4.28v88.52c0 4.28-2.68 9.3-5.98 11.21z" />
						<path id="&lt;Path&gt;" class="shp0" d="m410.9 174.93l-18.21 10.56c-1.44 0.83-2.6 0-2.6-1.86v-17.54c0-1.86 1.16-4.05 2.6-4.88l18.21-10.56c1.44-0.83 2.6 0 2.6 1.86v17.54c0 1.86-1.17 4.05-2.6 4.88z" />
						<path id="&lt;Path&gt;" class="shp0" d="m413.67 198.29l-21.84 12.66c-0.96 0.56-1.74 0-1.74-1.25v-3.78c0-1.25 0.78-2.71 1.74-3.27l21.84-12.66c0.96-0.56 1.74 0 1.74 1.25v3.78c0 1.25-0.78 2.71-1.74 3.27z" />
						<path id="&lt;Path&gt;" class="shp0" d="m432.63 202.23l-40.22 23.31c-1.28 0.74-2.32 0-2.32-1.66v-2.28c0-1.66 1.04-3.61 2.32-4.35l40.22-23.31c1.28-0.74 2.32 0 2.32 1.66v2.28c0 1.66-1.04 3.61-2.32 4.35z" />
						<path id="&lt;Path&gt;" class="shp0" d="m432.63 217.17l-40.22 23.31c-1.28 0.74-2.32 0-2.32-1.66v-2.28c0-1.66 1.04-3.61 2.32-4.35l40.22-23.31c1.28-0.74 2.32 0 2.32 1.66v2.28c0 1.66-1.04 3.61-2.32 4.35z" />
						<path id="&lt;Path&gt;" class="shp36" d="m417.24 136.89c0 2.68-1.68 5.82-3.74 7.02c-2.07 1.2-3.74 0-3.74-2.68c0-2.68 1.68-5.82 3.74-7.02c2.07-1.2 3.74 0 3.74 2.68z" />
					</g>
					<g id="&lt;Group&gt;">
						<path id="&lt;Path&gt;" class="shp0" d="m438.15 402.09l-17.07 24.03v109.62c0 9.08-5.74 19.76-12.74 23.82l-111.95 85.88c-3.34 1.94-28.86-4.87-27.78-21.32v-109.62v-30.83c0-9.08 5.68-19.72 12.68-23.78l11.05-6.4v-7.52c0-4.02 2.51-8.73 5.61-10.52c3.1-1.8 5.61 0 5.61 4.02v7.51l82.53-47.84v-7.51c0-4.02 2.51-8.73 5.61-10.53c3.1-1.8 5.61 0 5.61 4.02v7.51l11.02-6.39c7.01-4.06 29.81 6.77 29.81 15.85z" />
						<path id="&lt;Path&gt;" class="shp37" d="m438.69 406.4v140.45c0 9.08-5.74 19.76-12.74 23.82l-127.05 73.64c-7.01 4.06-12.68 0-12.68-9.08v-140.45c0-9.08 5.68-19.72 12.68-23.78l127.05-73.64c7.01-4.06 12.74-0.03 12.74 9.05z" />
						<path id="&lt;Path&gt;" class="shp38" d="m438.69 406.4v30.83l-152.48 88.38v-30.83c0-9.08 5.68-19.72 12.68-23.78l127.05-73.64c7.01-4.06 12.74-0.03 12.74 9.05z" />
						<path id="&lt;Path&gt;" class="shp39" d="m315.55 476.1c-3.1 1.8-5.61 0-5.61-4.02v-15.01c0-4.02 2.51-8.73 5.61-10.52c3.1-1.8 5.61 0 5.61 4.02v15.01c0 4.02-2.51 8.73-5.61 10.52z" />
						<path id="&lt;Path&gt;" class="shp40" d="m403.7 417.74v-15.01c0-4.02 2.51-8.73 5.61-10.53c3.1-1.8 5.61 0 5.61 4.02v15.01c0 4.02-2.51 8.73-5.61 10.53c-3.1 1.8-5.61 0-5.61-4.02z" />
						<g id="&lt;Group&gt;">
							<path id="&lt;Compound Path&gt;" class="shp0" d="m337.49 532.11l-0.14 0.08l-8.98 10.74l-1.81-9.65l12.46-14.73l9.12-5.29v61l-10.64 6.17v-48.33z" />
							<path id="&lt;Compound Path&gt;" fill-rule="evenodd" class="shp0" d="m367.13 552.94c1.37-0.61 2.61-1.32 4.78-2.77c3.33-2.21 6.73-5.41 9.27-9.13c3.04-4.49 5.07-9.6 5.94-14.71l-0.22 0.03c-2.1 4.03-5.14 7.39-9.41 9.87c-7.97 4.62-14.7 1.3-14.7-10.53c0-11.92 7.39-26.24 17.74-32.25c12.09-7.01 17.82 1.69 17.82 15.95c0 12.67-3.11 23.76-8.26 32.84c-4.49 7.86-10.65 14.34-17.96 18.95c-1.88 1.28-3.77 2.28-5 2.9v-11.17zm6.66-34.45c0 5.25 2.17 8.5 6.66 5.9c2.97-1.72 5.07-4.82 6.08-7.56c0.36-1.05 0.58-2.12 0.58-3.9c0-6.48-1.88-11.76-6.88-8.87c-3.77 2.18-6.52 8.09-6.45 14.43z" />
						</g>
					</g>
					<g id="&lt;Group&gt;">
						<g id="&lt;Group&gt;">
							<g id="&lt;Group&gt;">
								<path id="&lt;Path&gt;" class="shp8" d="m605.37 821.41c-1.32 8.01 0.89 16.31 7.16 18.74c4.18 1.62 3.18 2.86-3 3.71l-21.53-7.01c-1.47-3.8-0.9-6.56 1.73-8.28c1.84-1.2 3-3.93 3.5-8.18c8.67-2.83 12.71-2.5 12.13 1.01z" />
								<path id="&lt;Path&gt;" class="shp10" d="m589.93 827.78c2.75 5.67 12.86 6.64 15.81 3.9c1.73-1.6 15.89 14.55 8.93 15.36c-7.57 0.88-29.19-5.62-28.72-13.02c0.22-3.4 1.54-5.47 3.98-6.23z" />
							</g>
							<g id="&lt;Group&gt;">
								<path id="&lt;Path&gt;" class="shp8" d="m649.59 819c1.47 7.98 6.37 15.04 13.09 15.2c4.48 0.11 3.96 1.61-1.56 4.51l-22.63 0.71c-2.68-3.08-3.07-5.87-1.18-8.38c1.32-1.75 1.49-4.71 0.51-8.88c7.19-5.61 11.11-6.66 11.76-3.16z" />
								<path id="&lt;Path&gt;" class="shp10" d="m637.23 830.23c4.51 4.4 14.35 1.89 16.2-1.69c1.08-2.09 19.88 8.3 13.61 11.42c-6.83 3.39-29.37 4.61-31.43-2.52c-0.95-3.27-0.4-5.67 1.63-7.21z" />
							</g>
							<path id="&lt;Path&gt;" class="shp2" d="m588.53 676.88c25.62 10.29 43.55 28.33 49.18 39.99l14.07 102.82c-0.15 4.81-13.2 8.17-17 3.07l-21.32-95.25c-29.86-5.45-53.93-14.21-54.85-33.28l29.91-17.34z" />
							<path id="&lt;Path&gt;" class="shp2" d="m564.57 691.69c25.62 10.29 53.25 28.33 53.25 39.99l-9.53 85.82c-0.15 9.39-13.2 8.17-17 3.07l-1.78-78.25c-29.86-5.45-53.93-21.34-54.85-40.41l29.91-10.21z" />
							<path id="&lt;Path&gt;" class="shp8" d="m582.78 588.27c6.21-2.56 16.57 43.17 16.5 65.8l18.41 43.17l-8.07 4.68c-9.86-13.65-18.96-27.4-24.66-41.6c-5.84-23.18-8.49-39.43-7.96-48.75c0.32-7.35-5.39-18.69 5.78-23.29z" />
							<path id="&lt;Path&gt;" class="shp0" d="m529.6 605.43c9.64-9.27 45.02-24.1 55.65-15.81c8.95 38.28-9.15 66.15 8.95 90.8c-8.14 14.74-48.33 31.8-62.44 23.62c-4.93-1.83-8.25-84.51-2.16-98.6z" />
							<path id="&lt;Path&gt;" class="shp8" d="m533.82 603.02c6.21-2.56 7.34 41.63 7.27 64.25l43.09 38.88l-5.1 7.64c-21.27-12.37-43.04-24.74-52.32-36.92c-5.92-18.4-7.85-33.87-7.06-47.85c0.32-7.35 2.94-21.41 14.11-26.01z" />
							<path id="&lt;Path&gt;" class="shp41" d="m546.79 576.65l14.43-4.97l5.57 17.71c2.35 7.83-14.81 12.26-20.88 7.25c1.9-5.92 1.9-12.72 0.88-19.99z" />
							<path id="&lt;Path&gt;" class="shp8" d="m544.06 545.65l29.09 5.61c6.58 8.14-2.8 28.85-7.58 35.92c-6.35 6.57-15.88 0.98-22.79-4.64l1.27-36.9z" />
							<path id="&lt;Path&gt;" class="shp13" d="m558.15 575.48l-2.7 0.73c-0.13-3.16-1.05-5.04-2.77-5.65c-1.51-0.53-5.41 1.69-3.06 4.41c3.03 3.52 1.65 11.38 0.71 11.38c-0.96 1.11-3.6 0.74-7.93-1.13c-6.49-2.8-10.98-16.76-8.66-20.07c2.31-3.31 5.99-6.58 3.38-12.13c-2.61-5.55 6.46-8.89 10.93-10.91c12.22-5.52 27.14 5.65 32.68 6.46c5.54 0.81 3.48 17.52-1.14 20.32c-5.43 3.29-13.48-2.06-20.93-4.27l-0.49 10.87z" />
							<g id="&lt;Group&gt;">
								<path id="&lt;Path&gt;" class="shp42" d="m626.3 688.72l33.11 15.18l-49.78 29.12l-29.32-19.23l45.99-25.07z" />
								<path id="&lt;Path&gt;" class="shp43" d="m609.63 733.03l6.3-44.31l48.36-26.32l-4.88 41.5l-49.78 29.12z" />
							</g>
							<path id="&lt;Path&gt;" class="shp8" d="m584.19 706.15c6.21-1.27 10.4-0.89 12.57 1.14c3.26 3.05 6.24 4.89 4.98 6.5c-2.2 2.82-10.89-2.41-14.32 0c-2.29 1.61-5.38 1.43-9.27-0.54l6.04-7.1z" />
							<g id="&lt;Group&gt;">
								<path id="&lt;Path&gt;" class="shp0" d="m534.65 601.53c7.96-4.93 8.05 52.51 8.14 53.52c0.28 3.29-22.4 4.63-22.39 3.33c-7.15-27.58-2.4-46.53 14.26-56.85z" />
								<path id="&lt;Path&gt;" class="shp0" d="m600.62 639.38c0.29 1.27-22.15 4.87-22.58 1.6c-0.13-1.01-3.56-55.93 5.27-52.81c7.22 2.54 12.99 19.61 17.31 51.22z" />
							</g>
						</g>
					</g>
					<g id="&lt;Group&gt;">
						<g id="&lt;Group&gt;">
							<path id="&lt;Path&gt;" class="shp8" d="m587.14 700.64c-3.27 0.6-5.48-0.87-8.4-2.37l-6.27-0.47l0.64-8.21l6.27 0.47c2.34-1.61 4.62-2.93 6.72-3.3c1.6 0.39 3.1 1.2 4.55 2.19l9.6 2.77c2.54 1.17 1.38 4.12-0.41 2.94c-3.64-0.99-6.12-1.08-7.43-0.27c-1.82 1.12-2.56 4.4-5.27 6.26z" />
							<path id="&lt;Path&gt;" class="shp2" d="m492.46 643.93c12.31 14.12 21.38 25.3 27.22 33.53l54.57 10.61c0.99 4.15 0.71 7.78-0.84 10.88c-29.58-2.6-58.87-1.24-67.21-7.46c-12.25-10.82-26.61-17.77-27.33-32.7l13.59-14.85z" />
						</g>
						<g id="&lt;Group&gt;">
							<path id="&lt;Path&gt;" class="shp8" d="m452.18 882.21c-2.29 1.21 0.5 8.34 0 12.85l-15.07-4.12c2.64-4.23 4.58-8.22 4.58-11.58l10.48 2.85z" />
							<path id="&lt;Path&gt;" class="shp2" d="m446.39 889.12c2.72 0.47 4.43-0.08 5.13-1.66c6.3-1.53 19.57 1.91 16.58 4.86c-3.06 3.02-21.66 6.98-25.09 7.34c-2.95 0.1-6.48-1.65-8.03-3.63c-1.78-2.28 1.76-9.33 4.14-10.15c3.23-0.28 3.19 2.54 7.27 3.24z" />
						</g>
						<g id="&lt;Group&gt;">
							<path id="&lt;Path&gt;" class="shp8" d="m491.98 902.52c-2.29 1.21 0.5 8.34 0 12.85l-15.07-4.12c2.64-4.23 4.58-8.22 4.58-11.58l10.48 2.85z" />
							<path id="&lt;Path&gt;" class="shp2" d="m486.19 909.44c2.72 0.47 4.43-0.09 5.13-1.66c6.3-1.53 19.57 1.91 16.58 4.86c-3.06 3.02-21.66 6.98-25.09 7.34c-2.95 0.1-6.48-1.65-8.03-3.63c-1.79-2.28 1.75-9.33 4.14-10.15c3.23-0.28 3.19 2.54 7.28 3.24z" />
						</g>
						<path id="&lt;Path&gt;" class="shp11" d="m451.07 803.88c-3.26-28.29-18.91-52.77-10.92-88.66l33.85 22.59c6.18 29.91 6.6 57.69 1.45 76.49l-22.91 70.26c-5.32 0.26-13.67-0.12-13.31-3.68l11.83-77z" />
						<path id="&lt;Path&gt;" class="shp12" d="m475.47 814.3l-16.44 50.39c-0.85-2.98-0.64-6.52-0.28-9.71c0.92-7.51 1.91-14.95 2.83-22.47c0.5-3.61 0.92-7.23 1.84-10.7c1.42-5.39 8.73-13.04 3.98-32.4c-6.2-25.27 3.24-30.39 5.23-41.02c0.71 15.1 5.75 55.35 2.85 65.91z" />
						<path id="&lt;Path&gt;" class="shp11" d="m481.88 825.01c-3.26-27.75-24.71-50.32-20.79-86.88l36.17 18.65c9.5 29.03 13.03 56.59 10.02 75.85l-14.89 72.39c-5.26 0.86-13.35 0.31-13.39-3.27l2.87-76.74z" />
						<path id="&lt;Path&gt;" class="shp12" d="m485.25 855.55c-1.42 6.17-3.69 12.19-4.68 18.43c-0.21 1.56-0.35 3.05-0.57 4.61l1.84-53.58c-0.78-6.95-2.76-13.61-5.24-20.2c0.14-0.21-3.53-8.5-3.31-8.72c4.68 5.03 10.83 24.02 12.17 30.68c1.98 9.43 1.91 19.35-0.21 28.77z" />
						<path id="&lt;Path&gt;" class="shp2" d="m452.26 632.69c16.49-7.42 44.22 7.78 46.23 22.11c5.15 36.69-7.63 68.38 1.68 100.69c0 13.55-65.14 3.56-65.14-15.05c13.26-62.67-8.25-82.54 17.23-107.74z" />
						<g id="&lt;Group&gt;">
							<path id="&lt;Path&gt;" class="shp8" d="m468 631.6c1.91-5.37 3.29-11.34 3.9-18.19l14.05 7.61c-3.25 7.69-2.44 9.57-2.25 16.1c-5.14-0.07-13.74-1.01-15.7-5.52z" />
							<path id="&lt;Path&gt;" class="shp12" d="m485.96 621.04c-1.91 4.47-2.41 7.02-2.48 9.64c-0.99 0.14-1.98 0.07-2.98 0c-1.7-0.14-3.61 0-4.82 1.28c-0.57 0.64-0.92 1.49-1.63 1.98c-0.71 0.43-1.7 0.71-2.62 0.85c-1.56-0.78-2.76-1.77-3.4-3.19c1.91-5.39 3.26-11.34 3.9-18.21l14.03 7.65z" />
						</g>
						<g id="&lt;Group&gt;">
							<path id="&lt;Path&gt;" class="shp8" d="m494.12 605.35c0.58 7.57-0.8 15.98-6.44 21.38c-3.81 3.08-11.89 1.44-17.45-2.75c-2.06-1.51-3.75-3.43-4.74-5.52l-1.93-26.65l1.21-0.87l26.98 2.43c1.21 3.2 2.13 7.44 2.38 11.98z" />
							<path id="&lt;Path&gt;" class="shp12" d="m494.12 605.35c-1.72-0.06-3.44-0.04-5.08-0.04c-1.43-0.02-2.86 0.02-4.17 0.34c-3.82 0.87-7.05 3.94-8.2 7.67c-0.56 1.72-0.66 3.59-1.3 5.25c-0.84 2.26-2.66 4.22-4.81 5.22c-0.14 0.02-0.2 0.1-0.33 0.19c-2.06-1.51-3.75-3.43-4.74-5.52l-1.85-26.08c0.26-0.18-0.15-1.41 0.2-1.53l27.91 2.52c1.21 3.2 2.13 7.44 2.38 11.98z" />
							<path id="&lt;Path&gt;" class="shp13" d="m458.85 608.92c-2.76-3.82 0.19-16.04 5.8-19.85c4.24-13.22 14.5-3.78 29.23-1.1c5.06 0 4.65 9.85 1.49 13.59c-2.26 1.7-6.96 2.2-12.6 2.24l3.83 8.56l-1.03 0.97c-0.93-2.09-2.17-3.99-4.17-5.39c-1.82 0.91-3.24 2.04-2.09 4.55c2.03 1.1 2.65 3.63 3.19 5.34c0.51 5.72-3.11 7.56-7.39 10.06c-5.58-0.88-9.24-2.99-11.5-6.49c-4.93-1.39-1.28-6.38-4.78-12.48z" />
						</g>
					</g>
				</g>
			</g>
		</g>
	</g>
</svg>