<svg version="1.2" baseProfile="tiny-ps" xmlns="http://www.w3.org/2000/svg" viewBox="0 0 2500 2500" width="171" height="171">
	<title>3ba560b62188dc4565bda551a8a910f0-ai</title>
	<style>
		tspan { white-space:pre }
		.s0 { fill: #fbdb90 } 
		.s1 { fill: #f6ba8f } 
		.s2 { fill: #e7ac82 } 
		.s3 { fill: #ce8e67 } 
		.s4 { fill: #d9d3d2 } 
		.s5 { fill: #efeee6 } 
		.s6 { fill: #a86461 } 
		.s7 { fill: #6f9a89 } 
		.s8 { fill: #71aaa3 } 
		.s9 { fill: #cfcec7 } 
		.s10 { fill: #b37656 } 
		.s11 { fill: #f6ba95 } 
		.s12 { fill: #d0c9c4 } 
		.s13 { fill: #b5b3ad } 
		.s14 { fill: #d2d0cd } 
		.s15 { fill: #b6b3a9 } 
		.s16 { fill: #854227 } 
		.s17 { fill: #785f4e;stroke: #060001;stroke-linecap:round;stroke-linejoin:round;stroke-width: 3 } 
		.s18 { fill: #fb832c } 
		.s19 { fill: #f3b994 } 
		.s20 { fill: #160539 } 
		.s21 { fill: #ff7d6f } 
		.s22 { fill: #fc5b68 } 
		.s23 { fill: #a3193a } 
		.s24 { fill: #ff8e8e } 
		.s25 { fill: #041f4b;stroke: #060001;stroke-linecap:round;stroke-linejoin:round;stroke-width: 3.2 } 
		.s26 { fill: #25344c } 
		.s27 { fill: #f0dece } 
		.s28 { fill: #253449 } 
		.s29 { fill: #6fe5f2 } 
		.s30 { fill: #874028 } 
		.s31 { fill: #ffffff } 
		.s32 { fill: #66b3e3 } 
		.s33 { fill: #ede8f3 } 
		.s34 { fill: #cbcecf } 
		.s35 { fill: #587f8f } 
		.s36 { fill: #fd601e } 
		.s37 { fill: #35190a } 
		.s38 { fill: #0aa667 } 
		.s39 { fill: #256e5a } 
		.s40 { fill: #fac573 } 
		.s41 { fill: #58bebc } 
		.s42 { fill: #e5b95c } 
		.s43 { fill: #d79829 } 
		.s44 { fill: #fac46a } 
		.s45 { fill: #d8962a } 
		.s46 { fill: #1dd8ff } 
		.t47 { font-size: 86px;fill: #fd601d;font-weight: 400;font-family: "YuseiMagic-Regular", "Yusei Magic" } 
	</style>
	<g id="图层 1">
		<g id="&lt;Group&gt;">
			<path id="&lt;Path&gt;" class="s0" d="m955.1 2199.25c0 55.07-189.07 99.72-422.29 99.72c-233.22 0-422.29-44.65-422.29-99.72c0-55.07 189.07-99.72 422.29-99.72c233.22 0 422.29 44.64 422.29 99.72z" />
			<g id="&lt;Group&gt;">
				<g id="&lt;Group&gt;">
					<path id="&lt;Path&gt;" class="s1" d="m1712.71 2047.27h-859.89v-520.56h859.89v520.56z" />
					<path id="&lt;Path&gt;" class="s2" d="m1546.7 2047.27h-693.88v-419.8c39.95-0.74 80.07 4.81 118.94 13.45c50.12 11.15 99.01 28.13 145.71 49.41c40.74 18.56 80.38 40.63 115.95 67.94c20.06 15.41 38.17 33.34 56.01 51.22c20.43 20.47 40.16 41.62 59.9 62.76c39.95 42.78 80 85.69 124.89 123.39c22.88 19.21 47.14 36.3 72.49 51.64z" />
					<path id="&lt;Path&gt;" class="s3" d="m1712.71 1565.27h-859.89v-38.56h859.89v38.56z" />
				</g>
				<g id="&lt;Group&gt;">
					<g id="&lt;Group&gt;">
						<path id="&lt;Path&gt;" class="s4" d="m1951 1967.58h-80.98v-568.12h80.98v568.12z" />
						<path id="&lt;Path&gt;" class="s5" d="m1922.07 1967.58h-23.14v-568.12h23.14v568.12z" />
					</g>
					<g id="&lt;Group&gt;">
						<path id="&lt;Path&gt;" class="s6" d="m1797.71 2008.07c0 20.77-16.19 37.6-36.15 37.6c-19.97 0-36.15-16.83-36.15-37.6c0-20.77 16.19-37.6 36.15-37.6c19.97 0 36.15 16.83 36.15 37.6z" />
						<path id="&lt;Path&gt;" class="s6" d="m1964.01 2002.29c0 20.77-16.19 37.6-36.15 37.6c-19.97 0-36.15-16.83-36.15-37.6c0-20.77 16.19-37.6 36.15-37.6c19.97 0 36.15 16.83 36.15 37.6z" />
						<path id="&lt;Path&gt;" class="s6" d="m2117.31 2005.18c0 20.77-16.19 37.6-36.15 37.6c-19.97 0-36.15-16.83-36.15-37.6c0-20.77 16.19-37.6 36.15-37.6c19.97 0 36.15 16.83 36.15 37.6z" />
						<path id="&lt;Path&gt;" class="s5" d="m2112.97 1964.69c0 17.57-87.41 31.81-195.23 31.81c-107.82 0-195.23-14.24-195.23-31.81c0-17.57 87.41-31.82 195.23-31.82c107.82 0 195.23 14.24 195.23 31.82z" />
					</g>
				</g>
				<g id="&lt;Group&gt;">
					<path id="&lt;Path&gt;" class="s7" d="m2126.46 1274.38c0 45.28-36.71 81.98-81.98 81.98h-275.67c-45.28 0-81.98-36.7-81.98-81.98v-466.57c0-45.28 36.7-81.98 81.98-81.98h275.67c45.27 0 81.98 36.7 81.98 81.98v466.57z" />
					<path id="&lt;Path&gt;" class="s8" d="m2152.49 1274.38c0 45.28-36.7 81.98-81.98 81.98h-275.67c-45.28 0-81.98-36.7-81.98-81.98v-466.57c0-45.28 36.7-81.98 81.98-81.98h275.67c45.27 0 81.98 36.7 81.98 81.98v466.57z" />
				</g>
				<g id="&lt;Group&gt;">
					<path id="&lt;Path&gt;" class="s7" d="m2214.2 1389.61c0 31.15-25.25 56.4-56.4 56.4h-532.19c-31.15 0-56.4-25.25-56.4-56.4c0-31.15 25.25-56.4 56.4-56.4h532.19c31.15 0 56.4 25.25 56.4 56.4z" />
					<path id="&lt;Path&gt;" class="s8" d="m2246.01 1389.61c0 31.15-25.25 56.4-56.4 56.4h-532.19c-31.15 0-56.4-25.25-56.4-56.4c0-31.15 25.25-56.4 56.4-56.4h532.19c31.15 0 56.4 25.25 56.4 56.4z" />
				</g>
				<g id="&lt;Group&gt;">
					<g id="&lt;Group&gt;">
						<path id="&lt;Path&gt;" class="s9" d="m870.24 2065.91h-78.09v-977.6h78.09v977.6z" />
						<path id="&lt;Path&gt;" class="s5" d="m844.21 2065.91h-26.03v-977.6h26.03v977.6z" />
					</g>
					<g id="&lt;Group&gt;">
						<path id="&lt;Path&gt;" class="s9" d="m2330.85 2065.91h-78.09v-977.6h78.09v977.6z" />
						<path id="&lt;Path&gt;" class="s5" d="m2304.82 2065.91h-26.03v-977.6h26.03v977.6z" />
					</g>
					<g id="&lt;Group&gt;">
						<path id="&lt;Path&gt;" class="s10" d="m2174.67 1172.18h-1235.01v-75.2h1235.01v75.2z" />
						<path id="&lt;Path&gt;" class="s11" d="m2359.78 1120.12h-1605.23v-75.2h1605.23v75.2z" />
					</g>
				</g>
				<path id="&lt;Path&gt;" class="s12" d="m1378.32 1073.88h-416.49v-80.98h416.49v80.98z" />
				<path id="&lt;Path&gt;" class="s13" d="m1259.74 1013.15h-179.32v-161.97h179.32v161.97z" />
				<path id="&lt;Path&gt;" class="s13" d="m1430.38 801.01c0 45.28-36.7 81.98-81.98 81.98h-353.77c-45.28 0-81.98-36.7-81.98-81.98v-186.01c0-45.28 36.7-81.98 81.98-81.98h353.77c45.28 0 81.98 36.7 81.98 81.98v186.01z" />
				<path id="&lt;Path&gt;" class="s14" d="m1413.03 801.01c0 45.28-36.7 81.98-81.98 81.98h-353.77c-45.28 0-81.98-36.7-81.98-81.98v-186.01c0-45.28 36.7-81.98 81.98-81.98h353.77c45.27 0 81.98 36.7 81.98 81.98v186.01z" />
				<path id="&lt;Path&gt;" class="s15" d="m1213.46 709.46c0 57.51-25.9 104.12-57.85 104.12c-31.95 0-57.85-46.62-57.85-104.12c0-57.51 25.9-104.12 57.85-104.12c31.95 0 57.85 46.62 57.85 104.12z" />
			</g>
			<g id="&lt;Group&gt;">
				<g id="&lt;Group&gt;">
					<path id="&lt;Path&gt;" class="s16" d="m472.8 214.83c7.89 14.13 14.16 29.09 19.2 44.67c3.84 11.88 6.37 22.79 4.72 35.37c-1.57 11.96-5.58 23.86-12.06 34.04c-6.65 10.47-13.38 20.7-23.88 27.68c-10.58 7.03-21.79 13.2-33.19 18.78c-10.89 5.33-21.99 10.21-33.28 14.63c-8.74-12.8-11.45-29.64-5.71-44.84c4.47-11.85 13.23-20.86 23.84-26.13c-0.66-5.92-1.68-11.79-2.81-17.63c-0.59-3.09-1.34-6.14-2.14-9.17c1.22 5.13-2.66-5.98-4.36-9.85c-0.47-0.53-0.99-1.11-1.49-1.67c-1.44-0.78-3.45-1.87-4.77-2.31c-25.08-8.52-37.54-38.47-28.41-62.67c9.57-25.38 37.56-36.95 62.67-28.41c17.07 5.8 30.77 15.43 41.67 27.5z" />
					<path id="&lt;Path&gt;" class="s17" d="m412.81 350.49c-2.24 6.06-0.41 6.76 0 0z" />
					<g id="&lt;Group&gt;">
						<g id="&lt;Group&gt;">
							<path id="&lt;Path&gt;" class="s18" d="m317.26 300.53c-0.34-19.41 12.36-23.72 21.65-15.45c0.92-37.37 31.13-67.72 68.86-68.43c26.51-0.5 49.86 13.76 62.21 35.22c0.43 0.18 0.77 0.32 1.02 0.42l1.22 3.8c2.9 5.95 5 12.38 6.13 19.15l1.13 3.53c17.31 71.61 7.01 113.22-30.88 124.83l1.58 37.05c-13.6 8.59-18.7 46.45-35.72 47.92c-12.36 1.07-47.44-30.54-58.63-40.38l-5.34-108.83c-21.76-3.99-32.83-16.93-33.22-38.83z" />
							<g id="&lt;Group&gt;">
								<g id="&lt;Group&gt;">
									<path id="&lt;Path&gt;" class="s19" d="m339.93 296.54c-7.78-1.04-14.66 6.29-13.67 13.91c0.2 1.48-2.12 1.51-2.31 0.05c-1.21-9.28 7.43-17.42 16.55-16.2c1.47 0.2 0.89 2.44-0.57 2.24z" />
								</g>
								<g id="&lt;Group&gt;">
									<path id="&lt;Path&gt;" class="s19" d="m329.14 299.3c4.4 1.83 7.67 5.46 9.17 9.95c0.47 1.42-1.75 2.06-2.21 0.65c-1.32-3.96-4.23-6.99-8.08-8.58c-1.37-0.57-0.23-2.59 1.12-2.03z" />
								</g>
							</g>
						</g>
						<path id="&lt;Path&gt;" class="s20" d="m403.89 329.35c2.68-5.38 7.53-9.87 13.4-11.1c5.88-1.23 12.63 1.39 15.32 6.75c-9.32-2.97-20.92-1.57-28.72 4.35z" />
						<path id="&lt;Path&gt;" class="s20" d="m461.44 321.52c1.76-4.46 4.89-8.24 8.62-9.33c3.73-1.09 7.96 0.97 9.61 5.36c-5.87-2.33-13.22-1.01-18.23 3.96z" />
						<g id="&lt;Group&gt;">
							<path id="&lt;Path&gt;" class="s21" d="m452.66 339.81c1.04-0.4 2.04-0.92 2.96-1.56c0.79-0.55 1.72-1.12 1.73 0.43c0 0.47-0.17 0.92-0.36 1.35c-0.93 2.12-2.27 4.06-3.93 5.66c-0.27 0.25-0.55 0.51-0.91 0.6c-0.28 0.08-0.59 0.05-0.88 0.01c-3.84-0.54-7.42-2.64-9.76-5.74c1.47-0.52 3.09-0.08 4.65 0.1c2.19 0.25 4.44-0.06 6.5-0.85z" />
							<path id="&lt;Path&gt;" class="s22" d="m451.38 345.38c0.71-1.01 1.55-1.93 2.28-2.93c0.9-1.24 1.7-2.54 2.34-3.93c-5.55-2.14-6.7-7.14-7.83-12.84c-0.51-2.57-0.41-5.26 0.3-7.78c0.36-1.33 0.9-2.61 1.58-3.81c0.34-0.61 0.72-1.2 1.14-1.76c0.41-0.54 0.88-0.91 1.43-1.31c-0.21 0.41-0.32 0.85-0.5 1.25c-0.48 1.08-1 2.09-1.37 3.21c-0.36 1.12-0.62 2.27-0.79 3.43c-0.34 2.33-0.29 4.73 0.18 7.03c0.46 2.27 1.34 4.45 2.66 6.36c1.52 2.16 3.75 4.13 6.26 5.01c-1.56 3.05-2.43 4.71-2.59 4.97c-0.63 0.99-1.37 1.94-2.19 2.78c-0.8 0.83-1.73 1.81-2.91 2.04c-0.37 0.07-0.76 0.09-1.11-0.06c0.17-0.17 0.32-0.37 0.45-0.58c0.06-0.09 0.11-0.19 0.16-0.28c0.16-0.28 0.33-0.54 0.51-0.81z" />
						</g>
						<path id="&lt;Path&gt;" class="s20" d="m456.08 295.99c-2.51-1.04-0.88-6.98 5.34-7.91c4.15-0.62 9.68 1.52 16.59 6.44c-12.95 1.67-20.26 2.16-21.93 1.47z" />
						<path id="&lt;Path&gt;" class="s20" d="m397.51 303.78c9.49-6.27 17.16-9.55 23-9.84c8.76-0.44 11.27 5 7.78 6.55c-2.32 1.03-12.58 2.13-30.78 3.29z" />
						<g id="&lt;Group&gt;">
							<path id="&lt;Path&gt;" class="s21" d="m427.69 345.49c-0.22 2.65-6.09 4.32-13.11 3.72c-7.01-0.6-12.51-3.23-12.29-5.89c0.22-2.66 6.09-4.32 13.11-3.73c7.01 0.6 12.52 3.24 12.29 5.89z" />
							<path id="&lt;Path&gt;" class="s21" d="m480.99 332.07c0.95 1.78-2.65 5.54-8.02 8.38c-5.37 2.85-10.5 3.72-11.44 1.93c-0.95-1.79 2.65-5.54 8.02-8.38c5.38-2.84 10.5-3.71 11.44-1.92z" />
						</g>
						<g id="&lt;Group&gt;">
							<path id="&lt;Path&gt;" class="s23" d="m464.62 359.39c0.1 0.36 0.19 0.73 0.24 1.11c1.35 8.55-4.49 16.57-13.05 17.93c-8.57 1.35-16.6-4.5-17.93-13.06c-0.07-0.37-0.09-0.75-0.12-1.11l30.87-4.87z" />
							<path id="&lt;Path&gt;" class="s24" d="m440.03 375.51c1.85-3.91 5.52-6.87 10.13-7.59c4.58-0.74 9.01 0.95 11.96 4.1c-2.35 3.31-5.98 5.7-10.31 6.39c-4.33 0.68-8.53-0.49-11.78-2.9z" />
						</g>
					</g>
				</g>
				<g id="&lt;Group&gt;">
					<path id="&lt;Compound Path&gt;" class="s18" d="m418.37 1252.82l142.55-28.35l-46.51 903.09l-88.72 28.4l-7.32-903.14z" />
					<g id="&lt;Group&gt;">
						<path id="&lt;Path&gt;" class="s25" d="m436.92 2120.84c2.22 0.72 4.46 1.36 6.72 1.87c6.09 1.96 12.11 1.89 17.22 1.04c0.17-0.03 0.34-0.04 0.51-0.05c10.3-1.39 20.49-7.47 25.85-17.63c2.28-4.33 4.67-12.09 8.84-14.53c6.87-4.04 14.97 0.46 19.76 6.26c1.05 1.27 2.24 1.88 3.41 2.02c13.7 18.08 33.05 35.47 39.92 41.44c1.64 1.41 3.47 2.38 5.39 2.87c29.31 7.45 43.95 19.29 52.24 32.78c8.24 13.3 0.97 33.59-11.81 33.29l-169.48-4.24c-8.28-0.2-14.9-9.54-14.73-20.79l0.65-44.49c0.16-11.68 7.38-20.22 15.48-19.85z" />
					</g>
					<g id="&lt;Group&gt;">
						<path id="&lt;Compound Path&gt;" class="s18" d="m378.4 2154.7l-90.47-28.41l-34.39-902.81l152.04 18.86l-27.19 912.36z" />
					</g>
					<g id="&lt;Group&gt;">
						<path id="&lt;Path&gt;" class="s25" d="m294.81 2119.62c2.23 0.73 4.46 1.37 6.73 1.88c6.09 1.95 12.1 1.89 17.22 1.05c0.17-0.03 0.34-0.03 0.51-0.05c10.3-1.38 20.48-7.46 25.85-17.63c2.29-4.33 4.67-12.09 8.84-14.53c6.87-4.04 14.97 0.47 19.77 6.27c1.05 1.27 2.24 1.87 3.42 2.01c13.69 18.08 33.04 35.48 39.92 41.45c1.64 1.41 3.47 2.38 5.39 2.87c29.31 7.45 43.94 19.29 52.24 32.78c8.24 13.31 0.97 33.6-11.81 33.29l-169.48-4.23c-8.28-0.2-14.9-9.54-14.73-20.79l0.65-44.49c0.16-11.68 7.38-20.22 15.48-19.85z" />
					</g>
				</g>
				<path id="&lt;Path&gt;" class="s26" d="m216.76 1353c-3.24-20.34-5.8-40.78-7.5-61.33c-2.53-30.38-3.44-60.96-1.87-91.41c1.62-31.33 5.45-62.47 9.95-93.5c2.07-14.28 4.3-28.53 6.52-42.79c0.63-9.53 1.45-19.05 2.49-28.54c2.98-27.01 7.48-53.8 11.53-80.63c0.66-8.62 1.18-17.26 1.52-25.9c0.15-3.86 1.41-7.47 3.48-10.44c1.64-13.67 2.93-27.38 3.61-41.17c33.19-27.24 151.32-162.87 255.75-49.77c16.1 17.44 23.12 73.49 35.07 122.29c15.36 21.53 23.42 48.52 30.36 73.49c4.21 15.15 7.93 30.45 12.36 45.54c5.19 17.68 10.41 35.27 14.3 53.3c6.42 29.75 10.44 60.17 11 90.62c0.57 30.58 1.18 61.46-0.73 91.99c-1.94 31-7.66 60.75-16.78 90.4c-4.27 13.89-8.78 27.72-12.4 41.8c-0.9 3.5-1.75 7.01-2.54 10.54c-14.63-0.12-29.26-0.22-43.89-0.49c-31.72-0.59-63.41-1.67-95.14-1.96c-31.86-0.28-63.72-0.07-95.57-0.29c-15.97-0.11-31.94-0.34-47.92-0.07c-14.54 0.24-28.26 3.59-42.53 5.98c-3.37 0.56-6.75 0.92-10.15 1.13c-5.7-21.88-10.81-43.93-15.15-66.11" />
				<g id="&lt;Group&gt;">
					<g id="&lt;Group&gt;">
						<path id="&lt;Path&gt;" class="s27" d="m936 363.09c-6.61 12.89-22.01 12.13-32.44 17.63c-6.22 3.27-11.19 8.57-15.82 14.44c0.53 0.3 1.06 0.61 1.54 0.96c5.71-5.57 12.1-10.37 17.84-14.06c10.79-6.93 25.39-8.13 34.8-1c2.84 2.15 0.69 7.61-2.58 8.25c-10.81 2.19-19.78 1.98-29.81 9.48c-4.02 3.01-7.65 6.8-11.28 10.59c0.44 1.28 0.82 2.61 1.16 3.98c11.97-10.41 28.02-15.86 40.38-12.69c2.99 0.78 3.22 5.93 0.23 7.73c-3.36 2.02-6.55 2.7-10.14 3.6c-4.73 1.17-9.66 3.84-14.05 6.44c-5.5 3.29-10.12 7.89-14.77 12.46c0 0.08 0 0.15-0.01 0.24c10.48-3.96 22.03-3.83 30.13 1.15c2.26 1.4 1.46 5.87-1.28 6.68c-3.07 0.9-5.76 0.7-8.82 0.58c-4.02-0.16-8.48 0.93-12.5 2.07c-3.42 0.99-6.63 2.6-9.78 4.41c-1.1 3.98-2.59 7.58-4.44 10.52c-7.29 11.64-17.19 15.61-27.55 21.89c-5.32 3.23-11.65 6.31-17.78 7.66c-11.28-9.05-22.92-17.61-35.18-25.3c1.22-0.93 2.44-1.86 3.64-2.79c3.83-2.97 8.46-6.6 13.38-9.99c3.37-6.73 7.69-13.02 11.01-18.1c6.43-9.79 16.7-26.93 27.49-33.67c7.47-10.08 15.18-19.92 24.58-27.62c10.56-8.65 27.8-9.55 39.63-11.27c2.78-0.4 3.66 3.32 2.42 5.72z" />
					</g>
					<path id="&lt;Path&gt;" class="s28" d="m886.96 488.31c-56.93 151.54-160.58 198.9-310.97 142.06c-105.9-40.03-148.75-95.3-164.09-143.5c1.1-3.77 2.92-7.5 4.26-10.59c3.33-7.69 8.75-13.95 15.05-19.34c11.79-10.08 28.09-12.63 43.04-13.48c14.29-0.83 27.34 1.53 40.81 6.15c3.18 1.09 6.35 2.11 9.53 3.03c7.52 4.45 14.92 9.18 22.38 13.88c10.49 6.6 20.96 13.16 30.76 20.76c4.21 3.26 8.4 6.5 12.68 9.58c54.72 45.18 131.26 21.19 229.63-71.95l66.91 63.42z" />
				</g>
				<path id="&lt;Path&gt;" class="s29" d="m549.2 643.35c-0.98 33.38-5.35 62.86-10.06 95.07c-4.8 32.83 1.47 62.21-7.86 94.18c-4.11 14.04 14.01 30.73 10.21 44.69c-18.31 2.92-70.17 6.06-88.62 8.17c-18.86 2.15-37.8 3.56-56.65 5.83c-19.64 2.37-39.2 5.32-58.78 8.22c-36.21 5.36-72.52 10.59-109.15 12.14c-11.35-34.8-13.25-71.58-16.15-107.79c-3.12-38.95-2.71-77.15-1.44-116.18c2.44-74.77-12.87-153.73 13.33-225.99c0.61-1.68 1.36-3.21 2.17-4.63c0.01-0.02 0.03-0.05 0.03-0.07c19.58-12.87 41.11-22.96 63.59-30.26c3.03-1.47 6.12-2.79 9.42-3.55c10.41-2.41 20.85-5.52 31.43-7.06c7.56-1.1 15.52-2.25 23.25-1.57c6.72 8.72 16.87 15.4 24.49 23.33c10.26 10.69 19 22.73 29.15 33.52c1.17 1.25 2.98 1.01 4.18 0c15.93-13.4 28.27-32.69 41.32-48.74c6.8 1.4 13.91 6.34 20.4 8.92c16.19 6.43 34.54 13.65 47.44 25.92c14.6 13.9 18.03 34.37 18.31 55.09c3.46 17.07 6.48 34.24 8.56 51.51c0.62 2.65 1.22 5.3 1.8 7.96c0.16 23.77 0.34 47.54-0.36 71.29z" />
				<g id="&lt;Group&gt;">
					<path id="&lt;Path&gt;" class="s30" d="m313.51 243.47c1.64-5.67 4.68-10.8 7.27-16.06c2.43-4.93 4-9.89 7.08-14.54c6.29-9.51 14.14-17.9 23.48-24.44c15.71-11.01 40.81-9.48 57.07-0.26c0.53 0.3 0.99 0.63 1.42 0.98c0.67-0.2 1.34-0.39 2.01-0.56c0.77 0.13 1.42-0.06 1.9-0.45c4.58-1 9.07-1.3 13.45-1.05c0.28 0.1 0.58 0.18 0.92 0.18c1.14 0.04 2.28 0.13 3.4 0.25c5.99 0.87 11.73 2.74 17.11 5.37c4.87 2.55 9.36 5.85 13.4 9.67c6.26 7.01 10.13 16.22 13.49 25.04c4.08 10.74 9.37 29.49 11.12 40.67c-2.38 4.23-8.41 0.7-13.42 4.99l-47.42 4.58c-1.9-0.04-6.7 0.39-11.44 1.11c0.92-2.78 1.27-5.31 1.13-7.57c-0.85 2.37-1.99 5.92-3.8 7.95c-3.8 0.56-8.55 1.51-11.13 1.7c0.48-2.8 1.97-17.62 2.31-22.41c-2.99 5.58-7.1 19.76-12.16 23.58c-2.32 0.34-11.14 2.06-13.78 2.3c1.58-7.6 0.08-15.1 0.15-20.93c-3.36 9.51-10.11 20.74-12.73 25.16c-2.21 3.73-3.67 6.43-5.61 9.17c-10.79-11.71-34.3-6.7-32.09 13.12c2.3 20.73 12.49 18.03 30.52 27c0.42 1.74 0.83 3.43 1.24 5.1c1.3 0.9 2.53 1.92 3.67 3.12c0.53 0.56 0.97 1.13 1.32 1.72c-6.18 2.04-12.79 4.14-19.08 4.2c-3.57 0.03-7.13-0.22-10.69-0.45c-2.57-0.8-5.03-1.71-7.13-3c-9.78-6-16.1-17-18.79-27.84c-1.47-5.92-1.78-12.22-2.14-18.29c-0.43-7.28-2.18-14.43-2-21.74c0.32-12.82 6.45-25.22 9.95-37.34z" />
				</g>
				<path id="&lt;Path&gt;" class="s31" d="m353.16 414.29c31.53 22.26 50.27 41.79 56.23 58.57l-24.73 36.31l-79.76-87.52c18.65-5.29 34.73-7.74 48.25-7.36z" />
				<path id="&lt;Path&gt;" class="s31" d="m498.13 441.4l-63.01 67.83l-25.48-36.84l41.66-49.93c3.44-0.23 19.05 6.08 46.83 18.94z" />
				<g id="&lt;Group&gt;">
					<g id="&lt;Group&gt;">
						<g id="&lt;Group&gt;">
							<path id="&lt;Path&gt;" class="s32" d="m889.03 686.68l-81.21-32.92l142.75-352.1l81.21 32.92l-142.75 352.1z" />
							<path id="&lt;Path&gt;" class="s32" d="m889.03 686.68l-41.21-16.71l142.75-352.1l41.21 16.71l-142.75 352.1z" />
						</g>
						<g id="&lt;Group&gt;">
							<path id="&lt;Path&gt;" class="s33" d="m887.21 685.94l-81.21-32.92l142.75-352.1l81.21 32.92l-142.75 352.1z" />
							<path id="&lt;Path&gt;" class="s34" d="m887.21 685.94l-41.21-16.71l142.75-352.1l41.21 16.71l-142.75 352.1z" />
						</g>
						<path id="&lt;Path&gt;" class="s32" d="m1031.53 336.36c-4.88 12.05-27.56 14.23-50.66 4.86c-23.09-9.36-37.85-26.72-32.97-38.77c4.88-12.05 27.56-14.23 50.66-4.86c23.09 9.36 37.86 26.72 32.97 38.77z" />
						<path id="&lt;Path&gt;" class="s35" d="m978.99 340.38l11.5-26.67c24.39 11.77 36.36 21.39 35.9 28.84c-10.23 6.67-26.03 5.95-47.41-2.17z" />
					</g>
					<g id="&lt;Group&gt;">
						<g id="&lt;Group&gt;">
							<path id="&lt;Path&gt;" class="s32" d="m923.43 759.56l-75.13-45.11l195.58-325.73l75.13 45.11l-195.58 325.73z" />
							<path id="&lt;Path&gt;" class="s32" d="m923.43 759.56l-38.12-22.89l195.58-325.73l38.12 22.89l-195.58 325.73z" />
						</g>
						<g id="&lt;Group&gt;">
							<path id="&lt;Path&gt;" class="s33" d="m921.75 758.55l-75.12-45.11l195.58-325.73l75.13 45.11l-195.59 325.73z" />
							<path id="&lt;Path&gt;" class="s34" d="m921.75 758.55l-38.12-22.89l195.58-325.73l38.13 22.89l-195.59 325.73z" />
						</g>
						<path id="&lt;Path&gt;" class="s32" d="m1118.49 435.55c-6.69 11.15-29.44 9.78-50.8-3.04c-21.36-12.83-33.26-32.26-26.57-43.41c6.69-11.15 29.44-9.78 50.81 3.05c21.36 12.83 33.26 32.26 26.56 43.41z" />
						<path id="&lt;Path&gt;" class="s35" d="m1065.96 431.38l15.5-24.56c22.27 15.41 32.6 26.76 31 34.06c-11.14 5.01-26.64 1.84-46.5-9.49z" />
					</g>
					<g id="&lt;Group&gt;">
						<g id="&lt;Group&gt;">
							<path id="&lt;Path&gt;" class="s32" d="m686.52 670.45l-83.58 26.31l-114.08-362.41l83.58-26.31l114.07 362.41z" />
							<path id="&lt;Path&gt;" class="s32" d="m686.52 670.45l-42.41 13.35l-114.08-362.41l42.42-13.35l114.07 362.41z" />
						</g>
						<g id="&lt;Group&gt;">
							<path id="&lt;Path&gt;" class="s33" d="m684.65 671.04l-83.58 26.31l-114.08-362.41l83.58-26.31l114.08 362.41z" />
							<path id="&lt;Path&gt;" class="s34" d="m684.65 671.04l-42.42 13.35l-114.08-362.41l42.42-13.35l114.08 362.41z" />
						</g>
						<path id="&lt;Path&gt;" class="s32" d="m573.39 309.58c3.91 12.4-12.2 28.52-35.97 36c-23.77 7.48-46.2 3.49-50.11-8.91c-3.9-12.4 12.2-28.52 35.97-36c23.77-7.48 46.2-3.49 50.11 8.91z" />
						<path id="&lt;Path&gt;" class="s35" d="m535.43 346.13l-8.11-27.89c26.3-6.45 41.65-6.66 46.05-0.61c-3.64 11.66-16.29 21.16-37.94 28.51z" />
					</g>
					<g id="&lt;Group&gt;">
						<g id="&lt;Group&gt;">
							<path id="&lt;Path&gt;" class="s36" d="m850.04 512.45c-0.09 0.67-0.2 1.34-0.35 2.01l-26.64 119.28c-2.79 12.51-15.2 20.38-27.7 17.59l-97.98-21.88c-12.51-2.79-20.38-15.2-17.59-27.7l26.64-119.28c0.24-1.09 0.56-2.14 0.95-3.15c10.24-3.86 22.16-3.25 32.89-2.73c14.01 0.68 26.22 5.51 39.09 10.72c6.39 2.59 12.86 5.02 19.57 6.6c7.47 1.75 14.93 3.37 22.23 5.74c10.09 3.27 19.01 9.38 28.89 12.81z" />
							<path id="&lt;Path&gt;" class="s37" d="m850.52 513.24c-2.69 12.06-36.95 14.67-76.51 5.84c-39.56-8.84-69.45-25.78-66.76-37.84c2.69-12.06 36.95-14.67 76.51-5.84c39.56 8.84 69.45 25.77 66.76 37.84z" />
						</g>
						<g id="&lt;Group&gt;">
							<path id="&lt;Path&gt;" class="s38" d="m869.93 424.73c-2.99 4.35-5.57 9.15-8.26 13.7c-5.84 9.86-11.03 19.98-17.78 29.29c-6.67 9.2-14.25 17.7-21.84 26.15c-7.1 7.9-14.69 15.41-23.68 21.15c-7.55 4.83-15.55-3.25-12.44-10.98c0.22-0.56 0.46-1.11 0.69-1.66c-1.79-1.26-3.03-3.32-3.09-6.24c-0.26-12.79 1.6-27.3 6.14-39.29c4.87-12.86 13.89-24.16 22.87-34.42c14.25-16.27 34.67-27.69 56.74-21.89c3.45 0.91 7.1 3.86 6.96 7.84c-0.22 6.46-2.72 11.13-6.31 16.36z" />
							<path id="&lt;Path&gt;" class="s39" d="m876.24 408.37c-0.22 6.46-2.72 11.13-6.31 16.36c-2.99 4.35-5.57 9.15-8.26 13.7c-5.84 9.86-11.03 19.98-17.78 29.29c-6.67 9.2-14.25 17.7-21.84 26.15c-7.1 7.9-14.69 15.41-23.68 21.15c-5.84 3.73-11.94-0.25-12.97-5.81c0.01-0.03 0.03-0.05 0.04-0.08c3.59-7.17 7.27-14.29 10.96-21.41c7.66-14.77 16.26-28.57 26.01-42.05c13-17.99 29.01-38.27 51.97-42.08c1.17 1.3 1.93 2.93 1.86 4.77z" />
						</g>
						<g id="&lt;Group&gt;">
							<path id="&lt;Path&gt;" class="s38" d="m818.83 396.01c-1.1 5.16-1.65 10.59-2.4 15.82c-1.62 11.35-2.55 22.68-5.23 33.86c-2.65 11.06-6.4 21.8-10.19 32.51c-3.54 10.01-7.69 19.86-13.8 28.6c-5.13 7.35-15.61 2.95-15.7-5.39c-0.01-0.6 0.01-1.21 0.01-1.81c-2.13-0.47-4.07-1.9-5.24-4.58c-5.13-11.71-8.96-25.84-9.35-38.66c-0.42-13.75 3.6-27.64 7.98-40.55c6.94-20.48 21.46-38.85 44.06-41.92c3.53-0.48 8.03 0.86 9.43 4.58c2.26 6.05 1.74 11.33 0.42 17.53z" />
							<path id="&lt;Path&gt;" class="s39" d="m818.41 378.49c2.26 6.05 1.74 11.33 0.42 17.53c-1.1 5.16-1.65 10.59-2.4 15.82c-1.62 11.35-2.55 22.68-5.23 33.86c-2.65 11.06-6.4 21.8-10.19 32.51c-3.54 10.01-7.69 19.86-13.8 28.6c-3.97 5.68-11.13 4.34-14.21-0.41c0-0.03 0.01-0.06 0.01-0.09c0.58-8 1.25-15.98 1.94-23.97c1.43-16.57 4.1-32.62 7.95-48.8c5.14-21.59 12.18-46.45 31.94-58.75c1.58 0.76 2.9 1.97 3.55 3.7z" />
						</g>
						<g id="&lt;Group&gt;">
							<path id="&lt;Path&gt;" class="s38" d="m698.65 385.78c0.6-3.93 4.73-6.16 8.28-6.42c22.76-1.64 40.73 13.35 51.74 31.97c6.94 11.74 13.73 24.51 16.14 38.05c2.26 12.62 1.41 27.23-1.2 39.75c-0.6 2.86-2.2 4.66-4.19 5.56c0.13 0.59 0.26 1.17 0.38 1.76c1.63 8.17-7.72 14.64-14.25 8.5c-7.78-7.3-13.86-16.08-19.38-25.15c-5.91-9.7-11.79-19.44-16.66-29.72c-4.92-10.39-8.15-21.29-12.08-32.06c-1.81-4.97-3.46-10.16-5.6-14.99c-2.56-5.79-4.16-10.85-3.19-17.24z" />
							<path id="&lt;Path&gt;" class="s39" d="m701.36 381.43c21.87 7.97 33.87 30.85 43.34 50.93c7.1 15.05 13.01 30.2 17.82 46.12c2.31 7.67 4.62 15.35 6.83 23.06c0 0.03 0.02 0.06 0.03 0.09c-2.05 5.28-8.77 8.07-13.82 3.32c-7.78-7.3-13.86-16.08-19.38-25.15c-5.91-9.7-11.79-19.44-16.66-29.72c-4.92-10.39-8.15-21.29-12.08-32.06c-1.81-4.97-3.46-10.16-5.6-14.99c-2.56-5.79-4.16-10.85-3.19-17.24c0.28-1.83 1.32-3.28 2.71-4.35z" />
						</g>
					</g>
					<g id="&lt;Group&gt;">
						<g id="&lt;Group&gt;">
							<path id="&lt;Path&gt;" class="s40" d="m863.09 304.41c0 30.28-23.67 54.83-52.87 54.83c-29.2 0-52.86-24.55-52.86-54.83c0-30.28 23.67-54.83 52.86-54.83c29.2 0 52.87 24.55 52.87 54.83z" />
							<path id="&lt;Path&gt;" class="s41" d="m773.58 381.37l-111.14-119.01l53.11-85.08l150.48 64.91l-92.45 139.17z" />
						</g>
						<path id="&lt;Path&gt;" class="s41" d="m592.18 520.17l-29.21-17.17l154.45-262.75l29.21 17.17l-154.45 262.75z" />
						<path id="&lt;Path&gt;" class="s41" d="m709.52 771.7l-31.37 12.8l-115.13-282.2l31.37-12.8l115.13 282.2z" />
					</g>
					<g id="&lt;Group&gt;">
						<path id="&lt;Path&gt;" class="s42" d="m864.9 921.74h-363.75v-374.2h363.75v374.2z" />
						<path id="&lt;Path&gt;" class="s43" d="m1069.98 921.74h-221.32v-374.2h221.32v374.2z" />
						<path id="&lt;Path&gt;" class="s44" d="m1071.13 547.71l26.42 142.76l-226.41 2.21l-23.42-146.44l223.41 1.47z" />
						<path id="&lt;Path&gt;" class="s45" d="m855.27 546.91l-132.74 124.73l-359.92-7.73l140.39-120.32l352.26 3.31z" />
					</g>
				</g>
				<g id="&lt;Group&gt;">
					<g id="&lt;Group&gt;">
						<path id="&lt;Path&gt;" class="s18" d="m684.75 788.19c-14.75 5.3-26.36-6.67-38.65-10.03c-7.34-2.01-15.17-1.49-23.17-0.27c0.2 0.63 0.38 1.27 0.51 1.9c8.62-0.19 17.21 0.73 24.48 2.07c13.63 2.5 26.07 12.34 28.23 24.92c0.67 3.8-5.08 6.52-8.13 4.63c-10.16-6.26-17.09-13.05-30.56-14.53c-5.4-0.6-11.07-0.28-16.73 0.04c-0.61 1.33-1.28 2.66-2.03 3.99c17.15 0.61 33.86 8.17 41.28 19.8c1.8 2.82-1.83 7.05-5.53 6.28c-4.15-0.89-7.17-2.71-10.67-4.65c-4.6-2.57-10.47-4.1-15.86-5.28c-6.77-1.47-13.82-1.25-20.88-1.07c-0.05 0.06-0.11 0.11-0.18 0.18c11.21 4.62 20.24 13.24 22.96 23.16c0.74 2.78-3.18 5.72-5.96 4.34c-3.09-1.55-5.07-3.7-7.41-6.06c-3.05-3.09-7.38-5.53-11.4-7.6c-3.43-1.74-7.15-2.84-10.99-3.73c-3.81 2.32-7.63 4.08-11.27 5.04c-14.36 3.8-25.11-0.36-37.94-3.06c-6.59-1.39-13.88-3.61-19.72-7.08c-2.23-15.48-5.11-30.85-9.11-45.98c1.65 0.16 3.3 0.34 4.93 0.49c5.22 0.49 11.56 1.03 17.96 1.98c7.63-2.83 15.69-4.62 22.07-6.18c12.32-2.98 33.08-8.93 46.6-6.3c13.35-2.45 26.71-4.52 39.82-3.67c14.74 0.96 29.02 13 39.65 20.37c2.48 1.73 0.43 5.33-2.31 6.3z" />
					</g>
					<g id="&lt;Group&gt;">
						<path id="&lt;Path&gt;" class="s46" d="m562.41 734.68l2.45 99.69c-159.62 72.01-275.02 28.69-346.21-129.97c-44.6-99.39-39.58-169.68-17.94-218.12c0.21-0.18 0.41-0.39 0.6-0.64c7.11-9.56 13.36-20.03 22.54-27.81c10.91-9.24 26-8.51 38.49-3.34c23.06 9.53 36.43 33.92 45.73 55.59c9.69 22.58 16.09 46.64 22.52 70.38c0.51 8.54 0.88 17.23 1.04 26.11c1.47 80.93 78.4 123.63 230.79 128.12z" />
					</g>
				</g>
				<path id="&lt;Path&gt;" class="s16" d="m372.67 197c1.92 7.31 2.19 15.17-1.16 21.45c-3.94 7.4-10 10.87-16.8 11.6c-1 10.34-7.44 20.72-14.74 27.72c-6.2 5.94-13.69 9.27-22.3 9.25c-1.8 0-3.6-0.19-5.38-0.51c-0.39 12.92-3.58 25.91-12.56 35.39c-9.59 10.13-22.54 13.58-35.72 13.16c0.49 3.21 0.75 6.38 0.91 9.24c0.58 10.4-0.52 21.55-8.2 29.51c-9.72 10.08-22.1 10.75-33.53 6.47c-1.08 5.43-2.56 10.76-4.59 15.86c-2.94 7.39-6.25 14.83-11.76 20.71c-3.63 3.87-8.58 7.28-10.9 11.76c-3.57 6.9-13.74 6.25-17.48 0c-11.15-18.63-7.13-42.38 2.47-60.77c2.35-4.51 5.19-9.01 8.45-13.26c-3.98-6.15-6.75-12.96-6.83-20.29c-0.14-12 4.32-21.97 12.95-30.28c12.28-11.83 30.61-17.61 48.09-17.45c-2.52-11.97-1.56-24.78 4.01-35.59c4.13-8.01 10.35-15.57 19.17-18.6c1.88-0.64 3.77-1.12 5.66-1.44c-0.04-0.37-0.08-0.74-0.09-1.11c-0.3-8.65 2.9-15.84 9.26-21.7c5.93-5.46 13.63-8.71 21.67-9.85c-0.12-2.06 0.09-4.25 0.7-6.58c2.59-9.81 13.77-14.89 22.71-16.99c23.34-5.49 48.52 6.84 51.78 31.98c0.67 5.17-2.11 8.72-5.81 10.3z" />
			</g>
		</g>
		<text id="Resgination" style="transform: matrix(1,0,0,1,980,1839)" >
			<tspan x="0" y="0" class="t47">R</tspan><tspan  y="0" class="t47">e</tspan><tspan  y="0" class="t47">s</tspan><tspan  y="0" class="t47">g</tspan><tspan  y="0" class="t47">i</tspan><tspan  y="0" class="t47">n</tspan><tspan  y="0" class="t47">a</tspan><tspan  y="0" class="t47">t</tspan><tspan  y="0" class="t47">i</tspan><tspan  y="0" class="t47">o</tspan><tspan  y="0" class="t47">n
</tspan>
		</text>
	</g>
</svg>