<svg version="1.2" baseProfile="tiny-ps" xmlns="http://www.w3.org/2000/svg" viewBox="0 0 2500 2500" width="171" height="171">
	<title>e8e75d1fc9280666e6e79d946a3aedc4-ai</title>
	<defs>
		<clipPath clipPathUnits="userSpaceOnUse" id="cp1">
			<path d="m654.34 829.53l239.8 56.84l260.04-36.59l-21.02 342.57l-225.79 43.6l-246.03-77.08l-7.01-329.34z" />
		</clipPath>
	</defs>
	<style>
		tspan { white-space:pre }
		.s0 { fill: #7e8481 } 
		.s1 { fill: #009bba } 
		.s2 { fill: #a3e6f8 } 
		.s3 { fill: #fdffff } 
		.t4 { font-size: 86px;fill: #e33f50;font-weight: 400;font-family: "YesevaOne-Regular", "Yeseva One" } 
		.s5 { fill: #e33f50 } 
		.s6 { fill: #ec9079 } 
		.s7 { fill: #e63b2f } 
		.s8 { fill: #2f3430 } 
		.s9 { fill: #5c5d62 } 
		.s10 { fill: #2d332f } 
		.s11 { fill: #fbbca0 } 
		.s12 { fill: #292929 } 
		.s13 { fill: #3f3f3f } 
		.s14 { fill: #ffffff } 
		.s15 { fill: #d1f0f8 } 
		.s16 { fill: #1767b5 } 
		.s17 { fill: #757b9a } 
		.s18 { fill: #059899 } 
		.s19 { fill: #d6d8e6 } 
		.s20 { fill: #fb5f8a } 
		.s21 { fill: #bb385e } 
		.s22 { fill: #e7eafd } 
		.s23 { fill: #42c3d3 } 
		.s24 { fill: #d0eff7 } 
		.s25 { fill: #66b3e3 } 
		.s26 { fill: #ede8f3 } 
		.s27 { fill: #cbcecf } 
		.s28 { fill: #587f8f } 
		.s29 { fill: #f7ae3e } 
		.s30 { fill: #eece91 } 
		.s31 { fill: #955a3c } 
		.s32 { fill: #3e4344 } 
		.s33 { fill: #21354a } 
		.s34 { fill: #4f4d52 } 
		.s35 { fill: #3b4442 } 
		.s36 { fill: #f3b994 } 
		.s37 { fill: #160539 } 
		.s38 { fill: #ff7d6f } 
		.s39 { fill: #fc5b68 } 
		.s40 { fill: #a3193a } 
		.s41 { fill: #ff8e8e } 
		.s42 { fill: #382a29 } 
		.s43 { fill: #300600 } 
		.s44 { fill: #95a4cd } 
		.s45 { fill: #3b9971 } 
		.s46 { fill: #6bb893 } 
		.s47 { fill: #9ca4c7 } 
		.s48 { fill: #aeb6d3 } 
		.s49 { fill: #6571b7 } 
		.s50 { fill: #be2400 } 
		.s51 { fill: #58595f } 
		.s52 { fill: #ba8328 } 
		.s53 { fill: #d39530 } 
		.s54 { fill: #eea735 } 
		.s55 { fill: #ced3d3 } 
		.t56 { font-size: 53px;fill: #be2400;font-weight: 400;font-family: "YesevaOne-Regular", "Yeseva One" } 
		.s57 { fill: #165567 } 
		.s58 { fill: #051223 } 
	</style>
	<g id="图层 1">
		<g id="&lt;Group&gt;">
			<g id="&lt;Group&gt;">
				<path id="&lt;Path&gt;" class="s0" d="m965.47 432.2c-9.18 21.52-23.02 41.27-38.69 58.56c-0.31 0.35-0.63 0.65-0.96 0.94c-5.66-0.17-11.08-2.02-16.64-3.05c-6.86-1.27-13.96-1.26-20.87-2.21c-6.13-0.84-12.23-1.54-18.39-2.17c-5.14-0.52-9.73-2.76-14.71-3.7c-0.27-2.66 0.48-5.48 2.72-8c9.46-10.64 17.05-23 25.94-34.15c3.76-4.71 7.51-9.47 10.67-14.69c0.81-1.34 1.63-2.69 2.32-4.1c0.01-0.03 0.11-0.26 0.23-0.56c-0.03-0.01-0.04-0.01-0.07-0.02c-0.85-0.28-1.7-0.55-2.57-0.78c-2.22-0.59-4.46-1.09-6.73-1.46c-0.47-0.08-0.95-0.15-1.42-0.22c-0.12-0.01-0.45-0.05-1-0.12c-1.07-0.11-2.14-0.22-3.21-0.29c-5.1-0.35-10.27-0.46-15.36 0.13c-0.26 0.03-0.42 0.04-0.52 0.05c-0.19 0.05-0.5 0.12-1 0.23c-0.76 0.16-1.51 0.32-2.25 0.54c-0.34 0.1-0.58 0.17-0.75 0.21c-0.68 0.41-1.44 1.09-0.18 0.04c-0.02 0-0.06 0.01-0.07 0.01c-4.3 3.1-9.99 3.41-14.03-0.63c-3.58-1.33-6.41-4.46-6.41-9.42c-0.02-18.12-0.38-36.59 6-53.72c-0.16-4.81 3.17-8.59 7.71-10.41c1.5-0.6 3.01-1.18 4.54-1.69c18.64-6.21 39.16-7.51 58.5-4.39c18.88 3.04 38.48 11.88 48.57 28.95c12.29 20.78 7.6 45.08-1.38 66.12z" />
				<path id="&lt;Path&gt;" class="s0" d="m926.77 532.5c0 19.33-15.67 35-35 35c-19.33 0-35-15.67-35-35c0-19.33 15.67-35 35-35c19.33 0 35 15.67 35 35z" />
			</g>
			<g id="&lt;Group&gt;">
				<path id="&lt;Path&gt;" class="s0" d="m608.59 463.13c-1.98 23.31-8.93 46.4-18.39 67.73c-0.19 0.43-0.4 0.82-0.62 1.19c-5.43 1.61-11.16 1.55-16.75 2.32c-6.91 0.94-13.66 3.18-20.51 4.44c-6.09 1.12-12.1 2.37-18.15 3.71c-5.04 1.12-10.11 0.43-15.13 1.1c-1.09-2.44-1.26-5.35 0.08-8.46c5.65-13.07 8.98-27.18 13.93-40.55c2.09-5.65 4.16-11.34 5.53-17.29c0.35-1.53 0.7-3.07 0.92-4.62c0.01-0.03 0.02-0.28 0.04-0.61c-0.03 0-0.05 0-0.07 0c-0.89 0-1.79 0.01-2.68 0.06c-2.29 0.13-4.58 0.36-6.84 0.72c-0.47 0.07-0.94 0.16-1.42 0.24c-0.12 0.03-0.44 0.09-0.99 0.2c-1.05 0.23-2.1 0.46-3.14 0.73c-4.95 1.26-9.9 2.78-14.55 4.93c-0.24 0.11-0.38 0.17-0.47 0.21c-0.17 0.1-0.44 0.27-0.88 0.53c-0.67 0.39-1.34 0.78-1.97 1.22c-0.29 0.2-0.5 0.34-0.65 0.44c-0.52 0.61-1.03 1.49-0.16 0.09c-0.02 0.01-0.05 0.03-0.07 0.04c-3.11 4.3-8.42 6.37-13.53 3.79c-3.81-0.14-7.48-2.23-9.04-6.94c-5.69-17.2-11.82-34.63-11.14-52.89c-1.66-4.51 0.32-9.15 4.06-12.3c1.24-1.04 2.49-2.06 3.78-3.03c15.75-11.73 34.83-19.4 54.18-22.5c18.88-3.02 40.26-0.77 55.2 12.27c18.18 15.88 21.34 40.43 19.4 63.23z" />
				<path id="&lt;Path&gt;" class="s0" d="m603.27 570.5c6.06 18.36-3.92 38.15-22.27 44.2c-18.36 6.06-38.15-3.92-44.2-22.27c-6.06-18.36 3.92-38.15 22.27-44.2c18.36-6.06 38.15 3.92 44.2 22.27z" />
			</g>
			<g id="&lt;Group&gt;">
				<path id="&lt;Path&gt;" class="s0" d="m362.64 571.1c-1.98 23.31-8.93 46.4-18.39 67.73c-0.19 0.43-0.4 0.82-0.62 1.19c-5.43 1.61-11.16 1.55-16.75 2.32c-6.91 0.94-13.65 3.18-20.51 4.44c-6.09 1.12-12.1 2.37-18.15 3.71c-5.04 1.12-10.11 0.43-15.12 1.1c-1.09-2.44-1.26-5.35 0.08-8.46c5.65-13.06 8.98-27.18 13.93-40.55c2.09-5.65 4.16-11.34 5.53-17.29c0.35-1.53 0.7-3.07 0.92-4.62c0.01-0.03 0.02-0.28 0.04-0.61c-0.03 0-0.05 0-0.07 0c-0.89 0-1.79 0.01-2.68 0.06c-2.29 0.13-4.58 0.36-6.84 0.72c-0.47 0.07-0.94 0.16-1.42 0.24c-0.12 0.03-0.44 0.09-0.99 0.2c-1.05 0.23-2.1 0.46-3.14 0.73c-4.95 1.26-9.9 2.78-14.55 4.93c-0.24 0.11-0.38 0.17-0.47 0.21c-0.17 0.1-0.44 0.27-0.88 0.53c-0.67 0.39-1.34 0.78-1.97 1.22c-0.29 0.2-0.5 0.34-0.65 0.44c-0.51 0.61-1.03 1.49-0.16 0.09c-0.02 0.01-0.05 0.03-0.07 0.04c-3.11 4.3-8.42 6.37-13.53 3.79c-3.81-0.14-7.48-2.23-9.04-6.94c-5.69-17.2-11.82-34.63-11.14-52.89c-1.66-4.51 0.32-9.15 4.06-12.3c1.24-1.04 2.49-2.06 3.78-3.03c15.75-11.73 34.83-19.4 54.18-22.5c18.88-3.02 40.26-0.77 55.2 12.27c18.18 15.88 21.34 40.43 19.4 63.23z" />
				<path id="&lt;Path&gt;" class="s0" d="m357.32 678.48c6.06 18.36-3.92 38.15-22.27 44.2c-18.36 6.06-38.15-3.92-44.2-22.27c-6.06-18.36 3.92-38.15 22.27-44.2c18.36-6.06 38.15 3.92 44.2 22.27z" />
			</g>
			<path id="&lt;Path&gt;" class="s1" d="m2498.43 2500h-2498.43v-348h2498.43v348z" />
			<g id="&lt;Group&gt;">
				<g id="&lt;Group&gt;">
					<path id="&lt;Path&gt;" class="s2" d="m2054.4 1656.28h-983.96v-1237.63h983.96v1237.63z" />
					<path id="&lt;Path&gt;" class="s3" d="m1972.4 574.95h-799.46v-84.56h799.46v84.56z" />
					<path id="&lt;Path&gt;" class="s3" d="m1908.34 664.63h-707.22v-23.06h707.22v23.06z" />
					<path id="&lt;Path&gt;" class="s3" d="m2015.96 736.38h-922.46v-23.06h922.46v23.06z" />
					<path id="&lt;Path&gt;" class="s3" d="m2015.96 808.13h-922.46v-23.06h922.46v23.06z" />
					<path id="&lt;Path&gt;" class="s3" d="m2015.96 879.87h-922.46v-23.06h922.46v23.06z" />
					<path id="&lt;Path&gt;" class="s3" d="m2015.96 951.62h-922.46v-23.06h922.46v23.06z" />
					<path id="&lt;Path&gt;" class="s3" d="m2015.96 1023.37h-922.46v-23.06h922.46v23.06z" />
					<path id="&lt;Path&gt;" class="s3" d="m1859.66 1095.11h-609.85v-23.06h609.85v23.06z" />
					<path id="&lt;Path&gt;" class="s3" d="m2015.96 1166.86h-922.46v-23.06h922.46v23.06z" />
					<path id="&lt;Path&gt;" class="s3" d="m2015.96 1238.61h-922.46v-23.06h922.46v23.06z" />
					<path id="&lt;Path&gt;" class="s3" d="m2015.96 1310.36h-922.46v-23.06h922.46v23.06z" />
					<path id="&lt;Path&gt;" class="s3" d="m2015.96 1382.1h-922.46v-23.06h922.46v23.06z" />
					<path id="&lt;Path&gt;" class="s3" d="m2015.96 1453.85h-922.46v-23.06h922.46v23.06z" />
				</g>
				<g id="&lt;Group&gt;">
					<text id="TERMINATE" style="transform: matrix(.912,-0.411,.411,.912,1325.352,1227.841)" >
						<tspan x="0" y="0" class="t4">T</tspan><tspan  y="0" class="t4">E</tspan><tspan  y="0" class="t4">R</tspan><tspan  y="0" class="t4">M</tspan><tspan  y="0" class="t4">I</tspan><tspan  y="0" class="t4">N</tspan><tspan  y="0" class="t4">A</tspan><tspan  y="0" class="t4">T</tspan><tspan  y="0" class="t4">E
</tspan>
					</text>
					<path id="&lt;Compound Path&gt;" fill-rule="evenodd" class="s5" d="m1743.59 833.85l112.12 248.59l-527.5 237.91l-112.12-248.59l527.5-237.91zm-12.94 31.38l-482.47 217.6l92.98 206.15l482.47-217.6l-92.98-206.15z" />
				</g>
			</g>
			<g id="&lt;Group&gt;">
				<g id="&lt;Group&gt;">
					<path id="&lt;Compound Path&gt;" fill-rule="evenodd" class="s6" d="m1643.6 555.54c-1.98-1.53-3.93-3.08-5.89-4.64c-9.34-7.44-13.59-19.43-6.65-30.28c0.11-0.17 0.24-0.33 0.36-0.5c-3.1-4.08-5.33-8.83-6.29-14.17c-2.13-11.8 1.32-23.46 6.21-34.09c2.62-5.71 5.38-11.32 8.2-16.93c0.31-0.62 0.95-1.96 1.49-3.09c0.84-1.96 1.59-3.94 2.22-5.98c5.48-17.66 9.88-35.65 14.29-53.6c1.9-7.75 3.88-15.49 5.78-23.24c1.51-6.16 2.25-12.44 4.12-18.52c2.93-9.55 8.43-17.71 17-22.96c5.65-3.46 11.72-3.82 18.15-4.24c10.35-0.66 20.93 0.56 31.24 1.44c11.94 1.02 23.62 1.98 35.28 5.06c18.07 4.78 34.89 13.1 53.31 16.67c0.08 0.02 3.75 0.68 4.21 0.78c1.22 0.2 2.44 0.4 3.66 0.59c0.78-0.33 1.58-0.64 2.39-0.93c9.18-3.2 19.01-1.49 28.21 0.5c1.62 0.35 3.24 0.75 4.86 1.13c0.75 0.18 1.5 0.34 2.25 0.5c0.1 0.01 0.19 0.02 0.3 0.04c3.41 0.43 6.48 1.21 9.76 2.02c0.6 0.15 5.97 1.22 5.86 1.27c16.56 2.68 33.56 2.76 50.26 4.02c20.67 1.56 42.56 1.94 63.32 6.1c8.72-1.17 17.94 0.05 26.23 1.87c7.11 1.56 14.52 4.42 21.18 8.36c0.7-7.39 5.19-14.47 11.9-17.9c10.97-5.59 23.61-0.86 29.5 9.54c10.23 18.07 8.24 38.46 8.61 58.37c0.04 2.23 0.22 4.46 0.29 6.69c0.05 1.15 0.11 2.31 0.19 3.46c0 0.05 0.01 0.08 0.01 0.13c0.52 5.2 1.26 10.38 1.9 15.57c1.38 11.16 2.8 22.62 1.45 33.85c-0.8 6.64-3.89 12.58-8.66 16.45c-2.26 9.92-11.69 18.33-22.27 17.3c-21.74-2.12-43.62 1.2-65.33-1.51c-5.92-0.74-11.81-1.86-17.68-2.87c-0.1-0.02-0.17-0.03-0.26-0.04c-0.91-0.15-1.83-0.3-2.74-0.45c-2.29-0.37-4.59-0.68-6.89-0.97c-4.63-0.58-9.28-0.82-13.94-0.74c-0.61 0.03-1.06 0.06-1.36 0.07c-0.65 0.08-1.29 0.15-1.94 0.26c-2.26 0.33-4.49 0.89-6.7 1.48c-32.43 47.17-76.71 89.52-135.29 98.28c-31.33 4.69-63.21 1.99-93.09-8.63c-28.84-10.24-54.95-26.87-79.03-45.49zm319.97-153.21c-0.29-0.02-0.58-0.05-0.87-0.07c-0.17 0.41-0.32 0.82-0.51 1.2c0.46-0.39 0.92-0.77 1.38-1.13z" />
					<path id="&lt;Compound Path&gt;" fill-rule="evenodd" class="s6" d="m1639.89 538.68c-1.98-1.53-3.93-3.08-5.89-4.64c-9.34-7.44-13.59-19.43-6.65-30.28c0.11-0.17 0.24-0.33 0.36-0.5c-3.1-4.08-5.33-8.83-6.29-14.17c-2.13-11.8 1.32-23.46 6.21-34.1c2.62-5.71 5.38-11.32 8.2-16.93c0.31-0.62 0.95-1.96 1.49-3.09c0.84-1.96 1.59-3.94 2.23-5.98c5.48-17.66 9.88-35.65 14.29-53.6c1.9-7.75 3.88-15.49 5.78-23.24c1.51-6.16 2.25-12.44 4.12-18.53c2.92-9.55 8.43-17.71 17-22.96c5.65-3.46 11.72-3.82 18.14-4.24c10.35-0.66 20.93 0.56 31.24 1.44c11.93 1.01 23.62 1.98 35.28 5.06c18.07 4.78 34.89 13.1 53.31 16.67c0.08 0.02 3.75 0.68 4.22 0.78c1.22 0.2 2.44 0.4 3.66 0.59c0.78-0.33 1.58-0.64 2.39-0.93c9.18-3.2 19.01-1.49 28.21 0.5c1.62 0.35 3.24 0.75 4.86 1.13c0.75 0.18 1.5 0.33 2.25 0.5c0.1 0.01 0.19 0.02 0.3 0.04c3.41 0.43 6.48 1.21 9.76 2.02c0.6 0.15 5.97 1.23 5.86 1.27c16.56 2.68 33.56 2.76 50.26 4.02c20.67 1.56 42.56 1.94 63.32 6.09c8.72-1.17 17.94 0.05 26.23 1.87c7.11 1.56 14.52 4.42 21.18 8.37c0.7-7.39 5.19-14.47 11.9-17.9c10.97-5.59 23.61-0.86 29.5 9.54c10.23 18.07 8.24 38.46 8.62 58.37c0.04 2.23 0.22 4.46 0.29 6.69c0.05 1.15 0.11 2.31 0.2 3.46c0 0.05 0.01 0.08 0.01 0.13c0.52 5.2 1.26 10.38 1.9 15.57c1.38 11.16 2.8 22.62 1.45 33.85c-0.8 6.64-3.89 12.58-8.67 16.45c-2.26 9.92-11.69 18.33-22.27 17.3c-21.74-2.11-43.62 1.2-65.32-1.51c-5.92-0.74-11.81-1.86-17.68-2.87c-0.1-0.02-0.17-0.03-0.26-0.05c-0.91-0.15-1.83-0.3-2.74-0.45c-2.29-0.37-4.59-0.68-6.9-0.97c-4.63-0.58-9.28-0.82-13.94-0.74c-0.61 0.03-1.06 0.06-1.36 0.07c-0.64 0.08-1.29 0.15-1.94 0.26c-2.27 0.33-4.49 0.89-6.7 1.48c-32.43 47.17-76.71 89.52-135.29 98.28c-31.33 4.69-63.2 1.99-93.09-8.63c-28.84-10.24-54.94-26.87-79.03-45.49zm319.97-153.2c-0.29-0.02-0.58-0.05-0.88-0.07c-0.16 0.4-0.32 0.81-0.51 1.2c0.46-0.39 0.92-0.77 1.38-1.13z" />
				</g>
				<g id="&lt;Group&gt;">
					<path id="&lt;Path&gt;" class="s7" d="m1726.95 866.48l-428.41-156.14l32.36-88.78l428.41 156.14l-32.36 88.78z" />
					<g id="&lt;Group&gt;">
						<path id="&lt;Path&gt;" class="s8" d="m1639.63 711.21l-167.24-60.95l184.91-507.35l167.24 60.95l-184.91 507.35z" />
						<path id="&lt;Path&gt;" class="s9" d="m1797.34 786.14c-16.08 44.13-64.89 66.86-109.02 50.78l-343.3-125.12c-44.13-16.08-66.86-64.89-50.78-109.02l3.91-10.72c16.08-44.13 64.89-66.86 109.02-50.78l343.3 125.12c44.13 16.08 66.86 64.89 50.78 109.02l-3.91 10.72z" />
						<path id="&lt;Path&gt;" class="s10" d="m1904.89 245.52c-11.03 30.27-44.51 45.86-74.78 34.83l-235.49-85.83c-30.27-11.03-45.86-44.51-34.83-74.78l2.68-7.35c11.03-30.27 44.51-45.86 74.78-34.83l235.49 85.83c30.27 11.03 45.86 44.51 34.83 74.78l-2.68 7.35z" />
						<path id="&lt;Path&gt;" class="s7" d="m1559.42 120.82c0.12-0.36 0.23-0.72 0.36-1.08l2.68-7.35c11.03-30.27 44.51-45.86 74.78-34.83l235.49 85.83c30.27 11.03 45.86 44.51 34.83 74.78l-2.68 7.35c-0.72 1.97-1.53 3.87-2.43 5.71c-72.07-26.28-143.56-54.22-215.11-81.86c-42.54-16.43-85.13-32.75-127.91-48.55z" />
					</g>
				</g>
				<g id="&lt;Group&gt;">
					<path id="&lt;Path&gt;" class="s11" d="m1791.93 384.9c-5.53-5.07-11-10.2-16.27-15.53c-8.03-6.54-15.58-13.62-22.02-21.62c-6.78-8.41-12.76-18.18-16.97-28.15c-3.69-8.74-4.98-17.51-4.93-26.84c-0.22-0.15-0.45-0.3-0.67-0.45c-2.64-1.77-5.3-3.52-8.01-5.19c-9.88-6.09-20.39-11.11-30.58-16.64c-10.2-5.54-19.7-12.08-29.23-18.68c-9.47-6.55-18.78-13.33-27.67-20.66c-15.97-13.15-30.74-27.47-39.19-46.69c-7.22-16.43-11.11-38.17-0.22-54.02c14.83-21.57 44.97-10.83 63.98-2.05c22.64 10.46 43.48 23.96 65.11 36.27c0.87 0.5 1.75 0.99 2.63 1.47c35.12-3.78 67.69 16.29 95.98 34.9c17.13 11.26 34.25 22.56 51.52 33.6c9.25 5.92 18.73 11.45 28.02 17.29c2.3 1.45 4.61 2.87 6.94 4.27c1.47 0.32 2.94 0.82 4.36 1.49c-4.62-2.17 0.6 0.05 1.78 0.44c1.74 0.57 3.51 1.01 5.29 1.42c0.95 0.22 1.91 0.41 2.87 0.61c0.1 0.02 0.2 0.04 0.29 0.06c0.07 0.01 0.13 0.02 0.21 0.03c2.42 0.38 4.85 0.65 7.29 0.88c4.12 0.38 8.25 0.5 12.38 0.41c0.97-0.02 1.93-0.08 2.89-0.13c0.01 0 0.02 0 0.03 0c0.04 0 0.07-0.01 0.11-0.01c1.87-0.21 3.73-0.55 5.56-1.01c6.56-1.63 12.66 2.16 15.3 7.66c3.47 2.63 5.47 6.97 5.74 11.7c1.44 25-0.13 50.03-0.54 75.03c-0.21 12.25-0.09 24.51 0.79 36.74c0.05 0.7 0.11 1.39 0.16 2.08c0.01 0.09 0.02 0.16 0.02 0.25c0.15 1.55 0.32 3.1 0.5 4.65c0.35 3.08 0.8 6.16 1.29 9.22c0.97 6.11 2.3 12.15 3.92 18.12c0.19 0.69 0.29 1.38 0.34 2.07c0.46 1.46 0.69 2.97 0.63 4.46c-0.31 7.97-6.82 12.86-14.29 13.19c-1.02 0.05-2.04 0.11-3.05 0.18c0.12 0.02-2.43 0.27-2.55 0.28c-2.53 0.31-5.05 0.71-7.57 1.11c-6.15 0.97-12.26 1.88-18.47 2.38c-10.25 0.83-20.86-0.27-30.97-1.96c-3.72-0.62-7.41-1.37-11.05-2.22c-2.6-0.51-5.16-1.18-7.69-1.98c-14.94-4.21-29.22-10.32-42.84-18.13c-19.04-10.91-35.05-25.55-51.12-40.3z" />
					<path id="&lt;Path&gt;" class="s11" d="m1795.38 373.75c-5.27-4.72-10.5-9.5-15.55-14.45c-7.64-6.13-14.84-12.72-21.06-20.11c-6.54-7.77-12.36-16.74-16.56-25.84c-3.68-7.97-5.13-15.91-5.36-24.3c-0.21-0.14-0.42-0.29-0.63-0.43c-2.5-1.68-5.02-3.32-7.58-4.91c-9.34-5.77-19.23-10.59-28.84-15.88c-9.62-5.28-18.62-11.45-27.65-17.67c-8.97-6.18-17.81-12.55-26.27-19.41c-15.2-12.31-29.31-25.62-37.71-43.17c-7.17-15-11.43-34.68-1.79-48.63c13.11-18.97 41.38-8.42 59.26 0.04c21.3 10.08 41.02 22.84 61.43 34.56c0.82 0.47 1.65 0.94 2.48 1.4c32.45-2.37 63.24 16.66 90.02 34.23c16.21 10.64 32.41 21.31 48.75 31.76c8.75 5.59 17.7 10.85 26.49 16.39c2.17 1.37 4.36 2.72 6.56 4.04c1.37 0.33 2.75 0.83 4.09 1.47c-4.34-2.09 0.56 0.06 1.67 0.45c1.63 0.56 3.28 1.01 4.94 1.44c0.89 0.23 1.79 0.43 2.68 0.63c0.1 0.02 0.19 0.04 0.27 0.06c0.06 0.01 0.12 0.02 0.19 0.03c2.25 0.42 4.52 0.73 6.79 1c3.83 0.46 7.67 0.69 11.49 0.73c0.89 0.01 1.79-0.01 2.68-0.03c0.01 0 0.02 0 0.02 0c0.03 0 0.06 0 0.1-0.01c1.73-0.13 3.44-0.39 5.12-0.74c6.04-1.28 11.8 2.31 14.41 7.34c3.29 2.47 5.27 6.44 5.67 10.7c2.07 22.54 1.35 45.02 1.7 67.51c0.17 11.02 0.64 22.06 1.82 33.09c0.07 0.63 0.14 1.25 0.21 1.88c0.01 0.07 0.02 0.14 0.03 0.22c0.18 1.4 0.39 2.8 0.6 4.2c0.42 2.79 0.92 5.57 1.46 8.34c1.09 5.53 2.49 11.01 4.17 16.42c0.19 0.63 0.31 1.25 0.38 1.87c0.47 1.33 0.73 2.69 0.71 4.03c-0.06 7.16-5.95 11.37-12.87 11.45c-0.94 0.01-1.88 0.04-2.82 0.07c0.11 0.02-2.24 0.17-2.36 0.18c-2.34 0.2-4.66 0.49-6.99 0.77c-5.67 0.69-11.31 1.33-17.05 1.6c-9.48 0.45-19.35-0.85-28.77-2.67c-3.47-0.67-6.91-1.45-10.31-2.33c-2.42-0.53-4.82-1.21-7.19-2.01c-13.97-4.23-27.39-10.15-40.25-17.58c-17.97-10.38-33.24-24.03-48.58-37.77z" />
				</g>
				<g id="&lt;Group&gt;">
					<path id="&lt;Path&gt;" class="s12" d="m2501.27 222.3l0.94 355.89l-565.03-13.05l-7.42-332.34l571.51-10.49z" />
					<path id="&lt;Path&gt;" class="s13" d="m2501.11 440.61c-110.04-9.82-172.16-16.14-282.43-22.68c-95.14-5.64-190.29-11.46-285.24-19.73l-3.69-165.41l571.51-10.49" />
					<path id="&lt;Path&gt;" class="s14" d="m2016.95 319.88c0 14.91-12.09 27-27 27c-14.91 0-27-12.09-27-27c0-14.91 12.09-27 27-27c14.91 0 27 12.09 27 27z" />
					<path id="&lt;Path&gt;" class="s14" d="m2121.79 316.7c0 14.91-12.09 27-27 27c-14.91 0-27-12.09-27-27c0-14.91 12.09-27 27-27c14.91 0 27 12.09 27 27z" />
				</g>
				<path id="&lt;Path&gt;" class="s11" d="m1663.12 279.44c0 20.3-23.68 36.75-52.88 36.75c-29.21 0-52.88-16.45-52.88-36.75c0-20.3 23.68-36.75 52.88-36.75c29.21 0 52.88 16.45 52.88 36.75z" />
				<path id="&lt;Path&gt;" class="s11" d="m1637.62 346.94c0 20.3-23.68 36.75-52.88 36.75c-29.21 0-52.88-16.45-52.88-36.75c0-20.3 23.68-36.75 52.88-36.75c29.21 0 52.88 16.45 52.88 36.75z" />
				<path id="&lt;Path&gt;" class="s11" d="m1613.62 415.94c0 20.3-23.68 36.75-52.88 36.75c-29.2 0-52.88-16.45-52.88-36.75c0-20.3 23.68-36.75 52.88-36.75c29.21 0 52.88 16.45 52.88 36.75z" />
				<path id="&lt;Path&gt;" class="s11" d="m1591.12 475.93c0 16.27-18.97 29.45-42.38 29.45c-23.41 0-42.38-13.19-42.38-29.45c0-16.27 18.97-29.45 42.38-29.45c23.41 0 42.38 13.19 42.38 29.45z" />
			</g>
			<g id="&lt;Group&gt;">
				<g id="&lt;Group&gt;">
					<path id="&lt;Path&gt;" class="s15" d="m1941.68 2064.15l-248.37 24.12l-34.14-351.48l248.37-24.12l34.14 351.48z" />
					<path id="&lt;Path&gt;" class="s14" d="m1921.18 2040.4l-212.33 20.62l-29.18-300.48l212.33-20.62l29.18 300.48z" />
					<path id="&lt;Path&gt;" class="s16" d="m1881.97 1994.96l-143.38 13.92l-19.71-202.91l143.38-13.93l19.71 202.91z" />
				</g>
				<g id="&lt;Group&gt;">
					<path id="&lt;Path&gt;" class="s17" d="m1971.54 2080.7l-57.97-10.41l58.46-325.59l57.97 10.41l-58.47 325.59z" />
					<path id="&lt;Path&gt;" class="s18" d="m1964.75 2079.48l-57.97-10.41l58.46-325.59l57.97 10.41l-58.46 325.59z" />
					<path id="&lt;Path&gt;" class="s17" d="m1983.17 1767.91l-20.22-3.63l0.68-3.79l20.22 3.63l-0.68 3.79z" />
					<path id="&lt;Path&gt;" class="s17" d="m1977.61 1798.92l-20.23-3.63l0.68-3.79l20.22 3.63l-0.68 3.79z" />
					<path id="&lt;Path&gt;" class="s17" d="m1972.04 1829.93l-20.22-3.63l0.68-3.79l20.22 3.63l-0.68 3.79z" />
					<path id="&lt;Path&gt;" class="s17" d="m1966.47 1860.94l-20.22-3.63l0.68-3.79l20.22 3.63l-0.68 3.79z" />
					<path id="&lt;Path&gt;" class="s17" d="m1960.9 1891.95l-20.22-3.63l0.68-3.79l20.22 3.63l-0.68 3.79z" />
					<path id="&lt;Path&gt;" class="s17" d="m1955.34 1922.96l-20.22-3.63l0.68-3.79l20.22 3.63l-0.68 3.79z" />
					<path id="&lt;Path&gt;" class="s17" d="m1949.77 1953.97l-20.22-3.63l0.68-3.79l20.22 3.63l-0.68 3.79z" />
					<path id="&lt;Path&gt;" class="s17" d="m1944.2 1984.97l-20.23-3.63l0.68-3.79l20.22 3.63l-0.68 3.79z" />
					<path id="&lt;Path&gt;" class="s17" d="m1938.63 2015.98l-20.22-3.63l0.68-3.79l20.22 3.63l-0.68 3.79z" />
					<path id="&lt;Path&gt;" class="s17" d="m1933.06 2046.99l-20.22-3.63l0.68-3.79l20.22 3.63l-0.68 3.79z" />
				</g>
				<g id="&lt;Group&gt;">
					<g id="&lt;Group&gt;">
						<path id="&lt;Path&gt;" class="s19" d="m1802.55 1816.92l27.72 12.1l-121.26 69l-27.56-15.41l121.1-65.69z" />
						<g id="&lt;Group&gt;">
							<path id="&lt;Path&gt;" class="s20" d="m1804.48 1816.87l-119.56 64.78l22.32 6.52l121.25-62.79l24.6 210.13l-127.17 59.1l-19.13-15.12l-26.91-200.17l118.61-63.58l5.98 1.13z" />
							<path id="&lt;Path&gt;" class="s21" d="m1798.5 1815.75l5.98 1.13l-85.12 46.12c-3.3 0.38-6.47 2.08-8.56 4.64l-25.88 14.02l22.32 6.52l0.6-0.31c0.18 8.26 1.07 16.5 2.19 24.7c2.36 17.34 4 34.73 5.93 52.12c1.97 17.78 4.04 35.56 6.15 53.33c2.94 24.73 6.07 49.42 9.11 74.14l-5.29 2.46l-19.13-15.12l-26.91-200.17l118.61-63.58z" />
						</g>
					</g>
					<path id="&lt;Path&gt;" class="s22" d="m1824.69 1882.31l5.54 46.21l-95.17 49.87l-5.74-47.83l95.37-48.25z" />
				</g>
				<g id="&lt;Group&gt;">
					<g id="&lt;Group&gt;">
						<path id="&lt;Path&gt;" class="s19" d="m1879.91 1856.94l27.72 12.1l-121.26 69l-27.56-15.41l121.1-65.69z" />
						<g id="&lt;Group&gt;">
							<path id="&lt;Path&gt;" class="s23" d="m1881.84 1856.89l-119.56 64.78l22.32 6.52l121.25-62.79l24.6 210.13l-127.17 59.1l-19.13-15.11l-26.91-200.17l118.61-63.58l5.98 1.13z" />
							<path id="&lt;Path&gt;" class="s24" d="m1875.87 1855.76l5.98 1.13l-85.12 46.12c-3.3 0.38-6.47 2.08-8.56 4.64l-25.88 14.02l22.32 6.52l0.6-0.31c0.18 8.26 1.07 16.5 2.19 24.7c2.36 17.34 4 34.73 5.93 52.12c1.97 17.78 4.04 35.56 6.15 53.33c2.94 24.72 6.07 49.42 9.11 74.14l-5.29 2.46l-19.13-15.11l-26.91-200.17l118.61-63.58z" />
						</g>
					</g>
					<path id="&lt;Path&gt;" class="s22" d="m1902.06 1922.33l5.54 46.21l-95.17 49.87l-5.74-47.83l95.37-48.25z" />
				</g>
				<g id="&lt;Group&gt;">
					<g id="&lt;Group&gt;">
						<path id="&lt;Path&gt;" class="s25" d="m2066.94 2103.82l-58.53-6.47l28.05-253.76l58.53 6.47l-28.05 253.76z" />
						<path id="&lt;Path&gt;" class="s25" d="m2066.94 2103.82l-29.7-3.28l28.05-253.76l29.7 3.28l-28.05 253.76z" />
					</g>
					<g id="&lt;Group&gt;">
						<path id="&lt;Path&gt;" class="s26" d="m2065.63 2103.68l-58.53-6.47l28.05-253.76l58.53 6.47l-28.05 253.76z" />
						<path id="&lt;Path&gt;" class="s27" d="m2065.63 2103.68l-29.7-3.28l28.05-253.76l29.7 3.28l-28.05 253.76z" />
					</g>
					<path id="&lt;Path&gt;" class="s25" d="m2095.15 1851.26c-0.96 8.68-15.23 14.23-31.88 12.39c-16.64-1.84-29.36-10.37-28.4-19.06c0.96-8.68 15.23-14.23 31.88-12.39c16.64 1.84 29.36 10.37 28.4 19.05z" />
					<path id="&lt;Path&gt;" class="s28" d="m2061.91 1863.45l2.57-19.35c17.92 3.16 27.42 7.19 28.48 12.1c-5.4 6.18-15.75 8.6-31.05 7.25z" />
				</g>
				<g id="&lt;Group&gt;">
					<g id="&lt;Group&gt;">
						<path id="&lt;Path&gt;" class="s25" d="m2208.33 2138.5l-58.53-6.47l28.05-253.76l58.53 6.47l-28.05 253.76z" />
						<path id="&lt;Path&gt;" class="s25" d="m2208.33 2138.5l-29.7-3.28l28.05-253.76l29.7 3.28l-28.05 253.76z" />
					</g>
					<g id="&lt;Group&gt;">
						<path id="&lt;Path&gt;" class="s26" d="m2207.01 2138.36l-58.53-6.47l28.05-253.76l58.53 6.47l-28.06 253.76z" />
						<path id="&lt;Path&gt;" class="s27" d="m2207.01 2138.36l-29.7-3.28l28.05-253.76l29.7 3.28l-28.06 253.76z" />
					</g>
					<path id="&lt;Path&gt;" class="s25" d="m2236.54 1885.94c-0.96 8.68-15.23 14.23-31.88 12.39c-16.64-1.84-29.36-10.37-28.4-19.06c0.96-8.68 15.23-14.23 31.88-12.39c16.64 1.84 29.36 10.37 28.4 19.05z" />
					<path id="&lt;Path&gt;" class="s28" d="m2203.3 1898.13l2.57-19.35c17.92 3.16 27.42 7.2 28.48 12.1c-5.4 6.18-15.75 8.6-31.05 7.25z" />
				</g>
				<g id="&lt;Group&gt;">
					<g id="&lt;Group&gt;">
						<path id="&lt;Path&gt;" class="s25" d="m2141.63 2042.47l-58.53-6.47l28.05-253.76l58.53 6.47l-28.05 253.76z" />
						<path id="&lt;Path&gt;" class="s25" d="m2141.63 2042.47l-29.7-3.28l28.05-253.76l29.7 3.28l-28.05 253.76z" />
					</g>
					<g id="&lt;Group&gt;">
						<path id="&lt;Path&gt;" class="s26" d="m2140.32 2042.32l-58.53-6.47l28.05-253.76l58.53 6.47l-28.06 253.76z" />
						<path id="&lt;Path&gt;" class="s27" d="m2140.32 2042.32l-29.7-3.28l28.05-253.76l29.7 3.28l-28.06 253.76z" />
					</g>
					<path id="&lt;Path&gt;" class="s25" d="m2169.85 1789.9c-0.96 8.68-15.23 14.23-31.88 12.39c-16.64-1.84-29.36-10.37-28.4-19.06c0.96-8.68 15.23-14.23 31.88-12.39c16.64 1.84 29.36 10.37 28.4 19.05z" />
					<path id="&lt;Path&gt;" class="s28" d="m2136.61 1802.09l2.57-19.35c17.92 3.16 27.42 7.19 28.48 12.1c-5.4 6.18-15.75 8.6-31.05 7.25z" />
				</g>
				<g id="&lt;Group&gt;">
					<path id="&lt;Path&gt;" class="s29" d="m2254.64 2434.88h-611.2v-416.89h611.2v416.89z" />
					<path id="&lt;Path&gt;" class="s30" d="m1894.66 2136.88h-216.67v-91.85h216.67v91.85z" />
				</g>
			</g>
			<g id="&lt;Group&gt;">
				<g id="&lt;Group&gt;">
					<g id="&lt;Group&gt;">
						<path id="&lt;Path&gt;" class="s31" d="m435.4 2364.89l-61.11-3.81l5.05-121.17l61.1 3.8l-5.04 121.17z" />
						<g id="&lt;Group&gt;">
							<path id="&lt;Path&gt;" class="s32" d="m450.68 2356.09l1.75 41.92c0.45 10.6-5.05 19.6-12.23 20.03l-147.01 8.9c-11.09 0.65-17.94-18.27-11.14-31.05c6.84-12.96 19.23-24.54 44.48-32.41c1.66-0.51 3.22-1.48 4.61-2.86c5.8-5.83 22.14-22.79 33.54-40.22c1.03-0.17 2.04-0.78 2.91-2.01c4.01-5.6 10.92-10.08 16.99-6.47c3.7 2.19 5.97 9.42 8.06 13.45c4.93 9.42 13.93 14.86 22.91 15.87c0.15 0.01 0.3 0.01 0.44 0.03c4.46 0.65 9.69 0.54 14.92-1.48c1.95-0.55 3.88-1.21 5.79-1.96c7.02-0.58 13.52 7.26 13.97 18.26z" />
						</g>
					</g>
					<g id="&lt;Group&gt;">
						<path id="&lt;Path&gt;" class="s31" d="m594.81 2243.72l61.1-3.8l5.06 121.17l-61.12 3.81l-5.05-121.17z" />
						<g id="&lt;Group&gt;">
							<path id="&lt;Path&gt;" class="s32" d="m598.54 2337.83c1.91 0.75 3.83 1.42 5.78 1.96c5.24 2.02 10.47 2.13 14.93 1.48c0.15-0.02 0.3-0.02 0.44-0.03c8.98-1.01 17.98-6.45 22.91-15.87c2.09-4.02 4.37-11.26 8.07-13.45c6.07-3.61 12.98 0.87 16.99 6.47c0.88 1.23 1.89 1.84 2.91 2.01c11.41 17.43 27.75 34.39 33.55 40.22c1.39 1.37 2.95 2.35 4.62 2.86c25.24 7.87 37.63 19.46 44.48 32.41c6.79 12.78-0.06 31.7-11.15 31.05l-147.01-8.9c-7.19-0.43-12.68-9.43-12.23-20.03l1.76-41.92c0.45-11.01 6.95-18.84 13.97-18.26z" />
						</g>
					</g>
					<path id="&lt;Path&gt;" class="s33" d="m391.72 1324.85c179.25-82.95 280.82-74.11 304.7 26.53c23.89 100.65 13.04 415.37-32.53 944.16h-80.59l-37.71-738.07l-92.39 732.68l-90.5-4.19l22.62-903.43l6.41-57.68z" />
				</g>
				<g id="&lt;Group&gt;">
					<g id="&lt;Group&gt;">
						<path id="&lt;Path&gt;" class="s31" d="m960.06 797.72c-3.55 12.55-17.28 14.61-25.5 21.31c-4.91 3.99-8.35 9.55-11.4 15.56c0.52 0.17 1.04 0.35 1.53 0.57c4.04-5.93 8.83-11.29 13.26-15.57c8.29-8.03 20.97-11.68 30.54-7.05c2.89 1.38 1.96 6.58-0.81 7.74c-9.15 3.85-17.1 5.25-24.63 13.65c-3.02 3.36-5.55 7.36-8.09 11.34c0.61 1.05 1.19 2.16 1.73 3.31c8.72-11.32 21.92-18.97 33.39-18.36c2.78 0.16 3.89 4.66 1.57 6.78c-2.61 2.38-5.3 3.55-8.31 4.97c-3.97 1.87-7.85 5.1-11.26 8.18c-4.27 3.88-7.53 8.75-10.83 13.62c0.01 0.07 0.02 0.13 0.03 0.21c8.55-5.36 18.77-7.29 26.8-4.33c2.24 0.84 2.33 4.92 0.05 6.13c-2.55 1.34-4.96 1.64-7.68 2.08c-3.57 0.58-7.32 2.32-10.67 4.05c-2.84 1.48-5.38 3.47-7.85 5.63c-0.27 3.71-0.94 7.15-2.05 10.07c-4.38 11.56-12.4 16.82-20.44 24.21c-4.13 3.8-9.16 7.64-14.33 9.93c-11.56-5.99-23.36-11.48-35.54-16.09c0.91-1.04 1.82-2.07 2.72-3.11c2.86-3.3 6.29-7.32 10.04-11.19c1.78-6.54 4.47-12.86 6.5-17.93c3.94-9.79 9.96-26.73 18.29-34.6c4.8-10.23 9.87-20.27 16.8-28.74c7.79-9.5 22.85-13.35 32.99-16.97c2.37-0.85 3.81 2.29 3.14 4.62z" />
					</g>
					<path id="&lt;Path&gt;" class="s34" d="m534.84 955.13c8.69-1.02 17.48-2.42 25.78-5.23c3.8-1.28 7.57-2.58 11.14-4.4c0.48-0.25 0.96-0.53 1.42-0.82c1.06-0.1 2.13-0.21 3.19-0.31c2.39-0.24 3.78-1.72 4.28-3.5c21.53 1.9 41.2 9.87 61.26 17.51c10.43 3.97 20.83 7.9 30.84 12.87c4.29 2.13 8.56 4.25 12.89 6.21c56.31 30.17 119.62-4.57 189.92-104.23l70.3 44.11c-23.37 143.85-106.46 204.03-249.28 180.53c-138.13-22.73-176.4-91.92-185.76-140.27c7.57 1.71 16.6-1.61 24-2.48z" />
				</g>
				<path id="&lt;Path&gt;" class="s31" d="m348.69 975.35c82.85-72.31 179.63-71.29 290.33 3.07c-0.08 5.38-0.22 10.76-0.34 16.13l-49.58 63.06l-73.33 40.29l-159.41-115.17l-9.86-2.54l2.2-4.83z" />
				<path id="&lt;Path&gt;" class="s35" d="m377.44 1290.18c-9.7-34.5-22.21-68.13-30.79-102.93c-4.23-17.12-7.78-34.42-11.13-51.73c-2.68-13.86-5.52-27.73-7.4-41.73c-0.31-39.62 2.3-78.92 15.48-116.46c0.56-1.59 1.24-3.03 1.98-4.4c0.36-0.34 0.73-0.68 1.09-1.01c26.82-18.05 57.27-30.74 88.75-37.97c0.05 0.11 0.09 0.22 0.14 0.33c2-1.02 4.48-1.05 7 0.65c12.15 8.2 22.75 18.33 34.59 26.91c9.42 6.82 19 13.59 28.61 20.21c0.13 0.13 0.27 0.24 0.44 0.3c0.06 0.04 0.11 0.08 0.17 0.12c0.02-0.03 0.05-0.06 0.07-0.08c0.22 0.03 0.44 0 0.68-0.13c11.95-6.77 22.38-16.52 33.54-24.5c7.38-5.28 14.28-11.48 21.55-17.07c1.73-0.43 3.54-0.57 5.56-0.17c5.17 1 10.31 3.99 14.96 7.17c21.81 8.73 42.15 20.17 61.39 33.42c3.92 9.1 6.79 18.75 8.89 28.63c5.12 24.08 9.74 48.37 12.59 72.84c9.19 40.41 14.17 82.57 14.45 123.93c0.29 43.29 11.96 79.1 6.43 121.73c-13.51 8.81-27.52 16.83-42.22 23.56c-14.56 6.67-29.91 11.68-45.74 14.25c-18.01 2.92-36.88 1.58-55.01 0.63c-17.94-0.94-35.84-2.47-53.78-3.51c-16.06-0.93-32.14 1.12-48.21 0.55c-16.68-0.59-30.75-5.43-44.55-14.64c-0.97-0.65-1.94-1.3-2.91-1.96c-5.66-18.93-11.26-37.88-16.61-56.93z" />
				<g id="&lt;Group&gt;">
					<g id="&lt;Group&gt;">
						<g id="&lt;Group&gt;">
							<path id="&lt;Path&gt;" class="s31" d="m535.2 919.65l2.03 26.18c-9.41 6.41-20.14 10.45-32.15 11.92c-8.72 1.06-26.29 2.43-34.45-4.26l-6.45-76.9c-15.5-2.29-23.66-11.18-24.47-26.67c-0.71-13.73 8.16-17.09 14.94-11.46c-0.27-26.47 20.37-48.7 47.06-50.13c18.75-1.01 35.63 8.52 44.9 23.41c0.31 0.12 0.55 0.21 0.73 0.27l0.95 2.66c2.2 4.14 3.84 8.64 4.81 13.4l0.89 2.47c14.01 50.26 7.75 79.97-18.79 89.12z" />
							<g id="&lt;Group&gt;">
								<g id="&lt;Group&gt;">
									<path id="&lt;Path&gt;" class="s36" d="m455.66 846.54c-5.53-0.54-10.22 4.8-9.34 10.18c0.17 1.04-1.47 1.12-1.63 0.09c-1.08-6.54 4.83-12.51 11.32-11.87c1.05 0.1 0.69 1.71-0.35 1.6z" />
								</g>
								<g id="&lt;Group&gt;">
									<path id="&lt;Path&gt;" class="s36" d="m448.09 848.76c3.15 1.18 5.56 3.67 6.73 6.82c0.37 0.99-1.19 1.5-1.55 0.52c-1.03-2.77-3.16-4.84-5.93-5.88c-0.99-0.37-0.23-1.82 0.75-1.46z" />
								</g>
							</g>
						</g>
						<path id="&lt;Path&gt;" class="s37" d="m501.74 868.19c1.76-3.87 5.09-7.17 9.21-8.18c4.13-1.01 8.97 0.67 11.01 4.4c-6.67-1.88-14.85-0.6-20.22 3.78z" />
						<path id="&lt;Path&gt;" class="s37" d="m542.28 861.24c1.14-3.2 3.26-5.95 5.88-6.81c2.62-0.86 5.66 0.49 6.93 3.56c-4.21-1.5-9.38-0.39-12.8 3.25z" />
						<g id="&lt;Group&gt;">
							<path id="&lt;Path&gt;" class="s38" d="m536.51 874.4c0.73-0.31 1.43-0.71 2.06-1.18c0.55-0.41 1.19-0.84 1.24 0.26c0.01 0.33-0.1 0.66-0.22 0.96c-0.6 1.52-1.5 2.93-2.65 4.1c-0.18 0.18-0.38 0.37-0.63 0.45c-0.2 0.06-0.41 0.05-0.63 0.03c-2.72-0.29-5.32-1.69-7.05-3.82c1.03-0.4 2.19-0.13 3.29-0.04c1.56 0.12 3.14-0.15 4.58-0.76z" />
							<path id="&lt;Path&gt;" class="s39" d="m535.74 878.37c0.47-0.74 1.05-1.41 1.54-2.14c0.61-0.9 1.14-1.84 1.56-2.84c-3.99-1.38-4.92-4.88-5.86-8.89c-0.43-1.81-0.42-3.71 0.02-5.51c0.23-0.95 0.57-1.87 1.02-2.73c0.23-0.44 0.48-0.86 0.77-1.27c0.27-0.4 0.6-0.67 0.98-0.97c-0.14 0.29-0.21 0.61-0.32 0.9c-0.31 0.77-0.66 1.5-0.89 2.3c-0.23 0.8-0.39 1.62-0.47 2.45c-0.18 1.66-0.09 3.35 0.3 4.97c0.38 1.59 1.06 3.12 2.04 4.43c1.13 1.5 2.75 2.84 4.55 3.39c-1.03 2.2-1.6 3.39-1.71 3.58c-0.42 0.72-0.92 1.4-1.48 2.02c-0.55 0.61-1.18 1.32-2.01 1.52c-0.26 0.06-0.54 0.08-0.79-0.01c0.11-0.13 0.22-0.27 0.31-0.42c0.04-0.06 0.08-0.13 0.11-0.2c0.11-0.2 0.22-0.39 0.34-0.58z" />
						</g>
						<path id="&lt;Path&gt;" class="s37" d="m537.86 843.3c-1.81-0.67-0.8-4.92 3.59-5.73c2.92-0.54 6.89 0.84 11.9 4.15c-9.12 1.5-14.29 2.03-15.49 1.58z" />
						<path id="&lt;Path&gt;" class="s37" d="m496.6 850.26c6.56-4.67 11.91-7.18 16.04-7.53c6.19-0.53 8.1 3.26 5.67 4.44c-1.62 0.79-8.86 1.82-21.71 3.09z" />
						<g id="&lt;Group&gt;">
							<path id="&lt;Path&gt;" class="s38" d="m512.26 882.58c-0.09 1.88-4.21 3.21-9.19 2.96c-4.98-0.25-8.94-1.98-8.84-3.87c0.09-1.88 4.21-3.21 9.19-2.96c4.98 0.25 8.94 1.98 8.85 3.87z" />
							<path id="&lt;Path&gt;" class="s38" d="m559.49 869.11c0.71 1.24-1.74 3.99-5.47 6.13c-3.73 2.15-7.34 2.88-8.05 1.64c-0.71-1.24 1.74-3.99 5.47-6.13c3.74-2.15 7.34-2.88 8.05-1.64z" />
						</g>
						<g id="&lt;Group&gt;">
							<path id="&lt;Path&gt;" class="s40" d="m545.47 887.96c0.07 0.25 0.15 0.52 0.19 0.78c1.16 6.02-2.77 11.85-8.8 13.01c-6.03 1.16-11.86-2.78-13.02-8.8c-0.05-0.26-0.08-0.53-0.11-0.79l21.73-4.21z" />
							<path id="&lt;Path&gt;" class="s41" d="m528.46 899.98c1.21-2.81 3.74-5 6.98-5.62c3.23-0.63 6.4 0.46 8.57 2.61c-1.58 2.4-4.09 4.18-7.14 4.78c-3.05 0.59-6.05-0.13-8.41-1.76z" />
						</g>
					</g>
					<g id="&lt;Group&gt;">
						<path id="&lt;Path&gt;" class="s42" d="m552.75 827.09c-0.02 0.45-0.13-0.07-0.3-1.27c0.2 0.57 0.31 1 0.3 1.27z" />
						<path id="&lt;Path&gt;" class="s43" d="m553.28 806.3c-3.52 7.77-12.89 10.56-20.7 8.77c-3.43-0.79-6.81-2.62-9.44-5.07c-15.53 7.09-37.4 20.84-55.77 17.7c-3.15 5.25-5.77 11.16-9.61 15.69c-2.75-2.28-5.79-4.4-8.72-6.26c-2.62-1.66-4.25-1.26-6.17 0.47c-2.28-5.27-3.8-10.89-4.25-16.5c-3.94-8.86-5.84-19.58-2.99-28.36c4.34-13.37 18.64-21.59 30.49-20.86c0.29 0.02 0.57 0.06 0.85 0.11c9.49-8.72 22.1-14.73 33.92-12.7c5.05 0.87 10.02 3.12 14.2 6.5c0.68-0.51 1.37-1.01 2.09-1.46c7.52-4.77 21.54-2.78 26.98 5.13c0.76 1.11 1.46 2.28 2.1 3.5c8.06 8.28 11.67 23.14 7.04 33.34z" />
					</g>
				</g>
				<g id="&lt;Group&gt;">
					<g id="&lt;Group&gt;">
						<path id="&lt;Path&gt;" class="s17" d="m958.67 963.95l-51.9-13.73l77.13-291.48l51.9 13.73l-77.13 291.48z" />
						<path id="&lt;Path&gt;" class="s44" d="m952.59 962.34l-51.9-13.73l77.13-291.48l51.9 13.73l-77.13 291.48z" />
						<path id="&lt;Path&gt;" class="s17" d="m992.31 680.64l-18.11-4.79l0.9-3.4l18.1 4.79l-0.9 3.39z" />
						<path id="&lt;Path&gt;" class="s17" d="m984.96 708.4l-18.1-4.79l0.9-3.4l18.1 4.79l-0.9 3.4z" />
						<path id="&lt;Path&gt;" class="s17" d="m977.62 736.16l-18.1-4.79l0.9-3.4l18.1 4.79l-0.9 3.4z" />
						<path id="&lt;Path&gt;" class="s17" d="m970.27 763.92l-18.1-4.79l0.9-3.4l18.1 4.79l-0.9 3.39z" />
						<path id="&lt;Path&gt;" class="s17" d="m962.93 791.68l-18.1-4.79l0.9-3.39l18.11 4.79l-0.9 3.39z" />
						<path id="&lt;Path&gt;" class="s17" d="m955.58 819.44l-18.11-4.79l0.9-3.4l18.11 4.79l-0.9 3.39z" />
						<path id="&lt;Path&gt;" class="s17" d="m948.24 847.2l-18.11-4.79l0.9-3.4l18.1 4.79l-0.9 3.4z" />
						<path id="&lt;Path&gt;" class="s17" d="m940.89 874.96l-18.1-4.79l0.9-3.39l18.1 4.79l-0.9 3.4z" />
						<path id="&lt;Path&gt;" class="s17" d="m933.54 902.72l-18.1-4.79l0.9-3.4l18.11 4.79l-0.9 3.39z" />
						<path id="&lt;Path&gt;" class="s17" d="m926.2 930.48l-18.1-4.79l0.9-3.4l18.1 4.79l-0.9 3.4z" />
					</g>
					<g id="&lt;Group&gt;">
						<g id="&lt;Group&gt;">
							<path id="&lt;Path&gt;" class="s19" d="m800.56 673.18l32.75 14.29l-143.24 81.51l-32.56-18.2l143.05-77.6z" />
							<g id="&lt;Group&gt;">
								<path id="&lt;Path&gt;" class="s45" d="m802.84 673.12l-141.23 76.52l26.37 7.7l143.23-74.17l29.06 248.21l-150.22 69.81l-22.59-17.86l-31.78-236.45l140.1-75.1l7.06 1.33z" />
								<path id="&lt;Path&gt;" class="s46" d="m795.77 671.79l7.06 1.33l-100.54 54.48c-3.9 0.45-7.64 2.46-10.11 5.48l-30.57 16.56l26.37 7.7l0.71-0.37c0.21 9.75 1.27 19.49 2.58 29.18c2.78 20.48 4.73 41.03 7 61.57c2.33 21.01 4.77 42 7.27 62.99c3.47 29.2 7.17 58.38 10.76 87.58l-6.24 2.9l-22.59-17.86l-31.78-236.45l140.1-75.1z" />
							</g>
						</g>
						<g id="&lt;Group&gt;">
							<g id="&lt;Group&gt;">
								<path id="&lt;Path&gt;" class="s19" d="m861.62 697.1l32.75 14.29l-143.24 81.51l-32.56-18.2l143.04-77.6z" />
								<g id="&lt;Group&gt;">
									<path id="&lt;Path&gt;" class="s47" d="m863.9 697.05l-141.23 76.53l26.36 7.7l143.23-74.17l29.06 248.21l-150.22 69.81l-22.59-17.85l-31.78-236.45l140.1-75.1l7.06 1.33z" />
									<path id="&lt;Path&gt;" class="s48" d="m856.84 695.72l7.06 1.33l-100.55 54.48c-3.9 0.45-7.64 2.46-10.11 5.48l-30.57 16.57l26.36 7.7l0.71-0.37c0.21 9.76 1.27 19.49 2.58 29.18c2.78 20.48 4.73 41.03 7 61.57c2.33 21.01 4.77 42 7.27 62.99c3.47 29.2 7.17 58.38 10.76 87.57l-6.25 2.9l-22.59-17.85l-31.78-236.45l140.1-75.1z" />
								</g>
							</g>
							<path id="&lt;Path&gt;" class="s49" d="m887.78 774.35l6.55 54.58l-112.42 58.91l-6.78-56.5l112.66-56.99z" />
						</g>
						<g id="&lt;Group&gt;">
							<g id="&lt;Group&gt;">
								<path id="&lt;Path&gt;" class="s19" d="m917.34 730.72l32.75 14.29l-143.24 81.51l-32.56-18.2l143.05-77.6z" />
								<g id="&lt;Group&gt;">
									<path id="&lt;Path&gt;" class="s20" d="m919.63 730.66l-141.23 76.53l26.36 7.7l143.23-74.17l29.06 248.21l-150.22 69.81l-22.59-17.86l-31.78-236.45l140.1-75.1l7.06 1.33z" />
									<path id="&lt;Path&gt;" class="s21" d="m912.56 729.33l7.06 1.33l-100.55 54.48c-3.9 0.45-7.64 2.46-10.11 5.48l-30.57 16.57l26.37 7.7l0.71-0.37c0.21 9.75 1.27 19.49 2.58 29.17c2.78 20.48 4.73 41.03 7 61.57c2.33 21.01 4.77 42 7.27 62.99c3.47 29.21 7.17 58.38 10.76 87.57l-6.24 2.9l-22.59-17.86l-31.78-236.45l140.1-75.1z" />
								</g>
							</g>
							<path id="&lt;Path&gt;" class="s22" d="m943.5 807.96l6.54 54.58l-112.42 58.91l-6.78-56.5l112.66-56.99z" />
						</g>
					</g>
					<g id="&lt;Group&gt;">
						<path id="&lt;Path&gt;" class="s50" d="m1137.5 859.91c0 55.33-44.85 100.18-100.18 100.18c-55.33 0-100.18-44.85-100.18-100.18c0-55.33 44.85-100.18 100.18-100.18c55.33 0 100.18 44.85 100.18 100.18z" />
						<path id="&lt;Path&gt;" class="s14" d="m1124.34 859.91c0 48.06-38.96 87.01-87.02 87.01c-48.06 0-87.02-38.96-87.02-87.01c0-48.06 38.96-87.02 87.02-87.02c48.06 0 87.02 38.96 87.02 87.02z" />
						<g id="&lt;Group&gt;">
							<path id="&lt;Path&gt;" class="s51" d="m1037.81 791.69c0 7.57-1.35 13.71-3.01 13.71c-1.67 0-3.02-6.14-3.02-13.71c0-7.57 1.35-13.71 3.02-13.71c1.66 0 3.01 6.14 3.01 13.71z" />
							<path id="&lt;Path&gt;" class="s51" d="m1037.81 929.88c0 7.57-1.35 13.71-3.01 13.71c-1.67 0-3.02-6.14-3.02-13.71c0-7.57 1.35-13.71 3.02-13.71c1.66 0 3.01 6.14 3.01 13.71z" />
						</g>
						<g id="&lt;Group&gt;">
							<path id="&lt;Path&gt;" class="s51" d="m1085.73 814c-5.35 5.36-10.64 8.75-11.82 7.58c-1.18-1.18 2.2-6.48 7.55-11.84c5.35-5.36 10.64-8.75 11.82-7.58c1.18 1.18-2.2 6.47-7.55 11.84z" />
							<path id="&lt;Path&gt;" class="s51" d="m988.13 911.83c-5.35 5.36-10.64 8.75-11.82 7.58c-1.18-1.18 2.2-6.48 7.55-11.84c5.35-5.36 10.64-8.75 11.82-7.58c1.18 1.18-2.2 6.48-7.55 11.84z" />
						</g>
						<g id="&lt;Group&gt;">
							<path id="&lt;Path&gt;" class="s51" d="m1103.88 864.02c-7.57-0.02-13.71-1.39-13.7-3.06c0.01-1.67 6.15-3 13.72-2.97c7.57 0.02 13.71 1.39 13.7 3.06c-0.01 1.67-6.15 3-13.72 2.97z" />
							<path id="&lt;Path&gt;" class="s51" d="m965.69 863.58c-7.57-0.02-13.71-1.39-13.7-3.06c0.01-1.66 6.15-3 13.72-2.97c7.57 0.02 13.71 1.39 13.7 3.06c-0.01 1.67-6.15 3-13.72 2.97z" />
						</g>
						<g id="&lt;Group&gt;">
							<path id="&lt;Path&gt;" class="s51" d="m1083.28 910.1c-5.54-5.16-9.11-10.34-7.97-11.55c1.14-1.22 6.55 1.98 12.09 7.14c5.54 5.16 9.11 10.34 7.97 11.55c-1.14 1.22-6.55-1.98-12.08-7.14z" />
							<path id="&lt;Path&gt;" class="s51" d="m982.19 815.88c-5.54-5.16-9.11-10.34-7.97-11.55c1.13-1.22 6.55 1.98 12.08 7.14c5.54 5.16 9.11 10.33 7.97 11.55c-1.14 1.22-6.55-1.98-12.09-7.14z" />
						</g>
						<path id="&lt;Path&gt;" class="s51" d="m1042.74 859.52c0 3.33-2.7 6.03-6.03 6.03c-3.33 0-6.03-2.7-6.03-6.03c0-3.33 2.7-6.03 6.03-6.03c3.33 0 6.03 2.7 6.03 6.03z" />
						<path id="&lt;Path&gt;" class="s51" d="m1038.42 860.28h-3.29v-43.51h3.29v43.51z" />
						<path id="&lt;Path&gt;" class="s51" d="m1035.4 857.41l2.98 1.39l-32.11 68.66l-2.98-1.39l32.11-68.66z" />
					</g>
					<g id="&lt;Group&gt;">
						<g id="&lt;Group&gt;">
							<path id="&lt;Path&gt;" class="s52" d="m654.34 829.53l239.8 56.84l260.04-36.59l-21.02 342.57l-225.79 43.6l-246.03-77.08l-7.01-329.34z" />
							<g id="&lt;Clip Group&gt;" clip-path="url(#cp1)">
								<path id="&lt;Path&gt;" class="s53" d="m1173.36 1254.53l-266.79 1.39l-14.89-447.8h281.69v446.41z" />
							</g>
							<path id="&lt;Path&gt;" class="s54" d="m1154.83 849.76l102.97 118.11l-287.29 47.49l-76.29-129.04l260.61-36.57z" />
						</g>
						<g id="&lt;Group&gt;">
							<path id="&lt;Path&gt;" class="s55" d="m1055.03 1010.67c13.49 62.29 38.93 115.23 76.3 158.83c-48.27-1.56-104.07 19.2-167.39 62.29c4.15-9.34-8.56-69.55-38.15-180.63l129.24-40.49z" />
							<text id="BILL
" style="transform: matrix(.944,-0.331,.331,.944,956.287,1126.584)" >
								<tspan x="0" y="0" class="t56">BILL
</tspan>
							</text>
						</g>
					</g>
				</g>
				<path id="&lt;Compound Path&gt;" fill-rule="evenodd" class="s57" d="m545.15 999.85c-0.04 0.56-0.15 1.14-0.33 1.75c-1.85 6.22-4.94 11.84-8.58 17.15c4.43 7.91 5.71 17.66 5.36 26.86c-0.65 17.12-5.08 34.05-10.26 50.3c-9.02 28.31-20.64 55.73-29.85 83.98c-3.41 10.45-6.3 21.07-9.7 31.52c-2.18 6.69-4.15 13.47-5.66 20.35c-1.65 7.51-2.85 14.49-2.6 22.25c0.12 3.71 0.19 5.66 1.47 9.41c0.7 2.04 1.57 3.58 3.26 5.21c4.34 4.18 1.99 9.83-2.11 12.04c-0.79 1.74-2.26 3.21-4.53 4c-14.31 4.95-24.73 16.68-32.52 29.21c-4.79 7.7-16.4 1.76-14.06-5.79c-2.55-16.75-13.32-30.33-22.03-44.38c-1.8-2.91-1.18-6.87 1.19-9.25c4.56-4.56 9.03-9.17 13.09-14.18c0.66-0.81 1.5-1.39 2.42-1.75c2.67-4.08 5.32-8.17 7.93-12.29c12.03-18.92 23.54-38.26 33.17-58.52c7.8-16.43 14.26-33.58 20.85-50.53c6.45-16.56 12.46-33.52 15.69-51.04c1.9-10.3 2.93-21.49 1.21-31.77c-7.39-6.57-14.94-12.66-20.5-21.03c-2.38-3.58-1.21-7.05 1.31-9.15c0.15-0.35 0.33-0.7 0.55-1.03c2.02-2.98 4.17-5.86 6.49-8.58c3.17-4.46 6.6-8.76 9-13.73c0.59-1.22 1.55-2.14 2.69-2.77c2.14-1.85 5.2-2.51 8.37-0.59c8.24 4.98 17.17 8.66 25.41 13.63c3.53 2.13 4.22 5.69 3.22 8.73zm-88.22 271.69c-0.21 0.79-0.42 1.58-0.62 2.37c0.11-0.13 0.23-0.26 0.35-0.39c0.15-0.19 0.28-0.33 0.37-0.45c-0.03-0.51-0.06-1.02-0.1-1.53z" />
				<g id="&lt;Group&gt;">
					<path id="&lt;Path&gt;" class="s34" d="m469 929.91l42.38 50.74l-24.93 43.43l-63.99-84.48c9.69-7.43 24.56-10.82 44.59-10.18" />
					<path id="&lt;Path&gt;" class="s34" d="m511.38 980.09l27.33-46.42c30.48 1.15 46.2 2.7 47.17 4.63c0.97 1.94-7.5 26.06-25.4 72.37l-49.1-30.59z" />
				</g>
				<g id="&lt;Group&gt;">
					<g id="&lt;Group&gt;">
						<g id="&lt;Group&gt;">
							<path id="&lt;Path&gt;" class="s31" d="m843.68 981.19c-6.1 12.73-21.1 12.4-31.1 18.02c-5.98 3.35-10.66 8.65-15.02 14.49c0.53 0.27 1.05 0.57 1.53 0.89c5.4-5.58 11.49-10.41 16.99-14.16c10.31-7.03 24.5-8.58 33.86-1.89c2.83 2.01 0.87 7.39-2.29 8.11c-10.46 2.42-19.2 2.45-28.76 10.02c-3.84 3.03-7.27 6.83-10.69 10.61c0.45 1.24 0.86 2.52 1.22 3.84c11.37-10.46 26.86-16.19 38.96-13.43c2.93 0.67 3.29 5.68 0.43 7.52c-3.21 2.05-6.3 2.8-9.77 3.77c-4.57 1.27-9.3 4-13.5 6.65c-5.27 3.34-9.64 7.94-14.05 12.53c0 0.07-0.01 0.14-0.01 0.23c10.11-4.13 21.34-4.32 29.36 0.31c2.23 1.31 1.58 5.68-1.07 6.54c-2.96 0.96-5.6 0.84-8.58 0.8c-3.92-0.04-8.23 1.13-12.11 2.35c-3.3 1.06-6.38 2.71-9.4 4.55c-0.97 3.9-2.32 7.44-4.03 10.36c-6.79 11.52-16.32 15.65-26.24 22.04c-5.1 3.28-11.18 6.47-17.11 7.94c-11.22-8.51-22.79-16.54-34.92-23.69c1.16-0.94 2.33-1.88 3.47-2.81c3.66-2.99 8.06-6.66 12.76-10.08c3.1-6.63 7.13-12.88 10.23-17.92c6-9.71 15.54-26.65 25.87-33.51c7-10.01 14.25-19.79 23.19-27.54c10.05-8.7 26.81-10.03 38.29-12.03c2.68-0.46 3.65 3.14 2.5 5.5z" />
						</g>
						<g id="&lt;Group&gt;">
							<path id="&lt;Path&gt;" class="s34" d="m343.1 977.31c0.21-0.06 0.41-0.12 0.6-0.2c10.09 4.53 86.03 39.95 158.86 111.08c52.13 50.91 128.43 29.61 228.9-63.9l64.62 62.32c-56.7 147.1-158.04 192.34-304.01 135.72c-198.48-76.98-160.55-214.03-148.98-245.02z" />
						</g>
					</g>
					<path id="&lt;Path&gt;" class="s58" d="m631.57 1093.54c-8.22 3.16-16.74 5.69-25.18 8.06c-10.44 2.93-21.05 5.25-31.82 6.55c-4.15 0.5-8.33 0.85-12.51 1.11c1.75 11.79 0.72 23.72 4.66 35.16c0.39 1.14-1.41 1.63-1.8 0.5c-4-11.6-2.88-23.61-4.72-35.54c-16.87 0.91-33.87-0.12-50.43-3.38c-19.47-3.84-38.55-10.8-53.66-24.03c-0.91-0.79 0.42-2.11 1.32-1.32c15.53 13.59 35.62 20.62 55.71 24.08c15.51 2.67 31.38 3.69 47.13 2.85c0.38-0.44 1.12-0.54 1.44-0.07c5.29-0.32 10.56-0.86 15.8-1.62c10.68-1.56 21.24-3.9 31.57-7.02c7.19-2.17 14.56-4.23 21.64-6.92c0.27 0.53 0.55 1.06 0.85 1.58z" />
				</g>
			</g>
		</g>
	</g>
</svg>