<svg version="1.2" baseProfile="tiny-ps" xmlns="http://www.w3.org/2000/svg" viewBox="0 0 1701 1701" width="171" height="171">
	<title>travel-ai</title>
	<defs>
		<linearGradient id="grd1" gradientUnits="userSpaceOnUse"  x1="1119" y1="524.9" x2="1334.7" y2="1173.4">
			<stop offset="0" stop-color="#00b9f2"  />
			<stop offset=".4" stop-color="#3ab5e6"  />
			<stop offset=".8" stop-color="#1e78c2"  />
			<stop offset="1" stop-color="#2a4da9"  />
		</linearGradient>
		<linearGradient id="grd2" gradientUnits="userSpaceOnUse"  x1="1293.1" y1="580.2" x2="1293.1" y2="1250.8">
			<stop offset="0" stop-color="#00b9f2"  />
			<stop offset=".4" stop-color="#3ab5e6"  />
			<stop offset=".8" stop-color="#1e78c2"  />
			<stop offset="1" stop-color="#2a4da9"  />
		</linearGradient>
		<linearGradient id="grd3" gradientUnits="userSpaceOnUse"  x1="880.9" y1="1038.8" x2="1258.9" y2="1038.8">
			<stop offset="0" stop-color="#00b9f2"  />
			<stop offset=".4" stop-color="#3ab5e6"  />
			<stop offset=".8" stop-color="#1e78c2"  />
			<stop offset="1" stop-color="#2a4da9"  />
		</linearGradient>
		<linearGradient id="grd4" gradientUnits="userSpaceOnUse"  x1="515.1" y1="745.3" x2="960.4" y2="745.3">
			<stop offset="0" stop-color="#00b9f2"  />
			<stop offset=".4" stop-color="#3ab5e6"  />
			<stop offset=".8" stop-color="#1e78c2"  />
			<stop offset="1" stop-color="#2a4da9"  />
		</linearGradient>
	</defs>
	<style>
		tspan { white-space:pre }
		.s0 { fill: #1e78c2 } 
		.s1 { fill: #0f2e93 } 
		.s2 { fill: #ffffff } 
		.s3 { fill: #366dba } 
		.s4 { fill: #3dbc75 } 
		.s5 { fill: #362017 } 
		.s6 { fill: #00ab4f } 
		.s7 { fill: #1c6836 } 
		.s8 { fill: #1c5583 } 
		.s9 { fill: #1c50ab } 
		.s10 { fill: #102694 } 
		.s11 { fill: #3ab5e6 } 
		.s12 { fill: #f5f6f6 } 
		.s13 { fill: #113ea0 } 
		.s14 { fill: #efb542 } 
		.s15 { fill: #3d4245 } 
		.s16 { fill: #505a5e } 
		.s17 { fill: url(#grd1) } 
		.s18 { opacity: .4;mix-blend-mode: multiply;fill: url(#grd2) } 
		.s19 { mix-blend-mode: multiply;fill: #0f2e93 } 
		.s20 { fill: #a0e3e9 } 
		.s21 { opacity: .6;mix-blend-mode: multiply;fill: #326ab8 } 
		.s22 { fill: #4fcef1 } 
		.s23 { fill: #45bbdf } 
		.s24 { fill: #1b5cb1 } 
		.s25 { opacity: .2;mix-blend-mode: multiply;fill: url(#grd3) } 
		.s26 { opacity: .2;mix-blend-mode: multiply;fill: url(#grd4) } 
		.s27 { fill: #5fadb2 } 
		.s28 { fill: #393e40 } 
		.s29 { fill: #cdd4d4 } 
		.s30 { fill: #8c9a9c } 
		.s31 { fill: #576366 } 
		.s32 { fill: #43454b } 
		.s33 { fill: #657275 } 
		.s34 { opacity: .4;fill: #657275 } 
		.s35 { fill: #2e2016 } 
		.s36 { fill: #2e2015 } 
		.s37 { fill: #2c2e35 } 
		.s38 { fill: #4c565e } 
		.s39 { fill: #b9c2c7 } 
		.s40 { fill: #6e7c80 } 
		.s41 { fill: #ff8132 } 
		.s42 { fill: #8a4b25 } 
		.s43 { fill: #eb8b39 } 
		.s44 { fill: #f5bf4d } 
		.s45 { fill: #fbfdfc } 
		.s46 { fill: #4c555e } 
		.s47 { fill: #6a7785 } 
		.s48 { fill: #5e6c77 } 
		.s49 { fill: #424950 } 
		.s50 { fill: #393d44 } 
		.s51 { opacity: .4;fill: #ffffff } 
		.s52 { fill: #2e3036 } 
		.s53 { fill: #4b545d } 
	</style>
	<g id="图层 1">
		<g id="&lt;Group&gt;">
			<g id="&lt;Group&gt;">
				<path id="&lt;Path&gt;" class="s0" d="m1049.62 636.3l-16.64-13.64l125.35-152.99l16.65 13.64l-125.36 152.99z" />
				<path id="&lt;Path&gt;" class="s0" d="m1181.17 489.42l-31.67-25.95l13.42-16.38l31.66 25.95l-13.42 16.38z" />
				<path id="&lt;Path&gt;" class="s0" d="m1179.3 469.55l-9.02-7.39l25.7-31.37l9.02 7.38l-25.7 31.37z" />
				<path id="&lt;Path&gt;" class="s0" d="m1196.31 457.27l-18.95-15.53l6.64-8.11l18.95 15.53l-6.64 8.11z" />
			</g>
			<g id="&lt;Group&gt;">
				<path id="&lt;Path&gt;" class="s1" d="m1117.94 355.47l-120.93-38.41l15.31-48.2l120.93 38.41l-15.31 48.2z" />
				<path id="&lt;Path&gt;" class="s1" d="m1118.24 300.12l-94.71-30.08l17.07-53.75l94.71 30.08l-17.07 53.75z" />
				<path id="&lt;Path&gt;" class="s2" d="m1048.5 263.07l-13.53-4.3l6.45-20.3l13.53 4.3l-6.44 20.29z" />
				<path id="&lt;Path&gt;" class="s2" d="m1081.95 273.7l-13.53-4.3l6.45-20.3l13.53 4.3l-6.45 20.3z" />
				<path id="&lt;Path&gt;" class="s2" d="m1116.52 284.68l-13.53-4.3l6.45-20.29l13.53 4.3l-6.45 20.3z" />
				<path id="&lt;Path&gt;" class="s1" d="m1138.18 237.35l-94.71-30.09l1.31-4.13l94.71 30.08l-1.31 4.14z" />
				<path id="&lt;Path&gt;" class="s1" d="m1070.19 178.95l-5.55 47.3l-2.33-0.28l5.55-47.3l2.33 0.28z" />
				<path id="&lt;Path&gt;" class="s1" d="m1045.48 219.18l-5.27-1.67l4.21-13.26l5.26 1.67l-4.21 13.25z" />
				<path id="&lt;Path&gt;" class="s1" d="m1134.93 247.6l-5.26-1.67l4.21-13.25l5.26 1.67l-4.21 13.25z" />
				<g id="&lt;Group&gt;">
					<path id="&lt;Path&gt;" class="s2" d="m1012.31 314.47l-9.21-2.93l10.21-32.13l9.21 2.92l-10.2 32.14z" />
					<path id="&lt;Path&gt;" class="s2" d="m1038.2 322.69l-9.21-2.93l10.21-32.13l9.21 2.93l-10.2 32.13z" />
					<path id="&lt;Path&gt;" class="s2" d="m1063.8 330.82l-9.21-2.92l10.2-32.14l9.21 2.93l-10.21 32.13z" />
					<path id="&lt;Path&gt;" class="s2" d="m1089.45 338.97l-9.21-2.92l10.21-32.13l9.2 2.92l-10.2 32.13z" />
					<path id="&lt;Path&gt;" class="s2" d="m1115.1 347.12l-9.21-2.92l10.21-32.13l9.21 2.92l-10.21 32.13z" />
				</g>
				<path id="&lt;Path&gt;" class="s1" d="m1099.67 412.97l-120.93-38.41l15.31-48.2l120.93 38.41l-15.31 48.2z" />
				<g id="&lt;Group&gt;">
					<path id="&lt;Path&gt;" class="s2" d="m994.05 371.97l-9.21-2.92l10.2-32.13l9.21 2.92l-10.2 32.13z" />
					<path id="&lt;Path&gt;" class="s2" d="m1019.93 380.2l-9.21-2.93l10.21-32.14l9.21 2.92l-10.21 32.14z" />
					<path id="&lt;Path&gt;" class="s2" d="m1045.54 388.33l-9.2-2.93l10.2-32.13l9.21 2.93l-10.21 32.13z" />
					<path id="&lt;Path&gt;" class="s2" d="m1071.19 396.48l-9.21-2.93l10.21-32.13l9.21 2.93l-10.21 32.13z" />
					<path id="&lt;Path&gt;" class="s2" d="m1096.84 404.63l-9.21-2.92l10.21-32.14l9.21 2.93l-10.21 32.13z" />
				</g>
				<path id="&lt;Path&gt;" class="s3" d="m1114.98 364.77l-120.93-38.41l2.96-9.3l120.93 38.41l-2.96 9.3z" />
				<path id="&lt;Path&gt;" class="s3" d="m1096.71 422.28l-120.93-38.41l2.96-9.3l120.93 38.41l-2.96 9.3z" />
				<path id="&lt;Path&gt;" class="s1" d="m1081.4 470.48l-120.93-38.41l15.31-48.2l120.93 38.41l-15.31 48.2z" />
				<g id="&lt;Group&gt;">
					<path id="&lt;Path&gt;" class="s2" d="m975.78 429.48l-9.21-2.93l10.21-32.13l9.2 2.92l-10.2 32.14z" />
					<path id="&lt;Path&gt;" class="s2" d="m1001.67 437.7l-9.21-2.93l10.21-32.13l9.2 2.93l-10.2 32.13z" />
					<path id="&lt;Path&gt;" class="s2" d="m1027.27 445.83l-9.21-2.92l10.2-32.13l9.21 2.92l-10.21 32.13z" />
					<path id="&lt;Path&gt;" class="s2" d="m1052.92 453.98l-9.21-2.92l10.21-32.13l9.21 2.92l-10.2 32.13z" />
					<path id="&lt;Path&gt;" class="s2" d="m1078.57 462.13l-9.21-2.92l10.21-32.13l9.21 2.92l-10.21 32.13z" />
				</g>
				<path id="&lt;Path&gt;" class="s3" d="m1078.45 479.78l-120.93-38.41l2.96-9.3l120.93 38.41l-2.95 9.3z" />
				<path id="&lt;Path&gt;" class="s1" d="m1063.14 527.98l-120.93-38.41l15.31-48.2l120.93 38.41l-15.31 48.2z" />
				<g id="&lt;Group&gt;">
					<path id="&lt;Path&gt;" class="s2" d="m957.51 486.98l-9.21-2.93l10.21-32.13l9.21 2.92l-10.2 32.13z" />
					<path id="&lt;Path&gt;" class="s2" d="m983.4 495.2l-9.21-2.92l10.21-32.13l9.21 2.93l-10.21 32.13z" />
					<path id="&lt;Path&gt;" class="s2" d="m1009.01 503.34l-9.21-2.93l10.2-32.13l9.21 2.92l-10.2 32.13z" />
					<path id="&lt;Path&gt;" class="s2" d="m1034.65 511.49l-9.21-2.93l10.21-32.13l9.21 2.93l-10.21 32.13z" />
					<path id="&lt;Path&gt;" class="s2" d="m1060.31 519.63l-9.21-2.92l10.2-32.13l9.21 2.93l-10.21 32.13z" />
				</g>
				<path id="&lt;Path&gt;" class="s3" d="m1060.18 537.29l-120.93-38.41l2.96-9.3l120.93 38.41l-2.96 9.3z" />
				<path id="&lt;Path&gt;" class="s1" d="m1044.87 585.49l-127.51-17.69l21.89-68.92l120.93 38.41l-15.31 48.2z" />
				<path id="&lt;Path&gt;" class="s2" d="m933.61 562.25l-9.21-2.93l15.85-49.89l9.21 2.93l-15.85 49.89z" />
				<path id="&lt;Path&gt;" class="s2" d="m961.46 564.27l-9.21-2.92l13.88-43.69l9.21 2.93l-13.88 43.69z" />
				<path id="&lt;Path&gt;" class="s2" d="m988.59 567.61l-9.21-2.93l12.35-38.9l9.21 2.93l-12.35 38.9z" />
				<path id="&lt;Path&gt;" class="s2" d="m1016.84 567.58l-9.21-2.92l9.76-30.73l9.21 2.92l-9.76 30.73z" />
				<path id="&lt;Path&gt;" class="s2" d="m1043.29 573.19l-9.2-2.92l8.95-28.19l9.21 2.92l-8.96 28.19z" />
				<path id="&lt;Path&gt;" class="s3" d="m1041.92 594.79l-131.32-5.71l7.61-23.95l126.66 20.37l-2.96 9.3z" />
			</g>
			<g id="&lt;Group&gt;">
				<path id="&lt;Path&gt;" class="s4" d="m1101.57 573.28c-7.03 10.19-20.99 12.75-31.17 5.72c-10.19-7.03-12.76-20.98-5.72-31.17c7.03-10.19 20.99-12.75 31.17-5.72c10.19 7.03 12.75 20.98 5.72 31.17z" />
				<path id="&lt;Path&gt;" class="s5" d="m1050.18 615.16l-7.7-5.31l30.03-43.54l7.7 5.31l-30.04 43.54z" />
			</g>
			<g id="&lt;Group&gt;">
				<path id="&lt;Path&gt;" class="s6" d="m1061.59 595.66c-3.55 9.4-14.59 13.94-24.68 10.13c-10.08-3.8-15.38-14.5-11.83-23.9c3.55-9.4 14.59-13.93 24.68-10.13c10.08 3.8 15.38 14.51 11.83 23.9z" />
				<path id="&lt;Path&gt;" class="s5" d="m1028.28 638.3l-7.61-2.87l15.15-40.16l7.61 2.87l-15.15 40.16z" />
			</g>
			<g id="&lt;Group&gt;">
				<path id="&lt;Path&gt;" class="s7" d="m1063.82 567.64c-5.67 9.31-17.81 12.27-27.12 6.6c-9.31-5.67-12.27-17.81-6.6-27.12c5.67-9.32 17.81-12.27 27.12-6.6c9.31 5.67 12.27 17.81 6.6 27.12z" />
				<path id="&lt;Path&gt;" class="s5" d="m1020.75 607.05l-7.03-4.28l24.22-39.79l7.03 4.28l-24.22 39.79z" />
			</g>
			<g id="&lt;Group&gt;">
				<g id="&lt;Group&gt;">
					<path id="&lt;Path&gt;" class="s8" d="m844.74 188.91l-29.99 0.06l-0.01-3.47l12.31-7.66h0.83l-0.02-10.96l-3.71 0.01l-0.01-3.75l3.71-0.01l0-1.92l-3.71 0.01l-0.01-3.74l3.71-0.01l-0.04-20.97l2.95-0.01l0.05 20.97l3.28-0.01l0.01 3.74l-3.28 0.01l0 1.93l3.29-0.01l0.01 3.74l-3.29 0.01l0.02 10.96l0.66 0l13.25 8.02l0.01 3.05z" />
					<path id="&lt;Path&gt;" class="s8" d="m800.1 427.63c5.49-27.02 11.27-101.72 17.35-224.09l-5.05 0.01l-0.01-5.27l11.43-0.02l-0.01-3.46l-9.06 0.02l-0.01-3.89l29.25-0.06l0.01 3.88l-9.21 0.02l0.01 3.47l9.95-0.02l0.01 5.27l-2.52 0c-0.49 47.54 5.49 122.12 17.96 223.75l-21.05 0.05l-0.75-2.5l-9.04-59.08l-8.18 61.89l-21.09 0.04z" />
					<path id="&lt;Path&gt;" class="s8" d="m868.82 447.4l-77.73 0.16l-0.02-7.08l3.79-0.01l-0.01-5.82l70.38-0.15l0.01 5.83l3.57-0.01l0.01 7.07z" />
					<path id="&lt;Path&gt;" class="s8" d="m800.31 521.63l-28.66 0.06c12.7-35.41 20.44-59.57 23.23-72.47l70.39-0.15c11.52 43.82 20.04 67.94 25.54 72.37l-30.4 0.06l-19.18-61.35l-22.94 0.26l-17.98 61.22z" />
					<path id="&lt;Path&gt;" class="s8" d="m898.99 597.59c-4.48-11.85-16.79-37.42-63.79-43.15c-31.34-3.82-55.58 10.66-72.74 43.44l-38.09 0.08l39.74-62.31l-0.03-12.48l130.74-0.28l0.02 12.49l41.78 62.13l-37.64 0.08z" />
					<path id="&lt;Path&gt;" class="s8" d="m943.76 599.16l0.02 10.19l0.01 6.25l-46.33 0.1l-0.01-6.24l-0.02-10.19l46.33-0.1z" />
					<path id="&lt;Path&gt;" class="s8" d="m717.91 599.64l46.33-0.1l0.02 10.2l0.01 6.25l-46.33 0.09l-0.01-6.24l-0.02-10.2z" />
				</g>
				<path id="&lt;Path&gt;" class="s1" d="m894.8 513.89l-1.23 0l0.02 9l-2.79 0.01l-0.02-9l-38.65 0.08l0.02 8.99l-2.78 0l-0.02-8.99l-10.63 0.02l0.02 8.99l-2.78 0l-0.02-8.99l-11.03 0.02l0.02 9l-2.79 0l-0.02-8.99l-10.8 0.02l0.02 8.99l-2.78 0.01l-0.02-9l-37.97 0.08l0.02 8.99l-2.79 0.01l-0.02-8.99l-1.65 0l-0.01-3.22l128.66-0.27l0.01 3.21z" />
			</g>
			<g id="&lt;Group&gt;">
				<path id="&lt;Path&gt;" class="s9" d="m563.52 872.59l-72.83-194.35l115.93 165.29l-43.11 29.06z" />
				<path id="&lt;Compound Path&gt;" fill-rule="evenodd" class="s1" d="m470.68 699.04c-7.34-13.98-2.63-32.47 10.5-40.77c12.63-7.95 28.09-3.59 35.2 9.96c7.2 13.73 2.81 31.8-9.79 40.3c-12.6 8.5-28.71 4.24-35.92-9.49zm2-1.35c6.58 12.53 21.28 16.41 32.77 8.66c11.5-7.75 15.5-24.24 8.93-36.77c-6.48-12.35-20.59-16.35-32.12-9.09c-0.22 0.13-0.44 0.28-0.66 0.43c-11.49 7.75-15.5 24.25-8.93 36.77z" />
				<path id="&lt;Compound Path&gt;" fill-rule="evenodd" class="s10" d="m478.22 693.96c-4.83-9.2-1.89-21.31 6.55-27c0.16-0.11 0.32-0.21 0.48-0.31c8.46-5.33 18.83-2.39 23.59 6.67c4.82 9.19 1.89 21.31-6.56 27c-8.44 5.7-19.23 2.84-24.06-6.36zm3-2.02c3.88 7.39 12.55 9.68 19.34 5.11c6.78-4.57 9.15-14.31 5.27-21.71c-3.83-7.3-12.15-9.65-18.95-5.36c-0.13 0.08-0.26 0.16-0.39 0.25c-6.79 4.57-9.15 14.31-5.27 21.7z" />
				<path id="&lt;Path&gt;" class="s9" d="m500.09 679.34c2.04 3.9 0.81 9.01-2.77 11.42c-3.58 2.41-8.14 1.2-10.18-2.69c-2.04-3.9-0.8-9.01 2.77-11.42c0.07-0.05 0.13-0.09 0.2-0.14c3.54-2.23 7.97-1 9.98 2.82z" />
				<path id="&lt;Path&gt;" class="s9" d="m477.28 599.43l-0.47-2.49c30.74-8.35 62.44 4.09 80.75 31.71l-1.87 1.57c-17.78-26.81-48.55-38.9-78.4-30.79z" />
				<path id="&lt;Path&gt;" class="s11" d="m424.13 729.26l2-1.35c21.11 40.22 68.33 52.7 105.26 27.81c27.56-18.58 42.52-53.06 38.12-87.84l2.29-0.44c4.54 35.81-10.88 71.32-39.26 90.46c-38.03 25.64-86.65 12.79-108.4-28.64z" />
				<path id="&lt;Path&gt;" class="s9" d="m420.65 721.82c-17.7-43.06-4.44-88.95 33-114.19l1.15 2.18c-36.36 24.51-49.23 69.07-32.05 110.87l-2.1 1.14z" />
				<path id="&lt;Path&gt;" class="s9" d="m510.54 611.77l1.99 0.53l-35.36 145.65l-1.99-0.52l35.36-145.65z" />
				<path id="&lt;Path&gt;" class="s9" d="m559.03 700.9l-0.54 2.23l-129.8-34.29l0.55-2.23l129.8 34.29z" />
				<path id="&lt;Path&gt;" class="s9" d="m551.74 644.52l1.02 1.95l-116.79 78.74l-1.02-1.95l116.79-78.74z" />
				<path id="&lt;Path&gt;" class="s0" d="m528.41 747.7l-1.79 1.21l-66.78-127.24l1.79-1.21l66.78 127.24z" />
				<path id="&lt;Compound Path&gt;" fill-rule="evenodd" class="s9" d="m498.25 573.62c-2.84-5.41-1.11-12.54 3.86-15.89c4.97-3.35 11.32-1.67 14.16 3.74c2.84 5.42 1.11 12.54-3.86 15.89c-4.97 3.35-11.32 1.67-14.16-3.74zm2-1.35c2.21 4.21 7.15 5.52 11.02 2.91c3.86-2.61 5.21-8.15 3-12.36c-2.21-4.21-7.15-5.51-11.01-2.91c-3.86 2.6-5.21 8.14-3 12.36z" />
				<path id="&lt;Compound Path&gt;" fill-rule="evenodd" class="s9" d="m433.43 589.97c-2.84-5.41-1.11-12.54 3.86-15.9c4.97-3.35 11.32-1.67 14.16 3.74c2.84 5.41 1.11 12.54-3.86 15.89c-4.97 3.35-11.32 1.67-14.17-3.74zm2.01-1.35c2.21 4.21 7.15 5.52 11.01 2.91c3.87-2.61 5.21-8.15 3-12.36c-2.21-4.21-7.15-5.52-11.02-2.91c-3.87 2.61-5.21 8.15-3 12.36z" />
				<path id="&lt;Compound Path&gt;" fill-rule="evenodd" class="s0" d="m536.07 785.53c-2.84-5.41-1.11-12.54 3.86-15.89c4.97-3.35 11.32-1.67 14.16 3.74c2.84 5.41 1.11 12.54-3.86 15.89c-4.97 3.35-11.32 1.67-14.17-3.74zm2-1.35c2.21 4.21 7.15 5.52 11.01 2.91c3.86-2.61 5.21-8.15 3-12.36c-2.21-4.21-7.15-5.52-11.01-2.91c-3.87 2.61-5.21 8.15-3 12.36z" />
				<path id="&lt;Compound Path&gt;" fill-rule="evenodd" class="s9" d="m387.22 648.48c-2.84-5.42-1.11-12.54 3.86-15.89c4.97-3.35 11.32-1.67 14.16 3.74c2.84 5.41 1.11 12.54-3.86 15.89c-4.97 3.35-11.32 1.67-14.16-3.74zm2-1.36c2.21 4.21 7.15 5.52 11.01 2.91c3.86-2.6 5.21-8.14 3-12.36c-2.21-4.21-7.15-5.52-11.01-2.91c-3.87 2.61-5.21 8.15-3 12.36z" />
				<path id="&lt;Compound Path&gt;" fill-rule="evenodd" class="s9" d="m379.95 698.22c-2.84-5.42-1.11-12.54 3.86-15.9c4.97-3.35 11.32-1.67 14.16 3.74c2.84 5.41 1.11 12.54-3.86 15.89c-4.97 3.35-11.32 1.67-14.16-3.74zm2-1.36c2.21 4.21 7.15 5.52 11.01 2.91c3.86-2.61 5.21-8.16 3-12.36c-2.21-4.21-7.15-5.52-11.02-2.91c-3.86 2.61-5.21 8.15-3 12.36z" />
				<path id="&lt;Compound Path&gt;" fill-rule="evenodd" class="s9" d="m541 588.98c-2.84-5.41-1.11-12.54 3.86-15.89c4.97-3.35 11.32-1.67 14.16 3.74c2.84 5.41 1.11 12.54-3.86 15.9c-4.97 3.35-11.32 1.67-14.17-3.75zm2-1.34c2.21 4.21 7.15 5.51 11.01 2.91c3.87-2.61 5.21-8.15 3-12.36c-2.21-4.21-7.15-5.52-11.02-2.91c-3.86 2.61-5.21 8.15-3 12.36z" />
				<path id="&lt;Compound Path&gt;" fill-rule="evenodd" class="s9" d="m587.98 668.92c-2.84-5.42-1.11-12.54 3.86-15.89c4.97-3.35 11.32-1.67 14.16 3.74c2.84 5.41 1.11 12.54-3.86 15.89c-4.97 3.35-11.32 1.67-14.16-3.74zm2-1.36c2.21 4.21 7.15 5.52 11.02 2.92c3.87-2.61 5.21-8.15 3-12.36c-2.21-4.21-7.15-5.52-11.02-2.91c-3.86 2.61-5.21 8.15-3 12.35z" />
				<path id="&lt;Compound Path&gt;" fill-rule="evenodd" class="s9" d="m419.56 782.46c-2.84-5.41-1.11-12.54 3.86-15.89c4.97-3.35 11.32-1.67 14.16 3.74c2.84 5.41 1.11 12.54-3.86 15.89c-4.96 3.35-11.32 1.67-14.16-3.74zm2-1.35c2.21 4.21 7.15 5.51 11.02 2.91c3.86-2.6 5.21-8.15 3-12.36c-2.21-4.21-7.15-5.52-11.02-2.91c-3.86 2.6-5.21 8.15-3 12.36z" />
				<path id="&lt;Compound Path&gt;" fill-rule="evenodd" class="s9" d="m463.42 803.33c-2.84-5.41-1.11-12.54 3.86-15.89c4.97-3.35 11.32-1.67 14.16 3.74c2.84 5.41 1.11 12.54-3.86 15.89c-4.97 3.35-11.32 1.67-14.16-3.74zm2-1.35c2.21 4.21 7.15 5.52 11.02 2.91c3.87-2.61 5.21-8.15 3-12.36c-2.21-4.21-7.15-5.52-11.01-2.91c-3.86 2.61-5.21 8.15-3 12.36z" />
				<path id="&lt;Compound Path&gt;" fill-rule="evenodd" class="s9" d="m581.21 723.91c-2.84-5.42-1.11-12.54 3.86-15.9c4.97-3.34 11.32-1.67 14.16 3.74c2.84 5.41 1.11 12.54-3.86 15.89c-4.97 3.35-11.32 1.67-14.16-3.74zm2-1.35c2.21 4.21 7.15 5.51 11.02 2.91c3.87-2.61 5.21-8.16 3-12.37c-2.21-4.21-7.15-5.51-11.01-2.91c-3.87 2.6-5.21 8.15-3 12.36z" />
				<path id="&lt;Compound Path&gt;" fill-rule="evenodd" class="s9" d="m573.75 626.43c-2.84-5.41-1.11-12.54 3.86-15.89c4.97-3.35 11.32-1.67 14.17 3.74c2.84 5.41 1.11 12.54-3.86 15.89c-4.97 3.35-11.32 1.67-14.16-3.74zm2-1.35c2.21 4.21 7.15 5.52 11.02 2.91c3.87-2.6 5.21-8.15 3-12.36c-2.21-4.21-7.15-5.52-11.02-2.91c-3.87 2.6-5.21 8.15-3 12.36z" />
				<path id="&lt;Compound Path&gt;" fill-rule="evenodd" class="s9" d="m393.05 748.26c-2.84-5.41-1.11-12.54 3.86-15.89c4.97-3.35 11.32-1.67 14.16 3.74c2.84 5.41 1.11 12.54-3.86 15.89c-4.97 3.35-11.32 1.67-14.17-3.74zm2-1.35c2.21 4.21 7.15 5.52 11.02 2.91c3.86-2.61 5.21-8.15 3-12.36c-2.21-4.21-7.15-5.51-11.01-2.91c-3.87 2.6-5.21 8.15-3 12.36z" />
				<path id="&lt;Compound Path&gt;" fill-rule="evenodd" class="s9" d="m410.27 738.6c-26.11-49.75-10.2-115.26 35.46-146.05c0.87-0.58 1.73-1.14 2.6-1.69c21.95-13.83 47.22-17.73 71.15-11c23.98 6.75 44.02 23.47 56.41 47.07c26.11 49.75 10.2 115.26-35.46 146.05c-45.66 30.78-104.05 15.35-130.15-34.39zm3-2.02c25.16 47.94 81.44 62.81 125.44 33.14c44.01-29.67 59.34-92.81 34.17-140.75c-24.82-47.29-78.81-62.56-122.93-34.77c-0.84 0.52-1.67 1.07-2.5 1.63c-44 29.67-59.33 92.81-34.18 140.75z" />
			</g>
			<g id="&lt;Group&gt;">
				<g id="&lt;Group&gt;">
					<path id="&lt;Path&gt;" class="s9" d="m548.14 444.84l23.41-47.13l-5.69 1.88l-7.34-22.19l6.79-2.25l4.28-46.09l-4.56-13.79l-5.68 1.88l-0.65-1.96l5.68-1.88l-1.65-4.99l1.79-0.59l1.65 4.99l5.95-1.97l0.65 1.97l-5.95 1.97l4.25 12.84l32.37 35.02l6.04-2l7.34 22.19l-4.67 1.55l46.4 24.04l-110.41 36.5z" />
					<path id="&lt;Path&gt;" class="s9" d="m587.97 494.09l-7-21.18l24.68-8.16c-13.57 12.39-19.46 22.17-17.68 29.34z" />
					<path id="&lt;Path&gt;" class="s9" d="m622.93 517l-24.68 8.16l-6.02-18.21c2.52 5.84 12.76 9.18 30.7 10.05z" />
					<path id="&lt;Path&gt;" class="s9" d="m659.17 484.81l6.02 18.21l-22.63 7.48c12.57-10.95 18.11-19.51 16.61-25.69z" />
					<path id="&lt;Path&gt;" class="s9" d="m649.71 450.19l7 21.18c-2.76-6.84-12.09-11.59-27.97-14.25l20.97-6.93z" />
					<path id="&lt;Path&gt;" class="s9" d="m629.76 509.03c-14.35 4.74-29.01-0.59-32.76-11.91c-3.75-11.32 4.85-24.35 19.2-29.09c14.34-4.74 29.01 0.59 32.75 11.91c3.74 11.33-4.85 24.35-19.2 29.09z" />
					<path id="&lt;Compound Path&gt;" fill-rule="evenodd" class="s9" d="m708.55 494.56l1.65 4.99l-4.52 1.49l-29.72 9.83l-80.68 26.67l-29.72 9.83l-4.45 1.47l-1.65-4.99l4.45-1.47l-20.3-61.38l-3.73-11.29l3.98-1.32l3.74 11.3l3.98-1.31l-12.2-36.92l3.98-1.32l3.27 9.88l115.72-38.26l-3.27-9.88l3.98-1.32l12.21 36.91l3.98-1.32l-3.74-11.29l3.98-1.32l3.74 11.3l0.53-0.18l20.29 61.37l4.52-1.5zm-139.6-29.53l5.31-1.75l-4.87-14.73l-5.31 1.76l4.87 14.73zm11.67-3.86l7.7-2.55l-4.87-14.73l-7.7 2.55l4.87 14.73zm14.07-4.65l4.25-1.4l-4.87-14.72l-4.25 1.4l4.86 14.73zm10.62-3.51l5.18-1.71l-4.87-14.73l-5.18 1.72l4.87 14.73zm11.55-3.82l5.17-1.71l-4.86-14.73l-5.17 1.71l4.87 14.73zm11.54-3.81l5.04-1.67l-4.87-14.72l-5.05 1.67l4.87 14.73zm11.41-3.77l3.19-1.05l-4.87-14.73l-3.19 1.05l4.87 14.73zm9.56-3.16l3.19-1.05l-4.87-14.73l-3.18 1.05l4.87 14.73zm24.94 67.44l-20.29-61.37l-80.68 26.67l20.29 61.37l80.68-26.68z" />
					<path id="&lt;Path&gt;" class="s9" d="m567.65 553.73l137.62-45.5l2.64 7.98l-12.34 4.08l67.49 204.12l-22.23 7.35l-67.49-204.12l-12.03 3.97l67.49 204.12l-14.3 4.73l-67.49-204.12l-12.25 4.05l67.49 204.12l-14.29 4.72l-67.49-204.12l-15.99 5.29l67.49 204.12l-22.23 7.35l-67.49-204.12l-11.94 3.95l-2.64-7.98z" />
				</g>
				<g id="&lt;Group&gt;">
					<path id="&lt;Path&gt;" class="s12" d="m624.84 488.5l-2.98 0.99l-6.95-21.03l2.99-0.99l6.95 21.03z" />
					<path id="&lt;Path&gt;" class="s12" d="m644.75 481.92l-22.89 7.57l-1-3.03l22.89-7.57l1 3.02z" />
				</g>
			</g>
			<path id="&lt;Path&gt;" class="s13" d="m1207.13 942.44c41.58-41.57 108.99-41.57 150.56 0c41.58 41.58 41.58 108.99 0 150.57c-41.58 41.58-108.99 41.58-150.56 0c-41.58-41.58-41.58-108.98 0-150.57z" />
			<path id="&lt;Path&gt;" class="s14" d="m1209.33 887.91c26.63-26.63 69.8-26.63 96.43 0c26.63 26.63 26.63 69.81 0 96.44c-26.63 26.63-69.8 26.63-96.43 0c-26.63-26.63-26.63-69.81 0-96.44z" />
			<g id="&lt;Group&gt;">
				<g id="&lt;Group&gt;">
					<path id="&lt;Path&gt;" class="s15" d="m845.57 1308.1c0.44-1.71 0.96-3.71 1.51-5.85c0.4-2.13 0.68-4.39 1.05-6.67c0.31-2.3 0.8-4.45 0.96-6.74c0.12-2.32 0.23-4.49 0.32-6.35c0.13-2.48 0.23-4.54 0.31-6.19l12.73 0.64c-0.08 1.65-0.19 3.72-0.31 6.19c-0.09 1.86-0.2 4.03-0.32 6.35c-0.16 2.35-0.69 5.06-1.04 7.66c-0.41 2.62-0.76 5.27-1.22 7.69c-0.6 2.36-1.17 4.56-1.65 6.45c-0.65 2.52-1.19 4.62-1.62 6.29l-12.18-3.78c0.39-1.52 0.88-3.43 1.46-5.71z" />
					<path id="&lt;Path&gt;" class="s15" d="m819.99 1357.52c2.37-2.63 5-6.56 7.89-10.28c2.56-3.95 4.93-8.04 6.79-11.04c1.02-2.13 1.87-3.9 2.55-5.31l11.48 5.54c-0.75 1.56-1.7 3.51-2.82 5.84c-2.02 3.33-4.64 7.83-7.47 12.17c-3.16 4.12-6.08 8.43-8.69 11.33c-1.74 1.92-3.2 3.52-4.36 4.8l-9.33-8.69c1.06-1.16 2.38-2.62 3.97-4.36z" />
					<path id="&lt;Path&gt;" class="s15" d="m771.52 1392.62c0.49-0.18 1.08-0.39 1.75-0.63c0.64-0.32 1.38-0.67 2.17-1.05c1.59-0.77 3.45-1.66 5.44-2.62c1-0.48 2.03-0.97 3.07-1.48c1.02-0.55 2-1.2 3.01-1.8c4.02-2.46 8.14-4.78 10.86-7.05c1.89-1.41 3.46-2.59 4.72-3.53l7.95 9.96c-1.39 1.04-3.12 2.34-5.2 3.89c-3.01 2.49-7.53 5.07-11.96 7.78c-1.12 0.66-2.21 1.38-3.33 1.99c-1.15 0.56-2.29 1.1-3.38 1.63c-2.19 1.06-4.24 2.05-6 2.89c-0.88 0.42-1.68 0.81-2.4 1.15c-0.74 0.28-1.39 0.52-1.92 0.71c-0.71 0.26-1.27 0.47-1.68 0.62l-4.63-11.88c0.37-0.13 0.88-0.32 1.52-0.55z" />
					<path id="&lt;Path&gt;" class="s15" d="m720.95 1401.63c0.93 0.05 1.94 0.1 3 0.15l0.81 0.04h0.1h0.01c-0.66-0.01-0.18 0-0.32-0.01h0.02h0.05l0.2-0.01l0.4-0.02c0.53-0.03 1.08-0.05 1.63-0.09c2.21-0.11 4.56-0.23 6.92-0.35c1.18-0.05 2.35-0.11 3.51-0.17c1.15-0.17 2.27-0.35 3.37-0.51c2.18-0.33 4.22-0.64 5.97-0.91c2.35-0.27 4.27-0.66 5.77-1.15l2.83 12.43c-1.66 0.53-3.78 0.96-6.36 1.27c-1.92 0.29-4.17 0.64-6.58 1c-1.2 0.18-2.45 0.37-3.71 0.56c-1.28 0.06-2.57 0.13-3.87 0.2c-2.59 0.13-5.18 0.26-7.61 0.39c-0.61 0.03-1.21 0.06-1.79 0.09l-0.44 0.02l-0.22 0.01l-0.52-0.01l-0.81-0.04c-1.07-0.05-2.07-0.1-3-0.15c-2.48-0.12-4.54-0.22-6.19-0.31l0.65-12.73c1.65 0.08 3.72 0.19 6.19 0.31z" />
					<path id="&lt;Path&gt;" class="s15" d="m663.17 1385.67c0.87 0.57 2.14 1.31 3.76 2.03c1.59 0.77 3.45 1.66 5.44 2.62c0.99 0.48 2.02 0.98 3.06 1.48c1.06 0.47 2.19 0.82 3.29 1.24c4.44 1.57 8.79 3.41 12.28 4.09c2.28 0.59 4.18 1.08 5.7 1.47l-2.83 12.43c-1.68-0.43-3.77-0.97-6.29-1.62c-3.83-0.77-8.65-2.76-13.54-4.51c-1.21-0.46-2.46-0.86-3.62-1.38c-1.15-0.56-2.29-1.1-3.39-1.63c-2.19-1.05-4.24-2.05-6-2.89c-1.78-0.8-3.18-1.61-4.14-2.23c-0.65-0.39-1.16-0.7-1.53-0.93l6.41-11.02c0.33 0.2 0.8 0.48 1.38 0.84z" />
					<path id="&lt;Path&gt;" class="s15" d="m624.5 1351.63c1.06 1.41 2.3 3.06 3.63 4.83c1.49 1.63 3.07 3.38 4.66 5.12c3.03 3.64 6.68 6.64 9.27 9.05c1.32 1.18 2.37 2.22 3.18 2.85c0.55 0.41 0.98 0.73 1.3 0.97l-7.95 9.96c-0.35-0.26-0.82-0.61-1.43-1.07c-0.9-0.7-2.06-1.83-3.51-3.13c-2.86-2.64-6.86-5.98-10.21-9.96c-1.74-1.92-3.49-3.84-5.12-5.65c-1.47-1.94-2.84-3.76-4.01-5.3c-1.55-2.08-2.85-3.82-3.88-5.21l10.54-7.16c0.94 1.25 2.12 2.82 3.53 4.71z" />
					<path id="&lt;Path&gt;" class="s15" d="m601.76 1300.86c0.68 3.46 2.01 7.99 3.12 12.57c1.55 4.44 3.2 8.86 4.43 12.17c1.03 2.12 1.88 3.88 2.56 5.3l-11.48 5.54c-0.75-1.56-1.69-3.51-2.81-5.85c-1.38-3.64-3.19-8.51-4.89-13.42c-1.26-5.04-2.7-10.04-3.45-13.86c-0.39-2.57-0.72-4.71-0.98-6.42l12.61-1.86c0.23 1.55 0.53 3.49 0.88 5.82z" />
				</g>
				<g id="&lt;Group&gt;">
					<path id="&lt;Path&gt;" class="s15" d="m603.52 1245.18c-0.44 1.71-0.96 3.71-1.51 5.85c-0.4 2.13-0.68 4.4-1.05 6.66c-0.31 2.31-0.8 4.46-0.97 6.74c-0.12 2.32-0.23 4.49-0.32 6.35c-0.1 1.86-0.17 3.4-0.23 4.49c-0.03 0.55-0.05 0.97-0.06 1.26c-0.01 0.15-0.01 0.26-0.02 0.33c0 0.04 0 0.07 0 0.09l0 0.02v0.01v0.01l0.01-0.33h-12.75c0.08-1.73 0.19-3.9 0.32-6.5c0.1-1.86 0.2-4.03 0.32-6.35c0.16-2.35 0.69-5.06 1.05-7.66c0.41-2.62 0.76-5.27 1.22-7.69c0.6-2.36 1.17-4.56 1.65-6.45c0.65-2.51 1.19-4.61 1.63-6.29l12.17 3.78c-0.39 1.52-0.88 3.43-1.46 5.71z" />
					<path id="&lt;Path&gt;" class="s15" d="m629.1 1195.76c-2.37 2.63-5 6.56-7.89 10.28c-2.56 3.95-4.93 8.03-6.79 11.04c-1.02 2.13-1.87 3.9-2.55 5.31l-11.48-5.54c0.75-1.56 1.69-3.51 2.82-5.85c2.02-3.32 4.64-7.82 7.47-12.16c3.16-4.11 6.08-8.43 8.69-11.33c1.75-1.92 3.2-3.52 4.36-4.8l9.32 8.69c-1.06 1.16-2.38 2.62-3.97 4.36z" />
					<path id="&lt;Path&gt;" class="s15" d="m677.57 1160.67c-0.48 0.18-1.07 0.39-1.75 0.63c-0.65 0.32-1.38 0.67-2.17 1.05c-1.59 0.77-3.45 1.66-5.44 2.62c-1 0.48-2.03 0.97-3.07 1.48c-1.02 0.55-2 1.21-3.02 1.8c-4.02 2.47-8.13 4.78-10.86 7.06c-1.89 1.41-3.46 2.59-4.72 3.53l-7.95-9.96c1.38-1.04 3.12-2.34 5.2-3.89c3.01-2.49 7.53-5.07 11.96-7.78c1.12-0.66 2.21-1.37 3.33-1.98c1.15-0.56 2.28-1.11 3.38-1.63c2.19-1.05 4.24-2.04 6-2.89c0.88-0.42 1.68-0.8 2.4-1.15c0.74-0.28 1.39-0.51 1.92-0.71c0.71-0.26 1.27-0.47 1.68-0.62l4.63 11.87c-0.37 0.14-0.88 0.32-1.52 0.56z" />
					<path id="&lt;Path&gt;" class="s15" d="m728.14 1151.65c-0.93-0.04-1.94-0.09-3-0.15l-0.81-0.05h-0.1h-0.01c0.66 0.01 0.18 0 0.32 0.01h-0.02l-0.05 0.01l-0.19 0.01l-0.4 0.02c-0.53 0.03-1.08 0.06-1.63 0.09c-2.21 0.11-4.56 0.23-6.92 0.35c-1.18 0.05-2.35 0.11-3.51 0.17c-1.15 0.18-2.27 0.35-3.37 0.51c-2.18 0.33-4.22 0.64-5.97 0.91c-2.35 0.27-4.27 0.66-5.77 1.15l-2.82-12.43c1.66-0.53 3.78-0.95 6.36-1.27c1.92-0.29 4.17-0.64 6.58-1c1.2-0.18 2.45-0.36 3.71-0.56c1.28-0.06 2.57-0.13 3.87-0.2c2.59-0.13 5.18-0.26 7.61-0.39c0.61-0.02 1.21-0.06 1.79-0.08l0.43-0.02l0.22-0.01l0.52 0.01l0.81 0.04c1.07 0.05 2.07 0.11 3 0.15c2.48 0.12 4.54 0.22 6.19 0.31l-0.65 12.73c-1.65-0.08-3.71-0.19-6.19-0.32z" />
					<path id="&lt;Path&gt;" class="s15" d="m785.92 1167.62c-0.86-0.57-2.14-1.31-3.76-2.02c-1.59-0.77-3.45-1.66-5.44-2.63c-1-0.47-2.02-0.97-3.07-1.48c-1.05-0.48-2.19-0.83-3.29-1.25c-4.44-1.57-8.8-3.41-12.28-4.09c-2.28-0.59-4.18-1.08-5.7-1.47l2.83-12.43c1.68 0.43 3.77 0.97 6.29 1.62c3.84 0.77 8.65 2.76 13.54 4.51c1.21 0.47 2.46 0.86 3.62 1.38c1.15 0.55 2.29 1.1 3.38 1.62c2.19 1.05 4.24 2.04 6 2.89c1.78 0.8 3.18 1.62 4.14 2.23c0.65 0.39 1.16 0.7 1.53 0.93l-6.41 11.02c-0.34-0.2-0.8-0.48-1.38-0.84z" />
					<path id="&lt;Path&gt;" class="s15" d="m824.59 1201.65c-1.06-1.41-2.3-3.06-3.63-4.82c-1.49-1.64-3.08-3.38-4.66-5.12c-3.03-3.64-6.68-6.64-9.27-9.05c-1.32-1.18-2.37-2.21-3.18-2.85c-0.55-0.41-0.99-0.73-1.3-0.96l7.95-9.96c0.35 0.26 0.82 0.62 1.43 1.07c0.9 0.7 2.06 1.83 3.51 3.12c2.86 2.65 6.86 5.98 10.21 9.96c1.74 1.92 3.49 3.84 5.13 5.65c1.46 1.94 2.84 3.76 4.01 5.31c1.55 2.08 2.85 3.81 3.88 5.2l-10.54 7.17c-0.94-1.26-2.12-2.83-3.53-4.72z" />
					<path id="&lt;Path&gt;" class="s15" d="m847.33 1252.42c-0.68-3.46-2.01-7.99-3.13-12.57c-1.55-4.44-3.2-8.86-4.43-12.17c-1.03-2.12-1.88-3.89-2.56-5.3l11.48-5.54c0.75 1.56 1.69 3.51 2.81 5.85c1.37 3.64 3.19 8.51 4.89 13.42c1.26 5.04 2.7 10.04 3.45 13.86c0.39 2.57 0.72 4.71 0.98 6.42l-12.61 1.86c-0.23-1.55-0.53-3.49-0.88-5.82z" />
				</g>
			</g>
			<g id="&lt;Group&gt;">
				<g id="&lt;Group&gt;">
					<path id="&lt;Path&gt;" class="s16" d="m1333.4 840.78c0.61-2.35 1.32-5.1 2.08-8.04c0.55-2.93 0.93-6.03 1.44-9.14c0.43-3.16 1.1-6.1 1.33-9.25c0.16-3.21 0.32-6.2 0.44-8.77c0.17-3.42 0.32-6.27 0.43-8.55l19.09 0.97c-0.11 2.28-0.25 5.13-0.43 8.55c-0.13 2.56-0.28 5.56-0.44 8.77c-0.23 3.25-0.96 7.02-1.45 10.63c-0.57 3.64-1.06 7.32-1.7 10.69c-0.84 3.27-1.62 6.32-2.29 8.94c-0.9 3.49-1.65 6.39-2.25 8.72l-18.26-5.67c0.54-2.09 1.2-4.71 2.01-7.85z" />
					<path id="&lt;Path&gt;" class="s16" d="m1298.23 908.73c1.74-1.72 3.29-4.11 5.14-6.52c1.82-2.43 3.76-5.02 5.71-7.62c3.52-5.43 6.78-11.04 9.33-15.18c1.4-2.92 2.57-5.36 3.5-7.3l17.22 8.31c-1.05 2.16-2.35 4.87-3.92 8.11c-2.8 4.61-6.43 10.85-10.36 16.87c-2.15 2.88-4.31 5.77-6.33 8.47c-2.06 2.67-3.81 5.31-5.72 7.23c-2.42 2.66-4.43 4.88-6.04 6.66l-13.99-13.04c1.45-1.6 3.27-3.6 5.45-5.99z" />
					<path id="&lt;Path&gt;" class="s16" d="m1231.59 956.98c0.67-0.24 1.48-0.54 2.4-0.87c0.89-0.43 1.89-0.92 2.98-1.45c2.19-1.05 4.74-2.29 7.48-3.61c1.37-0.65 2.79-1.33 4.22-2.02c1.4-0.76 2.75-1.66 4.15-2.48c5.52-3.39 11.18-6.57 14.93-9.7c2.6-1.94 4.76-3.56 6.49-4.85l11.93 14.94c-1.92 1.44-4.32 3.23-7.2 5.39c-4.18 3.45-10.44 7.04-16.59 10.79c-1.55 0.91-3.06 1.9-4.61 2.74c-1.59 0.77-3.17 1.54-4.68 2.27c-3.04 1.46-5.88 2.83-8.32 4c-1.22 0.59-2.33 1.12-3.32 1.59c-1.03 0.38-1.93 0.71-2.67 0.98c-0.98 0.36-1.76 0.64-2.32 0.86l-6.95-17.81c0.51-0.18 1.2-0.44 2.09-0.76z" />
					<path id="&lt;Path&gt;" class="s16" d="m1162.08 969.37c1.28 0.06 2.67 0.13 4.14 0.21l1.12 0.06l0.14 0.01c-0.22 0 0.51 0.02-0.48-0.01h0.02h0.04l0.06-0.01l0.27-0.01l0.55-0.03c0.73-0.04 1.47-0.08 2.24-0.12c3.03-0.16 6.27-0.32 9.51-0.49c1.62-0.08 3.24-0.15 4.83-0.23c1.58-0.23 3.12-0.47 4.63-0.7c3-0.46 5.8-0.88 8.2-1.25c2.4-0.39 4.43-0.58 5.78-1.02c0.91-0.24 1.63-0.43 2.15-0.56l4.24 18.64c-0.58 0.15-1.39 0.35-2.41 0.62c-1.51 0.47-3.75 0.71-6.41 1.15c-2.67 0.4-5.79 0.88-9.12 1.39c-1.67 0.25-3.4 0.51-5.15 0.77c-1.77 0.09-3.57 0.19-5.36 0.28c-3.59 0.18-7.19 0.36-10.56 0.53c-0.84 0.05-1.67 0.08-2.48 0.12l-0.6 0.03l-0.3 0.01l-0.07 0.01l-0.54-0.01l-0.14-0.01l-1.12-0.05c-1.47-0.08-2.86-0.15-4.14-0.21c-3.42-0.18-6.27-0.32-8.55-0.43l0.97-19.1c2.28 0.12 5.13 0.26 8.55 0.43z" />
					<path id="&lt;Path&gt;" class="s16" d="m1082.63 947.43c0.6 0.37 1.34 0.81 2.18 1.33c0.87 0.46 1.89 0.92 2.98 1.45c2.19 1.05 4.75 2.29 7.48 3.6c1.37 0.66 2.78 1.34 4.22 2.04c1.45 0.66 3.01 1.13 4.52 1.7c6.11 2.16 12.09 4.69 16.89 5.63c3.13 0.8 5.75 1.48 7.84 2.02l-4.24 18.65c-2.33-0.6-5.24-1.35-8.72-2.24c-5.32-1.08-11.99-3.83-18.77-6.26c-1.68-0.64-3.4-1.18-5.02-1.91c-1.6-0.77-3.17-1.52-4.69-2.25c-3.04-1.47-5.88-2.84-8.31-4.01c-1.21-0.6-2.34-1.11-3.31-1.62c-0.94-0.57-1.75-1.07-2.43-1.47c-0.9-0.55-1.6-0.97-2.12-1.28l9.61-16.54c0.46 0.28 1.1 0.67 1.9 1.17z" />
					<path id="&lt;Path&gt;" class="s16" d="m1029.45 900.64c1.47 1.94 3.12 4.24 5 6.63c2.05 2.25 4.23 4.64 6.41 7.04c4.16 5 9.19 9.13 12.74 12.44c1.81 1.62 3.26 3.05 4.38 3.91c0.76 0.57 1.35 1.01 1.79 1.33l-11.93 14.94c-0.48-0.36-1.14-0.85-1.98-1.49c-1.24-0.97-2.86-2.54-4.87-4.34c-3.96-3.67-9.51-8.29-14.15-13.81c-2.42-2.67-4.84-5.34-7.11-7.83c-2.08-2.65-3.93-5.21-5.56-7.36c-2.15-2.89-3.95-5.29-5.38-7.21l15.81-10.75c1.3 1.73 2.92 3.89 4.86 6.48z" />
					<path id="&lt;Path&gt;" class="s16" d="m998.19 830.82c0.93 4.76 2.76 10.99 4.29 17.28c2.14 6.11 4.4 12.19 6.09 16.73c1.41 2.92 2.58 5.35 3.52 7.29l-17.22 8.31c-1.04-2.16-2.33-4.87-3.89-8.12c-1.91-5.05-4.44-11.8-6.78-18.6c-1.75-6.98-3.74-13.92-4.78-19.21c-0.55-3.56-1-6.53-1.36-8.9l18.91-2.79c0.32 2.13 0.73 4.8 1.22 8.01z" />
				</g>
				<g id="&lt;Group&gt;">
					<path id="&lt;Path&gt;" class="s16" d="m1000.61 754.27c-0.61 2.35-1.32 5.1-2.08 8.04c-0.55 2.93-0.93 6.03-1.44 9.14c-0.43 3.16-1.1 6.1-1.33 9.25c-0.16 3.21-0.31 6.2-0.44 8.77c-0.13 2.56-0.23 4.7-0.31 6.2c-0.04 0.75-0.07 1.34-0.09 1.74c-0.01 0.2-0.02 0.36-0.02 0.46c0 0.05-0.01 0.09-0.01 0.12v0.03v0v0c0-0.18 0.01-0.34 0.01-0.5v0h-19.12c0.12-2.41 0.27-5.41 0.45-9.02c0.13-2.56 0.28-5.56 0.44-8.77c0.23-3.25 0.96-7.02 1.45-10.63c0.57-3.64 1.06-7.32 1.7-10.69c0.84-3.27 1.62-6.32 2.29-8.94c0.9-3.49 1.65-6.39 2.26-8.72l18.26 5.67c-0.54 2.09-1.2 4.71-2 7.84z" />
					<path id="&lt;Path&gt;" class="s16" d="m1035.78 686.32c-1.74 1.71-3.29 4.1-5.14 6.51c-1.82 2.43-3.77 5.02-5.71 7.62c-3.52 5.43-6.78 11.04-9.33 15.18c-1.4 2.92-2.57 5.35-3.5 7.3l-17.22-8.31c1.04-2.16 2.35-4.86 3.91-8.11c2.81-4.61 6.43-10.85 10.36-16.87c2.16-2.89 4.31-5.77 6.33-8.47c2.06-2.67 3.81-5.31 5.72-7.23c2.42-2.67 4.44-4.89 6.05-6.66l13.99 13.04c-1.46 1.6-3.28 3.6-5.45 5.99z" />
					<path id="&lt;Path&gt;" class="s16" d="m1102.42 638.07c-0.67 0.24-1.47 0.54-2.4 0.87c-0.89 0.43-1.89 0.92-2.99 1.45c-2.18 1.05-4.74 2.29-7.47 3.61c-1.37 0.65-2.79 1.33-4.22 2.02c-1.4 0.76-2.76 1.66-4.15 2.48c-5.53 3.39-11.19 6.57-14.93 9.71c-2.6 1.94-4.76 3.56-6.49 4.85l-11.93-14.94c1.92-1.44 4.32-3.24 7.21-5.39c4.18-3.45 10.44-7.03 16.58-10.78c1.55-0.92 3.06-1.9 4.62-2.75c1.6-0.77 3.16-1.53 4.68-2.27c3.04-1.46 5.88-2.83 8.31-4c1.22-0.59 2.33-1.12 3.33-1.59c1.03-0.38 1.92-0.71 2.66-0.98c0.99-0.36 1.76-0.65 2.33-0.85l6.95 17.81c-0.51 0.18-1.2 0.44-2.09 0.76z" />
					<path id="&lt;Path&gt;" class="s16" d="m1171.93 625.68c-1.29-0.07-2.68-0.14-4.15-0.21l-1.11-0.06l-0.14-0.01l-0.02 0c0.99 0.02 0.27 0.01 0.48 0.01l-0.03 0l-0.07 0l-0.27 0.01l-0.54 0.03c-0.73 0.04-1.48 0.08-2.24 0.12c-3.04 0.15-6.28 0.32-9.51 0.48c-1.62 0.08-3.24 0.16-4.83 0.24c-1.58 0.24-3.13 0.48-4.63 0.7c-3.01 0.46-5.81 0.89-8.21 1.25c-2.4 0.39-4.42 0.58-5.77 1.02c-0.91 0.24-1.63 0.43-2.16 0.56l-4.24-18.65c0.58-0.15 1.38-0.35 2.4-0.61c1.51-0.48 3.75-0.71 6.42-1.15c2.67-0.41 5.79-0.88 9.12-1.39c1.67-0.25 3.39-0.5 5.14-0.77c1.77-0.09 3.57-0.19 5.36-0.28c3.59-0.18 7.19-0.36 10.56-0.53c0.84-0.04 1.67-0.08 2.48-0.12l0.61-0.03l0.3-0.01l0.07 0l0.55 0.01l0.14 0.01l1.12 0.06c1.47 0.07 2.86 0.14 4.15 0.21c3.42 0.17 6.27 0.32 8.55 0.43l-0.97 19.1c-2.28-0.11-5.13-0.26-8.55-0.43z" />
					<path id="&lt;Path&gt;" class="s16" d="m1251.38 647.62c-0.61-0.37-1.34-0.82-2.19-1.33c-0.87-0.46-1.89-0.92-2.98-1.45c-2.19-1.05-4.75-2.28-7.48-3.6c-1.37-0.66-2.78-1.34-4.22-2.04c-1.45-0.66-3.01-1.13-4.52-1.71c-6.1-2.16-12.09-4.69-16.88-5.63c-3.14-0.81-5.75-1.48-7.84-2.02l4.24-18.65c2.33 0.6 5.23 1.34 8.72 2.24c5.31 1.08 11.99 3.83 18.77 6.26c1.68 0.64 3.4 1.19 5.02 1.91c1.6 0.77 3.17 1.52 4.69 2.25c3.04 1.47 5.88 2.84 8.31 4.01c1.21 0.59 2.34 1.11 3.3 1.62c0.94 0.57 1.76 1.06 2.43 1.47c0.9 0.54 1.6 0.97 2.12 1.28l-9.61 16.53c-0.46-0.28-1.09-0.67-1.9-1.16z" />
					<path id="&lt;Path&gt;" class="s16" d="m1304.55 694.41c-1.46-1.94-3.12-4.24-4.99-6.63c-2.05-2.25-4.23-4.64-6.41-7.04c-4.16-5-9.19-9.13-12.74-12.44c-1.82-1.62-3.26-3.05-4.37-3.92c-0.76-0.56-1.36-1.01-1.79-1.33l11.93-14.94c0.48 0.36 1.14 0.86 1.98 1.49c1.24 0.97 2.85 2.54 4.87 4.33c3.96 3.67 9.51 8.29 14.16 13.81c2.42 2.67 4.84 5.33 7.1 7.83c2.09 2.65 3.94 5.21 5.57 7.36c2.15 2.89 3.95 5.29 5.38 7.21l-15.81 10.75c-1.29-1.73-2.91-3.89-4.86-6.48z" />
					<path id="&lt;Path&gt;" class="s16" d="m1335.82 764.23c-0.93-4.76-2.77-10.99-4.29-17.28c-2.14-6.11-4.4-12.19-6.1-16.73c-1.41-2.92-2.58-5.35-3.52-7.29l17.22-8.31c1.04 2.16 2.34 4.87 3.9 8.12c1.9 5.05 4.43 11.81 6.78 18.61c1.74 6.98 3.74 13.92 4.78 19.21c0.54 3.56 1 6.53 1.37 8.9l-18.92 2.79c-0.32-2.14-0.73-4.81-1.21-8.01z" />
				</g>
			</g>
			<g id="&lt;Group&gt;">
				<g id="&lt;Group&gt;">
					<path id="&lt;Path&gt;" class="s17" d="m1261.68 837.59c66.88 201.09-41.92 418.31-243 485.2c-201.08 66.88-418.31-41.92-485.19-243.01c-66.88-201.09 41.92-418.31 243-485.19c201.09-66.88 418.32 41.91 485.19 243z" />
					<path id="&lt;Path&gt;" class="s18" d="m834.29 580.18c-102.05 291.38-47.08 459.39 164.89 504.01c211.98 44.63 304.33-17.97 277.07-187.8c41.84 170.41-28.94 306.45-212.35 408.12c-199.22 103.2-368.19 46.86-506.91-169.03c-76.03-162.21-58.8-305.35 51.71-429.41c61.98-70.89 137.18-112.86 225.59-125.9z" />
				</g>
				<path id="&lt;Path&gt;" class="s19" d="m1010.24 664.63c7.17-13.45 31.38-3.59 21.52 0c-6.57 2.39-13.75 10.46-21.52 24.2c-9.86-0.9-7.17-10.76 0-24.2z" />
				<path id="&lt;Path&gt;" class="s20" d="m1009.2 663.6c7.17-13.45 31.38-3.59 21.52 0c-6.57 2.39-13.75 10.46-21.52 24.21c-9.86-0.9-7.17-10.76 0-24.21z" />
				<path id="&lt;Path&gt;" class="s21" d="m1250.11 807.15c-22.33-17.96-33.89-22.56-34.68-13.8c-0.8 8.77 7.61 28.81 25.22 60.14l-13.34-6.6c-3.59 2.39-29.81-33.22-33.4-51.15c-3.59-17.93-14.34 0-31.8-7.17c-17.46-7.17-14.81-1.19-26.77 4.78c-7.97 3.99-16.74 3.59-26.3-1.2l-13.15 9.56c3.19 9.56 13.95 11.95 32.27 7.17c27.49-7.17 75.31 1.19 60.96 26.3c-14.34 25.1-32.27 75.31-4.78 65.62c27.5-9.69 56.19 16.86 26.3 57.88c-29.89 41.02-75.01 137.81-42.89 130.17c32.11-7.64 114.61-74.36 85.38 9.11c-19.49 55.64-53.31 104.17-101.46 145.59c-61.37 52.15-151.41 6.43-152.1-11.5c-0.69-17.93-28-45.42-60.27-50.2c-32.27-4.78-60.96-13.15-65.75-45.42c-4.78-32.28 15.54-22.71 22.13-80.09c6.58-57.38 57.96-72.91 69.92-78.89c11.95-5.98 13.15 23.91 25.1 6.6c11.95-17.31 58.57-3.02 68.14-26.92c9.57-23.91 27.5-13.15 55.17-40.64c18.46-18.33 18.46-32.28 0-41.84c-21.39 8.77-34.91 11.08-40.57 6.95c2.21 39.2-8.63 45.6-32.54 19.22c-35.86-39.57-76.24-17.15-39.18-8.91c37.05 8.24 20.62 50.9 13.45 43.73c-7.17-7.17-43.03-22.21-51.96-4.8c-10.88 21.19-34.66 62.16-58.57 51.4c-23.91-10.76-27.09-48.98-10.94-46.59c16.15 2.39 44.41-22.73 31.27-28.71c-8.77-3.99-14.11-8.99-16.03-15.01c2.39-35.86 18.68-40.19 21.07-60.51c2.39-20.32 34.36-22.56 69.03-38.1c34.66-15.54 20.62-30.78 9.86-18.83c-10.76 11.96-18.2-1.42-38.51-2.62c-20.32-1.2 0 29.89-11.96 28.69c-11.95-1.2-49.94 29.22-49.94 5.31c0-23.91 15.28-67.47 45.16-96.16c19.92-19.13 31.08-21.52 33.47-7.17c-7.17 16.74-11.95 34.67 0 25.1c7.97-6.38 18.33-15.14 31.08-26.3c2.39-13.55 17.93-19.52 46.62-17.93c3.98-17.53 20.38-28.78 49.2-33.74c59.89 41.26 105.26 93.76 136.1 157.51z" />
				<g id="&lt;Group&gt;">
					<path id="&lt;Path&gt;" class="s20" d="m1247.64 801.5c-17.42-17.14-26.52-21.32-27.32-12.55c-0.79 8.77 9.56 26.7 31.08 53.79l-10.76 10.76c-3.59 2.39-38.25-44.23-41.84-62.16c-3.59-17.93-14.34 0-31.8-7.17c-17.46-7.17-14.81-1.19-26.77 4.78c-7.97 3.99-16.74 3.59-26.3-1.2l-13.15 9.56c3.19 9.56 13.95 11.95 32.28 7.17c27.49-7.17 75.3 1.19 60.96 26.3c-14.34 25.1-32.27 75.31-4.78 65.61c27.49-9.69 56.18 16.86 26.3 57.88c-29.89 41.02-75 137.81-42.89 130.17c32.11-7.64 114.61-74.36 85.38 9.11c-19.49 55.64-53.31 104.17-101.46 145.59c-61.37 52.14-151.41 6.43-152.09-11.5c-0.69-17.93-28-45.42-60.28-50.2c-32.27-4.78-60.96-13.15-65.74-45.43c-4.78-32.27 15.54-22.71 22.13-80.09c6.58-57.38 57.96-72.92 69.92-78.89c11.95-5.98 13.15 23.9 25.1 6.6c11.95-17.3 58.57-3.01 68.14-26.92c9.57-23.91 27.5-13.15 55.18-40.64c18.46-18.32 18.46-32.27 0-41.84c-21.39 8.77-39.78 7.17-55.18-4.78c11.95 47.02 5.98 57.33-17.93 30.95c-35.86-39.57-86.07-8.24-49.01 0c37.05 8.24 25.1 39.57 17.93 32.4c-7.17-7.17-39.45-25.1-46.62-2.39c-7.17 22.71-34.66 62.16-58.57 51.4c-23.91-10.76-25.1-43.04-8.96-40.64c16.15 2.39 42.42-28.69 29.28-34.67c-8.77-3.98-11.96-9.16-9.57-15.54c2.39-35.86 15.54-31.08 17.93-51.4c2.39-20.32 32.27-25.1 66.94-40.64c34.66-15.54 19.12-41.84 8.36-29.88c-10.76 11.96-17.93 3.59-38.25 2.39c-20.32-1.2 0 29.89-11.96 28.69c-11.95-1.2-43.03 23.91-43.03 0c0-23.91 8.37-62.16 38.26-90.85c19.92-19.13 31.08-21.52 33.47-7.17c-7.17 16.74-11.95 34.67 0 25.1c7.97-6.38 18.33-15.14 31.08-26.3c2.39-13.55 17.93-19.52 46.62-17.93c3.98-17.53 20.38-28.78 49.2-33.74c59.9 41.26 102.81 93.35 128.74 156.27z" />
					<path id="&lt;Path&gt;" class="s19" d="m1070.96 741.92c19.09 13.02 32.22 17.14 39.39 12.36c10.76-7.17-2.34 17.93-19.7 14.34c-17.36-3.59-32.79-10.37-19.7-26.7z" />
					<path id="&lt;Path&gt;" class="s22" d="m1071.56 739.16c19.09 13.02 32.22 17.14 39.39 12.36c10.76-7.17-2.33 17.93-19.69 14.34c-17.36-3.59-32.79-10.37-19.7-26.7z" />
					<path id="&lt;Path&gt;" class="s19" d="m1066.06 809.26c-8.43 7.17-9.5 20.32-16.68 27.49c-7.17 7.17-28.69 14.35-30.44 0c-1.17-9.56 8.98-20.32 30.44-32.27c18.12-13.67 25.1-2.39 16.68 4.78z" />
					<path id="&lt;Path&gt;" class="s22" d="m1063.04 805.85c-8.43 7.17-9.51 20.32-16.68 27.49c-7.17 7.17-28.69 14.35-30.44 0c-1.17-9.56 8.98-20.32 30.44-32.27c22.71-7.17 25.1-2.39 16.68 4.78z" />
					<path id="&lt;Path&gt;" class="s19" d="m1137.54 948.82c2.39 5.38 3.88 14.64 4.48 27.79c0.9 19.72-5.38 20.62-16.14 38.55c-10.76 17.93-17.93 22.41-17.93 30.49c0 8.07-22.41-4.49-7.17-32.28c15.24-27.79 32.99-58.59 30.48-70.82c-2.39-11.66-0.3-9.56 6.28 6.28z" />
					<path id="&lt;Path&gt;" class="s23" d="m1133.51 945.83c2.39 5.38 3.88 14.64 4.48 27.79c0.9 19.72-5.38 20.62-16.14 38.55c-10.76 17.93-17.93 22.41-17.93 30.48c0 8.07-22.41-4.48-7.17-32.27c15.24-27.8 26-59.17 30.48-70.83c2.99-7.77 5.08-5.68 6.28 6.28z" />
					<path id="&lt;Path&gt;" class="s19" d="m1070.54 1155.91c18.57 6.38 23.08 15.14 13.52 26.3c-14.34 16.73-26.3 19.13-29.89 0c-2.39-12.75-5.54-19.13-9.46-19.13c8.96-9.52 17.57-11.91 25.83-7.17z" />
					<path id="&lt;Path&gt;" class="s24" d="m1072.78 1154.12c18.57 6.38 23.08 15.14 13.52 26.3c-14.34 16.73-26.3 19.13-29.89 0c-2.39-12.75-5.54-19.13-9.46-19.13c8.96-9.52 17.57-11.91 25.83-7.17z" />
				</g>
				<path id="&lt;Path&gt;" class="s21" d="m1257.55 867.1c0 6.07-4.51 10.98-10.09 10.98c-5.57 0-6.85-5.85-10.08-10.98c-4.05-6.43 4.51-10.98 10.08-10.98c5.57 0 10.09 4.92 10.09 10.98z" />
				<path id="&lt;Path&gt;" class="s20" d="m1259.29 865.76c0 6.06-4.51 10.98-10.08 10.98c-5.57 0-6.86-5.85-10.09-10.98c-4.05-6.44 4.51-10.98 10.09-10.98c5.57 0 10.08 4.92 10.08 10.98z" />
				<path id="&lt;Path&gt;" class="s21" d="m763.7 749.47c-5.98 8.35-13.15 47.83-15.54 78.91c-2.39 31.08-16.74 22.71-29.89 32.27c-13.15 9.56 14.35-33.47 0-22.8c-14.34 10.67-17.93-5.89-21.52-20.85c-3.59-14.96-29.88 29.31-34.66 32.89c-4.78 3.59-17.93 22.71 4.78 26.3c22.71 3.59 8.37 22.71 3.59 29.88c-4.78 7.17-31.08 17.93-43.03 23.56c-11.95 5.63-23.91 1.54-40.64 32.62c-16.73 31.08 11.95 34.67 29.88 33.47c17.93-1.2 15.54-41.84 37.06-63.11c21.52-21.27 7.17-0.25 41.84 0c34.66 0.25 37.06 27.25 23.91 40.39c-13.15 13.15-16.74-13.14-33.47-10.76c-16.73 2.39-49.01 27.5-27.49 32.27c21.52 4.78 38.25 16.74 17.93 39.45c-20.32 22.71-81.29 10.76-41.84 45.42c39.45 34.67 83.67 11.96 130.29 2.39c46.62-9.56 81.28 5.98 81.28 27.5c0 21.52-4.78 44.23 26.66 80.4c31.44 36.18 96.47 36.74 89.3 84.56c-4.78 31.88-34.55 52.07-89.3 60.57c-57.02-2.77-116.31-97.63-121.09-83.29c-4.78 14.34-33.47 0-49.01-25.1c-15.54-25.1-49.01-33.47-57.38-17.93c-5.58 10.36-14.84 12.59-27.78 6.68c-77.89-80.42-112.26-175.6-103.09-285.54c0.02 28.94 48.4-7.42 57.36-21.77c8.96-14.34 68.13-32.27 78.89-59.08c7.17-17.87 30.48-46.87 69.93-86.99c13.79-14.5 49.01-20.68 43.03-12.33z" />
				<path id="&lt;Path&gt;" class="s19" d="m907.14 835.56c1.59 19.74-4.38 30.26-17.93 31.54c-20.32 1.93-7.17-23.89-27.49-10.98c-20.32 12.91-47.82 12.74-29.89-12.28c17.93-25.02 83.03-35.3 75.31-8.28z" />
				<path id="&lt;Path&gt;" class="s19" d="m809.12 821.79c-9.57 5.35-9.87 20.97-20.32 34.33c-10.45 13.36-26.3 24.86-28.69 9.64c-1.59-10.15 6.37-24.41 23.91-42.77c11.49-13.81 34.66-6.55 25.1-1.2z" />
				<path id="&lt;Path&gt;" class="s20" d="m908.93 831.01c1.59 19.74-4.38 30.26-17.93 31.54c-20.32 1.93-7.17-23.89-27.49-10.98c-20.32 12.91-47.82 12.74-29.89-12.28c17.93-25.01 83.03-35.3 75.31-8.28z" />
				<path id="&lt;Path&gt;" class="s20" d="m808 819.62c-9.56 5.35-9.87 20.97-20.32 34.33c-10.44 13.36-26.3 24.86-28.69 9.64c-1.59-10.15 6.37-24.41 23.91-42.77c11.49-13.81 34.67-6.55 25.1-1.2z" />
				<path id="&lt;Path&gt;" class="s19" d="m1073.53 1292.31c-9.48 7.12-34.56 18.01-75.23 32.67c6.28-2.7-32.15 7.75-29.16-9.87c2-11.74 18.77-23.7 50.31-35.86c48.95-18.83 68.29 2.37 54.08 13.05z" />
				<path id="&lt;Path&gt;" class="s25" d="m901.85 1044.02c114.52 82.99 219.53 89.71 315.05 20.17c26.63-14.58 41.52-17.34 44.67-8.29c4.73 13.57-4.01 80.4-100.92 179.56c-43.64 41.52-94.28 41.52-151.92 0c-2.82-1.5-4.46-5.6-4.94-12.32c-0.72-10.08-21.51-35.91-59.59-45.71c-32.21-4.29-51.07-12.12-56.56-23.5c-8.24-17.07-15.51-33.26-7.87-42.31c7.65-9.05 19.91-36.94 22.08-67.6z" />
				<g id="&lt;Group&gt;">
					<path id="&lt;Path&gt;" class="s20" d="m763.7 755.45c-5.98 8.35-13.15 47.83-15.54 78.91c-2.39 31.08-16.74 22.71-29.89 32.27c-13.15 9.57 14.35-33.47 0-22.8c-14.34 10.67-17.93-5.89-21.52-20.86c-3.59-14.96-29.88 29.31-34.66 32.89c-4.78 3.59-17.93 22.71 4.78 26.3c22.71 3.59 8.37 22.72 3.59 29.89c-4.78 7.17-31.08 17.93-43.03 23.55c-11.95 5.63-23.91 1.55-40.64 32.63c-16.73 31.07 11.95 34.66 29.88 33.47c17.93-1.2 15.54-41.84 37.06-63.11c21.52-21.27 7.17-0.25 41.84 0c34.66 0.25 37.06 27.25 23.91 40.39c-13.15 13.14-16.74-13.15-33.47-10.76c-16.73 2.38-49.01 27.49-27.49 32.27c21.52 4.78 38.25 16.73 17.93 39.45c-20.32 22.71-81.29 10.76-41.84 45.43c39.45 34.66 83.67 11.95 130.29 2.39c46.62-9.56 81.28 5.98 81.28 27.49c0 21.52-4.78 44.23 26.66 80.4c31.44 36.17 96.47 36.74 89.3 84.56c-4.78 31.88-34.55 52.07-89.3 60.58c-57.02-2.78-116.31-97.64-121.09-83.3c-4.78 14.35-33.47 0-49.01-25.1c-15.54-25.1-49.01-33.47-57.38-17.93c-5.58 10.36-14.84 12.59-27.78 6.68c-77.89-80.42-112.26-175.6-103.09-285.55c0.02 28.94 48.4-7.42 57.36-21.76c8.96-14.34 68.13-32.28 78.89-59.08c7.17-17.87 30.48-46.87 69.93-86.99c13.79-14.5 49.01-20.68 43.03-12.33z" />
					<path id="&lt;Path&gt;" class="s26" d="m579.02 926.41c-11.36 17.93-21.82 28.69-31.38 32.27c-14.34 5.38-17.93 40.34-8.07 64.55c9.86 24.21 63.65 153.3 86.07 157.79c22.41 4.48 53.79-13.72 79.79 14.66c26 28.38 96.82 91.31 135.37 67.46c25.7-15.9 38.01-36.7 36.93-62.4c11.48 10.27 25.52 19.11 42.14 26.53c24.93 11.13 45.67 27.62 42.81 44.74c-2.87 17.12 1.16 45.67-86.13 69.9c-11.68-0.25-26.38-5.61-44.11-16.08c-26.6-15.71-69.63-67.97-75.16-68.14c-3.68-0.11-6.62 1.77-8.8 5.64c-7.02 1.1-12.19 0.18-15.51-2.75c-4.98-4.4-19.18-7.84-30.23-28.16c-11.06-20.31-44.89-33.7-57.38-17.93c-3.78 10.1-13.04 12.33-27.78 6.68c-24.51-23.18-47.52-57.08-69.04-101.71c-32.27-66.94-37.09-158.94-34.77-180.85c2.36 7.81 7.17 10.21 14.45 7.22c10.91-4.49 35.84-19.35 44.37-32.98c8.53-13.63 47.68-29.14 53.03-32.78c5.35-3.64 20.73-19.75 28.14-31.48c7.4-11.73 76.91-116.79 110.57-94.33c-30.89 20.34-49.62 34.69-56.19 43.05c-9.86 12.55-41.24 35.41-61.41 72.17c-20.17 36.76-69.48 39-67.69 56.93z" />
				</g>
				<path id="&lt;Path&gt;" class="s27" d="m1068.09 1288.29c-9.47 7.12-34.55 18.01-75.23 32.67c6.28-2.69-32.15 7.75-29.15-9.86c2-11.74 18.77-23.7 50.31-35.86c48.95-18.83 68.29 2.37 54.07 13.05z" />
			</g>
			<g id="&lt;Group&gt;">
				<g id="&lt;Group&gt;" style="opacity: .7;mix-blend-mode: multiply">
					<path id="&lt;Path&gt;" class="s28" d="m637.83 1235.44l-5.73 42.14l-18.28-43.79l24.01 1.65z" />
					<path id="&lt;Path&gt;" class="s28" d="m632.83 1280.59l-58.02-49.49l64.23-188.55c2.92 4.22 4.1 8.11 3.54 11.67c-0.57 3.55-10.15 63.41-28.76 179.58l19.01 46.8z" />
					<path id="&lt;Path&gt;" class="s28" d="m706.09 1240.13l-92.26-6.35l29.08-181.63l63.18 187.97z" />
					<path id="&lt;Path&gt;" class="s28" d="m574.81 1231.1l-62.34 18.8l126.57-207.36l-64.23 188.55z" />
					<path id="&lt;Compound Path&gt;" fill-rule="evenodd" class="s28" d="m613.82 1233.79l13.25-86.31l13.53-86.15l-2.32-18.69l-0.92-7.37l2.4 7.03l16.88 49.36l16.65 49.44l33.28 98.88l0.25 0.74l-0.77-0.05c-30.75-2.13-61.49-4.56-92.23-6.87zm26.78-172.46l0.01 0.09l0.01-0.2l-0.02 0.11zm-26.78 172.46c30.51 1.91 61.03 3.7 91.52 5.78l-33.51-97.97l-16.88-49.36l-14.27-42.41l1.36 11.42l0.01 0.1l-0.02 0.1l-13.96 86.2l-14.25 86.15zm91.52 5.78l0.25 0.74l0.52-0.69c-0.26-0.02-0.52-0.04-0.78-0.05zm-64.66-189.74l-0.88-7.37l-1.49 0.33l2.37 7.04z" />
					<path id="&lt;Compound Path&gt;" fill-rule="evenodd" class="s28" d="m637.85 1234.99c-0.76 7.13-1.44 14.26-2.32 21.37c-0.81 7.12-1.68 14.23-2.63 21.33l-0.39 2.95l-1.16-2.74c-3.09-7.28-6.19-14.56-9.16-21.89c-3-7.32-6.04-14.62-8.92-21.98l-0.35-0.9l0.95 0.06c8.01 0.49 16 1.16 24 1.81zm0 0c-7.69-0.15-15.39-0.28-23.08-0.56c3.07 6.94 6 13.94 8.96 20.92c2.73 6.35 5.35 12.73 7.97 19.12c0.85-6.09 1.76-12.18 2.71-18.27c1.04-7.09 2.28-14.15 3.44-21.22zm-23.08-0.56c-0.13-0.29-0.26-0.59-0.39-0.88l-0.59 0.84c0.33 0.01 0.66 0.02 0.98 0.04zm16.93 40.04c-0.14 1-0.28 2-0.41 3l1.56-0.21c-0.38-0.93-0.76-1.86-1.14-2.79z" />
					<path id="&lt;Path&gt;" class="s28" d="m632.21 1280.12l-29.38-24.06l-29.22-24.25l-0.51-0.42l0.22-0.66c5.15-15.59 10.6-31.09 15.89-46.64c5.28-15.55 10.75-31.04 16.2-46.54c5.41-15.5 10.9-30.98 16.51-46.42c5.5-15.47 11.28-30.85 16.97-46.27c-5.08 15.62-10.07 31.27-15.34 46.83c-5.17 15.6-10.44 31.15-15.81 46.68c-5.32 15.53-10.63 31.08-16.12 46.56c-5.48 15.49-10.8 31.02-16.43 46.45l-0.29-1.08l28.74 24.81l28.58 25z" />
					<path id="&lt;Path&gt;" class="s28" d="m639.04 1042.54c-10.36 17.4-20.65 34.83-31.19 52.12l-31.44 51.96c-10.44 17.34-20.97 34.63-31.63 51.84l-31.85 51.71l-0.63-0.8l30.1-9.3l30.15-9.13l-29.94 9.82l-29.99 9.65l-1.38 0.45l0.76-1.25l31.44-51.96c10.43-17.36 21-34.62 31.65-51.83l31.85-51.71c10.56-17.27 21.36-34.39 32.1-51.56z" />
				</g>
				<g id="&lt;Group&gt;">
					<g id="&lt;Group&gt;">
						<path id="&lt;Path&gt;" class="s29" d="m616.83 1214.44l-5.73 42.14l-18.28-43.79l24.01 1.65z" />
						<path id="&lt;Path&gt;" class="s30" d="m611.83 1259.59l-58.02-49.49l64.23-188.55c2.92 4.22 4.1 8.11 3.54 11.67c-0.57 3.55-10.15 63.41-28.76 179.58l19.01 46.8z" />
						<path id="&lt;Path&gt;" class="s2" d="m685.09 1219.13l-92.26-6.35l29.08-181.63l63.18 187.97z" />
						<path id="&lt;Path&gt;" class="s2" d="m553.81 1210.1l-62.34 18.8l126.57-207.36l-64.23 188.55z" />
						<path id="&lt;Compound Path&gt;" fill-rule="evenodd" class="s31" d="m592.82 1212.79l13.25-86.31l13.53-86.15l-2.32-18.69l-0.92-7.37l2.4 7.03l16.88 49.36l16.65 49.44l33.28 98.88l0.25 0.74l-0.77-0.05c-30.75-2.13-61.49-4.56-92.23-6.87zm26.78-172.46l0.01 0.09l0.01-0.2l-0.02 0.11zm-26.78 172.46c30.51 1.91 61.03 3.7 91.52 5.78l-33.51-97.97l-16.88-49.36l-14.27-42.41l1.36 11.42l0.01 0.1l-0.02 0.1l-13.96 86.2l-14.25 86.15zm91.52 5.78l0.25 0.74l0.52-0.69c-0.26-0.02-0.52-0.04-0.78-0.05zm-64.66-189.74l-0.88-7.37l-1.49 0.33l2.37 7.04z" />
						<path id="&lt;Compound Path&gt;" fill-rule="evenodd" class="s31" d="m616.85 1213.99c-0.76 7.13-1.44 14.26-2.32 21.37c-0.81 7.12-1.68 14.23-2.63 21.33l-0.39 2.95l-1.16-2.74c-3.09-7.28-6.19-14.56-9.16-21.89c-3-7.32-6.04-14.62-8.92-21.98l-0.35-0.9l0.95 0.06c8.01 0.49 16 1.16 24 1.81zm0 0c-7.69-0.15-15.39-0.28-23.08-0.56c3.07 6.94 6 13.94 8.96 20.92c2.73 6.35 5.35 12.73 7.97 19.12c0.85-6.09 1.76-12.18 2.71-18.27c1.04-7.09 2.28-14.15 3.44-21.22zm-23.08-0.56c-0.13-0.29-0.26-0.59-0.39-0.88l-0.59 0.84c0.33 0.01 0.66 0.02 0.98 0.04zm16.93 40.04c-0.14 1-0.28 2-0.41 3l1.56-0.21c-0.38-0.93-0.76-1.86-1.14-2.79z" />
						<path id="&lt;Path&gt;" class="s32" d="m611.21 1259.12l-29.38-24.06l-29.22-24.25l-0.51-0.42l0.22-0.66c5.15-15.59 10.6-31.09 15.89-46.64c5.28-15.55 10.75-31.04 16.2-46.54c5.41-15.5 10.9-30.98 16.51-46.42c5.5-15.47 11.28-30.85 16.97-46.27c-5.08 15.62-10.07 31.27-15.34 46.83c-5.17 15.6-10.44 31.15-15.81 46.68c-5.32 15.53-10.63 31.08-16.12 46.56c-5.48 15.49-10.8 31.02-16.43 46.45l-0.29-1.08l28.74 24.81l28.58 25z" />
						<path id="&lt;Path&gt;" class="s31" d="m618.04 1021.54c-10.36 17.4-20.65 34.83-31.19 52.12l-31.44 51.96c-10.44 17.34-20.97 34.63-31.63 51.84l-31.85 51.71l-0.63-0.8l30.1-9.3l30.15-9.13l-29.94 9.82l-29.99 9.65l-1.38 0.45l0.76-1.25l31.44-51.96c10.43-17.36 21-34.62 31.65-51.83l31.85-51.71c10.56-17.27 21.36-34.39 32.1-51.56z" />
					</g>
				</g>
			</g>
			<path id="&lt;Path&gt;" class="s2" d="" />
			<g id="&lt;Group&gt;">
				<path id="&lt;Path&gt;" class="s15" d="m1018.86 1508.9l-1.52-7.01c90.18-19.61 152.88-61.94 181.33-122.4c21.42-45.51 16.07-85.52 16.01-85.91l7.1-1.01c0.24 1.72 5.69 42.54-16.63 89.97c-20.53 43.62-69.51 100.95-186.3 126.35z" />
				<path id="&lt;Path&gt;" class="s15" d="m977.81 1506.46c0.13 3.63-2.71 6.67-6.34 6.8c-3.63 0.13-6.68-2.71-6.8-6.34c-0.13-3.63 2.71-6.67 6.34-6.8c3.63-0.13 6.67 2.71 6.8 6.34z" />
				<path id="&lt;Path&gt;" class="s15" d="m943.77 1499.29c0.16 4.62-3.45 8.49-8.07 8.65c-4.62 0.16-8.49-3.45-8.65-8.07c-0.17-4.62 3.45-8.5 8.06-8.65c4.62-0.16 8.5 3.45 8.66 8.07z" />
				<path id="&lt;Path&gt;" class="s15" d="m914.24 1484.48c0.19 5.45-4.06 10.01-9.51 10.2c-5.44 0.19-10.01-4.06-10.2-9.5c-0.19-5.45 4.06-10.02 9.5-10.21c5.45-0.19 10.02 4.07 10.2 9.52z" />
			</g>
			<g id="&lt;Group&gt;">
				<g id="&lt;Group&gt;" style="opacity: .7;mix-blend-mode: multiply">
					<path id="&lt;Compound Path&gt;" fill-rule="evenodd" class="s33" d="m1397.18 1225.1l-237.19 142.07l-21.41-35.75l253.94-152.09l11.85 19.79l0.08 0.54c2.41 16.28-6.66 24.88-7.04 25.24l-0.23 0.21zm-235.09 134.28l231.63-138.74c1.15-1.2 6.67-7.69 5.11-19.49l-8.42-14.05l-243.98 146.14l15.66 26.14z" />
					<path id="&lt;Compound Path&gt;" fill-rule="evenodd" class="s33" d="m1164.96 1364.19l-134.02 80.27c-19.24 9.76-35.36-0.9-36.04-1.37l-0.5-0.34l-11.02-18.39l160.16-95.93l21.41 35.75zm-166.22 74.52c2.59 1.56 15.06 8.16 29.5 0.85l128.86-77.2l-15.66-26.13l-150.21 89.97l7.5 12.52z" />
					<path id="&lt;Compound Path&gt;" fill-rule="evenodd" class="s33" d="m1395.39 1184.13l-409.44 245.24l-100.93-168.49l409.44-245.24l100.92 168.49zm-407.33 237.45l399.47-239.28l-95.17-158.88l-399.47 239.28l95.17 158.88z" />
					<path id="&lt;Compound Path&gt;" fill-rule="evenodd" class="s33" d="m1297.03 1020.63l-253.93 152.1l-33.36-55.68l233.82-137.5c24.1-8.21 33.39 7.53 33.47 7.69l20 33.4zm-251.83 144.31l243.98-146.14l-17.15-28.63c-0.3-0.52-7.22-11.8-26.45-5.38l-227.95 134.12l27.57 46.04z" />
					<path id="&lt;Compound Path&gt;" fill-rule="evenodd" class="s33" d="m1048.08 1169.74l-160.23 95.98l-19.2-34.15c-7.75-19.09 9.79-35.53 10.53-36.23l0.49-0.36l135.06-80.9l33.35 55.67zm-158 88.11l150.14-89.93l-27.59-46.05l-129.79 77.74c-1.78 1.76-14.63 15.14-8.91 29.57l16.14 28.68z" />
					<path id="&lt;Path&gt;" class="s33" d="m1135.58 1043.12c2.14 3.56 1.96 7.6-0.4 9.01l-35.75 21.42c-2.36 1.41-6-0.34-8.14-3.9c-2.14-3.57-1.96-7.6 0.4-9.02l35.76-21.41c2.35-1.42 6 0.33 8.14 3.9z" />
					<path id="&lt;Path&gt;" class="s33" d="m958.66 1130.12c2.82 4.69 1.15 10.88-3.72 13.79l-30.5 18.27c-4.86 2.92-11.1 1.48-13.91-3.23c-2.81-4.69-1.15-10.86 3.72-13.79l30.5-18.26c4.87-2.92 11.1-1.47 13.92 3.23z" />
					<path id="&lt;Path&gt;" class="s33" d="m986.38 1130.99c4.02 6.71 3.5 14.44-1.18 17.23l-70.86 42.45c-4.68 2.8-11.72-0.38-15.75-7.1c-4.03-6.71-3.5-14.43 1.17-17.23l70.87-42.45c4.67-2.8 11.72 0.38 15.75 7.1z" />
					<path id="&lt;Path&gt;" class="s33" d="m971.35 1123.53c6.53-1.96 11.75 0.87 15.66 8.51c3.83 7.95 3.23 13.35-1.8 16.18l-38.53 23.08l-14.58-24.33l39.24-23.44z" />
					<path id="&lt;Path&gt;" class="s33" d="m1052.85 1182.66l-155.19 92.95l-8.39-14.01l155.19-92.96l8.39 14.02z" />
					<path id="&lt;Path&gt;" class="s33" d="m1301.81 1033.54l-248.96 149.12l-8.39-14.02l248.96-149.12l8.4 14.02z" />
					<path id="&lt;Path&gt;" class="s33" d="m1391.46 1183.21l-248.96 149.12l-89.65-149.68l248.96-149.12l89.65 149.68z" />
					<path id="&lt;Path&gt;" class="s33" d="m1142.5 1332.33l-155.18 92.95l-89.65-149.67l155.19-92.95l89.65 149.68z" />
					<path id="&lt;Path&gt;" class="s33" d="m1391.46 1183.21l10.14 16.92c1.48 10-0.57 17.57-6.13 22.72l-234.43 140.41l-18.54-30.94l248.96-149.12z" />
					<path id="&lt;Path&gt;" class="s33" d="m1142.5 1332.33l18.54 30.94l-131.54 78.79c-11.82 5.99-22.79 5.56-32.92-1.3l-9.27-15.48l155.18-92.95z" />
					<path id="&lt;Path&gt;" class="s33" d="m1244.73 982.02c14.75-5.02 24.78-2.87 30.09 6.46l18.59 31.04l-248.96 149.12l-30.47-50.86c133.94-78.8 209.87-123.48 227.79-134.02c1.28-0.76 2.27-1.34 2.95-1.75z" />
					<path id="&lt;Path&gt;" class="s33" d="m1044.46 1168.64l-155.19 92.96l-17.64-31.34c-4.74-11.68-1.47-22.7 9.79-33.07l132.57-79.41l30.47 50.86z" />
					<path id="&lt;Path&gt;" class="s33" d="m1327.1 1122.22c40.62 86.03-0.76 162.17-87.88 183.34c-58.08 14.11-102.41-4.69-133-56.38c5.97-26.43 79.59-68.75 220.88-126.96z" />
					<path id="&lt;Path&gt;" class="s33" d="m1318.82 1105.7c35.59 59.43 15.26 137.05-45.41 173.4c-60.67 36.33-138.7 17.63-174.3-41.8c-35.59-59.43-15.26-137.07 45.41-173.4c60.67-36.34 138.7-17.63 174.3 41.8z" />
					<path id="&lt;Path&gt;" class="s33" d="m1302.9 1115.84c29.32 48.95 12.4 113-37.78 143.06c-50.19 30.06-114.63 14.75-143.95-34.2c-29.32-48.94-12.4-112.99 37.79-143.05c50.18-30.06 114.64-14.75 143.95 34.2z" />
					<path id="&lt;Path&gt;" class="s33" d="m1254.88 1074.36c35.58 15.5 68.32 52.07 61.54 106.78c-4.52 36.47-21.62 62.39-51.3 77.75l-106.38-177.13c22.06-13.54 60.57-22.89 96.14-7.4z" />
					<path id="&lt;Path&gt;" class="s33" d="m1278.01 1126.53c21.57 36.01 8.62 83.43-28.91 105.91c-37.54 22.48-85.45 11.52-107.02-24.49c-21.57-36.01-8.63-83.43 28.91-105.91c37.54-22.49 85.45-11.53 107.02 24.49z" />
					<path id="&lt;Path&gt;" class="s33" d="m1272.2 1118.2c13.39 18.09 20.06 37.78 13.31 67.07c-4.5 19.54-16.59 35.24-36.29 47.09l-78.1-130.4c42.15-27.76 87.68-1.85 101.08 16.24z" />
					<path id="&lt;Path&gt;" class="s33" d="m1244.41 1146.69c11.46 19.13 4.68 44.26-15.14 56.14c-19.83 11.87-45.18 5.98-56.64-13.15c-11.46-19.13-4.68-44.26 15.14-56.13c19.82-11.88 45.18-5.99 56.64 13.14z" />
					<path id="&lt;Path&gt;" class="s34" d="m1179.5 1149.86c2.77 4.62 1.13 10.68-3.65 13.55c-4.78 2.86-10.9 1.45-13.66-3.17c-2.77-4.62-1.13-10.68 3.65-13.55c4.78-2.86 10.9-1.44 13.67 3.17z" />
					<path id="&lt;Path&gt;" class="s33" d="m1189.46 1132.59c5.65-3.64 40.95-14.93 56.53 16.73c10.38 21.11 5.29 38.66-15.27 52.64l-41.26-69.37z" />
					<path id="&lt;Path&gt;" class="s33" d="m986.58 1207c6.92 11.55 2.83 26.73-9.15 33.9c-11.97 7.17-27.29 3.62-34.21-7.94c-6.92-11.55-2.83-26.74 9.14-33.91c11.98-7.18 27.3-3.62 34.22 7.95z" />
					<path id="&lt;Path&gt;" class="s33" d="m981.58 1209.98c5.33 8.89 2.18 20.57-7.04 26.1c-9.21 5.52-21.01 2.78-26.33-6.12c-5.33-8.89-2.18-20.58 7.04-26.1c9.21-5.52 21-2.78 26.33 6.12z" />
				</g>
				<g id="&lt;Group&gt;">
					<g id="&lt;Group&gt;">
						<g id="&lt;Group&gt;">
							<path id="&lt;Compound Path&gt;" fill-rule="evenodd" class="s35" d="m1376.18 1204.1l-237.19 142.07l-21.41-35.75l253.94-152.09l11.85 19.79l0.08 0.54c2.41 16.28-6.66 24.88-7.04 25.24l-0.23 0.21zm-235.09 134.28l231.63-138.74c1.15-1.2 6.67-7.69 5.11-19.49l-8.42-14.05l-243.98 146.14l15.66 26.14z" />
							<path id="&lt;Compound Path&gt;" fill-rule="evenodd" class="s35" d="m1143.96 1343.19l-134.02 80.27c-19.24 9.76-35.36-0.9-36.04-1.37l-0.5-0.34l-11.02-18.39l160.16-95.93l21.41 35.75zm-166.22 74.52c2.59 1.56 15.06 8.16 29.5 0.85l128.86-77.2l-15.66-26.13l-150.21 89.97l7.5 12.52z" />
						</g>
						<path id="&lt;Compound Path&gt;" fill-rule="evenodd" class="s35" d="m1374.39 1163.13l-409.44 245.24l-100.93-168.49l409.44-245.24l100.92 168.49zm-407.33 237.45l399.47-239.28l-95.17-158.88l-399.47 239.28l95.17 158.88z" />
						<g id="&lt;Group&gt;">
							<path id="&lt;Compound Path&gt;" fill-rule="evenodd" class="s36" d="m1276.03 999.63l-253.93 152.1l-33.36-55.68l233.82-137.5c24.1-8.21 33.39 7.53 33.47 7.69l20 33.4zm-251.83 144.31l243.98-146.14l-17.15-28.63c-0.3-0.52-7.22-11.8-26.45-5.38l-227.95 134.12l27.57 46.04z" />
							<path id="&lt;Compound Path&gt;" fill-rule="evenodd" class="s36" d="m1027.08 1148.74l-160.23 95.98l-19.2-34.15c-7.75-19.09 9.79-35.53 10.53-36.23l0.49-0.36l135.06-80.9l33.35 55.67zm-158 88.11l150.14-89.93l-27.59-46.05l-129.79 77.74c-1.78 1.76-14.63 15.14-8.91 29.57l16.14 28.68z" />
						</g>
						<path id="&lt;Path&gt;" class="s37" d="m1114.58 1022.12c2.14 3.56 1.96 7.6-0.4 9.01l-35.75 21.42c-2.36 1.41-6-0.34-8.14-3.9c-2.14-3.57-1.96-7.6 0.4-9.02l35.76-21.41c2.35-1.42 6 0.33 8.14 3.9z" />
						<g id="&lt;Group&gt;">
							<g id="&lt;Group&gt;">
								<path id="&lt;Path&gt;" class="s38" d="m937.66 1109.12c2.82 4.69 1.15 10.88-3.72 13.79l-30.5 18.27c-4.86 2.92-11.1 1.48-13.91-3.23c-2.81-4.69-1.15-10.86 3.72-13.79l30.5-18.26c4.87-2.92 11.1-1.47 13.92 3.23z" />
							</g>
							<g id="&lt;Group&gt;">
								<path id="&lt;Path&gt;" class="s39" d="m965.38 1109.99c4.02 6.71 3.5 14.44-1.18 17.23l-70.86 42.45c-4.68 2.8-11.72-0.38-15.75-7.1c-4.03-6.71-3.5-14.43 1.17-17.23l70.87-42.45c4.67-2.8 11.72 0.38 15.75 7.1z" />
							</g>
							<path id="&lt;Path&gt;" class="s40" d="m950.35 1102.53c6.53-1.96 11.75 0.87 15.66 8.51c3.83 7.95 3.23 13.35-1.8 16.18l-38.53 23.08l-14.58-24.33l39.24-23.44z" />
						</g>
						<g id="&lt;Group&gt;">
							<path id="&lt;Path&gt;" class="s41" d="m1031.85 1161.66l-155.19 92.95l-8.39-14.01l155.19-92.96l8.39 14.02z" />
						</g>
						<path id="&lt;Path&gt;" class="s42" d="m1280.81 1012.54l-248.96 149.12l-8.39-14.02l248.96-149.12l8.4 14.02z" />
						<g id="&lt;Group&gt;">
							<path id="&lt;Path&gt;" class="s43" d="m1370.46 1162.21l-248.96 149.12l-89.65-149.68l248.96-149.12l89.65 149.68z" />
						</g>
						<g id="&lt;Group&gt;">
							<path id="&lt;Path&gt;" class="s44" d="m1121.5 1311.33l-155.18 92.95l-89.65-149.67l155.19-92.95l89.65 149.68z" />
						</g>
						<g id="&lt;Group&gt;">
							<path id="&lt;Path&gt;" class="s39" d="m1370.46 1162.21l10.14 16.92c1.48 10-0.57 17.57-6.13 22.72l-234.43 140.41l-18.54-30.94l248.96-149.12z" />
						</g>
						<g id="&lt;Group&gt;">
							<path id="&lt;Path&gt;" class="s45" d="m1121.5 1311.33l18.54 30.94l-131.54 78.79c-11.82 5.99-22.79 5.56-32.92-1.3l-9.27-15.48l155.18-92.95z" />
						</g>
						<g id="&lt;Group&gt;">
							<path id="&lt;Path&gt;" class="s39" d="m1223.73 961.02c14.75-5.02 24.78-2.87 30.09 6.46l18.59 31.04l-248.96 149.12l-30.47-50.86c133.94-78.8 209.87-123.48 227.79-134.02c1.28-0.76 2.27-1.34 2.95-1.75z" />
						</g>
						<g id="&lt;Group&gt;">
							<path id="&lt;Path&gt;" class="s45" d="m1023.46 1147.64l-155.19 92.96l-17.64-31.34c-4.74-11.68-1.47-22.7 9.79-33.07l132.57-79.41l30.47 50.86z" />
						</g>
						<g id="&lt;Group&gt;">
							<g id="&lt;Group&gt;" style="opacity: .5">
								<path id="&lt;Path&gt;" class="s46" d="m1306.1 1101.22c40.62 86.03-0.76 162.17-87.88 183.34c-58.08 14.11-102.41-4.69-133-56.38c5.97-26.43 79.59-68.75 220.88-126.96z" />
							</g>
							<g id="&lt;Group&gt;">
								<g id="&lt;Group&gt;">
									<g id="&lt;Group&gt;">
										<path id="&lt;Path&gt;" class="s45" d="m1297.82 1084.7c35.59 59.43 15.26 137.05-45.41 173.4c-60.67 36.33-138.7 17.63-174.3-41.8c-35.59-59.43-15.26-137.07 45.41-173.4c60.67-36.34 138.7-17.63 174.3 41.8z" />
									</g>
									<g id="&lt;Group&gt;">
										<path id="&lt;Path&gt;" class="s47" d="m1281.9 1094.84c29.32 48.95 12.4 113-37.78 143.06c-50.19 30.06-114.63 14.75-143.95-34.2c-29.32-48.94-12.4-112.99 37.79-143.05c50.18-30.06 114.64-14.75 143.95 34.2z" />
									</g>
									<g id="&lt;Group&gt;">
										<path id="&lt;Path&gt;" class="s48" d="m1233.88 1053.36c35.58 15.5 68.32 52.07 61.54 106.78c-4.52 36.47-21.62 62.39-51.3 77.75l-106.38-177.13c22.06-13.54 60.57-22.89 96.14-7.4z" />
									</g>
									<g id="&lt;Group&gt;">
										<g id="&lt;Group&gt;">
											<path id="&lt;Path&gt;" class="s46" d="m1257.01 1105.53c21.57 36.01 8.62 83.43-28.91 105.91c-37.54 22.48-85.45 11.52-107.02-24.49c-21.57-36.01-8.63-83.43 28.91-105.91c37.54-22.49 85.45-11.53 107.02 24.49z" />
										</g>
										<g id="&lt;Group&gt;">
											<path id="&lt;Path&gt;" class="s49" d="m1251.2 1097.2c13.39 18.09 20.06 37.78 13.31 67.07c-4.5 19.54-16.59 35.24-36.29 47.09l-78.1-130.4c42.15-27.76 87.68-1.85 101.08 16.24z" />
										</g>
										<g id="&lt;Group&gt;">
											<g id="&lt;Group&gt;">
												<path id="&lt;Path&gt;" class="s50" d="m1223.41 1125.69c11.46 19.13 4.68 44.26-15.14 56.14c-19.83 11.87-45.18 5.98-56.64-13.15c-11.46-19.13-4.68-44.26 15.14-56.13c19.82-11.88 45.18-5.99 56.64 13.14z" />
											</g>
											<path id="&lt;Path&gt;" class="s51" d="m1158.5 1128.86c2.77 4.62 1.13 10.68-3.65 13.55c-4.78 2.86-10.9 1.45-13.66-3.17c-2.77-4.62-1.13-10.68 3.65-13.55c4.78-2.86 10.9-1.44 13.67 3.17z" />
											<path id="&lt;Path&gt;" class="s52" d="m1168.46 1111.59c5.65-3.64 40.95-14.93 56.53 16.73c10.38 21.11 5.29 38.66-15.27 52.64l-41.26-69.37z" />
										</g>
									</g>
								</g>
								<g id="&lt;Group&gt;">
									<g id="&lt;Group&gt;">
										<path id="&lt;Path&gt;" class="s50" d="m965.58 1186c6.92 11.55 2.83 26.73-9.15 33.9c-11.97 7.17-27.29 3.62-34.21-7.94c-6.92-11.55-2.83-26.74 9.14-33.91c11.98-7.18 27.3-3.62 34.22 7.95z" />
									</g>
									<g id="&lt;Group&gt;">
										<path id="&lt;Path&gt;" class="s53" d="m960.58 1188.98c5.33 8.89 2.18 20.57-7.04 26.1c-9.21 5.52-21.01 2.78-26.33-6.12c-5.33-8.89-2.18-20.58 7.04-26.1c9.21-5.52 21-2.78 26.33 6.12z" />
									</g>
								</g>
							</g>
						</g>
					</g>
				</g>
			</g>
		</g>
	</g>
</svg>