<svg version="1.2" baseProfile="tiny-ps" xmlns="http://www.w3.org/2000/svg" viewBox="0 0 1440 1440" width="171" height="171">
	<title>visitors_book-ai</title>
	<style>
		tspan { white-space:pre }
		.s0 { fill: none;stroke: #ffabf5;stroke-linecap:round;stroke-linejoin:round;stroke-width: 20;stroke-dasharray: 419,40,0,40,838,40 } 
		.s1 { fill: none;stroke: #ffb630;stroke-linecap:round;stroke-linejoin:round;stroke-width: 20;stroke-dasharray: 419,40,0,40,838,40 } 
		.s2 { fill: none;stroke: #9ffcff;stroke-linecap:round;stroke-linejoin:round;stroke-width: 20;stroke-dasharray: 419,40,0,40,838,40 } 
		.s3 { fill: none;stroke: #7459ff;stroke-linecap:round;stroke-linejoin:round;stroke-width: 20;stroke-dasharray: 419,40,0,40,838,40 } 
		.s4 { fill: #b5ffa1 } 
		.s5 { fill: none;stroke: #231815;stroke-linecap:round;stroke-linejoin:round;stroke-width: 20;stroke-dasharray: 419,40,0,40,838,40 } 
		.s6 { fill: #7459ff } 
		.s7 { fill: none;stroke: #ffffff;stroke-linecap:round;stroke-linejoin:round;stroke-width: 20;stroke-dasharray: 100,40,0,40,838,40 } 
		.s8 { fill: #ffabf5 } 
		.s9 { fill: #ffc09f } 
		.s10 { fill: #ffb630 } 
		.s11 { fill: #6cafff } 
		.s12 { fill: none;stroke: #ffffff;stroke-linecap:round;stroke-linejoin:round;stroke-width: 20;stroke-dasharray: 219,40,0,40,838,40 } 
	</style>
	<g id="装饰">
		<g id="&lt;Group&gt;">
			<path id="&lt;Path&gt;" class="s0" d="m1103.56 153.27l62.54-2.55" />
			<path id="&lt;Path&gt;" class="s0" d="m1133.56 120.73l2.55 62.54" />
		</g>
		<g id="&lt;Group&gt;">
			<path id="&lt;Path&gt;" class="s1" d="m98.91 1186.29l48.32 39.78" />
			<path id="&lt;Path&gt;" class="s1" d="m142.96 1182.02l-39.78 48.32" />
		</g>
		<path id="&lt;Path&gt;" class="s2" d="m1338 293c0 18.23-14.77 33-33 33c-18.23 0-33-14.77-33-33c0-18.23 14.77-33 33-33c18.23 0 33 14.77 33 33z" />
		<path id="&lt;Path&gt;" class="s1" d="m1107.4 326l53-53" />
		<path id="&lt;Path&gt;" class="s3" d="m207.89 1361.07l53-53" />
		<path id="&lt;Path&gt;" class="s0" d="m75.84 1396.37l-41.6-56.87l70.05-7.59l-28.45 64.46z" />
	</g>
	<g id="钢笔">
		<path id="&lt;Path&gt;" class="s4" d="m1156.11 1132.69c-4.15 18.03-27.95 46.78-71.41 86.26c-21.83-54.51-30.66-90.77-26.51-108.8c6.22-27.04 33.19-43.92 60.23-37.69c27.04 6.22 43.92 33.19 37.69 60.23z" />
		<path id="&lt;Path&gt;" class="s5" d="m1156.11 1132.69c-4.15 18.03-27.95 46.78-71.41 86.26c-21.83-54.51-30.66-90.77-26.51-108.8c6.22-27.04 33.19-43.92 60.23-37.69c27.04 6.22 43.92 33.19 37.69 60.23z" />
		<path id="&lt;Path&gt;" class="s5" d="m1114.54 1145.76c-1.27 5.5-6.75 8.93-12.24 7.66c-5.5-1.27-8.93-6.75-7.66-12.24c1.27-5.5 6.75-8.93 12.24-7.66c5.5 1.27 8.93 6.75 7.66 12.24z" />
		<path id="&lt;Path&gt;" class="s5" d="m1090.75 1203.57l13.2-57.32" />
		<path id="&lt;Path&gt;" class="s6" d="m1271.68 450.52l16.02 3.69c23.86 5.49 38.75 29.29 33.26 53.15l-127.7 554.76c-5.49 23.86-29.29 38.75-53.15 33.26l-16.02-3.69c-23.86-5.49-38.75-29.29-33.26-53.15l127.7-554.76c5.49-23.86 29.29-38.75 53.15-33.26z" />
		<path id="&lt;Path&gt;" class="s5" d="m1255.67 444.51l16.02 3.69c23.86 5.49 38.75 29.29 33.26 53.15l-127.7 554.76c-5.49 23.86-29.29 38.75-53.15 33.26l-16.02-3.69c-23.86-5.49-38.75-29.29-33.26-53.15l127.7-554.76c5.49-23.86 29.29-38.75 53.15-33.26z" />
		<path id="&lt;Path&gt;" class="s6" d="m1285.42 735.7l-130.57-30.06l56.63-246.01c5.16-22.42 27.53-36.42 49.95-31.26l49.36 11.36c22.42 5.16 36.42 27.53 31.26 49.95l-9.17 39.83l-47.46 206.19z" />
		<path id="&lt;Path&gt;" class="s5" d="m1265.4 735.7l-130.57-30.06l56.63-246.01c5.16-22.42 27.53-36.42 49.95-31.26l49.36 11.36c22.42 5.16 36.42 27.53 31.26 49.95l-9.17 39.83l-47.46 206.19z" />
		<path id="&lt;Path&gt;" class="s5" d="m1312.87 529.51l17.52 4.03c8.79 2.02 14.27 10.79 12.25 19.58l-51.86 225.3" />
		<path id="&lt;Path&gt;" class="s5" d="m1114.83 858.09l69.53 16.01" />
		<path id="&lt;Path&gt;" class="s7" d="m1280.87 498.49l-38.67 178.67" />
	</g>
	<g id="书">
		<path id="&lt;Path&gt;" class="s8" d="m953.34 427.35l-107.65 11.67c-16.62 1.8-31.55-10.21-33.35-26.83l-3.1-28.64c-1.8-16.62 10.21-31.55 26.83-33.35l107.65-11.67c16.62-1.8 31.55 10.21 33.35 26.83l3.1 28.64c1.8 16.62-10.21 31.55-26.83 33.35z" />
		<path id="&lt;Path&gt;" class="s4" d="m966.19 545.99l-107.65 11.67c-16.62 1.8-31.55-10.21-33.35-26.83l-3.1-28.64c-1.8-16.62 10.21-31.55 26.83-33.35l107.65-11.67c16.62-1.8 31.55 10.21 33.35 26.83l3.1 28.64c1.8 16.62-10.21 31.55-26.83 33.35z" />
		<path id="&lt;Path&gt;" class="s9" d="m980.41 677.22l-107.65 11.67c-16.62 1.8-31.55-10.21-33.35-26.83l-3.1-28.64c-1.8-16.62 10.21-31.55 26.83-33.35l107.65-11.67c16.62-1.8 31.55 10.21 33.35 26.83l3.1 28.64c1.8 16.62-10.21 31.55-26.83 33.35z" />
		<path id="&lt;Path&gt;" class="s10" d="m935.04 1218.81l-639.05 69.25c-24.41 2.64-46.33-15-48.98-39.4l-92.76-856c-2.64-24.41 15-46.33 39.4-48.98l639.05-69.25c24.41-2.64 46.33 15 48.98 39.4l92.76 856c2.64 24.41-15 46.33-39.4 48.98z" />
		<path id="&lt;Path&gt;" class="s11" d="m207.06 566.56l-99.42 10.77c-13.12 1.42-25.02-8.15-26.45-21.27l-0.86-7.95c-1.42-13.12 8.15-25.02 21.27-26.45l99.42-10.77c13.12-1.42 25.02 8.15 26.45 21.27l0.86 7.95c1.42 13.12-8.15 25.02-21.27 26.45z" />
		<path id="&lt;Path&gt;" class="s11" d="m226.31 744.19l-99.42 10.77c-13.12 1.42-25.02-8.15-26.45-21.27l-0.86-7.95c-1.42-13.12 8.15-25.02 21.27-26.45l99.42-10.77c13.12-1.42 25.02 8.15 26.45 21.27l0.86 7.95c1.42 13.12-8.15 25.02-21.27 26.45z" />
		<path id="&lt;Path&gt;" class="s11" d="m245.56 921.81l-99.42 10.77c-13.12 1.42-25.02-8.15-26.45-21.27l-0.86-7.95c-1.42-13.12 8.15-25.02 21.27-26.45l99.42-10.77c13.12-1.42 25.02 8.15 26.45 21.27l0.86 7.95c1.42 13.12-8.15 25.02-21.27 26.45z" />
		<path id="&lt;Path&gt;" class="s11" d="m264.81 1099.44l-99.42 10.77c-13.12 1.42-25.02-8.15-26.45-21.27l-0.86-7.95c-1.42-13.12 8.15-25.02 21.27-26.45l99.42-10.77c13.12-1.42 25.02 8.15 26.45 21.27l0.86 7.95c1.42 13.12-8.15 25.02-21.27 26.45z" />
		<path id="&lt;Path&gt;" class="s5" d="m903.06 1202.2l-639.05 69.25c-24.41 2.64-46.33-15-48.98-39.4l-92.76-856c-2.64-24.41 15-46.33 39.4-48.98l639.05-69.25c24.41-2.64 46.33 15 48.98 39.4l92.76 856c2.64 24.41-15 46.33-39.4 48.98z" />
		<path id="&lt;Path&gt;" class="s5" d="m202.87 565l-99.42 10.77c-13.12 1.42-25.02-8.15-26.45-21.27l-0.86-7.95c-1.42-13.12 8.15-25.02 21.27-26.45l99.42-10.77c13.12-1.42 25.02 8.15 26.45 21.27l0.86 7.95c1.42 13.12-8.15 25.02-21.27 26.45z" />
		<path id="&lt;Path&gt;" class="s5" d="m222.12 742.63l-99.42 10.77c-13.12 1.42-25.02-8.15-26.45-21.27l-0.86-7.95c-1.42-13.12 8.15-25.02 21.27-26.45l99.42-10.77c13.12-1.42 25.02 8.15 26.45 21.27l0.86 7.95c1.42 13.12-8.15 25.02-21.27 26.45z" />
		<path id="&lt;Path&gt;" class="s5" d="m241.37 920.25l-99.42 10.77c-13.12 1.42-25.02-8.15-26.45-21.27l-0.86-7.95c-1.42-13.12 8.15-25.02 21.27-26.45l99.42-10.77c13.12-1.42 25.02 8.15 26.45 21.27l0.86 7.95c1.42 13.12-8.15 25.02-21.27 26.45z" />
		<path id="&lt;Path&gt;" class="s5" d="m260.61 1097.88l-99.42 10.77c-13.12 1.42-25.02-8.15-26.45-21.27l-0.86-7.95c-1.42-13.12 8.15-25.02 21.27-26.45l99.42-10.77c13.12-1.42 25.02 8.15 26.45 21.27l0.86 7.95c1.42 13.12-8.15 25.02-21.27 26.45z" />
		<path id="&lt;Path&gt;" class="s11" d="m755.34 613.77l-381.77 41.37c-15.37 1.67-29.19-9.45-30.85-24.82l-8.62-79.53c-1.67-15.37 9.45-29.19 24.82-30.85l381.77-41.37c15.37-1.67 29.19 9.45 30.85 24.82l8.62 79.53c1.67 15.37-9.45 29.19-24.82 30.85z" />
		<path id="&lt;Path&gt;" class="s5" d="m836.5 635.15l52.77 486.96c2.64 24.41-15 46.33-39.4 48.98l-252.46 27.36" />
		<path id="&lt;Path&gt;" class="s12" d="m378.06 548.03l303.56-32.89" />
	</g>
</svg>