<svg version="1.2" baseProfile="tiny-ps" xmlns="http://www.w3.org/2000/svg" viewBox="0 0 1090 1090" width="171" height="171">
	<title>8803a3e45eff9256774569d6129ed0c8-ai</title>
	<style>
		tspan { white-space:pre }
		.s0 { fill: #ffffff } 
		.s1 { fill: #e0edff } 
		.s2 { fill: #c8c1f4 } 
		.s3 { fill: #00b388 } 
	</style>
	<g id="766">
		<g id="&lt;Group&gt;">
			<path id="&lt;Path&gt;" class="s0" d="m-256-243h1600v1600h-1600v-1600z" />
			<path id="&lt;Path&gt;" class="s1" d="m209.38 224.5c34.41-61.85 95.67-92.73 164.77-80.58c175.87 30.8 135.67-34.32 261.99-59.96c196.1-39.74 124.65 194.82 295.53 228.85c104.72 20.84 223.99 183.13 97 271.89c-144.83 101.14-84.07 171.83-166.68 283.77c-95.91 130.09-192.9 74.06-271.19 65.22c-83.07-9.39-165.16 99.86-270.84 42.08c-83.76-45.86-28.02-146.11-217.64-230.91c-105.44-47.21-128.61-207.26-39.83-278.84c137.92-111.26 92.5-143.73 146.88-241.51z" />
			<path id="&lt;Path&gt;" class="s2" d="m63.16 806.55c8.55 5.98 18.72 7.9 28.27 6.32c9.73-1.54 18.75-6.83 24.83-15.38c3.62-5.1 10.7-6.26 15.85-2.6c5.14 3.65 6.44 10.77 2.82 15.87c-6.08 8.55-8.11 18.81-6.35 28.51c1.63 9.72 7.02 18.75 15.67 24.9c5.14 3.65 6.38 10.72 2.76 15.81c-3.62 5.1-10.75 6.32-15.89 2.67c-8.64-6.14-18.95-8.26-28.67-6.61c-9.73 1.54-18.75 6.82-24.83 15.38c-3.62 5.09-10.76 6.21-15.91 2.55c-5.15-3.66-6.38-10.72-2.76-15.81c6.08-8.56 8.11-18.82 6.36-28.51c-1.66-9.54-6.81-18.5-15.27-24.62c-0.13-0.09-0.26-0.19-0.4-0.28c-5.14-3.65-6.33-10.79-2.71-15.88c3.62-5.1 10.7-6.26 15.84-2.6c0.13 0.09 0.27 0.19 0.4 0.28z" />
			<path id="&lt;Path&gt;" class="s2" d="m447.32 32.55c5.92 4.11 13.05 5.54 19.68 4.45c6.79-1.17 13.14-4.81 17.37-10.76c2.51-3.53 7.45-4.34 11.02-1.81c3.56 2.53 4.42 7.46 1.91 10.99c-4.22 5.94-5.57 13.15-4.44 19.94c1.17 6.73 5 13.09 11 17.35c3.56 2.53 4.42 7.46 1.87 11.05c-2.51 3.53-7.45 4.34-11.01 1.81c-6-4.26-13.31-5.72-20.05-4.61c-6.74 1.1-13.1 4.74-17.37 10.75c-2.51 3.53-7.45 4.34-11.01 1.81c-3.56-2.53-4.42-7.47-1.92-11c4.27-6.01 5.62-13.21 4.44-19.94c-1.15-6.62-4.8-12.95-10.63-17.18c-0.13-0.09-0.2-0.14-0.33-0.23c-3.56-2.53-4.42-7.47-1.92-11c2.55-3.59 7.5-4.4 11.06-1.87c0.13 0.09 0.2 0.14 0.33 0.23z" />
			<path id="&lt;Path&gt;" class="s3" d="m562.95 999.98c5.99 4.15 13.05 5.53 19.74 4.5c6.79-1.18 13.08-4.86 17.3-10.8c2.51-3.53 7.45-4.34 11.08-1.76c3.57 2.53 4.43 7.47 1.92 11c-4.22 5.95-5.57 13.14-4.44 19.94c1.17 6.73 4.93 13.04 10.94 17.3c3.63 2.58 4.49 7.51 1.94 11.1c-2.51 3.53-7.45 4.34-11.08 1.76c-6-4.26-13.24-5.67-19.99-4.56c-6.74 1.11-13.1 4.75-17.32 10.69c-2.55 3.59-7.5 4.4-11.06 1.88c-3.63-2.58-4.49-7.52-1.94-11.11c4.22-5.94 5.64-13.1 4.46-19.83c-1.22-6.67-4.79-12.95-10.69-17.23c-0.07-0.05-0.2-0.14-0.26-0.19c-3.57-2.53-4.49-7.52-1.98-11.04c2.55-3.59 7.56-4.36 11.13-1.82c0.06 0.04 0.2 0.14 0.26 0.19z" />
			<path id="&lt;Path&gt;" class="s2" d="m1006.83 679.15c7.21 4.93 15.66 6.6 23.64 5.29c8.2-1.34 15.77-5.7 20.87-12.88c3.02-4.25 8.91-5.27 13.26-2.18c4.29 3.05 5.33 8.99 2.31 13.24c-5.1 7.18-6.73 15.76-5.37 23.9c1.41 8.08 5.92 15.7 13.11 20.81c4.36 3.09 5.39 9.04 2.37 13.28c-3.02 4.25-8.97 5.23-13.33 2.13c-7.19-5.11-15.87-6.86-23.97-5.53c-8.13 1.39-15.7 5.75-20.8 12.94c-3.02 4.24-8.97 5.22-13.26 2.18c-4.36-3.1-5.32-8.99-2.31-13.24c5.11-7.19 6.73-15.76 5.3-23.95c-1.39-7.96-5.75-15.39-12.77-20.58c-0.14-0.09-0.2-0.14-0.33-0.23c-4.29-3.05-5.33-8.99-2.31-13.24c3.02-4.24 8.97-5.22 13.26-2.18c0.13 0.1 0.2 0.14 0.33 0.24z" />
			<path id="&lt;Path&gt;" class="s3" d="m852.82 150.92c7.68 5.26 16.72 7.06 25.26 5.66c8.66-1.42 16.68-6.14 22.11-13.79c3.25-4.57 9.61-5.56 14.16-2.32c4.61 3.28 5.71 9.56 2.46 14.13c-5.43 7.64-7.18 16.81-5.67 25.46c1.5 8.64 6.33 16.79 13.99 22.23c4.61 3.28 5.71 9.56 2.46 14.13c-3.2 4.51-9.54 5.61-14.16 2.32c-7.65-5.44-16.94-7.31-25.6-5.89c-8.65 1.42-16.74 6.09-22.17 13.73c-3.2 4.51-9.54 5.6-14.15 2.32c-4.55-3.23-5.67-9.63-2.47-14.13c5.43-7.64 7.25-16.77 5.74-25.4c-1.48-8.53-6.12-16.54-13.66-22c-0.13-0.1-0.26-0.19-0.39-0.28c-4.55-3.23-5.72-9.56-2.47-14.13c3.25-4.57 9.61-5.55 14.16-2.32c0.13 0.1 0.26 0.19 0.4 0.28z" />
			<path id="&lt;Path&gt;" class="s3" d="m36.13 350.56c5.13 3.54 11.29 4.78 17.14 3.82c5.84-0.96 11.29-4.16 14.96-9.32c2.23-3.14 6.57-3.79 9.67-1.59c3.1 2.2 3.84 6.47 1.62 9.6c-3.67 5.16-4.83 11.41-3.82 17.24c1.04 5.95 4.3 11.41 9.51 15.11c3.1 2.2 3.91 6.52 1.68 9.65c-2.18 3.07-6.52 3.72-9.62 1.52c-5.21-3.7-11.49-4.92-17.4-4.01c-5.85 0.96-11.41 4.18-15.08 9.34c-2.18 3.07-6.45 3.77-9.55 1.57c-3.1-2.21-3.91-6.51-1.73-9.59c3.67-5.16 4.94-11.43 3.93-17.26c-1.07-5.77-4.22-11.25-9.25-14.93c-0.13-0.09-0.2-0.14-0.26-0.19c-3.17-2.25-3.91-6.51-1.73-9.58c2.23-3.14 6.5-3.84 9.66-1.59c0.07 0.05 0.13 0.09 0.26 0.19z" />
		</g>
		<g id="&lt;Group&gt;">
			<g id="&lt;Group&gt;">
				<path id="&lt;Path&gt;" class="s3" d="m613.33 490.04c0 33.61-27.34 60.95-60.96 60.95c-33.59 0-60.91-27.34-60.91-60.95c0-33.58 27.32-60.91 60.91-60.91c33.61 0 60.96 27.33 60.96 60.91z" />
				<path id="&lt;Compound Path&gt;" fill-rule="evenodd" class="s3" d="m755.04 607.1c-10.19 17.64-28.43 29.03-48.79 30.4c-3.48 0.23-6.26 3.09-6.49 6.57c-1.37 20.36-12.72 38.76-30.36 48.95c-6.95 4.02-14.6 5.98-22.48 7.98c-0.01 0-0.02 0-0.03 0c-1.14 0-2.29-0.06-3.44 0.02c-0.31 0.02-0.63-0.27-0.94-0.26c-1.03 0.06-2.07 0.1-3.11 0.1c-0.13 0-0.26 0.01-0.39 0.01c-9.09 0-18.22-2.08-26.45-6c-0.21-0.1-0.42-0.19-0.63-0.29c-1.96-0.96-4.19-0.93-6.05-0.05c-0.09 0.04-0.16 0.1-0.25 0.14c-0.28 0.14-0.56 0.29-0.82 0.48c-0.09 0.06-0.16 0.14-0.25 0.21c-0.24 0.19-0.49 0.38-0.71 0.61c-0.29 0.3-0.57 0.64-0.81 1c-11.31 16.94-30.25 27.06-50.67 27.06c-20.38 0-39.32-10.12-50.68-27.07c-0.22-0.32-0.46-0.62-0.72-0.89c-0.07-0.07-0.14-0.14-0.21-0.21c-0.24-0.23-0.49-0.45-0.75-0.64c-0.04-0.03-0.07-0.06-0.11-0.09c-0.3-0.21-0.62-0.39-0.94-0.55c-0.08-0.04-0.17-0.08-0.26-0.12c-0.28-0.12-0.56-0.23-0.85-0.31c-0.07-0.02-0.13-0.04-0.2-0.06c-0.35-0.09-0.7-0.15-1.06-0.19c-0.09-0.01-0.18-0.01-0.27-0.02c-0.14-0.01-0.29-0.03-0.43-0.03c-0.17 0-0.33 0.02-0.5 0.03c-0.06 0-0.13 0-0.19 0.01c-0.36 0.04-0.72 0.11-1.07 0.2c-0.08 0.02-0.15 0.04-0.23 0.07c-0.37 0.11-0.73 0.24-1.08 0.41c-0.25 0.12-0.5 0.23-0.76 0.35c-8.2 3.88-17.27 5.94-26.3 5.94c-0.15 0-0.29-0.01-0.44-0.01c-1.02-0.01-2.04-0.04-3.05-0.1c-0.33-0.02-0.66-0.04-0.99-0.06c-1.12-0.08-2.23-0.19-3.34-0.33c-0.04-0.01-0.08-0.01-0.12-0.01c-7.86-1.05-15.5-3.64-22.43-7.66c-17.68-10.21-29.03-28.45-30.36-48.78c-0.23-3.49-3.01-6.28-6.5-6.51c-20.39-1.37-38.65-12.72-48.83-30.36c-10.18-17.63-10.87-39.11-1.84-57.47c1.55-3.14 0.52-6.95-2.4-8.89c-16.97-11.3-27.1-30.24-27.1-50.66c0-20.38 10.13-39.33 27.11-50.67c2.91-1.95 3.93-5.74 2.39-8.88c-9.03-18.36-8.34-39.82 1.84-57.42c10.21-17.69 28.46-29.03 48.82-30.35c3.5-0.23 6.28-3.01 6.51-6.51c1.32-20.36 12.67-38.61 30.36-48.82c9.22-5.34 19.7-8.16 30.31-8.16c9.33 0 18.7 2.18 27.1 6.31c3.14 1.54 6.94 0.53 8.88-2.38c11.34-16.97 30.29-27.11 50.67-27.11c20.43 0 39.37 10.13 50.66 27.1c1.94 2.92 5.74 3.94 8.89 2.39c8.4-4.13 17.77-6.31 27.11-6.31c10.62 0 21.12 2.82 30.36 8.16c17.64 10.19 28.99 28.44 30.36 48.84c0.24 3.49 3.02 6.27 6.51 6.5c20.33 1.32 38.56 12.67 48.78 30.36c10.2 17.62 10.9 39.08 1.89 57.41c-1.54 3.14-0.53 6.93 2.38 8.88c16.95 11.35 27.07 30.3 27.07 50.67c0 20.42-10.12 39.36-27.06 50.67c-2.91 1.94-3.93 5.74-2.39 8.89c9.01 18.33 8.31 39.85-1.89 57.51zm-44.19-117.06c0-87.36-71.09-158.43-158.48-158.43c-87.36 0-158.43 71.07-158.43 158.43c0 87.38 71.07 158.48 158.43 158.48c87.38 0 158.48-71.09 158.48-158.48z" />
				<path id="&lt;Path&gt;" class="s3" d="m544.86 737.57c0.28 0.03 1.14 0.07 1.14 0.1v70.05l-96 50.89v-145.79c0 0.38 2.51 0.7 4.16 0.97c0.08 0.02-0.43 0.03-0.35 0.05c0.43 0.07 0.8 0.13 1.24 0.19c0.59 0.09 1.14 0.17 1.73 0.24c0.13 0.02 0.25 0.03 0.38 0.05c2.87 0.34 5.75 0.52 8.64 0.52c6.54 0 13.09-0.89 19.42-2.59c0.1-0.03 0.2-0.05 0.3-0.08c0.78-0.21 1.56-0.44 2.34-0.68c0.31-0.09 0.62-0.19 0.93-0.29c0.65-0.21 1.3-0.41 1.94-0.64c0.6-0.21 1.2-0.44 1.8-0.66c0.35-0.13 0.71-0.25 1.06-0.39c0.85 1.07 1.72 2.12 2.62 3.13c0.26 0.3 0.54 0.59 0.81 0.88c0.64 0.7 1.29 1.4 1.95 2.08c0.35 0.36 0.71 0.69 1.06 1.04c0.61 0.6 1.22 1.19 1.85 1.76c0.39 0.36 0.79 0.71 1.19 1.05c0.61 0.54 1.23 1.07 1.86 1.58c0.42 0.35 0.85 0.69 1.28 1.02c0.63 0.49 1.27 0.97 1.91 1.45c0.44 0.32 0.88 0.64 1.33 0.96c0.66 0.46 1.32 0.9 2 1.34c0.45 0.29 0.9 0.59 1.35 0.87c0.7 0.44 1.42 0.86 2.14 1.27c0.44 0.25 0.87 0.52 1.31 0.76c0.8 0.44 1.62 0.86 2.44 1.27c0.37 0.19 0.73 0.38 1.1 0.56c1.19 0.57 2.4 1.12 3.63 1.63c0.19 0.08 0.38 0.14 0.57 0.22c1.04 0.43 2.09 0.84 3.15 1.22c0.46 0.16 0.92 0.3 1.38 0.46c0.8 0.27 1.61 0.54 2.42 0.78c0.53 0.16 1.07 0.3 1.6 0.44c0.76 0.21 1.52 0.41 2.28 0.6c0.56 0.14 1.13 0.26 1.7 0.38c0.75 0.16 1.5 0.32 2.25 0.46c0.58 0.11 1.17 0.21 1.75 0.3c0.75 0.12 1.51 0.22 2.27 0.32c0.59 0.07 1.48 0.15 2.07 0.21z" />
				<path id="&lt;Path&gt;" class="s3" d="m651.11 713.82c1.68-0.28 2.89-0.6 4.89-1v145.79l-96-50.89v-70.05c0-0.03 0.27-0.07 0.57-0.1c0.56-0.06 0.79-0.13 1.34-0.2c0.8-0.1 1.59-0.21 2.38-0.34c0.56-0.09 1.12-0.18 1.67-0.28c0.78-0.14 1.56-0.3 2.33-0.47c0.55-0.12 1.09-0.23 1.63-0.37c0.79-0.19 1.56-0.4 2.34-0.61c0.52-0.14 1.04-0.28 1.55-0.43c0.82-0.24 1.63-0.52 2.45-0.79c0.46-0.15 0.92-0.29 1.37-0.46c1.04-0.37 2.06-0.77 3.09-1.19c0.21-0.09 0.43-0.16 0.64-0.25c1.22-0.51 2.42-1.05 3.6-1.63c0.42-0.2 0.82-0.43 1.24-0.63c0.77-0.39 1.55-0.78 2.31-1.2c0.48-0.26 0.94-0.54 1.41-0.82c0.68-0.39 1.36-0.79 2.03-1.2c0.49-0.3 0.96-0.62 1.44-0.93c0.64-0.42 1.27-0.84 1.9-1.28c0.48-0.33 0.95-0.67 1.42-1.02c0.61-0.45 1.22-0.91 1.82-1.38c0.46-0.36 0.91-0.72 1.36-1.09c0.6-0.49 1.18-0.99 1.77-1.5c0.43-0.37 0.85-0.74 1.27-1.13c0.6-0.54 1.18-1.11 1.76-1.67c0.38-0.38 0.77-0.74 1.14-1.12c0.63-0.65 1.24-1.31 1.85-1.98c0.3-0.33 0.61-0.64 0.9-0.98c0.89-1.01 1.77-2.05 2.61-3.12c0.32 0.13 0.64 0.23 0.95 0.35c0.64 0.24 1.28 0.49 1.92 0.71c0.62 0.21 1.24 0.41 1.87 0.62c0.33 0.11 0.67 0.21 1 0.32c0.76 0.23 1.52 0.45 2.28 0.66c0.12 0.03 0.25 0.06 0.37 0.1c6.32 1.69 12.86 2.58 19.39 2.58c2.88 0 5.74-0.18 8.58-0.51c0.18-0.02 0.36-0.04 0.54-0.06c0.54-0.07 1.08-0.14 1.61-0.22c0.47-0.07 0.95-0.14 1.42-0.21c0.04 0-0.05-0.01-0.01-0.02z" />
				<path id="&lt;Compound Path&gt;" fill-rule="evenodd" class="s3" d="m696.89 490.04c0 79.69-64.83 144.52-144.52 144.52c-79.66 0-144.47-64.83-144.47-144.52c0-79.66 64.81-144.47 144.47-144.47c79.69 0 144.52 64.81 144.52 144.47zm-69.61 0c0-41.28-33.61-74.87-74.91-74.87c-41.28 0-74.87 33.59-74.87 74.87c0 41.31 33.59 74.91 74.87 74.91c41.31 0 74.91-33.6 74.91-74.91z" />
				<path id="&lt;Path&gt;" class="s3" d="m313.68 742.15c0 11.54-9.39 20.94-20.94 20.94c-11.54 0-20.94-9.39-20.94-20.94c0-11.55 9.39-20.94 20.94-20.94c11.55 0 20.94 9.39 20.94 20.94z" />
				<path id="&lt;Path&gt;" class="s3" d="m816.19 784.02c0 19.24-15.65 34.9-34.9 34.9c-19.24 0-34.9-15.65-34.9-34.9c0-19.24 15.65-34.9 34.9-34.9c19.24 0 34.9 15.65 34.9 34.9z" />
			</g>
		</g>
	</g>
	<g id="Layer 1">
	</g>
</svg>