
        <svg xmlns="http://www.w3.org/2000/svg" xmlns:xlink="http://www.w3.org/1999/xlink" version="1.1" width="3162.1621621621625" 
        height="728.7658628240423" viewBox="0 0 3162.1621621621625 728.7658628240423">
			
			<g transform="scale(8.108108108108109) translate(10, 10)">
				<defs id="SvgjsDefs1389"></defs><g id="SvgjsG1390" featureKey="symbolFeature-0" transform="matrix(0.7207954593305014,0,0,0.7207954593305014,-1.0163957273159783,-1.0992134879214848)" fill="#318ff3"><path xmlns="http://www.w3.org/2000/svg" d="M62.8,37.8v-3c0-0.3,0-0.6-0.1-0.9c0.9-0.5,1.6-0.9,1.8-1c0.1,0,0.1-0.1,0.1-0.1v-1.3c-0.3-0.6-0.5-1.2-0.6-1.8  c-0.2,0-0.5-0.3-0.7-1.3c-0.4-1.3,0-1.5,0.3-1.5c0,0,0,0,0.1,0c-0.3-0.7-0.3-1.4-0.1-2.1c0.2-0.8,0.6-1.4,1.1-1.8  c0.3-0.3,0.6-0.6,1-0.8c0.3-0.2,0.6-0.4,0.9-0.5l0,0c0.3-0.1,0.6-0.1,0.9-0.2c0.1,0,0.3,0,0.4,0c0.8,0,1.3,0.2,1.8,0.5  c0.8,0.4,1.1,1,1.1,1s1.9,0.1,1.1,4.2c0.3,0.1,0.4,0.4,0.1,1.5c-0.3,1-0.6,1.3-0.8,1.3c-0.1,0-0.1,0-0.1,0c-0.1,0.5-0.2,0.9-0.4,1.4  v1.5c0,0.1,0,0.1,0.1,0.1c0.5,0.2,2.9,1.5,5.2,3.3c0.4,0.3,0.6,0.8,0.6,1.4v2.5v9.3c0,1.4-0.5,2.8-1.4,3.8l-1.9,2.2l-1.7,21.8  c-0.1,0.8-0.7,1.4-1.5,1.4h-4.9c-0.8,0-1.4-0.6-1.5-1.4l-1.7-21.8l-0.8-0.9c1.1-1.5,1.6-3.4,1.6-5.3V37.8z M29.5,32.9  c-0.5,0.2-2.9,1.5-5.2,3.3c-0.4,0.3-0.6,0.8-0.6,1.4v2.5v9.3c0,1.4,0.5,2.7,1.4,3.8l1.9,2.2l1.7,21.8c0.1,0.8,0.7,1.4,1.5,1.4h4.9  c0.8,0,1.4-0.6,1.5-1.4l1.7-21.8l0.8-0.9c-1.1-1.5-1.6-3.4-1.6-5.2V37.8v-3c0-0.3,0-0.6,0.1-0.9c-0.9-0.5-1.6-0.9-1.8-1  c-0.1,0-0.1-0.1-0.1-0.1v-1.5c0.2-0.5,0.4-1,0.4-1.4c0,0,0.1,0,0.1,0c0.2,0,0.5-0.3,0.8-1.3c0.3-1.1,0.1-1.4-0.1-1.5  c0.8-4-1.1-4.2-1.1-4.2s-0.3-0.6-1.1-1c-0.4-0.3-1-0.5-1.8-0.5c-0.1,0-0.2,0-0.4,0c-0.3,0-0.6,0.1-0.9,0.2l0,0  c-0.3,0.1-0.7,0.3-0.9,0.5c-0.4,0.2-0.7,0.5-1,0.8c-0.5,0.5-0.9,1.1-1.1,1.8c-0.2,0.6-0.2,1.3,0.1,2.1c0,0,0,0-0.1,0  c-0.3,0-0.7,0.3-0.3,1.5c0.3,1,0.5,1.3,0.7,1.3c0.1,0.6,0.3,1.2,0.6,1.8v1.3C29.6,32.8,29.5,32.9,29.5,32.9z M20.8,20.8  c16.1-16.1,42.3-16.1,58.4,0l-3,3c-0.3,0.3-0.2,0.9,0.3,1l13.6,2.5c0.4,0.1,0.7-0.3,0.7-0.7L88.2,13c-0.1-0.4-0.6-0.6-1-0.3l-3,3  c-18.9-18.9-49.7-18.9-68.6,0c-11,11-16,26.6-13.6,42l7.1-1.1C7.2,43.5,11.5,30.1,20.8,20.8z M97.9,42.4l-7.1,1.1  c2.1,13-2.3,26.4-11.6,35.7c-16.1,16.1-42.3,16.1-58.4,0l3-3c0.3-0.3,0.1-0.9-0.3-1L9.9,72.7c-0.4-0.1-0.7,0.3-0.7,0.7L11.8,87  c0.1,0.4,0.6,0.6,1,0.3l3-3c18.9,18.9,49.7,18.9,68.6,0C95.3,73.4,100.4,57.7,97.9,42.4z M46.4,28.9v-1.5c-0.4-0.7-0.6-1.5-0.7-2.2  c-0.2,0-0.6-0.4-0.9-1.6c-0.5-1.7,0-1.9,0.5-1.9c0,0-1.2-3.9,1.7-5.6c0,0-0.5-0.4-0.5-1c0,0,2.7,0.3,4,0c1.3-0.3,2.7,0.8,3,1.8  c0,0,2.8-0.2,1.6,4.8c0,0,0,0.1-0.1,0.3l0.1,0c0.3,0.1,0.5,0.5,0.2,1.8c-0.5,1.6-0.9,1.7-1.1,1.5c-0.1,0.6-0.3,1.2-0.5,1.7  c0,0.8,0,1.5,0,1.8c0,0.1,0,0.1,0.1,0.2c0.6,0.3,3.6,1.8,6.3,4.1c0.5,0.4,0.8,1,0.8,1.7v3v11.3c0,1.7-0.6,3.4-1.7,4.7l-2.3,2.7  l-2.1,26.7c-0.1,0.9-0.9,1.7-1.8,1.7H47c-0.9,0-1.7-0.7-1.8-1.7l-2.1-26.7l-2.3-2.7c-1.1-1.3-1.7-2.9-1.7-4.6V37.8v-3  c0-0.6,0.3-1.3,0.8-1.7c2.8-2.3,5.7-3.8,6.3-4.1C46.4,29,46.4,29,46.4,28.9z M49.4,34l-1.1,9.3l1.7,1.9l1.7-1.9L50.6,34  c2.2-3.1-0.2-3.2-0.6-3.2h0h0C49.6,30.7,47.2,30.9,49.4,34z"></path></g><g id="SvgjsG1391" featureKey="nameFeature-0" transform="matrix(1.6790567091382285,0,0,1.6790567091382285,86.97769760329653,-7.663674146198808)" fill="#333333"><path d="M12 40.28 c-2.92 0 -5.48 -1.04 -7.16 -2.64 s-2.8 -3.64 -3.04 -5.84 l2.96 -0.56 c0.28 3.08 3 6.24 7.24 6.24 c2.64 0 6.96 -1.68 6.96 -6.28 c0 -1.68 -0.64 -3.04 -1.92 -4.08 c-1.24 -1 -2.92 -1.52 -5 -1.52 c-1.04 0 -1.96 0.16 -2.72 0.44 l-1.44 -2.44 l9.56 -9.96 l-14.96 0 l0 -2.8 l18.88 0 l0 2.68 l-9.04 9.28 c2.32 -0.08 4.44 0.48 6.28 1.8 c2.16 1.48 3.44 3.84 3.44 6.48 c0 1.8 -0.44 3.44 -1.36 4.84 c-0.92 1.44 -2.12 2.48 -3.64 3.24 s-3.2 1.12 -5.04 1.12 z M40.8 13.440000000000001 c-3.36 0 -6.16 1.32 -7.96 3.48 c-1.84 2.16 -3 5.04 -3.32 8.32 c0.92 -1.48 2.36 -2.64 3.84 -3.28 s2.88 -0.92 4.2 -0.92 c3 0 5.6 1.08 7.24 2.8 s2.56 4.04 2.56 6.52 c0 3.2 -1.32 5.88 -3.28 7.44 c-2 1.6 -4.44 2.48 -7.04 2.48 c-1.68 0 -3.36 -0.44 -5 -1.32 c-1.64 -0.92 -2.92 -2.08 -3.76 -3.56 c-0.68 -1.28 -1.16 -2.48 -1.44 -3.6 c-0.24 -1.16 -0.4 -2.64 -0.4 -4.44 c0 -4.64 1.32 -8.8 3.64 -11.88 c2.36 -3.04 6.16 -4.92 10.68 -4.92 c2.44 0 4.44 0.44 6 1.36 l-1.16 2.76 c-1.36 -0.84 -3.36 -1.24 -4.8 -1.24 z M37.120000000000005 23.72 c-1.84 0 -3.48 0.6 -4.92 1.76 c-1.44 1.2 -2.32 3.08 -2.32 5.04 c0 1.4 0.36 2.64 1.08 3.72 s1.6 1.88 2.68 2.4 c1.08 0.56 2.24 0.8 3.48 0.8 c3.68 0 7.24 -2.36 7.24 -6.96 c0 -1.88 -0.68 -3.44 -2 -4.76 s-3.08 -2 -5.24 -2 z M63.6 40.32 c-3.12 0 -5.84 -1.24 -7.72 -3.12 c-0.92 -1 -1.72 -2.08 -2.4 -3.36 c-1.32 -2.52 -1.96 -5.4 -1.96 -8.32 c-0.04 -4.32 1.56 -8.88 4.44 -11.8 c1.88 -1.92 4.64 -3.16 7.76 -3.16 s5.84 1.2 7.72 3.12 c0.92 0.96 1.72 2.08 2.4 3.32 c1.32 2.56 1.92 5.44 1.92 8.36 c0.08 4.36 -1.52 8.88 -4.4 11.76 c-1.88 1.96 -4.64 3.2 -7.76 3.2 z M66.96000000000001 14.120000000000001 c-1 -0.52 -2.12 -0.76 -3.32 -0.76 c-1.24 0 -2.32 0.24 -3.32 0.76 c-1.04 0.48 -1.88 1.12 -2.56 1.96 c-1.36 1.6 -2.36 3.84 -2.76 6.04 c-0.64 3.2 -0.4 6.56 1.04 9.76 c0.92 2.12 2.24 3.84 4.28 4.84 c1.04 0.52 2.12 0.76 3.36 0.76 c1.2 0 2.32 -0.24 3.32 -0.72 c1 -0.52 1.88 -1.16 2.56 -1.96 c1.36 -1.64 2.32 -3.84 2.76 -6 c0.64 -3.24 0.4 -6.6 -1.04 -9.8 c-0.96 -2.16 -2.28 -3.84 -4.32 -4.88 z M101.68 40 l0 -13.36 l-16.6 0 l0 13.36 l-3.08 0 l0 -29.16 l3.08 0 l0 12.92 l16.6 0 l0 -12.92 l3.08 0 l0 29.16 l-3.08 0 z M134.20000000000002 40 l-3.72 0 l-8.64 -11.8 l-5.92 0 l0 11.8 l-3.08 0 l0 -29.16 l10.12 0 c3.44 0 6.2 0.96 7.8 2.56 s2.44 3.6 2.44 5.96 c0 4.92 -3.68 7.76 -8 8.32 z M115.92000000000002 13.719999999999999 l0 11.68 l6.76 0 c2.56 0 4.56 -0.72 5.72 -1.88 c1.12 -1.12 1.68 -2.52 1.68 -4.08 c0 -2.88 -1.76 -5.72 -7.32 -5.72 l-6.84 0 z M139.64000000000001 40 l0 -29.16 l3.08 0 l0 29.16 l-3.08 0 z M158.88000000000002 40.28 c-2.76 0 -5.4 -1.04 -7.12 -2.56 c-1.8 -1.56 -2.96 -3.64 -3.2 -5.68 l2.88 -0.8 c0.32 1.72 1.2 3.16 2.64 4.36 c1.4 1.2 3 1.8 4.8 1.8 c1.68 0 3.24 -0.4 4.48 -1.28 c1.24 -0.84 2.04 -2.28 2.04 -4.04 c0 -2.04 -1.08 -3.36 -2.44 -4.16 c-0.96 -0.56 -1.8 -0.8 -2.76 -1 l-3.84 -0.76 c-0.8 -0.16 -1.64 -0.44 -2.56 -0.84 c-0.92 -0.44 -1.72 -0.96 -2.4 -1.64 c-1.36 -1.32 -2.04 -3 -2.04 -5.04 c0 -1.6 0.44 -3.04 1.32 -4.28 c0.88 -1.28 2 -2.2 3.4 -2.88 c1.4 -0.64 2.88 -0.96 4.52 -0.96 c6.28 0 9.04 3.88 9.64 7 l-2.8 0.88 c-0.48 -2.08 -2.36 -5.04 -6.88 -5.04 c-3.12 -0.08 -6.16 2.12 -6.12 5.16 c0 2.24 1.4 4.04 4.24 4.6 l3.68 0.72 c2.48 0.48 4.4 1.32 5.68 2.56 c0.88 0.8 1.52 1.72 1.92 2.68 c0.4 1 0.6 1.88 0.6 2.68 c0.04 5.12 -4.28 8.64 -9.68 8.52 z"></path></g>
			</g>
		</svg>
	